<svg width="33" height="33" viewBox="0 0 33 33" fill="none" xmlns="http://www.w3.org/2000/svg">
<circle cx="16.5" cy="16.5" r="16.5" fill="#D1F2F0"/>
<path d="M13.4314 8.37644L20.5603 15.4841C20.6449 15.5688 20.705 15.6604 20.7405 15.7591C20.776 15.8579 20.7935 15.9636 20.793 16.0764C20.793 16.1893 20.7755 16.295 20.7405 16.3937C20.7055 16.4925 20.6454 16.5841 20.5603 16.6688L13.4314 23.7976C13.234 23.995 12.9872 24.0938 12.691 24.0938C12.3949 24.0938 12.141 23.988 11.9295 23.7764C11.718 23.5649 11.6122 23.3181 11.6122 23.0361C11.6122 22.754 11.718 22.5072 11.9295 22.2957L18.1487 16.0764L11.9295 9.85721C11.7321 9.65978 11.6333 9.41637 11.6333 9.12698C11.6333 8.8376 11.7391 8.58742 11.9506 8.37644C12.1622 8.1649 12.409 8.05913 12.691 8.05913C12.9731 8.05913 13.2199 8.1649 13.4314 8.37644Z" fill="#19C1B6"/>
</svg>
