<svg width="264" height="77" viewBox="0 0 264 77" fill="none" xmlns="http://www.w3.org/2000/svg">
<rect width="264" height="77" rx="38.5" fill="#FEF8EC"/>
<path d="M87.836 42.05C88.0093 42.3793 88.096 42.674 88.096 42.934C88.1133 43.1767 88.044 43.3933 87.888 43.584C87.732 43.7573 87.472 43.9393 87.108 44.13C86.5533 44.39 86.12 44.4593 85.808 44.338C85.5133 44.2167 85.236 43.8787 84.976 43.324L79.178 31.078L73.406 43.324C73.146 43.8613 72.86 44.182 72.548 44.286C72.236 44.4073 71.8027 44.3467 71.248 44.104C70.9013 43.9307 70.6413 43.7487 70.468 43.558C70.312 43.3673 70.2427 43.142 70.26 42.882C70.2947 42.6047 70.4073 42.2753 70.598 41.894L77.748 26.996C77.8867 26.7187 78.086 26.502 78.346 26.346C78.6233 26.1727 78.9093 26.086 79.204 26.086C79.412 26.086 79.6027 26.1207 79.776 26.19C79.9493 26.2593 80.1053 26.3633 80.244 26.502C80.4 26.6407 80.53 26.814 80.634 27.022L87.836 42.05ZM74.55 39.528L75.798 36.85H82.584L83.832 39.528H74.55ZM96.8074 44.078C95.9581 44.078 95.1954 43.922 94.5194 43.61C93.8608 43.2807 93.2974 42.83 92.8294 42.258C92.3788 41.6687 92.0321 40.9927 91.7894 40.23C91.5641 39.4673 91.4514 38.644 91.4514 37.76C91.4688 36.876 91.5988 36.0527 91.8414 35.29C92.0841 34.51 92.4308 33.834 92.8814 33.262C93.3494 32.69 93.9128 32.2393 94.5714 31.91C95.2301 31.5807 95.9754 31.416 96.8074 31.416C97.6048 31.416 98.3501 31.5807 99.0434 31.91C99.7541 32.2393 100.378 32.6987 100.915 33.288C101.47 33.8773 101.903 34.562 102.215 35.342C102.527 36.1047 102.683 36.928 102.683 37.812C102.683 38.7133 102.527 39.5453 102.215 40.308C101.903 41.0707 101.479 41.738 100.941 42.31C100.404 42.8647 99.7801 43.298 99.0694 43.61C98.3588 43.922 97.6048 44.078 96.8074 44.078ZM91.6074 49.486C91.1394 49.486 90.7928 49.4167 90.5674 49.278C90.3421 49.1393 90.2034 48.9573 90.1514 48.732C90.0994 48.5067 90.0734 48.2467 90.0734 47.952V33.002C90.0734 32.7073 90.0994 32.4473 90.1514 32.222C90.2034 31.9967 90.3334 31.8147 90.5414 31.676C90.7668 31.52 91.1134 31.442 91.5814 31.442C92.0321 31.442 92.3874 31.5113 92.6474 31.65C92.9074 31.7887 93.0808 32.0227 93.1674 32.352V47.926C93.1848 48.2207 93.1588 48.4807 93.0894 48.706C93.0374 48.9487 92.8988 49.1393 92.6734 49.278C92.4481 49.4167 92.0928 49.486 91.6074 49.486ZM96.3914 41.166C96.9981 41.166 97.5441 41.0273 98.0294 40.75C98.5148 40.4553 98.8961 40.0567 99.1734 39.554C99.4681 39.034 99.6154 38.4533 99.6154 37.812C99.6154 37.1533 99.4681 36.5727 99.1734 36.07C98.8961 35.5673 98.5148 35.1773 98.0294 34.9C97.5441 34.6053 96.9981 34.458 96.3914 34.458C95.8021 34.458 95.2648 34.6053 94.7794 34.9C94.2941 35.1947 93.9041 35.5933 93.6094 36.096C93.3321 36.5813 93.1934 37.1533 93.1934 37.812C93.1934 38.4533 93.3321 39.034 93.6094 39.554C93.9041 40.0567 94.2941 40.4553 94.7794 40.75C95.2648 41.0273 95.8021 41.166 96.3914 41.166ZM109.872 44.26C109.23 44.26 108.658 44.2167 108.156 44.13C107.67 44.0433 107.246 43.896 106.882 43.688C106.535 43.48 106.249 43.2027 106.024 42.856C105.798 42.492 105.625 42.05 105.504 41.53C105.4 41.01 105.348 40.386 105.348 39.658V27.126C105.348 26.8313 105.374 26.5713 105.426 26.346C105.495 26.1033 105.634 25.9127 105.842 25.774C106.067 25.618 106.422 25.54 106.908 25.54C107.393 25.54 107.74 25.6093 107.948 25.748C108.173 25.8867 108.312 26.0773 108.364 26.32C108.433 26.5453 108.468 26.8053 108.468 27.1V39.528C108.468 39.8573 108.485 40.1347 108.52 40.36C108.572 40.568 108.65 40.7413 108.754 40.88C108.875 41.0013 109.022 41.088 109.196 41.14C109.386 41.192 109.612 41.218 109.872 41.218C110.097 41.218 110.296 41.244 110.47 41.296C110.66 41.348 110.808 41.478 110.912 41.686C111.033 41.894 111.094 42.232 111.094 42.7C111.094 43.1853 111.033 43.5407 110.912 43.766C110.808 43.9913 110.66 44.13 110.47 44.182C110.279 44.234 110.08 44.26 109.872 44.26ZM115.15 44.26C114.682 44.26 114.336 44.182 114.11 44.026C113.885 43.8873 113.746 43.7053 113.694 43.48C113.642 43.2373 113.616 42.9687 113.616 42.674V33.002C113.616 32.7247 113.642 32.4733 113.694 32.248C113.764 32.0053 113.902 31.8147 114.11 31.676C114.336 31.5373 114.691 31.468 115.176 31.468C115.662 31.468 116.008 31.5373 116.216 31.676C116.442 31.8147 116.58 32.0053 116.632 32.248C116.684 32.4907 116.71 32.7593 116.71 33.054V42.7C116.71 42.9947 116.684 43.2633 116.632 43.506C116.58 43.7313 116.442 43.9133 116.216 44.052C116.008 44.1907 115.653 44.26 115.15 44.26ZM115.15 28.946C114.648 28.946 114.275 28.8767 114.032 28.738C113.807 28.582 113.66 28.374 113.59 28.114C113.538 27.854 113.512 27.568 113.512 27.256C113.512 26.9267 113.538 26.6407 113.59 26.398C113.66 26.1553 113.816 25.9647 114.058 25.826C114.301 25.67 114.674 25.592 115.176 25.592C115.696 25.592 116.069 25.67 116.294 25.826C116.52 25.982 116.667 26.19 116.736 26.45C116.806 26.6927 116.84 26.9787 116.84 27.308C116.84 27.6027 116.806 27.88 116.736 28.14C116.667 28.4 116.52 28.5993 116.294 28.738C116.069 28.8767 115.688 28.946 115.15 28.946ZM125.729 44.312C124.897 44.312 124.083 44.1733 123.285 43.896C122.505 43.6013 121.795 43.1767 121.153 42.622C120.529 42.0673 120.027 41.3913 119.645 40.594C119.281 39.7793 119.099 38.8607 119.099 37.838C119.099 36.8153 119.281 35.9053 119.645 35.108C120.027 34.3107 120.529 33.6347 121.153 33.08C121.777 32.5253 122.479 32.1007 123.259 31.806C124.039 31.5113 124.845 31.364 125.677 31.364C126.284 31.364 126.856 31.4507 127.393 31.624C127.948 31.7973 128.425 32.0053 128.823 32.248C129.222 32.4907 129.508 32.7333 129.681 32.976C129.907 33.184 130.097 33.3833 130.253 33.574C130.409 33.7647 130.461 33.9987 130.409 34.276C130.357 34.4493 130.279 34.614 130.175 34.77C130.071 34.9087 129.941 35.056 129.785 35.212C129.369 35.68 128.962 35.8533 128.563 35.732C128.338 35.6107 128.113 35.4807 127.887 35.342C127.662 35.2033 127.428 35.0733 127.185 34.952C126.96 34.8133 126.726 34.7007 126.483 34.614C126.241 34.5273 125.972 34.484 125.677 34.484C125.019 34.484 124.429 34.6313 123.909 34.926C123.407 35.2033 123.008 35.5933 122.713 36.096C122.436 36.5987 122.297 37.1793 122.297 37.838C122.297 38.4967 122.436 39.086 122.713 39.606C123.008 40.1087 123.407 40.5073 123.909 40.802C124.412 41.0793 124.984 41.218 125.625 41.218C125.937 41.218 126.232 41.1833 126.509 41.114C126.804 41.0273 127.064 40.9233 127.289 40.802C127.515 40.6633 127.697 40.5247 127.835 40.386C128.026 40.2647 128.199 40.152 128.355 40.048C128.511 39.944 128.676 39.892 128.849 39.892C129.057 39.892 129.257 39.97 129.447 40.126C129.655 40.2647 129.881 40.49 130.123 40.802C130.349 41.062 130.47 41.3133 130.487 41.556C130.522 41.7987 130.47 42.0327 130.331 42.258C130.21 42.4833 130.002 42.6913 129.707 42.882C129.499 43.09 129.187 43.3067 128.771 43.532C128.373 43.74 127.905 43.922 127.367 44.078C126.847 44.234 126.301 44.312 125.729 44.312ZM143.899 44.208C143.396 44.208 143.024 44.1127 142.781 43.922C142.538 43.7313 142.417 43.4713 142.417 43.142L142.599 42.284C142.46 42.5093 142.226 42.778 141.897 43.09C141.568 43.3847 141.134 43.6533 140.597 43.896C140.06 44.1213 139.41 44.234 138.647 44.234C137.832 44.234 137.061 44.0693 136.333 43.74C135.622 43.3933 134.99 42.9253 134.435 42.336C133.898 41.7293 133.464 41.0447 133.135 40.282C132.823 39.502 132.667 38.67 132.667 37.786C132.667 36.9367 132.823 36.1393 133.135 35.394C133.464 34.6313 133.906 33.9553 134.461 33.366C135.016 32.7767 135.648 32.3173 136.359 31.988C137.087 31.6413 137.85 31.468 138.647 31.468C139.358 31.468 139.956 31.5633 140.441 31.754C140.944 31.9447 141.368 32.1873 141.715 32.482C142.062 32.7593 142.348 33.054 142.573 33.366L142.417 32.612C142.417 32.2307 142.538 31.9447 142.781 31.754C143.024 31.546 143.405 31.442 143.925 31.442C144.41 31.442 144.757 31.52 144.965 31.676C145.173 31.8147 145.303 32.014 145.355 32.274C145.407 32.5167 145.433 32.794 145.433 33.106V42.622C145.433 42.9167 145.407 43.1853 145.355 43.428C145.303 43.6707 145.164 43.8613 144.939 44C144.731 44.1387 144.384 44.208 143.899 44.208ZM139.115 41.192C139.704 41.192 140.233 41.0447 140.701 40.75C141.169 40.4553 141.542 40.0567 141.819 39.554C142.114 39.034 142.261 38.462 142.261 37.838C142.261 37.162 142.114 36.5727 141.819 36.07C141.524 35.5673 141.134 35.1773 140.649 34.9C140.181 34.6053 139.652 34.458 139.063 34.458C138.422 34.458 137.85 34.614 137.347 34.926C136.844 35.2207 136.446 35.628 136.151 36.148C135.874 36.6507 135.735 37.2227 135.735 37.864C135.735 38.488 135.882 39.0513 136.177 39.554C136.472 40.0567 136.87 40.4553 137.373 40.75C137.893 41.0447 138.474 41.192 139.115 41.192ZM139.701 29.622C138.73 29.622 137.907 29.3533 137.231 28.816C136.572 28.2787 136.148 27.5767 135.957 26.71C135.905 26.4327 135.922 26.242 136.009 26.138C136.113 26.034 136.312 25.982 136.607 25.982H137.387C137.699 25.982 137.881 26.1293 137.933 26.424C138.02 26.84 138.21 27.178 138.505 27.438C138.817 27.6807 139.216 27.802 139.701 27.802C140.186 27.802 140.576 27.6807 140.871 27.438C141.166 27.178 141.356 26.84 141.443 26.424C141.495 26.1293 141.677 25.982 141.989 25.982H142.795C143.09 25.982 143.28 26.0427 143.367 26.164C143.471 26.268 143.497 26.45 143.445 26.71C143.272 27.5767 142.847 28.2787 142.171 28.816C141.512 29.3533 140.689 29.622 139.701 29.622ZM166.457 44.208C165.954 44.208 165.582 44.1127 165.339 43.922C165.096 43.7313 164.975 43.4713 164.975 43.142L165.157 42.284C165.018 42.5093 164.784 42.778 164.455 43.09C164.126 43.3847 163.692 43.6533 163.155 43.896C162.618 44.1213 161.968 44.234 161.205 44.234C160.39 44.234 159.619 44.0693 158.891 43.74C158.18 43.3933 157.548 42.9253 156.993 42.336C156.456 41.7293 156.022 41.0447 155.693 40.282C155.381 39.502 155.225 38.67 155.225 37.786C155.225 36.9367 155.381 36.1393 155.693 35.394C156.022 34.6313 156.464 33.9553 157.019 33.366C157.574 32.7767 158.206 32.3173 158.917 31.988C159.645 31.6413 160.408 31.468 161.205 31.468C161.916 31.468 162.514 31.5633 162.999 31.754C163.502 31.9447 163.926 32.1873 164.273 32.482C164.62 32.7593 164.906 33.054 165.131 33.366L164.975 32.612C164.975 32.2307 165.096 31.9447 165.339 31.754C165.582 31.546 165.963 31.442 166.483 31.442C166.968 31.442 167.315 31.52 167.523 31.676C167.731 31.8147 167.861 32.014 167.913 32.274C167.965 32.5167 167.991 32.794 167.991 33.106V42.622C167.991 42.9167 167.965 43.1853 167.913 43.428C167.861 43.6707 167.722 43.8613 167.497 44C167.289 44.1387 166.942 44.208 166.457 44.208ZM161.673 41.192C162.262 41.192 162.791 41.0447 163.259 40.75C163.727 40.4553 164.1 40.0567 164.377 39.554C164.672 39.034 164.819 38.462 164.819 37.838C164.819 37.162 164.672 36.5727 164.377 36.07C164.082 35.5673 163.692 35.1773 163.207 34.9C162.739 34.6053 162.21 34.458 161.621 34.458C160.98 34.458 160.408 34.614 159.905 34.926C159.402 35.2207 159.004 35.628 158.709 36.148C158.432 36.6507 158.293 37.2227 158.293 37.864C158.293 38.488 158.44 39.0513 158.735 39.554C159.03 40.0567 159.428 40.4553 159.931 40.75C160.451 41.0447 161.032 41.192 161.673 41.192ZM177.308 44.312C176.476 44.312 175.661 44.1733 174.864 43.896C174.084 43.6013 173.373 43.1767 172.732 42.622C172.108 42.0673 171.605 41.3913 171.224 40.594C170.86 39.7793 170.678 38.8607 170.678 37.838C170.678 36.8153 170.86 35.9053 171.224 35.108C171.605 34.3107 172.108 33.6347 172.732 33.08C173.356 32.5253 174.058 32.1007 174.838 31.806C175.618 31.5113 176.424 31.364 177.256 31.364C177.863 31.364 178.435 31.4507 178.972 31.624C179.527 31.7973 180.003 32.0053 180.402 32.248C180.801 32.4907 181.087 32.7333 181.26 32.976C181.485 33.184 181.676 33.3833 181.832 33.574C181.988 33.7647 182.04 33.9987 181.988 34.276C181.936 34.4493 181.858 34.614 181.754 34.77C181.65 34.9087 181.52 35.056 181.364 35.212C180.948 35.68 180.541 35.8533 180.142 35.732C179.917 35.6107 179.691 35.4807 179.466 35.342C179.241 35.2033 179.007 35.0733 178.764 34.952C178.539 34.8133 178.305 34.7007 178.062 34.614C177.819 34.5273 177.551 34.484 177.256 34.484C176.597 34.484 176.008 34.6313 175.488 34.926C174.985 35.2033 174.587 35.5933 174.292 36.096C174.015 36.5987 173.876 37.1793 173.876 37.838C173.876 38.4967 174.015 39.086 174.292 39.606C174.587 40.1087 174.985 40.5073 175.488 40.802C175.991 41.0793 176.563 41.218 177.204 41.218C177.516 41.218 177.811 41.1833 178.088 41.114C178.383 41.0273 178.643 40.9233 178.868 40.802C179.093 40.6633 179.275 40.5247 179.414 40.386C179.605 40.2647 179.778 40.152 179.934 40.048C180.09 39.944 180.255 39.892 180.428 39.892C180.636 39.892 180.835 39.97 181.026 40.126C181.234 40.2647 181.459 40.49 181.702 40.802C181.927 41.062 182.049 41.3133 182.066 41.556C182.101 41.7987 182.049 42.0327 181.91 42.258C181.789 42.4833 181.581 42.6913 181.286 42.882C181.078 43.09 180.766 43.3067 180.35 43.532C179.951 43.74 179.483 43.922 178.946 44.078C178.426 44.234 177.88 44.312 177.308 44.312ZM190.122 44.234C189.324 44.234 188.588 44.0953 187.912 43.818C187.253 43.5233 186.672 43.1073 186.17 42.57C185.667 42.0327 185.277 41.3913 185 40.646C184.722 39.9007 184.584 39.0773 184.584 38.176V33.002C184.584 32.7073 184.61 32.4473 184.662 32.222C184.714 31.9793 184.852 31.7887 185.078 31.65C185.303 31.5113 185.65 31.442 186.118 31.442C186.62 31.442 186.976 31.5113 187.184 31.65C187.409 31.7887 187.548 31.9793 187.6 32.222C187.652 32.4647 187.678 32.7333 187.678 33.028V38.176C187.678 38.8 187.782 39.3373 187.99 39.788C188.215 40.2387 188.536 40.594 188.952 40.854C189.368 41.0967 189.879 41.218 190.486 41.218C191.11 41.218 191.638 41.0967 192.072 40.854C192.522 40.594 192.869 40.2387 193.112 39.788C193.354 39.32 193.476 38.7827 193.476 38.176V32.976C193.476 32.6813 193.502 32.4213 193.554 32.196C193.606 31.9533 193.744 31.7713 193.97 31.65C194.195 31.5113 194.55 31.442 195.036 31.442C195.521 31.442 195.868 31.5113 196.076 31.65C196.284 31.7887 196.414 31.9793 196.466 32.222C196.535 32.4647 196.57 32.7247 196.57 33.002V42.752C196.57 43.012 196.535 43.2547 196.466 43.48C196.414 43.7053 196.275 43.8873 196.05 44.026C195.842 44.1647 195.495 44.234 195.01 44.234C194.663 44.234 194.386 44.1907 194.178 44.104C193.987 44.0347 193.84 43.9393 193.736 43.818C193.649 43.6793 193.588 43.5407 193.554 43.402C193.536 43.2633 193.528 43.1247 193.528 42.986L193.736 42.284C193.632 42.44 193.476 42.6307 193.268 42.856C193.06 43.064 192.8 43.2807 192.488 43.506C192.193 43.714 191.846 43.8873 191.448 44.026C191.049 44.1647 190.607 44.234 190.122 44.234ZM201.166 44.234C200.698 44.234 200.351 44.1647 200.126 44.026C199.918 43.8873 199.788 43.6967 199.736 43.454C199.684 43.2113 199.658 42.9513 199.658 42.674V32.95C199.658 32.6727 199.684 32.4213 199.736 32.196C199.788 31.9707 199.927 31.7887 200.152 31.65C200.377 31.5113 200.733 31.442 201.218 31.442C201.721 31.442 202.085 31.546 202.31 31.754C202.553 31.962 202.674 32.2913 202.674 32.742L202.44 33.47C202.527 33.2793 202.674 33.0713 202.882 32.846C203.09 32.6207 203.341 32.3953 203.636 32.17C203.948 31.9447 204.295 31.7627 204.676 31.624C205.057 31.4853 205.456 31.416 205.872 31.416C206.444 31.416 206.964 31.5113 207.432 31.702C207.917 31.8927 208.342 32.17 208.706 32.534C209.087 32.898 209.417 33.34 209.694 33.86C209.989 33.4093 210.318 33.002 210.682 32.638C211.046 32.2567 211.471 31.962 211.956 31.754C212.441 31.5287 212.987 31.416 213.594 31.416C214.599 31.416 215.44 31.6673 216.116 32.17C216.809 32.6727 217.329 33.392 217.676 34.328C218.04 35.2467 218.222 36.3473 218.222 37.63V42.674C218.222 42.9687 218.187 43.2373 218.118 43.48C218.066 43.7053 217.927 43.8873 217.702 44.026C217.494 44.1647 217.147 44.234 216.662 44.234C216.177 44.234 215.821 44.156 215.596 44C215.371 43.8613 215.232 43.6793 215.18 43.454C215.128 43.2113 215.102 42.9427 215.102 42.648V37.604C215.102 36.9627 215.024 36.408 214.868 35.94C214.712 35.472 214.478 35.108 214.166 34.848C213.871 34.588 213.481 34.458 212.996 34.458C212.476 34.458 212.025 34.588 211.644 34.848C211.28 35.0907 210.994 35.446 210.786 35.914C210.578 36.382 210.474 36.954 210.474 37.63V42.7C210.474 42.9947 210.431 43.272 210.344 43.532C210.257 43.7747 210.084 43.9567 209.824 44.078C209.581 44.2167 209.226 44.2687 208.758 44.234C208.325 44.2167 208.004 44.13 207.796 43.974C207.605 43.818 207.484 43.6273 207.432 43.402C207.397 43.1593 207.38 42.908 207.38 42.648V37.604C207.38 36.9627 207.302 36.408 207.146 35.94C206.99 35.4547 206.756 35.0907 206.444 34.848C206.149 34.588 205.751 34.458 205.248 34.458C204.711 34.458 204.251 34.5967 203.87 34.874C203.506 35.1513 203.229 35.524 203.038 35.992C202.847 36.46 202.752 36.9973 202.752 37.604V42.7C202.752 42.9773 202.717 43.2373 202.648 43.48C202.596 43.7227 202.457 43.9047 202.232 44.026C202.024 44.1647 201.669 44.234 201.166 44.234Z" fill="#333333"/>
</svg>
