<svg width="38" height="36" viewBox="0 0 38 36" fill="none" xmlns="http://www.w3.org/2000/svg">
<path d="M22.8779 17.9667C24.6464 17.9667 26.0801 16.5545 26.0801 14.8124C26.0801 13.0704 24.6464 11.6582 22.8779 11.6582C21.1094 11.6582 19.6758 13.0704 19.6758 14.8124C19.6758 16.5545 21.1094 17.9667 22.8779 17.9667Z" fill="#FFD071"/>
<path d="M7.77734 32.075C7.77734 32.075 10.8687 34.3588 13.4787 35.7752C13.7898 35.9429 14.143 36.0198 14.4969 35.9969C14.8508 35.9741 15.1908 35.8523 15.477 35.646L15.8289 35.3933C15.9247 35.3247 16.0054 35.2377 16.0661 35.1376C16.1269 35.0375 16.1665 34.9263 16.1825 34.8107C16.1985 34.6952 16.1906 34.5776 16.1593 34.4651C16.128 34.3526 16.0739 34.2476 16.0003 34.1562C14.8606 32.7362 13.9379 31.1596 13.2615 29.4766L7.77734 32.075Z" fill="#3C4D68"/>
<path d="M7.97656 17.5064C7.97656 17.5064 11.7354 10.1828 14.7952 5.28682C14.8913 5.13362 15.0238 5.00573 15.1812 4.91415C15.3386 4.82257 15.5163 4.77006 15.6989 4.76113C15.8815 4.7522 16.0635 4.78713 16.2294 4.86289C16.3953 4.93866 16.5399 5.053 16.651 5.19607L30.8426 23.4593C30.9529 23.6011 31.0269 23.7669 31.0583 23.9428C31.0897 24.1187 31.0776 24.2995 31.023 24.4698C30.9684 24.6401 30.873 24.795 30.7447 24.9212C30.6165 25.0475 30.4592 25.1414 30.2863 25.1951C27.2983 26.1221 20.5194 28.0894 15.367 28.5744C15.367 28.5744 10.776 27.0879 7.97656 17.5064Z" fill="#EAEAEA"/>
<path d="M0.535618 26.9291C0.598208 27.3819 0.728351 27.8231 0.921833 28.2384C1.33764 29.1543 2.41085 31.205 4.01242 32.0655C6.10583 33.1902 10.5464 32.2059 15.3673 28.5739C15.3673 28.5739 10.2285 23.0672 7.97685 17.5059C7.97685 17.5059 4.19593 20.21 1.6617 23.1898C1.29066 23.6212 1.00032 24.114 0.804198 24.6453C0.533857 25.3752 0.441847 26.1576 0.535618 26.9291Z" fill="#F47676"/>
<path d="M13.9453 6.67384L28.3919 25.7644C28.751 25.6596 29.0882 25.5591 29.4007 25.4648L14.4951 5.76758C14.3135 6.063 14.1302 6.36509 13.9453 6.67384Z" fill="white"/>
<path d="M4.17972 26.8796C4.07218 26.8798 3.9675 26.8455 3.88151 26.7819C3.79551 26.7183 3.73286 26.6288 3.70303 26.527C3.6732 26.4253 3.67781 26.3167 3.71616 26.2177C3.75451 26.1188 3.82451 26.0348 3.9156 25.9785L5.11387 25.2367C5.22506 25.1692 5.35885 25.1476 5.48611 25.1767C5.61336 25.2059 5.72378 25.2834 5.7933 25.3923C5.86283 25.5013 5.88583 25.6329 5.8573 25.7585C5.82878 25.8841 5.75103 25.9935 5.641 26.0629L4.44273 26.8047C4.36401 26.8537 4.27282 26.8796 4.17972 26.8796Z" fill="white"/>
<path d="M5.08187 28.2934C4.97436 28.2935 4.86973 28.2592 4.78378 28.1956C4.69782 28.132 4.6352 28.0426 4.60538 27.9409C4.57556 27.8391 4.58014 27.7306 4.61846 27.6317C4.65677 27.5327 4.72672 27.4487 4.81775 27.3924L6.01589 26.6508C6.12708 26.5832 6.26087 26.5617 6.38813 26.5908C6.51539 26.6199 6.6258 26.6974 6.69532 26.8064C6.76485 26.9154 6.78785 27.047 6.75933 27.1725C6.7308 27.2981 6.65305 27.4075 6.54302 27.4769L5.34488 28.2185C5.26618 28.2675 5.17497 28.2935 5.08187 28.2934Z" fill="white"/>
<path d="M5.98441 29.7058C5.87687 29.7059 5.77219 29.6716 5.68619 29.608C5.60019 29.5444 5.53755 29.455 5.50772 29.3532C5.47789 29.2514 5.4825 29.1429 5.52084 29.0439C5.55919 28.9449 5.6292 28.8609 5.72029 28.8046L6.91856 28.0629C7.02975 27.9953 7.16354 27.9738 7.29079 28.0029C7.41805 28.0321 7.52846 28.1095 7.59799 28.2185C7.66751 28.3275 7.69052 28.4591 7.66199 28.5847C7.63346 28.7102 7.55572 28.8196 7.44569 28.889L6.24791 29.6308C6.16906 29.6798 6.07768 29.7059 5.98441 29.7058Z" fill="white"/>
<path d="M24.5457 3.02388C24.4584 3.02382 24.3726 3.001 24.2971 2.95774C24.2216 2.91448 24.159 2.85232 24.1158 2.77757C24.0725 2.70281 24.0501 2.61812 24.0508 2.53208C24.0515 2.44604 24.0753 2.36171 24.1197 2.28765L25.3482 0.239716C25.4151 0.128304 25.5241 0.0476071 25.6513 0.015377C25.7786 -0.0168532 25.9136 0.00202371 26.0267 0.0678547C26.1398 0.133686 26.2217 0.241079 26.2544 0.366408C26.2871 0.491737 26.268 0.624737 26.2011 0.736148L24.9727 2.78408C24.9288 2.85719 24.8664 2.91777 24.7915 2.95983C24.7166 3.00188 24.6319 3.02396 24.5457 3.02388Z" fill="#FFD071"/>
<path d="M34.6129 17.9362C34.4868 17.9363 34.3655 17.889 34.2735 17.8041C34.1816 17.7191 34.1261 17.6028 34.1182 17.4788C34.1103 17.3549 34.1506 17.2327 34.2311 17.1371C34.3115 17.0414 34.4259 16.9796 34.551 16.9642L36.9467 16.6655C37.0765 16.6504 37.2071 16.6864 37.31 16.7658C37.4129 16.8451 37.4798 16.9613 37.4962 17.089C37.5125 17.2167 37.4769 17.3456 37.3972 17.4476C37.3175 17.5496 37.2001 17.6165 37.0706 17.6336L34.6749 17.9323C34.6543 17.9349 34.6336 17.9362 34.6129 17.9362Z" fill="#FFD071"/>
<path d="M32.9878 8.10387C32.8858 8.10394 32.7863 8.07298 32.7028 8.01524C32.6193 7.95749 32.556 7.87576 32.5215 7.78122C32.4869 7.68669 32.4828 7.58395 32.5098 7.48705C32.5368 7.39014 32.5934 7.3038 32.6721 7.23981L34.534 5.72502C34.6353 5.64261 34.7657 5.60321 34.8965 5.61548C35.0272 5.62775 35.1477 5.6907 35.2314 5.79046C35.315 5.89023 35.355 6.01864 35.3426 6.14746C35.3301 6.27628 35.2662 6.39495 35.1649 6.47736L33.303 7.99215C33.2144 8.06446 33.1029 8.10398 32.9878 8.10387Z" fill="#FFD071"/>
</svg>
