<svg width="724" height="166" viewBox="0 0 724 166" fill="none" xmlns="http://www.w3.org/2000/svg">
<rect width="724" height="166" rx="32" fill="#19C1B6"/>
<path d="M114.576 94.78C114.749 94.78 114.889 94.84 114.996 94.96C115.116 95.08 115.176 95.2267 115.176 95.4V104.4C115.176 104.56 115.116 104.7 114.996 104.82C114.876 104.94 114.736 105 114.576 105C114.402 105 114.256 104.94 114.136 104.82C114.029 104.7 113.976 104.56 113.976 104.4V102.02L114.316 101.86C114.316 102.233 114.209 102.613 113.996 103C113.796 103.387 113.516 103.747 113.156 104.08C112.796 104.413 112.369 104.687 111.876 104.9C111.396 105.1 110.876 105.2 110.316 105.2C109.409 105.2 108.596 104.967 107.876 104.5C107.169 104.033 106.609 103.393 106.196 102.58C105.796 101.767 105.596 100.853 105.596 99.84C105.596 98.8 105.802 97.8867 106.216 97.1C106.629 96.3 107.189 95.6733 107.896 95.22C108.602 94.7667 109.402 94.54 110.296 94.54C110.869 94.54 111.402 94.64 111.896 94.84C112.402 95.04 112.842 95.3133 113.216 95.66C113.589 96.0067 113.876 96.4067 114.076 96.86C114.289 97.3 114.396 97.76 114.396 98.24L113.976 97.94V95.4C113.976 95.2267 114.029 95.08 114.136 94.96C114.256 94.84 114.402 94.78 114.576 94.78ZM110.416 104.08C111.122 104.08 111.749 103.9 112.296 103.54C112.842 103.167 113.269 102.66 113.576 102.02C113.896 101.367 114.056 100.64 114.056 99.84C114.056 99.0533 113.896 98.3467 113.576 97.72C113.269 97.0933 112.842 96.5933 112.296 96.22C111.749 95.8467 111.122 95.66 110.416 95.66C109.722 95.66 109.096 95.84 108.536 96.2C107.989 96.56 107.556 97.0533 107.236 97.68C106.929 98.3067 106.776 99.0267 106.776 99.84C106.776 100.64 106.929 101.367 107.236 102.02C107.556 102.66 107.989 103.167 108.536 103.54C109.082 103.9 109.709 104.08 110.416 104.08ZM123.745 94.54C124.625 94.54 125.325 94.72 125.845 95.08C126.378 95.4267 126.758 95.9067 126.985 96.52C127.225 97.12 127.345 97.7867 127.345 98.52V104.4C127.345 104.56 127.285 104.7 127.165 104.82C127.045 104.94 126.905 105 126.745 105C126.558 105 126.411 104.94 126.305 104.82C126.198 104.7 126.145 104.56 126.145 104.4V98.58C126.145 98.0467 126.058 97.56 125.885 97.12C125.711 96.68 125.425 96.3267 125.025 96.06C124.638 95.7933 124.125 95.66 123.485 95.66C122.911 95.66 122.365 95.7933 121.845 96.06C121.338 96.3267 120.925 96.68 120.605 97.12C120.285 97.56 120.125 98.0467 120.125 98.58V104.4C120.125 104.56 120.065 104.7 119.945 104.82C119.825 104.94 119.685 105 119.525 105C119.338 105 119.191 104.94 119.085 104.82C118.978 104.7 118.925 104.56 118.925 104.4V95.44C118.925 95.28 118.978 95.14 119.085 95.02C119.205 94.9 119.351 94.84 119.525 94.84C119.698 94.84 119.838 94.9 119.945 95.02C120.065 95.14 120.125 95.28 120.125 95.44V97.12L119.665 97.84C119.691 97.4133 119.825 97.0067 120.065 96.62C120.318 96.22 120.638 95.8667 121.025 95.56C121.411 95.24 121.838 94.9933 122.305 94.82C122.785 94.6333 123.265 94.54 123.745 94.54ZM132.247 104.4C132.247 104.56 132.187 104.7 132.067 104.82C131.947 104.94 131.807 105 131.647 105C131.474 105 131.327 104.94 131.207 104.82C131.1 104.7 131.047 104.56 131.047 104.4V95.2C131.047 95.04 131.1 94.9 131.207 94.78C131.327 94.66 131.474 94.6 131.647 94.6C131.82 94.6 131.96 94.66 132.067 94.78C132.187 94.9 132.247 95.04 132.247 95.2V104.4ZM131.647 93.26C131.367 93.26 131.154 93.2 131.007 93.08C130.874 92.9467 130.807 92.76 130.807 92.52V92.32C130.807 92.08 130.88 91.9 131.027 91.78C131.187 91.6467 131.4 91.58 131.667 91.58C131.92 91.58 132.114 91.6467 132.247 91.78C132.394 91.9 132.467 92.08 132.467 92.32V92.52C132.467 92.76 132.394 92.9467 132.247 93.08C132.114 93.2 131.914 93.26 131.647 93.26ZM73.9766 136.2C72.9499 136.2 72.0432 135.98 71.2566 135.54C70.4699 135.1 69.8566 134.487 69.4166 133.7C68.9766 132.913 68.7566 131.993 68.7566 130.94C68.7566 129.807 68.9766 128.84 69.4166 128.04C69.8699 127.24 70.4499 126.627 71.1566 126.2C71.8766 125.76 72.6366 125.54 73.4366 125.54C74.0232 125.54 74.5899 125.647 75.1366 125.86C75.6966 126.06 76.1899 126.367 76.6166 126.78C77.0566 127.18 77.4032 127.673 77.6566 128.26C77.9232 128.847 78.0699 129.527 78.0966 130.3C78.0832 130.46 78.0166 130.6 77.8966 130.72C77.7766 130.827 77.6366 130.88 77.4766 130.88H69.4566L69.2166 129.8H77.0966L76.8366 130.04V129.64C76.7832 129.013 76.5832 128.48 76.2366 128.04C75.8899 127.6 75.4699 127.267 74.9766 127.04C74.4832 126.813 73.9699 126.7 73.4366 126.7C73.0366 126.7 72.6232 126.78 72.1966 126.94C71.7832 127.1 71.4032 127.353 71.0566 127.7C70.7232 128.033 70.4499 128.467 70.2366 129C70.0232 129.52 69.9166 130.14 69.9166 130.86C69.9166 131.647 70.0766 132.36 70.3966 133C70.7166 133.64 71.1766 134.147 71.7766 134.52C72.3899 134.893 73.1166 135.08 73.9566 135.08C74.4232 135.08 74.8432 135.013 75.2166 134.88C75.5899 134.747 75.9166 134.573 76.1966 134.36C76.4766 134.133 76.7099 133.9 76.8966 133.66C77.0432 133.54 77.1899 133.48 77.3366 133.48C77.4699 133.48 77.5832 133.533 77.6766 133.64C77.7832 133.747 77.8366 133.867 77.8366 134C77.8366 134.16 77.7699 134.3 77.6366 134.42C77.2366 134.9 76.7166 135.32 76.0766 135.68C75.4366 136.027 74.7366 136.2 73.9766 136.2ZM80.8484 125.68C81.0484 125.68 81.2084 125.767 81.3284 125.94L88.4084 135.1C88.5018 135.207 88.5484 135.327 88.5484 135.46C88.5484 135.62 88.4884 135.76 88.3684 135.88C88.2484 136 88.1084 136.06 87.9484 136.06C87.7618 136.06 87.5951 135.973 87.4484 135.8L80.3484 126.64C80.2684 126.547 80.2284 126.427 80.2284 126.28C80.2284 126.107 80.2884 125.967 80.4084 125.86C80.5418 125.74 80.6884 125.68 80.8484 125.68ZM80.8484 136.06C80.7151 136.06 80.5818 136.013 80.4484 135.92C80.3284 135.827 80.2684 135.693 80.2684 135.52C80.2684 135.373 80.3151 135.247 80.4084 135.14L83.7884 130.8L84.4484 131.76L81.3284 135.82C81.2084 135.98 81.0484 136.06 80.8484 136.06ZM87.9484 125.68C88.1218 125.68 88.2551 125.733 88.3484 125.84C88.4551 125.933 88.5084 126.053 88.5084 126.2C88.5084 126.267 88.4951 126.333 88.4684 126.4C88.4551 126.467 88.4218 126.527 88.3684 126.58L84.9884 131.02L84.3684 130.06L87.4484 125.94C87.5951 125.767 87.7618 125.68 87.9484 125.68ZM96.2759 125.7C97.1826 125.7 97.9826 125.927 98.6759 126.38C99.3826 126.82 99.9426 127.433 100.356 128.22C100.769 128.993 100.976 129.887 100.976 130.9C100.976 131.913 100.769 132.813 100.356 133.6C99.9426 134.387 99.3826 135.007 98.6759 135.46C97.9693 135.913 97.1759 136.14 96.2959 136.14C95.8293 136.14 95.3826 136.073 94.9559 135.94C94.5426 135.793 94.1626 135.6 93.8159 135.36C93.4693 135.12 93.1626 134.84 92.8959 134.52C92.6293 134.187 92.4159 133.827 92.2559 133.44L92.6159 133.18V139.4C92.6159 139.56 92.5559 139.7 92.4359 139.82C92.3293 139.94 92.1893 140 92.0159 140C91.8426 140 91.6959 139.94 91.5759 139.82C91.4693 139.7 91.4159 139.56 91.4159 139.4V126.36C91.4159 126.187 91.4693 126.04 91.5759 125.92C91.6826 125.8 91.8293 125.74 92.0159 125.74C92.1893 125.74 92.3293 125.8 92.4359 125.92C92.5559 126.04 92.6159 126.187 92.6159 126.36V128.52L92.3359 128.36C92.4693 127.947 92.6626 127.58 92.9159 127.26C93.1826 126.927 93.4893 126.647 93.8359 126.42C94.1826 126.18 94.5626 126 94.9759 125.88C95.3893 125.76 95.8226 125.7 96.2759 125.7ZM96.1759 126.82C95.4559 126.82 94.8226 127 94.2759 127.36C93.7293 127.707 93.2959 128.187 92.9759 128.8C92.6693 129.4 92.5159 130.1 92.5159 130.9C92.5159 131.687 92.6693 132.393 92.9759 133.02C93.2959 133.647 93.7293 134.14 94.2759 134.5C94.8226 134.847 95.4559 135.02 96.1759 135.02C96.8826 135.02 97.5026 134.847 98.0359 134.5C98.5826 134.14 99.0159 133.647 99.3359 133.02C99.6559 132.393 99.8159 131.687 99.8159 130.9C99.8159 130.113 99.6559 129.413 99.3359 128.8C99.0159 128.187 98.5826 127.707 98.0359 127.36C97.5026 127 96.8826 126.82 96.1759 126.82ZM108.765 136.2C107.738 136.2 106.832 135.98 106.045 135.54C105.258 135.1 104.645 134.487 104.205 133.7C103.765 132.913 103.545 131.993 103.545 130.94C103.545 129.807 103.765 128.84 104.205 128.04C104.658 127.24 105.238 126.627 105.945 126.2C106.665 125.76 107.425 125.54 108.225 125.54C108.812 125.54 109.378 125.647 109.925 125.86C110.485 126.06 110.978 126.367 111.405 126.78C111.845 127.18 112.192 127.673 112.445 128.26C112.712 128.847 112.858 129.527 112.885 130.3C112.872 130.46 112.805 130.6 112.685 130.72C112.565 130.827 112.425 130.88 112.265 130.88H104.245L104.005 129.8H111.885L111.625 130.04V129.64C111.572 129.013 111.372 128.48 111.025 128.04C110.678 127.6 110.258 127.267 109.765 127.04C109.272 126.813 108.758 126.7 108.225 126.7C107.825 126.7 107.412 126.78 106.985 126.94C106.572 127.1 106.192 127.353 105.845 127.7C105.512 128.033 105.238 128.467 105.025 129C104.812 129.52 104.705 130.14 104.705 130.86C104.705 131.647 104.865 132.36 105.185 133C105.505 133.64 105.965 134.147 106.565 134.52C107.178 134.893 107.905 135.08 108.745 135.08C109.212 135.08 109.632 135.013 110.005 134.88C110.378 134.747 110.705 134.573 110.985 134.36C111.265 134.133 111.498 133.9 111.685 133.66C111.832 133.54 111.978 133.48 112.125 133.48C112.258 133.48 112.372 133.533 112.465 133.64C112.572 133.747 112.625 133.867 112.625 134C112.625 134.16 112.558 134.3 112.425 134.42C112.025 134.9 111.505 135.32 110.865 135.68C110.225 136.027 109.525 136.2 108.765 136.2ZM116.653 136C116.467 136 116.32 135.94 116.213 135.82C116.107 135.7 116.053 135.56 116.053 135.4V126.44C116.053 126.28 116.107 126.14 116.213 126.02C116.333 125.9 116.48 125.84 116.653 125.84C116.827 125.84 116.967 125.9 117.073 126.02C117.193 126.14 117.253 126.28 117.253 126.44V129.44L116.953 129.5C116.993 129.033 117.107 128.573 117.293 128.12C117.493 127.653 117.76 127.227 118.093 126.84C118.427 126.453 118.82 126.14 119.273 125.9C119.74 125.66 120.26 125.54 120.833 125.54C121.073 125.54 121.307 125.593 121.533 125.7C121.76 125.793 121.873 125.953 121.873 126.18C121.873 126.38 121.82 126.533 121.713 126.64C121.607 126.747 121.48 126.8 121.333 126.8C121.213 126.8 121.08 126.767 120.933 126.7C120.8 126.633 120.62 126.6 120.393 126.6C120.02 126.6 119.647 126.713 119.273 126.94C118.9 127.153 118.56 127.447 118.253 127.82C117.947 128.193 117.7 128.613 117.513 129.08C117.34 129.533 117.253 129.993 117.253 130.46V135.4C117.253 135.56 117.193 135.7 117.073 135.82C116.953 135.94 116.813 136 116.653 136ZM125.509 135.4C125.509 135.56 125.449 135.7 125.329 135.82C125.209 135.94 125.069 136 124.909 136C124.735 136 124.589 135.94 124.469 135.82C124.362 135.7 124.309 135.56 124.309 135.4V126.2C124.309 126.04 124.362 125.9 124.469 125.78C124.589 125.66 124.735 125.6 124.909 125.6C125.082 125.6 125.222 125.66 125.329 125.78C125.449 125.9 125.509 126.04 125.509 126.2V135.4ZM124.909 124.26C124.629 124.26 124.415 124.2 124.269 124.08C124.135 123.947 124.069 123.76 124.069 123.52V123.32C124.069 123.08 124.142 122.9 124.289 122.78C124.449 122.647 124.662 122.58 124.929 122.58C125.182 122.58 125.375 122.647 125.509 122.78C125.655 122.9 125.729 123.08 125.729 123.32V123.52C125.729 123.76 125.655 123.947 125.509 124.08C125.375 124.2 125.175 124.26 124.909 124.26ZM133.846 136.2C132.819 136.2 131.913 135.98 131.126 135.54C130.339 135.1 129.726 134.487 129.286 133.7C128.846 132.913 128.626 131.993 128.626 130.94C128.626 129.807 128.846 128.84 129.286 128.04C129.739 127.24 130.319 126.627 131.026 126.2C131.746 125.76 132.506 125.54 133.306 125.54C133.893 125.54 134.459 125.647 135.006 125.86C135.566 126.06 136.059 126.367 136.486 126.78C136.926 127.18 137.273 127.673 137.526 128.26C137.793 128.847 137.939 129.527 137.966 130.3C137.953 130.46 137.886 130.6 137.766 130.72C137.646 130.827 137.506 130.88 137.346 130.88H129.326L129.086 129.8H136.966L136.706 130.04V129.64C136.653 129.013 136.453 128.48 136.106 128.04C135.759 127.6 135.339 127.267 134.846 127.04C134.353 126.813 133.839 126.7 133.306 126.7C132.906 126.7 132.493 126.78 132.066 126.94C131.653 127.1 131.273 127.353 130.926 127.7C130.593 128.033 130.319 128.467 130.106 129C129.893 129.52 129.786 130.14 129.786 130.86C129.786 131.647 129.946 132.36 130.266 133C130.586 133.64 131.046 134.147 131.646 134.52C132.259 134.893 132.986 135.08 133.826 135.08C134.293 135.08 134.713 135.013 135.086 134.88C135.459 134.747 135.786 134.573 136.066 134.36C136.346 134.133 136.579 133.9 136.766 133.66C136.913 133.54 137.059 133.48 137.206 133.48C137.339 133.48 137.453 133.533 137.546 133.64C137.653 133.747 137.706 133.867 137.706 134C137.706 134.16 137.639 134.3 137.506 134.42C137.106 134.9 136.586 135.32 135.946 135.68C135.306 136.027 134.606 136.2 133.846 136.2ZM145.955 125.54C146.835 125.54 147.535 125.72 148.055 126.08C148.588 126.427 148.968 126.907 149.195 127.52C149.435 128.12 149.555 128.787 149.555 129.52V135.4C149.555 135.56 149.495 135.7 149.375 135.82C149.255 135.94 149.115 136 148.955 136C148.768 136 148.621 135.94 148.515 135.82C148.408 135.7 148.355 135.56 148.355 135.4V129.58C148.355 129.047 148.268 128.56 148.095 128.12C147.921 127.68 147.635 127.327 147.235 127.06C146.848 126.793 146.335 126.66 145.695 126.66C145.121 126.66 144.575 126.793 144.055 127.06C143.548 127.327 143.135 127.68 142.815 128.12C142.495 128.56 142.335 129.047 142.335 129.58V135.4C142.335 135.56 142.275 135.7 142.155 135.82C142.035 135.94 141.895 136 141.735 136C141.548 136 141.401 135.94 141.295 135.82C141.188 135.7 141.135 135.56 141.135 135.4V126.44C141.135 126.28 141.188 126.14 141.295 126.02C141.415 125.9 141.561 125.84 141.735 125.84C141.908 125.84 142.048 125.9 142.155 126.02C142.275 126.14 142.335 126.28 142.335 126.44V128.12L141.875 128.84C141.901 128.413 142.035 128.007 142.275 127.62C142.528 127.22 142.848 126.867 143.235 126.56C143.621 126.24 144.048 125.993 144.515 125.82C144.995 125.633 145.475 125.54 145.955 125.54ZM152.637 125.82H157.297C157.457 125.82 157.591 125.88 157.697 126C157.804 126.107 157.857 126.24 157.857 126.4C157.857 126.547 157.804 126.673 157.697 126.78C157.591 126.887 157.457 126.94 157.297 126.94H152.637C152.477 126.94 152.337 126.887 152.217 126.78C152.111 126.66 152.057 126.527 152.057 126.38C152.057 126.22 152.111 126.087 152.217 125.98C152.337 125.873 152.477 125.82 152.637 125.82ZM154.697 123C154.871 123 155.011 123.06 155.117 123.18C155.237 123.3 155.297 123.44 155.297 123.6V133.64C155.297 134.013 155.344 134.293 155.437 134.48C155.544 134.667 155.677 134.793 155.837 134.86C155.997 134.913 156.157 134.94 156.317 134.94C156.424 134.94 156.517 134.927 156.597 134.9C156.691 134.86 156.791 134.84 156.897 134.84C157.017 134.84 157.117 134.887 157.197 134.98C157.291 135.073 157.337 135.193 157.337 135.34C157.337 135.527 157.231 135.687 157.017 135.82C156.804 135.94 156.551 136 156.257 136C156.137 136 155.957 135.993 155.717 135.98C155.477 135.953 155.231 135.88 154.977 135.76C154.724 135.627 154.511 135.4 154.337 135.08C154.177 134.76 154.097 134.3 154.097 133.7V123.6C154.097 123.44 154.151 123.3 154.257 123.18C154.377 123.06 154.524 123 154.697 123ZM156.737 138.1C156.737 138.46 156.631 138.807 156.417 139.14C156.204 139.487 155.944 139.767 155.637 139.98C155.331 140.207 155.031 140.32 154.737 140.32C154.631 140.32 154.524 140.287 154.417 140.22C154.324 140.153 154.277 140.027 154.277 139.84C154.277 139.653 154.337 139.547 154.457 139.52C154.591 139.507 154.751 139.447 154.937 139.34C155.164 139.233 155.337 139.1 155.457 138.94C155.577 138.78 155.637 138.593 155.637 138.38C155.637 138.207 155.584 138.073 155.477 137.98C155.384 137.887 155.271 137.84 155.137 137.84C155.044 137.84 154.951 137.853 154.857 137.88C154.764 137.907 154.677 137.947 154.597 138C154.531 137.933 154.471 137.86 154.417 137.78C154.364 137.7 154.344 137.6 154.357 137.48C154.384 137.253 154.504 137.053 154.717 136.88C154.944 136.72 155.204 136.64 155.497 136.64C155.857 136.64 156.151 136.787 156.377 137.08C156.617 137.373 156.737 137.713 156.737 138.1ZM169.055 125.78C169.228 125.78 169.368 125.84 169.475 125.96C169.595 126.08 169.655 126.227 169.655 126.4V135.4C169.655 135.56 169.595 135.7 169.475 135.82C169.355 135.94 169.215 136 169.055 136C168.881 136 168.735 135.94 168.615 135.82C168.508 135.7 168.455 135.56 168.455 135.4V133.02L168.795 132.86C168.795 133.233 168.688 133.613 168.475 134C168.275 134.387 167.995 134.747 167.635 135.08C167.275 135.413 166.848 135.687 166.355 135.9C165.875 136.1 165.355 136.2 164.795 136.2C163.888 136.2 163.075 135.967 162.355 135.5C161.648 135.033 161.088 134.393 160.675 133.58C160.275 132.767 160.075 131.853 160.075 130.84C160.075 129.8 160.281 128.887 160.695 128.1C161.108 127.3 161.668 126.673 162.375 126.22C163.081 125.767 163.881 125.54 164.775 125.54C165.348 125.54 165.881 125.64 166.375 125.84C166.881 126.04 167.321 126.313 167.695 126.66C168.068 127.007 168.355 127.407 168.555 127.86C168.768 128.3 168.875 128.76 168.875 129.24L168.455 128.94V126.4C168.455 126.227 168.508 126.08 168.615 125.96C168.735 125.84 168.881 125.78 169.055 125.78ZM164.895 135.08C165.601 135.08 166.228 134.9 166.775 134.54C167.321 134.167 167.748 133.66 168.055 133.02C168.375 132.367 168.535 131.64 168.535 130.84C168.535 130.053 168.375 129.347 168.055 128.72C167.748 128.093 167.321 127.593 166.775 127.22C166.228 126.847 165.601 126.66 164.895 126.66C164.201 126.66 163.575 126.84 163.015 127.2C162.468 127.56 162.035 128.053 161.715 128.68C161.408 129.307 161.255 130.027 161.255 130.84C161.255 131.64 161.408 132.367 161.715 133.02C162.035 133.66 162.468 134.167 163.015 134.54C163.561 134.9 164.188 135.08 164.895 135.08ZM164.875 124.56C164.421 124.56 164.001 124.453 163.615 124.24C163.241 124.013 162.928 123.713 162.675 123.34C162.435 122.967 162.295 122.567 162.255 122.14C162.228 121.993 162.255 121.867 162.335 121.76C162.428 121.653 162.548 121.6 162.695 121.6C162.868 121.6 163.001 121.647 163.095 121.74C163.188 121.82 163.261 121.933 163.315 122.08C163.395 122.547 163.575 122.913 163.855 123.18C164.148 123.433 164.488 123.56 164.875 123.56C165.248 123.56 165.575 123.433 165.855 123.18C166.148 122.913 166.341 122.547 166.435 122.08C166.501 121.933 166.575 121.82 166.655 121.74C166.748 121.647 166.875 121.6 167.035 121.6C167.181 121.6 167.301 121.653 167.395 121.76C167.488 121.853 167.515 121.98 167.475 122.14C167.435 122.567 167.295 122.967 167.055 123.34C166.815 123.713 166.508 124.013 166.135 124.24C165.761 124.453 165.341 124.56 164.875 124.56Z" fill="white"/>
<path d="M105.288 66.352C104.221 66.352 103.475 66.1387 103.048 65.712C102.621 65.2853 102.408 64.528 102.408 63.44V46.768C102.408 45.7013 102.621 44.9547 103.048 44.528C103.475 44.1013 104.232 43.888 105.32 43.888C106.387 43.888 107.133 44.112 107.56 44.56C107.987 44.9867 108.2 45.744 108.2 46.832V63.472C108.2 64.5387 107.987 65.2853 107.56 65.712C107.133 66.1387 106.376 66.352 105.288 66.352ZM102.088 52.912C101.363 53.552 100.701 53.8613 100.104 53.84C99.528 53.8187 98.8987 53.4453 98.216 52.72C97.512 51.9733 97.1813 51.2693 97.224 50.608C97.2667 49.9467 97.7147 49.2427 98.568 48.496L102.632 44.848C103.336 44.208 103.987 43.92 104.584 43.984C105.203 44.0267 105.843 44.4107 106.504 45.136C107.187 45.8613 107.496 46.5547 107.432 47.216C107.389 47.856 106.941 48.56 106.088 49.328L102.088 52.912ZM123.525 66.256C122.565 66.256 121.882 66.1173 121.477 65.84C121.072 65.5413 120.826 65.168 120.741 64.72C120.656 64.2507 120.613 63.7813 120.613 63.312V59.984H112.837C111.877 59.984 111.194 59.8453 110.789 59.568C110.384 59.2693 110.138 58.896 110.053 58.448C109.968 57.9787 109.925 57.5093 109.925 57.04C109.925 56.8053 109.925 56.6133 109.925 56.464C109.946 56.3147 109.978 56.1653 110.021 56.016L112.485 46.064C112.762 44.8907 113.168 44.1867 113.701 43.952C114.234 43.7173 115.034 43.728 116.101 43.984C116.89 44.1973 117.498 44.5067 117.925 44.912C118.373 45.296 118.533 45.7653 118.405 46.32L116.421 54.48H120.613V46.64C120.613 46.1707 120.656 45.7333 120.741 45.328C120.826 44.9013 121.072 44.5493 121.477 44.272C121.904 43.9947 122.608 43.856 123.589 43.856C124.549 43.856 125.232 44.0053 125.637 44.304C126.042 44.5813 126.288 44.944 126.373 45.392C126.458 45.84 126.501 46.3093 126.501 46.8V63.344C126.501 63.8347 126.448 64.304 126.341 64.752C126.256 65.2 126.01 65.5627 125.605 65.84C125.2 66.1173 124.506 66.256 123.525 66.256ZM135.87 65.232C134.995 65.232 134.377 65.104 134.014 64.848C133.651 64.5707 133.427 64.2293 133.342 63.824C133.278 63.4187 133.246 63.0027 133.246 62.576V53.072C133.246 52.6453 133.278 52.24 133.342 51.856C133.427 51.4507 133.651 51.12 134.014 50.864C134.398 50.608 135.027 50.48 135.902 50.48C136.777 50.48 137.395 50.608 137.758 50.864C138.121 51.12 138.334 51.4507 138.398 51.856C138.483 52.2613 138.526 52.6773 138.526 53.104V62.608C138.526 63.0347 138.483 63.4507 138.398 63.856C138.334 64.2613 138.121 64.592 137.758 64.848C137.395 65.104 136.766 65.232 135.87 65.232ZM130.942 60.496C130.558 60.496 130.174 60.464 129.79 60.4C129.406 60.3147 129.086 60.0907 128.83 59.728C128.595 59.344 128.478 58.7147 128.478 57.84C128.478 56.944 128.606 56.3147 128.862 55.952C129.139 55.5893 129.481 55.376 129.886 55.312C130.313 55.2267 130.739 55.184 131.166 55.184H140.638C141.065 55.184 141.481 55.2267 141.886 55.312C142.291 55.376 142.622 55.6 142.878 55.984C143.134 56.3467 143.262 56.976 143.262 57.872C143.262 58.7467 143.134 59.3653 142.878 59.728C142.643 60.0907 142.334 60.3147 141.95 60.4C141.587 60.464 141.203 60.496 140.798 60.496H130.942Z" fill="white"/>
<path d="M308.497 93.54C309.137 93.54 309.724 93.6133 310.257 93.76C310.791 93.8933 311.217 94.08 311.537 94.32C311.871 94.56 312.037 94.82 312.037 95.1C312.037 95.2333 311.991 95.3667 311.897 95.5C311.804 95.62 311.677 95.68 311.517 95.68C311.357 95.68 311.224 95.64 311.117 95.56C311.024 95.48 310.924 95.3867 310.817 95.28C310.724 95.1733 310.584 95.0733 310.397 94.98C310.224 94.9 309.977 94.8267 309.657 94.76C309.337 94.6933 308.971 94.66 308.557 94.66C307.811 94.66 307.137 94.8467 306.537 95.22C305.937 95.5933 305.464 96.1 305.117 96.74C304.771 97.3667 304.597 98.0733 304.597 98.86C304.597 99.66 304.764 100.38 305.097 101.02C305.431 101.66 305.891 102.167 306.477 102.54C307.064 102.9 307.751 103.08 308.537 103.08C309.071 103.08 309.484 103.033 309.777 102.94C310.071 102.847 310.324 102.74 310.537 102.62C310.791 102.473 310.971 102.333 311.077 102.2C311.197 102.053 311.351 101.98 311.537 101.98C311.711 101.98 311.837 102.033 311.917 102.14C312.011 102.233 312.057 102.36 312.057 102.52C312.057 102.733 311.897 102.973 311.577 103.24C311.271 103.493 310.844 103.72 310.297 103.92C309.751 104.107 309.124 104.2 308.417 104.2C307.417 104.2 306.537 103.967 305.777 103.5C305.031 103.033 304.444 102.4 304.017 101.6C303.604 100.787 303.397 99.8733 303.397 98.86C303.397 97.8867 303.611 97 304.037 96.2C304.464 95.4 305.057 94.76 305.817 94.28C306.591 93.7867 307.484 93.54 308.497 93.54ZM324.469 98.88C324.469 99.8933 324.249 100.807 323.809 101.62C323.369 102.42 322.769 103.053 322.009 103.52C321.249 103.973 320.382 104.2 319.409 104.2C318.462 104.2 317.602 103.973 316.829 103.52C316.069 103.053 315.462 102.42 315.009 101.62C314.569 100.807 314.349 99.8933 314.349 98.88C314.349 97.8533 314.569 96.94 315.009 96.14C315.462 95.34 316.069 94.7067 316.829 94.24C317.602 93.7733 318.462 93.54 319.409 93.54C320.382 93.54 321.249 93.7733 322.009 94.24C322.769 94.7067 323.369 95.34 323.809 96.14C324.249 96.94 324.469 97.8533 324.469 98.88ZM323.269 98.88C323.269 98.0667 323.102 97.3467 322.769 96.72C322.435 96.08 321.975 95.58 321.389 95.22C320.815 94.8467 320.155 94.66 319.409 94.66C318.689 94.66 318.035 94.8467 317.449 95.22C316.862 95.58 316.395 96.08 316.049 96.72C315.715 97.3467 315.549 98.0667 315.549 98.88C315.549 99.6933 315.715 100.413 316.049 101.04C316.395 101.667 316.862 102.167 317.449 102.54C318.035 102.9 318.689 103.08 319.409 103.08C320.155 103.08 320.815 102.9 321.389 102.54C321.975 102.167 322.435 101.667 322.769 101.04C323.102 100.413 323.269 99.6933 323.269 98.88ZM332.479 93.7C333.386 93.7 334.186 93.9267 334.879 94.38C335.586 94.82 336.146 95.4333 336.559 96.22C336.972 96.9933 337.179 97.8867 337.179 98.9C337.179 99.9133 336.972 100.813 336.559 101.6C336.146 102.387 335.586 103.007 334.879 103.46C334.172 103.913 333.379 104.14 332.499 104.14C332.032 104.14 331.586 104.073 331.159 103.94C330.746 103.793 330.366 103.6 330.019 103.36C329.672 103.12 329.366 102.84 329.099 102.52C328.832 102.187 328.619 101.827 328.459 101.44L328.819 101.18V107.4C328.819 107.56 328.759 107.7 328.639 107.82C328.532 107.94 328.392 108 328.219 108C328.046 108 327.899 107.94 327.779 107.82C327.672 107.7 327.619 107.56 327.619 107.4V94.36C327.619 94.1867 327.672 94.04 327.779 93.92C327.886 93.8 328.032 93.74 328.219 93.74C328.392 93.74 328.532 93.8 328.639 93.92C328.759 94.04 328.819 94.1867 328.819 94.36V96.52L328.539 96.36C328.672 95.9467 328.866 95.58 329.119 95.26C329.386 94.9267 329.692 94.6467 330.039 94.42C330.386 94.18 330.766 94 331.179 93.88C331.592 93.76 332.026 93.7 332.479 93.7ZM332.379 94.82C331.659 94.82 331.026 95 330.479 95.36C329.932 95.7067 329.499 96.1867 329.179 96.8C328.872 97.4 328.719 98.1 328.719 98.9C328.719 99.6867 328.872 100.393 329.179 101.02C329.499 101.647 329.932 102.14 330.479 102.5C331.026 102.847 331.659 103.02 332.379 103.02C333.086 103.02 333.706 102.847 334.239 102.5C334.786 102.14 335.219 101.647 335.539 101.02C335.859 100.393 336.019 99.6867 336.019 98.9C336.019 98.1133 335.859 97.4133 335.539 96.8C335.219 96.1867 334.786 95.7067 334.239 95.36C333.706 95 333.086 94.82 332.379 94.82ZM341.508 103.4C341.508 103.56 341.448 103.7 341.328 103.82C341.208 103.94 341.068 104 340.908 104C340.735 104 340.588 103.94 340.468 103.82C340.361 103.7 340.308 103.56 340.308 103.4V94.2C340.308 94.04 340.361 93.9 340.468 93.78C340.588 93.66 340.735 93.6 340.908 93.6C341.081 93.6 341.221 93.66 341.328 93.78C341.448 93.9 341.508 94.04 341.508 94.2V103.4ZM340.908 92.26C340.628 92.26 340.415 92.2 340.268 92.08C340.135 91.9467 340.068 91.76 340.068 91.52V91.32C340.068 91.08 340.141 90.9 340.288 90.78C340.448 90.6467 340.661 90.58 340.928 90.58C341.181 90.58 341.375 90.6467 341.508 90.78C341.655 90.9 341.728 91.08 341.728 91.32V91.52C341.728 91.76 341.655 91.9467 341.508 92.08C341.375 92.2 341.175 92.26 340.908 92.26ZM346.385 103.4C346.385 103.56 346.325 103.7 346.205 103.82C346.085 103.94 345.945 104 345.785 104C345.612 104 345.465 103.94 345.345 103.82C345.239 103.7 345.185 103.56 345.185 103.4V94.2C345.185 94.04 345.239 93.9 345.345 93.78C345.465 93.66 345.612 93.6 345.785 93.6C345.959 93.6 346.099 93.66 346.205 93.78C346.325 93.9 346.385 94.04 346.385 94.2V103.4ZM345.785 92.26C345.505 92.26 345.292 92.2 345.145 92.08C345.012 91.9467 344.945 91.76 344.945 91.52V91.32C344.945 91.08 345.019 90.9 345.165 90.78C345.325 90.6467 345.539 90.58 345.805 90.58C346.059 90.58 346.252 90.6467 346.385 90.78C346.532 90.9 346.605 91.08 346.605 91.32V91.52C346.605 91.76 346.532 91.9467 346.385 92.08C346.252 92.2 346.052 92.26 345.785 92.26ZM357.331 103.4C357.331 103.56 357.271 103.7 357.151 103.82C357.031 103.94 356.891 104 356.731 104C356.558 104 356.411 103.94 356.291 103.82C356.185 103.7 356.131 103.56 356.131 103.4V94.2C356.131 94.04 356.185 93.9 356.291 93.78C356.411 93.66 356.558 93.6 356.731 93.6C356.905 93.6 357.045 93.66 357.151 93.78C357.271 93.9 357.331 94.04 357.331 94.2V103.4ZM356.951 90.76L355.211 92.22C355.118 92.3 355.031 92.3667 354.951 92.42C354.885 92.4733 354.798 92.5 354.691 92.5C354.598 92.5 354.518 92.4667 354.451 92.4C354.385 92.3333 354.351 92.26 354.351 92.18C354.351 92.1267 354.365 92.0733 354.391 92.02C354.405 91.9667 354.445 91.9133 354.511 91.86L355.971 90.26C356.118 90.0333 356.338 89.92 356.631 89.92H356.951C357.098 89.92 357.218 89.9467 357.311 90C357.418 90.04 357.511 90.1267 357.591 90.26L359.031 91.84C359.085 91.9067 359.118 91.9667 359.131 92.02C359.158 92.06 359.171 92.1133 359.171 92.18C359.171 92.2467 359.138 92.3133 359.071 92.38C359.018 92.4467 358.945 92.48 358.851 92.48C358.745 92.48 358.651 92.4533 358.571 92.4C358.491 92.3467 358.405 92.28 358.311 92.2L356.531 90.78L356.951 90.76ZM365.869 93.54C366.749 93.54 367.449 93.72 367.969 94.08C368.502 94.4267 368.882 94.9067 369.109 95.52C369.349 96.12 369.469 96.7867 369.469 97.52V103.4C369.469 103.56 369.409 103.7 369.289 103.82C369.169 103.94 369.029 104 368.869 104C368.682 104 368.535 103.94 368.429 103.82C368.322 103.7 368.269 103.56 368.269 103.4V97.58C368.269 97.0467 368.182 96.56 368.009 96.12C367.835 95.68 367.549 95.3267 367.149 95.06C366.762 94.7933 366.249 94.66 365.609 94.66C365.035 94.66 364.489 94.7933 363.969 95.06C363.462 95.3267 363.049 95.68 362.729 96.12C362.409 96.56 362.249 97.0467 362.249 97.58V103.4C362.249 103.56 362.189 103.7 362.069 103.82C361.949 103.94 361.809 104 361.649 104C361.462 104 361.315 103.94 361.209 103.82C361.102 103.7 361.049 103.56 361.049 103.4V94.44C361.049 94.28 361.102 94.14 361.209 94.02C361.329 93.9 361.475 93.84 361.649 93.84C361.822 93.84 361.962 93.9 362.069 94.02C362.189 94.14 362.249 94.28 362.249 94.44V96.12L361.789 96.84C361.815 96.4133 361.949 96.0067 362.189 95.62C362.442 95.22 362.762 94.8667 363.149 94.56C363.535 94.24 363.962 93.9933 364.429 93.82C364.909 93.6333 365.389 93.54 365.869 93.54ZM372.631 102.38C372.525 102.22 372.471 102.067 372.471 101.92C372.485 101.76 372.571 101.633 372.731 101.54C372.838 101.447 372.958 101.407 373.091 101.42C373.238 101.433 373.371 101.5 373.491 101.62C373.851 102.087 374.285 102.467 374.791 102.76C375.311 103.04 375.925 103.18 376.631 103.18C377.005 103.18 377.371 103.12 377.731 103C378.105 102.867 378.411 102.673 378.651 102.42C378.891 102.153 379.011 101.82 379.011 101.42C379.011 101.007 378.891 100.673 378.651 100.42C378.411 100.167 378.098 99.9667 377.711 99.82C377.338 99.6733 376.938 99.5467 376.511 99.44C376.058 99.32 375.618 99.1867 375.191 99.04C374.765 98.88 374.385 98.6867 374.051 98.46C373.731 98.22 373.471 97.9333 373.271 97.6C373.071 97.2667 372.971 96.86 372.971 96.38C372.971 95.82 373.125 95.3267 373.431 94.9C373.738 94.4733 374.151 94.14 374.671 93.9C375.205 93.66 375.805 93.54 376.471 93.54C376.805 93.54 377.165 93.5867 377.551 93.68C377.938 93.76 378.318 93.9 378.691 94.1C379.065 94.3 379.398 94.5733 379.691 94.92C379.811 95.04 379.871 95.18 379.871 95.34C379.871 95.4867 379.805 95.62 379.671 95.74C379.565 95.82 379.438 95.86 379.291 95.86C379.158 95.86 379.045 95.8067 378.951 95.7C378.631 95.34 378.251 95.0667 377.811 94.88C377.371 94.6933 376.898 94.6 376.391 94.6C376.005 94.6 375.638 94.6667 375.291 94.8C374.958 94.92 374.678 95.1067 374.451 95.36C374.225 95.6133 374.111 95.9467 374.111 96.36C374.138 96.7467 374.271 97.06 374.511 97.3C374.765 97.54 375.091 97.74 375.491 97.9C375.905 98.06 376.365 98.2067 376.871 98.34C377.298 98.4467 377.705 98.5733 378.091 98.72C378.491 98.8667 378.838 99.0533 379.131 99.28C379.438 99.4933 379.678 99.7667 379.851 100.1C380.038 100.433 380.131 100.853 380.131 101.36C380.131 101.947 379.965 102.453 379.631 102.88C379.311 103.307 378.878 103.633 378.331 103.86C377.785 104.087 377.178 104.2 376.511 104.2C375.791 104.2 375.091 104.06 374.411 103.78C373.745 103.5 373.151 103.033 372.631 102.38ZM387.686 93.54C388.326 93.54 388.913 93.6133 389.446 93.76C389.98 93.8933 390.406 94.08 390.726 94.32C391.06 94.56 391.226 94.82 391.226 95.1C391.226 95.2333 391.18 95.3667 391.086 95.5C390.993 95.62 390.866 95.68 390.706 95.68C390.546 95.68 390.413 95.64 390.306 95.56C390.213 95.48 390.113 95.3867 390.006 95.28C389.913 95.1733 389.773 95.0733 389.586 94.98C389.413 94.9 389.166 94.8267 388.846 94.76C388.526 94.6933 388.16 94.66 387.746 94.66C387 94.66 386.326 94.8467 385.726 95.22C385.126 95.5933 384.653 96.1 384.306 96.74C383.96 97.3667 383.786 98.0733 383.786 98.86C383.786 99.66 383.953 100.38 384.286 101.02C384.62 101.66 385.08 102.167 385.666 102.54C386.253 102.9 386.94 103.08 387.726 103.08C388.26 103.08 388.673 103.033 388.966 102.94C389.26 102.847 389.513 102.74 389.726 102.62C389.98 102.473 390.16 102.333 390.266 102.2C390.386 102.053 390.54 101.98 390.726 101.98C390.9 101.98 391.026 102.033 391.106 102.14C391.2 102.233 391.246 102.36 391.246 102.52C391.246 102.733 391.086 102.973 390.766 103.24C390.46 103.493 390.033 103.72 389.486 103.92C388.94 104.107 388.313 104.2 387.606 104.2C386.606 104.2 385.726 103.967 384.966 103.5C384.22 103.033 383.633 102.4 383.206 101.6C382.793 100.787 382.586 99.8733 382.586 98.86C382.586 97.8867 382.8 97 383.226 96.2C383.653 95.4 384.246 94.76 385.006 94.28C385.78 93.7867 386.673 93.54 387.686 93.54ZM394.738 104C394.551 104 394.404 103.94 394.298 103.82C394.191 103.7 394.138 103.56 394.138 103.4V94.44C394.138 94.28 394.191 94.14 394.298 94.02C394.418 93.9 394.564 93.84 394.738 93.84C394.911 93.84 395.051 93.9 395.158 94.02C395.278 94.14 395.338 94.28 395.338 94.44V97.44L395.038 97.5C395.078 97.0333 395.191 96.5733 395.378 96.12C395.578 95.6533 395.844 95.2267 396.178 94.84C396.511 94.4533 396.904 94.14 397.358 93.9C397.824 93.66 398.344 93.54 398.918 93.54C399.158 93.54 399.391 93.5933 399.618 93.7C399.844 93.7933 399.958 93.9533 399.958 94.18C399.958 94.38 399.904 94.5333 399.798 94.64C399.691 94.7467 399.564 94.8 399.418 94.8C399.298 94.8 399.164 94.7667 399.018 94.7C398.884 94.6333 398.704 94.6 398.478 94.6C398.104 94.6 397.731 94.7133 397.358 94.94C396.984 95.1533 396.644 95.4467 396.338 95.82C396.031 96.1933 395.784 96.6133 395.598 97.08C395.424 97.5333 395.338 97.9933 395.338 98.46V103.4C395.338 103.56 395.278 103.7 395.158 103.82C395.038 103.94 394.898 104 394.738 104ZM403.593 103.4C403.593 103.56 403.533 103.7 403.413 103.82C403.293 103.94 403.153 104 402.993 104C402.82 104 402.673 103.94 402.553 103.82C402.446 103.7 402.393 103.56 402.393 103.4V94.2C402.393 94.04 402.446 93.9 402.553 93.78C402.673 93.66 402.82 93.6 402.993 93.6C403.166 93.6 403.306 93.66 403.413 93.78C403.533 93.9 403.593 94.04 403.593 94.2V103.4ZM402.993 92.26C402.713 92.26 402.5 92.2 402.353 92.08C402.22 91.9467 402.153 91.76 402.153 91.52V91.32C402.153 91.08 402.226 90.9 402.373 90.78C402.533 90.6467 402.746 90.58 403.013 90.58C403.266 90.58 403.46 90.6467 403.593 90.78C403.74 90.9 403.813 91.08 403.813 91.32V91.52C403.813 91.76 403.74 91.9467 403.593 92.08C403.46 92.2 403.26 92.26 402.993 92.26ZM406.73 102.38C406.624 102.22 406.57 102.067 406.57 101.92C406.584 101.76 406.67 101.633 406.83 101.54C406.937 101.447 407.057 101.407 407.19 101.42C407.337 101.433 407.47 101.5 407.59 101.62C407.95 102.087 408.384 102.467 408.89 102.76C409.41 103.04 410.024 103.18 410.73 103.18C411.104 103.18 411.47 103.12 411.83 103C412.204 102.867 412.51 102.673 412.75 102.42C412.99 102.153 413.11 101.82 413.11 101.42C413.11 101.007 412.99 100.673 412.75 100.42C412.51 100.167 412.197 99.9667 411.81 99.82C411.437 99.6733 411.037 99.5467 410.61 99.44C410.157 99.32 409.717 99.1867 409.29 99.04C408.864 98.88 408.484 98.6867 408.15 98.46C407.83 98.22 407.57 97.9333 407.37 97.6C407.17 97.2667 407.07 96.86 407.07 96.38C407.07 95.82 407.224 95.3267 407.53 94.9C407.837 94.4733 408.25 94.14 408.77 93.9C409.304 93.66 409.904 93.54 410.57 93.54C410.904 93.54 411.264 93.5867 411.65 93.68C412.037 93.76 412.417 93.9 412.79 94.1C413.164 94.3 413.497 94.5733 413.79 94.92C413.91 95.04 413.97 95.18 413.97 95.34C413.97 95.4867 413.904 95.62 413.77 95.74C413.664 95.82 413.537 95.86 413.39 95.86C413.257 95.86 413.144 95.8067 413.05 95.7C412.73 95.34 412.35 95.0667 411.91 94.88C411.47 94.6933 410.997 94.6 410.49 94.6C410.104 94.6 409.737 94.6667 409.39 94.8C409.057 94.92 408.777 95.1067 408.55 95.36C408.324 95.6133 408.21 95.9467 408.21 96.36C408.237 96.7467 408.37 97.06 408.61 97.3C408.864 97.54 409.19 97.74 409.59 97.9C410.004 98.06 410.464 98.2067 410.97 98.34C411.397 98.4467 411.804 98.5733 412.19 98.72C412.59 98.8667 412.937 99.0533 413.23 99.28C413.537 99.4933 413.777 99.7667 413.95 100.1C414.137 100.433 414.23 100.853 414.23 101.36C414.23 101.947 414.064 102.453 413.73 102.88C413.41 103.307 412.977 103.633 412.43 103.86C411.884 104.087 411.277 104.2 410.61 104.2C409.89 104.2 409.19 104.06 408.51 103.78C407.844 103.5 407.25 103.033 406.73 102.38ZM411.53 106.1C411.53 106.46 411.424 106.807 411.21 107.14C410.997 107.487 410.737 107.767 410.43 107.98C410.124 108.207 409.824 108.32 409.53 108.32C409.424 108.32 409.317 108.287 409.21 108.22C409.117 108.153 409.07 108.027 409.07 107.84C409.07 107.653 409.13 107.547 409.25 107.52C409.384 107.507 409.544 107.447 409.73 107.34C409.957 107.233 410.13 107.1 410.25 106.94C410.37 106.78 410.43 106.593 410.43 106.38C410.43 106.207 410.377 106.073 410.27 105.98C410.177 105.887 410.064 105.84 409.93 105.84C409.837 105.84 409.744 105.853 409.65 105.88C409.557 105.907 409.47 105.947 409.39 106C409.324 105.933 409.264 105.86 409.21 105.78C409.157 105.7 409.137 105.6 409.15 105.48C409.177 105.253 409.297 105.053 409.51 104.88C409.737 104.72 409.997 104.64 410.29 104.64C410.65 104.64 410.944 104.787 411.17 105.08C411.41 105.373 411.53 105.713 411.53 106.1ZM418.445 103.4C418.445 103.56 418.385 103.7 418.265 103.82C418.145 103.94 418.005 104 417.845 104C417.672 104 417.525 103.94 417.405 103.82C417.299 103.7 417.245 103.56 417.245 103.4V94.2C417.245 94.04 417.299 93.9 417.405 93.78C417.525 93.66 417.672 93.6 417.845 93.6C418.019 93.6 418.159 93.66 418.265 93.78C418.385 93.9 418.445 94.04 418.445 94.2V103.4ZM417.845 92.26C417.565 92.26 417.352 92.2 417.205 92.08C417.072 91.9467 417.005 91.76 417.005 91.52V91.32C417.005 91.08 417.079 90.9 417.225 90.78C417.385 90.6467 417.599 90.58 417.865 90.58C418.119 90.58 418.312 90.6467 418.445 90.78C418.592 90.9 418.665 91.08 418.665 91.32V91.52C418.665 91.76 418.592 91.9467 418.445 92.08C418.312 92.2 418.112 92.26 417.845 92.26ZM344.352 124.78C344.525 124.78 344.665 124.84 344.772 124.96C344.892 125.08 344.952 125.227 344.952 125.4V134.4C344.952 134.56 344.892 134.7 344.772 134.82C344.652 134.94 344.512 135 344.352 135C344.178 135 344.032 134.94 343.912 134.82C343.805 134.7 343.752 134.56 343.752 134.4V132.02L344.092 131.86C344.092 132.233 343.985 132.613 343.772 133C343.572 133.387 343.292 133.747 342.932 134.08C342.572 134.413 342.145 134.687 341.652 134.9C341.172 135.1 340.652 135.2 340.092 135.2C339.185 135.2 338.372 134.967 337.652 134.5C336.945 134.033 336.385 133.393 335.972 132.58C335.572 131.767 335.372 130.853 335.372 129.84C335.372 128.8 335.578 127.887 335.992 127.1C336.405 126.3 336.965 125.673 337.672 125.22C338.378 124.767 339.178 124.54 340.072 124.54C340.645 124.54 341.178 124.64 341.672 124.84C342.178 125.04 342.618 125.313 342.992 125.66C343.365 126.007 343.652 126.407 343.852 126.86C344.065 127.3 344.172 127.76 344.172 128.24L343.752 127.94V125.4C343.752 125.227 343.805 125.08 343.912 124.96C344.032 124.84 344.178 124.78 344.352 124.78ZM340.192 134.08C340.898 134.08 341.525 133.9 342.072 133.54C342.618 133.167 343.045 132.66 343.352 132.02C343.672 131.367 343.832 130.64 343.832 129.84C343.832 129.053 343.672 128.347 343.352 127.72C343.045 127.093 342.618 126.593 342.072 126.22C341.525 125.847 340.898 125.66 340.192 125.66C339.498 125.66 338.872 125.84 338.312 126.2C337.765 126.56 337.332 127.053 337.012 127.68C336.705 128.307 336.552 129.027 336.552 129.84C336.552 130.64 336.705 131.367 337.012 132.02C337.332 132.66 337.765 133.167 338.312 133.54C338.858 133.9 339.485 134.08 340.192 134.08ZM353.521 124.54C354.401 124.54 355.101 124.72 355.621 125.08C356.154 125.427 356.534 125.907 356.761 126.52C357.001 127.12 357.121 127.787 357.121 128.52V134.4C357.121 134.56 357.061 134.7 356.941 134.82C356.821 134.94 356.681 135 356.521 135C356.334 135 356.187 134.94 356.081 134.82C355.974 134.7 355.921 134.56 355.921 134.4V128.58C355.921 128.047 355.834 127.56 355.661 127.12C355.487 126.68 355.201 126.327 354.801 126.06C354.414 125.793 353.901 125.66 353.261 125.66C352.687 125.66 352.141 125.793 351.621 126.06C351.114 126.327 350.701 126.68 350.381 127.12C350.061 127.56 349.901 128.047 349.901 128.58V134.4C349.901 134.56 349.841 134.7 349.721 134.82C349.601 134.94 349.461 135 349.301 135C349.114 135 348.967 134.94 348.861 134.82C348.754 134.7 348.701 134.56 348.701 134.4V125.44C348.701 125.28 348.754 125.14 348.861 125.02C348.981 124.9 349.127 124.84 349.301 124.84C349.474 124.84 349.614 124.9 349.721 125.02C349.841 125.14 349.901 125.28 349.901 125.44V127.12L349.441 127.84C349.467 127.413 349.601 127.007 349.841 126.62C350.094 126.22 350.414 125.867 350.801 125.56C351.187 125.24 351.614 124.993 352.081 124.82C352.561 124.633 353.041 124.54 353.521 124.54ZM368.503 124.84C368.677 124.84 368.817 124.9 368.923 125.02C369.043 125.14 369.103 125.28 369.103 125.44V131.08C369.103 132.4 368.73 133.407 367.983 134.1C367.237 134.793 366.23 135.14 364.963 135.14C363.71 135.14 362.71 134.793 361.963 134.1C361.23 133.407 360.863 132.4 360.863 131.08V125.44C360.863 125.28 360.917 125.14 361.023 125.02C361.143 124.9 361.29 124.84 361.463 124.84C361.637 124.84 361.777 124.9 361.883 125.02C362.003 125.14 362.063 125.28 362.063 125.44V131.08C362.063 132.04 362.317 132.773 362.823 133.28C363.343 133.773 364.057 134.02 364.963 134.02C365.883 134.02 366.603 133.773 367.123 133.28C367.643 132.773 367.903 132.04 367.903 131.08V125.44C367.903 125.28 367.957 125.14 368.063 125.02C368.17 124.9 368.317 124.84 368.503 124.84ZM381.23 124.78C381.403 124.78 381.543 124.84 381.65 124.96C381.77 125.08 381.83 125.227 381.83 125.4V134.4C381.83 134.56 381.77 134.7 381.65 134.82C381.53 134.94 381.39 135 381.23 135C381.057 135 380.91 134.94 380.79 134.82C380.683 134.7 380.63 134.56 380.63 134.4V132.02L380.97 131.86C380.97 132.233 380.863 132.613 380.65 133C380.45 133.387 380.17 133.747 379.81 134.08C379.45 134.413 379.023 134.687 378.53 134.9C378.05 135.1 377.53 135.2 376.97 135.2C376.063 135.2 375.25 134.967 374.53 134.5C373.823 134.033 373.263 133.393 372.85 132.58C372.45 131.767 372.25 130.853 372.25 129.84C372.25 128.8 372.457 127.887 372.87 127.1C373.283 126.3 373.843 125.673 374.55 125.22C375.257 124.767 376.057 124.54 376.95 124.54C377.523 124.54 378.057 124.64 378.55 124.84C379.057 125.04 379.497 125.313 379.87 125.66C380.243 126.007 380.53 126.407 380.73 126.86C380.943 127.3 381.05 127.76 381.05 128.24L380.63 127.94V125.4C380.63 125.227 380.683 125.08 380.79 124.96C380.91 124.84 381.057 124.78 381.23 124.78ZM377.07 134.08C377.777 134.08 378.403 133.9 378.95 133.54C379.497 133.167 379.923 132.66 380.23 132.02C380.55 131.367 380.71 130.64 380.71 129.84C380.71 129.053 380.55 128.347 380.23 127.72C379.923 127.093 379.497 126.593 378.95 126.22C378.403 125.847 377.777 125.66 377.07 125.66C376.377 125.66 375.75 125.84 375.19 126.2C374.643 126.56 374.21 127.053 373.89 127.68C373.583 128.307 373.43 129.027 373.43 129.84C373.43 130.64 373.583 131.367 373.89 132.02C374.21 132.66 374.643 133.167 375.19 133.54C375.737 133.9 376.363 134.08 377.07 134.08ZM386.899 134.4C386.899 134.56 386.839 134.7 386.719 134.82C386.599 134.94 386.459 135 386.299 135C386.125 135 385.979 134.94 385.859 134.82C385.752 134.7 385.699 134.56 385.699 134.4V120.8C385.699 120.64 385.759 120.5 385.879 120.38C385.999 120.26 386.139 120.2 386.299 120.2C386.472 120.2 386.612 120.26 386.719 120.38C386.839 120.5 386.899 120.64 386.899 120.8V134.4Z" fill="white"/>
<path d="M337.288 66.352C336.221 66.352 335.475 66.1387 335.048 65.712C334.621 65.2853 334.408 64.528 334.408 63.44V46.768C334.408 45.7013 334.621 44.9547 335.048 44.528C335.475 44.1013 336.232 43.888 337.32 43.888C338.387 43.888 339.133 44.112 339.56 44.56C339.987 44.9867 340.2 45.744 340.2 46.832V63.472C340.2 64.5387 339.987 65.2853 339.56 65.712C339.133 66.1387 338.376 66.352 337.288 66.352ZM334.088 52.912C333.363 53.552 332.701 53.8613 332.104 53.84C331.528 53.8187 330.899 53.4453 330.216 52.72C329.512 51.9733 329.181 51.2693 329.224 50.608C329.267 49.9467 329.715 49.2427 330.568 48.496L334.632 44.848C335.336 44.208 335.987 43.92 336.584 43.984C337.203 44.0267 337.843 44.4107 338.504 45.136C339.187 45.8613 339.496 46.5547 339.432 47.216C339.389 47.856 338.941 48.56 338.088 49.328L334.088 52.912ZM350.917 66.704C349.424 66.704 348.154 66.448 347.109 65.936C346.085 65.4027 345.253 64.7093 344.613 63.856C343.973 63.0027 343.472 62.064 343.109 61.04C342.768 60.016 342.533 58.992 342.405 57.968C342.277 56.9227 342.213 55.9733 342.213 55.12C342.213 54.352 342.277 53.4667 342.405 52.464C342.533 51.4613 342.757 50.448 343.077 49.424C343.418 48.3787 343.909 47.4187 344.549 46.544C345.189 45.648 346.021 44.9333 347.045 44.4C348.09 43.8453 349.36 43.568 350.853 43.568C352.304 43.568 353.53 43.8347 354.533 44.368C355.557 44.9013 356.378 45.6053 356.997 46.48C357.637 47.3333 358.128 48.2827 358.469 49.328C358.832 50.352 359.077 51.376 359.205 52.4C359.333 53.424 359.397 54.3413 359.397 55.152C359.397 56.0053 359.322 56.9547 359.173 58C359.045 59.024 358.8 60.048 358.437 61.072C358.096 62.096 357.605 63.0347 356.965 63.888C356.346 64.7413 355.536 65.424 354.533 65.936C353.552 66.448 352.346 66.704 350.917 66.704ZM350.789 60.816C351.344 60.816 351.792 60.688 352.133 60.432C352.474 60.1547 352.741 59.8027 352.933 59.376C353.125 58.9493 353.264 58.4907 353.349 58C353.434 57.488 353.488 56.9973 353.509 56.528C353.53 56.0373 353.541 55.6213 353.541 55.28V55.12C353.541 53.8827 353.434 52.848 353.221 52.016C353.029 51.1627 352.73 50.5227 352.325 50.096C351.941 49.648 351.44 49.424 350.821 49.424C350.181 49.424 349.658 49.6373 349.253 50.064C348.848 50.4907 348.549 51.1307 348.357 51.984C348.165 52.8373 348.069 53.8933 348.069 55.152C348.069 56.368 348.165 57.4027 348.357 58.256C348.57 59.088 348.88 59.728 349.285 60.176C349.69 60.6027 350.192 60.816 350.789 60.816ZM369.651 66.704C368.157 66.704 366.888 66.448 365.843 65.936C364.819 65.4027 363.987 64.7093 363.347 63.856C362.707 63.0027 362.205 62.064 361.843 61.04C361.501 60.016 361.267 58.992 361.139 57.968C361.011 56.9227 360.947 55.9733 360.947 55.12C360.947 54.352 361.011 53.4667 361.139 52.464C361.267 51.4613 361.491 50.448 361.811 49.424C362.152 48.3787 362.643 47.4187 363.283 46.544C363.923 45.648 364.755 44.9333 365.779 44.4C366.824 43.8453 368.093 43.568 369.587 43.568C371.037 43.568 372.264 43.8347 373.267 44.368C374.291 44.9013 375.112 45.6053 375.731 46.48C376.371 47.3333 376.861 48.2827 377.203 49.328C377.565 50.352 377.811 51.376 377.939 52.4C378.067 53.424 378.131 54.3413 378.131 55.152C378.131 56.0053 378.056 56.9547 377.907 58C377.779 59.024 377.533 60.048 377.171 61.072C376.829 62.096 376.339 63.0347 375.699 63.888C375.08 64.7413 374.269 65.424 373.267 65.936C372.285 66.448 371.08 66.704 369.651 66.704ZM369.523 60.816C370.077 60.816 370.525 60.688 370.867 60.432C371.208 60.1547 371.475 59.8027 371.667 59.376C371.859 58.9493 371.997 58.4907 372.083 58C372.168 57.488 372.221 56.9973 372.243 56.528C372.264 56.0373 372.275 55.6213 372.275 55.28V55.12C372.275 53.8827 372.168 52.848 371.955 52.016C371.763 51.1627 371.464 50.5227 371.059 50.096C370.675 49.648 370.173 49.424 369.555 49.424C368.915 49.424 368.392 49.6373 367.987 50.064C367.581 50.4907 367.283 51.1307 367.091 51.984C366.899 52.8373 366.803 53.8933 366.803 55.152C366.803 56.368 366.899 57.4027 367.091 58.256C367.304 59.088 367.613 59.728 368.019 60.176C368.424 60.6027 368.925 60.816 369.523 60.816ZM388.384 66.704C386.891 66.704 385.622 66.448 384.576 65.936C383.552 65.4027 382.72 64.7093 382.08 63.856C381.44 63.0027 380.939 62.064 380.576 61.04C380.235 60.016 380 58.992 379.872 57.968C379.744 56.9227 379.68 55.9733 379.68 55.12C379.68 54.352 379.744 53.4667 379.872 52.464C380 51.4613 380.224 50.448 380.544 49.424C380.886 48.3787 381.376 47.4187 382.016 46.544C382.656 45.648 383.488 44.9333 384.512 44.4C385.558 43.8453 386.827 43.568 388.32 43.568C389.771 43.568 390.998 43.8347 392 44.368C393.024 44.9013 393.846 45.6053 394.464 46.48C395.104 47.3333 395.595 48.2827 395.936 49.328C396.299 50.352 396.544 51.376 396.672 52.4C396.8 53.424 396.864 54.3413 396.864 55.152C396.864 56.0053 396.79 56.9547 396.64 58C396.512 59.024 396.267 60.048 395.904 61.072C395.563 62.096 395.072 63.0347 394.432 63.888C393.814 64.7413 393.003 65.424 392 65.936C391.019 66.448 389.814 66.704 388.384 66.704ZM388.256 60.816C388.811 60.816 389.259 60.688 389.6 60.432C389.942 60.1547 390.208 59.8027 390.4 59.376C390.592 58.9493 390.731 58.4907 390.816 58C390.902 57.488 390.955 56.9973 390.976 56.528C390.998 56.0373 391.008 55.6213 391.008 55.28V55.12C391.008 53.8827 390.902 52.848 390.688 52.016C390.496 51.1627 390.198 50.5227 389.792 50.096C389.408 49.648 388.907 49.424 388.288 49.424C387.648 49.424 387.126 49.6373 386.72 50.064C386.315 50.4907 386.016 51.1307 385.824 51.984C385.632 52.8373 385.536 53.8933 385.536 55.152C385.536 56.368 385.632 57.4027 385.824 58.256C386.038 59.088 386.347 59.728 386.752 60.176C387.158 60.6027 387.659 60.816 388.256 60.816Z" fill="white"/>
<path d="M580.569 94.7C581.476 94.7 582.276 94.9267 582.969 95.38C583.676 95.82 584.236 96.4333 584.649 97.22C585.063 97.9933 585.269 98.8867 585.269 99.9C585.269 100.913 585.063 101.813 584.649 102.6C584.236 103.387 583.676 104.007 582.969 104.46C582.263 104.913 581.469 105.14 580.589 105.14C580.123 105.14 579.676 105.073 579.249 104.94C578.836 104.793 578.456 104.6 578.109 104.36C577.763 104.12 577.456 103.84 577.189 103.52C576.923 103.187 576.709 102.827 576.549 102.44L576.909 102.18V108.4C576.909 108.56 576.849 108.7 576.729 108.82C576.623 108.94 576.483 109 576.309 109C576.136 109 575.989 108.94 575.869 108.82C575.763 108.7 575.709 108.56 575.709 108.4V95.36C575.709 95.1867 575.763 95.04 575.869 94.92C575.976 94.8 576.123 94.74 576.309 94.74C576.483 94.74 576.623 94.8 576.729 94.92C576.849 95.04 576.909 95.1867 576.909 95.36V97.52L576.629 97.36C576.763 96.9467 576.956 96.58 577.209 96.26C577.476 95.9267 577.783 95.6467 578.129 95.42C578.476 95.18 578.856 95 579.269 94.88C579.683 94.76 580.116 94.7 580.569 94.7ZM580.469 95.82C579.749 95.82 579.116 96 578.569 96.36C578.023 96.7067 577.589 97.1867 577.269 97.8C576.963 98.4 576.809 99.1 576.809 99.9C576.809 100.687 576.963 101.393 577.269 102.02C577.589 102.647 578.023 103.14 578.569 103.5C579.116 103.847 579.749 104.02 580.469 104.02C581.176 104.02 581.796 103.847 582.329 103.5C582.876 103.14 583.309 102.647 583.629 102.02C583.949 101.393 584.109 100.687 584.109 99.9C584.109 99.1133 583.949 98.4133 583.629 97.8C583.309 97.1867 582.876 96.7067 582.329 96.36C581.796 96 581.176 95.82 580.469 95.82ZM589.038 105C588.851 105 588.705 104.94 588.598 104.82C588.491 104.7 588.438 104.56 588.438 104.4V95.44C588.438 95.28 588.491 95.14 588.598 95.02C588.718 94.9 588.865 94.84 589.038 94.84C589.211 94.84 589.351 94.9 589.458 95.02C589.578 95.14 589.638 95.28 589.638 95.44V98.44L589.338 98.5C589.378 98.0333 589.491 97.5733 589.678 97.12C589.878 96.6533 590.145 96.2267 590.478 95.84C590.811 95.4533 591.205 95.14 591.658 94.9C592.125 94.66 592.645 94.54 593.218 94.54C593.458 94.54 593.691 94.5933 593.918 94.7C594.145 94.7933 594.258 94.9533 594.258 95.18C594.258 95.38 594.205 95.5333 594.098 95.64C593.991 95.7467 593.865 95.8 593.718 95.8C593.598 95.8 593.465 95.7667 593.318 95.7C593.185 95.6333 593.005 95.6 592.778 95.6C592.405 95.6 592.031 95.7133 591.658 95.94C591.285 96.1533 590.945 96.4467 590.638 96.82C590.331 97.1933 590.085 97.6133 589.898 98.08C589.725 98.5333 589.638 98.9933 589.638 99.46V104.4C589.638 104.56 589.578 104.7 589.458 104.82C589.338 104.94 589.198 105 589.038 105ZM600.904 105.2C599.878 105.2 598.971 104.98 598.184 104.54C597.398 104.1 596.784 103.487 596.344 102.7C595.904 101.913 595.684 100.993 595.684 99.94C595.684 98.8067 595.904 97.84 596.344 97.04C596.798 96.24 597.378 95.6267 598.084 95.2C598.804 94.76 599.564 94.54 600.364 94.54C600.951 94.54 601.518 94.6467 602.064 94.86C602.624 95.06 603.118 95.3667 603.544 95.78C603.984 96.18 604.331 96.6733 604.584 97.26C604.851 97.8467 604.998 98.5267 605.024 99.3C605.011 99.46 604.944 99.6 604.824 99.72C604.704 99.8267 604.564 99.88 604.404 99.88H596.384L596.144 98.8H604.024L603.764 99.04V98.64C603.711 98.0133 603.511 97.48 603.164 97.04C602.818 96.6 602.398 96.2667 601.904 96.04C601.411 95.8133 600.898 95.7 600.364 95.7C599.964 95.7 599.551 95.78 599.124 95.94C598.711 96.1 598.331 96.3533 597.984 96.7C597.651 97.0333 597.378 97.4667 597.164 98C596.951 98.52 596.844 99.14 596.844 99.86C596.844 100.647 597.004 101.36 597.324 102C597.644 102.64 598.104 103.147 598.704 103.52C599.318 103.893 600.044 104.08 600.884 104.08C601.351 104.08 601.771 104.013 602.144 103.88C602.518 103.747 602.844 103.573 603.124 103.36C603.404 103.133 603.638 102.9 603.824 102.66C603.971 102.54 604.118 102.48 604.264 102.48C604.398 102.48 604.511 102.533 604.604 102.64C604.711 102.747 604.764 102.867 604.764 103C604.764 103.16 604.698 103.3 604.564 103.42C604.164 103.9 603.644 104.32 603.004 104.68C602.364 105.027 601.664 105.2 600.904 105.2ZM612.793 94.7C613.619 94.7 614.326 94.92 614.913 95.36C615.499 95.7867 615.899 96.4267 616.113 97.28L615.833 97.36L615.953 97C616.126 96.6 616.413 96.2267 616.813 95.88C617.226 95.52 617.693 95.2333 618.213 95.02C618.733 94.8067 619.259 94.7 619.793 94.7C620.633 94.7 621.306 94.88 621.813 95.24C622.333 95.6 622.706 96.0867 622.933 96.7C623.173 97.3 623.293 97.98 623.293 98.74V104.4C623.293 104.56 623.233 104.7 623.113 104.82C623.006 104.94 622.866 105 622.693 105C622.519 105 622.373 104.94 622.253 104.82C622.146 104.7 622.093 104.56 622.093 104.4V98.8C622.093 98.2533 622.006 97.7533 621.833 97.3C621.659 96.8467 621.386 96.4867 621.013 96.22C620.639 95.9533 620.139 95.82 619.513 95.82C618.966 95.82 618.439 95.9533 617.933 96.22C617.439 96.4867 617.033 96.8467 616.713 97.3C616.406 97.7533 616.253 98.2533 616.253 98.8V104.4C616.253 104.56 616.193 104.7 616.073 104.82C615.966 104.94 615.826 105 615.653 105C615.479 105 615.333 104.94 615.213 104.82C615.106 104.7 615.053 104.56 615.053 104.4V98.74C615.053 98.1933 614.973 97.7 614.813 97.26C614.653 96.82 614.393 96.4733 614.033 96.22C613.673 95.9533 613.186 95.82 612.573 95.82C612.026 95.82 611.506 95.9533 611.013 96.22C610.533 96.4733 610.139 96.82 609.833 97.26C609.539 97.7 609.393 98.1933 609.393 98.74V104.4C609.393 104.56 609.333 104.7 609.213 104.82C609.093 104.94 608.953 105 608.793 105C608.606 105 608.459 104.94 608.353 104.82C608.246 104.7 608.193 104.56 608.193 104.4V95.44C608.193 95.28 608.246 95.14 608.353 95.02C608.473 94.9 608.619 94.84 608.793 94.84C608.966 94.84 609.106 94.9 609.213 95.02C609.333 95.14 609.393 95.28 609.393 95.44V97.3L608.853 98.04C608.893 97.64 609.019 97.24 609.233 96.84C609.459 96.44 609.753 96.08 610.113 95.76C610.473 95.44 610.879 95.1867 611.333 95C611.799 94.8 612.286 94.7 612.793 94.7ZM628.195 104.4C628.195 104.56 628.135 104.7 628.015 104.82C627.895 104.94 627.755 105 627.595 105C627.422 105 627.275 104.94 627.155 104.82C627.048 104.7 626.995 104.56 626.995 104.4V95.2C626.995 95.04 627.048 94.9 627.155 94.78C627.275 94.66 627.422 94.6 627.595 94.6C627.768 94.6 627.908 94.66 628.015 94.78C628.135 94.9 628.195 95.04 628.195 95.2V104.4ZM627.595 93.26C627.315 93.26 627.102 93.2 626.955 93.08C626.822 92.9467 626.755 92.76 626.755 92.52V92.32C626.755 92.08 626.828 91.9 626.975 91.78C627.135 91.6467 627.348 91.58 627.615 91.58C627.868 91.58 628.062 91.6467 628.195 91.78C628.342 91.9 628.415 92.08 628.415 92.32V92.52C628.415 92.76 628.342 92.9467 628.195 93.08C628.062 93.2 627.862 93.26 627.595 93.26ZM633.072 104.4C633.072 104.56 633.012 104.7 632.892 104.82C632.772 104.94 632.632 105 632.472 105C632.299 105 632.152 104.94 632.032 104.82C631.926 104.7 631.872 104.56 631.872 104.4V95.2C631.872 95.04 631.926 94.9 632.032 94.78C632.152 94.66 632.299 94.6 632.472 94.6C632.646 94.6 632.786 94.66 632.892 94.78C633.012 94.9 633.072 95.04 633.072 95.2V104.4ZM632.472 93.26C632.192 93.26 631.979 93.2 631.832 93.08C631.699 92.9467 631.632 92.76 631.632 92.52V92.32C631.632 92.08 631.706 91.9 631.852 91.78C632.012 91.6467 632.226 91.58 632.492 91.58C632.746 91.58 632.939 91.6467 633.072 91.78C633.219 91.9 633.292 92.08 633.292 92.32V92.52C633.292 92.76 633.219 92.9467 633.072 93.08C632.939 93.2 632.739 93.26 632.472 93.26ZM565.644 125.54C566.284 125.54 566.871 125.613 567.404 125.76C567.938 125.893 568.364 126.08 568.684 126.32C569.018 126.56 569.184 126.82 569.184 127.1C569.184 127.233 569.138 127.367 569.044 127.5C568.951 127.62 568.824 127.68 568.664 127.68C568.504 127.68 568.371 127.64 568.264 127.56C568.171 127.48 568.071 127.387 567.964 127.28C567.871 127.173 567.731 127.073 567.544 126.98C567.371 126.9 567.124 126.827 566.804 126.76C566.484 126.693 566.118 126.66 565.704 126.66C564.958 126.66 564.284 126.847 563.684 127.22C563.084 127.593 562.611 128.1 562.264 128.74C561.918 129.367 561.744 130.073 561.744 130.86C561.744 131.66 561.911 132.38 562.244 133.02C562.578 133.66 563.038 134.167 563.624 134.54C564.211 134.9 564.898 135.08 565.684 135.08C566.218 135.08 566.631 135.033 566.924 134.94C567.218 134.847 567.471 134.74 567.684 134.62C567.938 134.473 568.118 134.333 568.224 134.2C568.344 134.053 568.498 133.98 568.684 133.98C568.858 133.98 568.984 134.033 569.064 134.14C569.158 134.233 569.204 134.36 569.204 134.52C569.204 134.733 569.044 134.973 568.724 135.24C568.418 135.493 567.991 135.72 567.444 135.92C566.898 136.107 566.271 136.2 565.564 136.2C564.564 136.2 563.684 135.967 562.924 135.5C562.178 135.033 561.591 134.4 561.164 133.6C560.751 132.787 560.544 131.873 560.544 130.86C560.544 129.887 560.758 129 561.184 128.2C561.611 127.4 562.204 126.76 562.964 126.28C563.738 125.787 564.631 125.54 565.644 125.54ZM580.476 125.78C580.649 125.78 580.789 125.84 580.896 125.96C581.016 126.08 581.076 126.227 581.076 126.4V135.4C581.076 135.56 581.016 135.7 580.896 135.82C580.776 135.94 580.636 136 580.476 136C580.303 136 580.156 135.94 580.036 135.82C579.929 135.7 579.876 135.56 579.876 135.4V133.02L580.216 132.86C580.216 133.233 580.109 133.613 579.896 134C579.696 134.387 579.416 134.747 579.056 135.08C578.696 135.413 578.269 135.687 577.776 135.9C577.296 136.1 576.776 136.2 576.216 136.2C575.309 136.2 574.496 135.967 573.776 135.5C573.069 135.033 572.509 134.393 572.096 133.58C571.696 132.767 571.496 131.853 571.496 130.84C571.496 129.8 571.703 128.887 572.116 128.1C572.529 127.3 573.089 126.673 573.796 126.22C574.503 125.767 575.303 125.54 576.196 125.54C576.769 125.54 577.303 125.64 577.796 125.84C578.303 126.04 578.743 126.313 579.116 126.66C579.489 127.007 579.776 127.407 579.976 127.86C580.189 128.3 580.296 128.76 580.296 129.24L579.876 128.94V126.4C579.876 126.227 579.929 126.08 580.036 125.96C580.156 125.84 580.303 125.78 580.476 125.78ZM576.316 135.08C577.023 135.08 577.649 134.9 578.196 134.54C578.743 134.167 579.169 133.66 579.476 133.02C579.796 132.367 579.956 131.64 579.956 130.84C579.956 130.053 579.796 129.347 579.476 128.72C579.169 128.093 578.743 127.593 578.196 127.22C577.649 126.847 577.023 126.66 576.316 126.66C575.623 126.66 574.996 126.84 574.436 127.2C573.889 127.56 573.456 128.053 573.136 128.68C572.829 129.307 572.676 130.027 572.676 130.84C572.676 131.64 572.829 132.367 573.136 133.02C573.456 133.66 573.889 134.167 574.436 134.54C574.983 134.9 575.609 135.08 576.316 135.08ZM576.656 122.76L574.916 124.22C574.823 124.3 574.736 124.367 574.656 124.42C574.589 124.473 574.503 124.5 574.396 124.5C574.303 124.5 574.223 124.467 574.156 124.4C574.089 124.333 574.056 124.26 574.056 124.18C574.056 124.127 574.063 124.073 574.076 124.02C574.103 123.967 574.149 123.913 574.216 123.86L575.676 122.26C575.823 122.033 576.043 121.92 576.336 121.92H576.656C576.803 121.92 576.923 121.947 577.016 122C577.123 122.04 577.216 122.127 577.296 122.26L578.736 123.84C578.789 123.907 578.823 123.967 578.836 124.02C578.863 124.06 578.876 124.113 578.876 124.18C578.876 124.247 578.843 124.313 578.776 124.38C578.723 124.447 578.649 124.48 578.556 124.48C578.449 124.48 578.356 124.453 578.276 124.4C578.196 124.347 578.109 124.28 578.016 124.2L576.236 122.78L576.656 122.76ZM584.245 134.38C584.138 134.22 584.085 134.067 584.085 133.92C584.098 133.76 584.185 133.633 584.345 133.54C584.452 133.447 584.572 133.407 584.705 133.42C584.852 133.433 584.985 133.5 585.105 133.62C585.465 134.087 585.898 134.467 586.405 134.76C586.925 135.04 587.538 135.18 588.245 135.18C588.618 135.18 588.985 135.12 589.345 135C589.718 134.867 590.025 134.673 590.265 134.42C590.505 134.153 590.625 133.82 590.625 133.42C590.625 133.007 590.505 132.673 590.265 132.42C590.025 132.167 589.712 131.967 589.325 131.82C588.952 131.673 588.552 131.547 588.125 131.44C587.672 131.32 587.232 131.187 586.805 131.04C586.378 130.88 585.998 130.687 585.665 130.46C585.345 130.22 585.085 129.933 584.885 129.6C584.685 129.267 584.585 128.86 584.585 128.38C584.585 127.82 584.738 127.327 585.045 126.9C585.352 126.473 585.765 126.14 586.285 125.9C586.818 125.66 587.418 125.54 588.085 125.54C588.418 125.54 588.778 125.587 589.165 125.68C589.552 125.76 589.932 125.9 590.305 126.1C590.678 126.3 591.012 126.573 591.305 126.92C591.425 127.04 591.485 127.18 591.485 127.34C591.485 127.487 591.418 127.62 591.285 127.74C591.178 127.82 591.052 127.86 590.905 127.86C590.772 127.86 590.658 127.807 590.565 127.7C590.245 127.34 589.865 127.067 589.425 126.88C588.985 126.693 588.512 126.6 588.005 126.6C587.618 126.6 587.252 126.667 586.905 126.8C586.572 126.92 586.292 127.107 586.065 127.36C585.838 127.613 585.725 127.947 585.725 128.36C585.752 128.747 585.885 129.06 586.125 129.3C586.378 129.54 586.705 129.74 587.105 129.9C587.518 130.06 587.978 130.207 588.485 130.34C588.912 130.447 589.318 130.573 589.705 130.72C590.105 130.867 590.452 131.053 590.745 131.28C591.052 131.493 591.292 131.767 591.465 132.1C591.652 132.433 591.745 132.853 591.745 133.36C591.745 133.947 591.578 134.453 591.245 134.88C590.925 135.307 590.492 135.633 589.945 135.86C589.398 136.087 588.792 136.2 588.125 136.2C587.405 136.2 586.705 136.06 586.025 135.78C585.358 135.5 584.765 135.033 584.245 134.38ZM589.045 138.1C589.045 138.46 588.938 138.807 588.725 139.14C588.512 139.487 588.252 139.767 587.945 139.98C587.638 140.207 587.338 140.32 587.045 140.32C586.938 140.32 586.832 140.287 586.725 140.22C586.632 140.153 586.585 140.027 586.585 139.84C586.585 139.653 586.645 139.547 586.765 139.52C586.898 139.507 587.058 139.447 587.245 139.34C587.472 139.233 587.645 139.1 587.765 138.94C587.885 138.78 587.945 138.593 587.945 138.38C587.945 138.207 587.892 138.073 587.785 137.98C587.692 137.887 587.578 137.84 587.445 137.84C587.352 137.84 587.258 137.853 587.165 137.88C587.072 137.907 586.985 137.947 586.905 138C586.838 137.933 586.778 137.86 586.725 137.78C586.672 137.7 586.652 137.6 586.665 137.48C586.692 137.253 586.812 137.053 587.025 136.88C587.252 136.72 587.512 136.64 587.805 136.64C588.165 136.64 588.458 136.787 588.685 137.08C588.925 137.373 589.045 137.713 589.045 138.1ZM594.14 125.82H598.8C598.96 125.82 599.093 125.88 599.2 126C599.307 126.107 599.36 126.24 599.36 126.4C599.36 126.547 599.307 126.673 599.2 126.78C599.093 126.887 598.96 126.94 598.8 126.94H594.14C593.98 126.94 593.84 126.887 593.72 126.78C593.613 126.66 593.56 126.527 593.56 126.38C593.56 126.22 593.613 126.087 593.72 125.98C593.84 125.873 593.98 125.82 594.14 125.82ZM596.2 123C596.373 123 596.513 123.06 596.62 123.18C596.74 123.3 596.8 123.44 596.8 123.6V133.64C596.8 134.013 596.847 134.293 596.94 134.48C597.047 134.667 597.18 134.793 597.34 134.86C597.5 134.913 597.66 134.94 597.82 134.94C597.927 134.94 598.02 134.927 598.1 134.9C598.193 134.86 598.293 134.84 598.4 134.84C598.52 134.84 598.62 134.887 598.7 134.98C598.793 135.073 598.84 135.193 598.84 135.34C598.84 135.527 598.733 135.687 598.52 135.82C598.307 135.94 598.053 136 597.76 136C597.64 136 597.46 135.993 597.22 135.98C596.98 135.953 596.733 135.88 596.48 135.76C596.227 135.627 596.013 135.4 595.84 135.08C595.68 134.76 595.6 134.3 595.6 133.7V123.6C595.6 123.44 595.653 123.3 595.76 123.18C595.88 123.06 596.027 123 596.2 123ZM603.337 135.4C603.337 135.56 603.277 135.7 603.157 135.82C603.037 135.94 602.897 136 602.737 136C602.564 136 602.417 135.94 602.297 135.82C602.191 135.7 602.137 135.56 602.137 135.4V126.2C602.137 126.04 602.191 125.9 602.297 125.78C602.417 125.66 602.564 125.6 602.737 125.6C602.911 125.6 603.051 125.66 603.157 125.78C603.277 125.9 603.337 126.04 603.337 126.2V135.4ZM602.737 124.26C602.457 124.26 602.244 124.2 602.097 124.08C601.964 123.947 601.897 123.76 601.897 123.52V123.32C601.897 123.08 601.971 122.9 602.117 122.78C602.277 122.647 602.491 122.58 602.757 122.58C603.011 122.58 603.204 122.647 603.337 122.78C603.484 122.9 603.557 123.08 603.557 123.32V123.52C603.557 123.76 603.484 123.947 603.337 124.08C603.204 124.2 603.004 124.26 602.737 124.26ZM611.315 125.54C611.915 125.54 612.468 125.647 612.975 125.86C613.481 126.06 613.921 126.327 614.295 126.66C614.681 126.98 614.981 127.327 615.195 127.7C615.408 128.06 615.515 128.407 615.515 128.74L615.175 128.26V126.4C615.175 126.227 615.228 126.08 615.335 125.96C615.455 125.84 615.601 125.78 615.775 125.78C615.961 125.78 616.108 125.84 616.215 125.96C616.321 126.08 616.375 126.227 616.375 126.4V135.06C616.375 136.127 616.155 137.027 615.715 137.76C615.275 138.493 614.675 139.047 613.915 139.42C613.168 139.807 612.315 140 611.355 140C610.888 140 610.395 139.94 609.875 139.82C609.368 139.7 608.928 139.547 608.555 139.36C608.195 139.173 607.995 138.98 607.955 138.78C607.848 138.66 607.795 138.54 607.795 138.42C607.808 138.313 607.868 138.22 607.975 138.14C608.108 138.047 608.248 138.033 608.395 138.1C608.541 138.18 608.761 138.28 609.055 138.4C609.188 138.44 609.368 138.5 609.595 138.58C609.821 138.66 610.088 138.727 610.395 138.78C610.715 138.847 611.048 138.88 611.395 138.88C612.595 138.88 613.521 138.533 614.175 137.84C614.841 137.16 615.175 136.26 615.175 135.14V133.22L615.395 133.28C615.275 133.76 615.075 134.18 614.795 134.54C614.528 134.9 614.208 135.207 613.835 135.46C613.461 135.7 613.055 135.88 612.615 136C612.188 136.133 611.761 136.2 611.335 136.2C610.415 136.2 609.588 135.967 608.855 135.5C608.121 135.033 607.535 134.4 607.095 133.6C606.668 132.8 606.455 131.887 606.455 130.86C606.455 129.847 606.668 128.94 607.095 128.14C607.535 127.327 608.115 126.693 608.835 126.24C609.568 125.773 610.395 125.54 611.315 125.54ZM611.455 126.66C610.721 126.66 610.061 126.847 609.475 127.22C608.901 127.58 608.448 128.08 608.115 128.72C607.795 129.347 607.635 130.06 607.635 130.86C607.635 131.66 607.795 132.38 608.115 133.02C608.448 133.66 608.901 134.167 609.475 134.54C610.061 134.9 610.721 135.08 611.455 135.08C612.188 135.08 612.841 134.9 613.415 134.54C613.988 134.18 614.441 133.687 614.775 133.06C615.108 132.42 615.275 131.687 615.275 130.86C615.275 130.033 615.108 129.307 614.775 128.68C614.441 128.04 613.988 127.547 613.415 127.2C612.841 126.84 612.188 126.66 611.455 126.66ZM628.417 125.78C628.591 125.78 628.731 125.84 628.837 125.96C628.957 126.08 629.017 126.227 629.017 126.4V135.4C629.017 135.56 628.957 135.7 628.837 135.82C628.717 135.94 628.577 136 628.417 136C628.244 136 628.097 135.94 627.977 135.82C627.871 135.7 627.817 135.56 627.817 135.4V133.02L628.157 132.86C628.157 133.233 628.051 133.613 627.837 134C627.637 134.387 627.357 134.747 626.997 135.08C626.637 135.413 626.211 135.687 625.717 135.9C625.237 136.1 624.717 136.2 624.157 136.2C623.251 136.2 622.437 135.967 621.717 135.5C621.011 135.033 620.451 134.393 620.037 133.58C619.637 132.767 619.437 131.853 619.437 130.84C619.437 129.8 619.644 128.887 620.057 128.1C620.471 127.3 621.031 126.673 621.737 126.22C622.444 125.767 623.244 125.54 624.137 125.54C624.711 125.54 625.244 125.64 625.737 125.84C626.244 126.04 626.684 126.313 627.057 126.66C627.431 127.007 627.717 127.407 627.917 127.86C628.131 128.3 628.237 128.76 628.237 129.24L627.817 128.94V126.4C627.817 126.227 627.871 126.08 627.977 125.96C628.097 125.84 628.244 125.78 628.417 125.78ZM624.257 135.08C624.964 135.08 625.591 134.9 626.137 134.54C626.684 134.167 627.111 133.66 627.417 133.02C627.737 132.367 627.897 131.64 627.897 130.84C627.897 130.053 627.737 129.347 627.417 128.72C627.111 128.093 626.684 127.593 626.137 127.22C625.591 126.847 624.964 126.66 624.257 126.66C623.564 126.66 622.937 126.84 622.377 127.2C621.831 127.56 621.397 128.053 621.077 128.68C620.771 129.307 620.617 130.027 620.617 130.84C620.617 131.64 620.771 132.367 621.077 133.02C621.397 133.66 621.831 134.167 622.377 134.54C622.924 134.9 623.551 135.08 624.257 135.08ZM632.106 125.82H636.766C636.926 125.82 637.06 125.88 637.166 126C637.273 126.107 637.326 126.24 637.326 126.4C637.326 126.547 637.273 126.673 637.166 126.78C637.06 126.887 636.926 126.94 636.766 126.94H632.106C631.946 126.94 631.806 126.887 631.686 126.78C631.58 126.66 631.526 126.527 631.526 126.38C631.526 126.22 631.58 126.087 631.686 125.98C631.806 125.873 631.946 125.82 632.106 125.82ZM634.166 123C634.34 123 634.48 123.06 634.586 123.18C634.706 123.3 634.766 123.44 634.766 123.6V133.64C634.766 134.013 634.813 134.293 634.906 134.48C635.013 134.667 635.146 134.793 635.306 134.86C635.466 134.913 635.626 134.94 635.786 134.94C635.893 134.94 635.986 134.927 636.066 134.9C636.16 134.86 636.26 134.84 636.366 134.84C636.486 134.84 636.586 134.887 636.666 134.98C636.76 135.073 636.806 135.193 636.806 135.34C636.806 135.527 636.7 135.687 636.486 135.82C636.273 135.94 636.02 136 635.726 136C635.606 136 635.426 135.993 635.186 135.98C634.946 135.953 634.7 135.88 634.446 135.76C634.193 135.627 633.98 135.4 633.806 135.08C633.646 134.76 633.566 134.3 633.566 133.7V123.6C633.566 123.44 633.62 123.3 633.726 123.18C633.846 123.06 633.993 123 634.166 123ZM644.666 136.2C643.639 136.2 642.733 135.98 641.946 135.54C641.159 135.1 640.546 134.487 640.106 133.7C639.666 132.913 639.446 131.993 639.446 130.94C639.446 129.807 639.666 128.84 640.106 128.04C640.559 127.24 641.139 126.627 641.846 126.2C642.566 125.76 643.326 125.54 644.126 125.54C644.713 125.54 645.279 125.647 645.826 125.86C646.386 126.06 646.879 126.367 647.306 126.78C647.746 127.18 648.093 127.673 648.346 128.26C648.613 128.847 648.759 129.527 648.786 130.3C648.773 130.46 648.706 130.6 648.586 130.72C648.466 130.827 648.326 130.88 648.166 130.88H640.146L639.906 129.8H647.786L647.526 130.04V129.64C647.473 129.013 647.273 128.48 646.926 128.04C646.579 127.6 646.159 127.267 645.666 127.04C645.173 126.813 644.659 126.7 644.126 126.7C643.726 126.7 643.313 126.78 642.886 126.94C642.473 127.1 642.093 127.353 641.746 127.7C641.413 128.033 641.139 128.467 640.926 129C640.713 129.52 640.606 130.14 640.606 130.86C640.606 131.647 640.766 132.36 641.086 133C641.406 133.64 641.866 134.147 642.466 134.52C643.079 134.893 643.806 135.08 644.646 135.08C645.113 135.08 645.533 135.013 645.906 134.88C646.279 134.747 646.606 134.573 646.886 134.36C647.166 134.133 647.399 133.9 647.586 133.66C647.733 133.54 647.879 133.48 648.026 133.48C648.159 133.48 648.273 133.533 648.366 133.64C648.473 133.747 648.526 133.867 648.526 134C648.526 134.16 648.459 134.3 648.326 134.42C647.926 134.9 647.406 135.32 646.766 135.68C646.126 136.027 645.426 136.2 644.666 136.2Z" fill="white"/>
<path d="M580.552 66.704C579.549 66.704 578.664 66.5867 577.896 66.352C577.128 66.1387 576.477 65.8827 575.944 65.584C575.432 65.2853 575.037 65.0293 574.76 64.816C574.504 64.5813 574.376 64.464 574.376 64.464C574.056 64.1867 573.768 63.8987 573.512 63.6C573.277 63.28 573.16 62.9173 573.16 62.512C573.16 62.1707 573.256 61.8293 573.448 61.488C573.64 61.1253 573.939 60.7413 574.344 60.336C574.664 59.9733 574.984 59.7067 575.304 59.536C575.645 59.344 575.987 59.248 576.328 59.248C576.648 59.248 576.968 59.3333 577.288 59.504C577.629 59.6533 578.035 59.92 578.504 60.304C578.504 60.304 578.557 60.3467 578.664 60.432C578.792 60.5173 578.984 60.6027 579.24 60.688C579.517 60.7733 579.891 60.816 580.36 60.816C580.808 60.816 581.181 60.7413 581.48 60.592C581.8 60.4427 582.035 60.24 582.184 59.984C582.355 59.7067 582.44 59.376 582.44 58.992C582.44 58.6293 582.355 58.3093 582.184 58.032C582.013 57.7547 581.779 57.5413 581.48 57.392C581.181 57.2213 580.84 57.136 580.456 57.136C580.2 57.136 579.976 57.168 579.784 57.232C579.613 57.296 579.475 57.3707 579.368 57.456C579.283 57.52 579.229 57.5627 579.208 57.584C578.995 57.776 578.749 57.9573 578.472 58.128C578.195 58.2773 577.843 58.352 577.416 58.352C577.096 58.352 576.765 58.2987 576.424 58.192C576.083 58.0853 575.72 57.9253 575.336 57.712C574.653 57.3493 574.173 57.0293 573.896 56.752C573.64 56.4747 573.512 56.1653 573.512 55.824L574.696 46.736C574.739 46.416 574.824 46.032 574.952 45.584C575.08 45.1147 575.347 44.7093 575.752 44.368C576.157 44.0053 576.787 43.824 577.64 43.824L584.968 43.856C585.459 43.856 585.917 43.8987 586.344 43.984C586.792 44.0693 587.155 44.3253 587.432 44.752C587.731 45.1573 587.88 45.8613 587.88 46.864C587.88 47.7813 587.741 48.4427 587.464 48.848C587.208 49.232 586.867 49.4667 586.44 49.552C586.013 49.616 585.576 49.648 585.128 49.648H580.2L579.976 51.344C580.04 51.3227 580.104 51.312 580.168 51.312C580.232 51.312 580.285 51.312 580.328 51.312C580.392 51.2907 580.456 51.28 580.52 51.28H580.68C581.683 51.28 582.643 51.4827 583.56 51.888C584.477 52.272 585.288 52.816 585.992 53.52C586.717 54.224 587.283 55.024 587.688 55.92C588.115 56.816 588.328 57.7653 588.328 58.768C588.328 60.2613 587.987 61.6053 587.304 62.8C586.621 63.9947 585.693 64.944 584.52 65.648C583.347 66.352 582.024 66.704 580.552 66.704ZM598.573 66.704C597.08 66.704 595.811 66.448 594.765 65.936C593.741 65.4027 592.909 64.7093 592.269 63.856C591.629 63.0027 591.128 62.064 590.765 61.04C590.424 60.016 590.189 58.992 590.061 57.968C589.933 56.9227 589.869 55.9733 589.869 55.12C589.869 54.352 589.933 53.4667 590.061 52.464C590.189 51.4613 590.413 50.448 590.733 49.424C591.075 48.3787 591.565 47.4187 592.205 46.544C592.845 45.648 593.677 44.9333 594.701 44.4C595.747 43.8453 597.016 43.568 598.509 43.568C599.96 43.568 601.187 43.8347 602.189 44.368C603.213 44.9013 604.035 45.6053 604.653 46.48C605.293 47.3333 605.784 48.2827 606.125 49.328C606.488 50.352 606.733 51.376 606.861 52.4C606.989 53.424 607.053 54.3413 607.053 55.152C607.053 56.0053 606.979 56.9547 606.829 58C606.701 59.024 606.456 60.048 606.093 61.072C605.752 62.096 605.261 63.0347 604.621 63.888C604.003 64.7413 603.192 65.424 602.189 65.936C601.208 66.448 600.003 66.704 598.573 66.704ZM598.445 60.816C599 60.816 599.448 60.688 599.789 60.432C600.131 60.1547 600.397 59.8027 600.589 59.376C600.781 58.9493 600.92 58.4907 601.005 58C601.091 57.488 601.144 56.9973 601.165 56.528C601.187 56.0373 601.197 55.6213 601.197 55.28V55.12C601.197 53.8827 601.091 52.848 600.877 52.016C600.685 51.1627 600.387 50.5227 599.981 50.096C599.597 49.648 599.096 49.424 598.477 49.424C597.837 49.424 597.315 49.6373 596.909 50.064C596.504 50.4907 596.205 51.1307 596.013 51.984C595.821 52.8373 595.725 53.8933 595.725 55.152C595.725 56.368 595.821 57.4027 596.013 58.256C596.227 59.088 596.536 59.728 596.941 60.176C597.347 60.6027 597.848 60.816 598.445 60.816ZM617.307 66.704C615.814 66.704 614.544 66.448 613.499 65.936C612.475 65.4027 611.643 64.7093 611.003 63.856C610.363 63.0027 609.862 62.064 609.499 61.04C609.158 60.016 608.923 58.992 608.795 57.968C608.667 56.9227 608.603 55.9733 608.603 55.12C608.603 54.352 608.667 53.4667 608.795 52.464C608.923 51.4613 609.147 50.448 609.467 49.424C609.808 48.3787 610.299 47.4187 610.939 46.544C611.579 45.648 612.411 44.9333 613.435 44.4C614.48 43.8453 615.75 43.568 617.243 43.568C618.694 43.568 619.92 43.8347 620.923 44.368C621.947 44.9013 622.768 45.6053 623.387 46.48C624.027 47.3333 624.518 48.2827 624.859 49.328C625.222 50.352 625.467 51.376 625.595 52.4C625.723 53.424 625.787 54.3413 625.787 55.152C625.787 56.0053 625.712 56.9547 625.563 58C625.435 59.024 625.19 60.048 624.827 61.072C624.486 62.096 623.995 63.0347 623.355 63.888C622.736 64.7413 621.926 65.424 620.923 65.936C619.942 66.448 618.736 66.704 617.307 66.704ZM617.179 60.816C617.734 60.816 618.182 60.688 618.523 60.432C618.864 60.1547 619.131 59.8027 619.323 59.376C619.515 58.9493 619.654 58.4907 619.739 58C619.824 57.488 619.878 56.9973 619.899 56.528C619.92 56.0373 619.931 55.6213 619.931 55.28V55.12C619.931 53.8827 619.824 52.848 619.611 52.016C619.419 51.1627 619.12 50.5227 618.715 50.096C618.331 49.648 617.83 49.424 617.211 49.424C616.571 49.424 616.048 49.6373 615.643 50.064C615.238 50.4907 614.939 51.1307 614.747 51.984C614.555 52.8373 614.459 53.8933 614.459 55.152C614.459 56.368 614.555 57.4027 614.747 58.256C614.96 59.088 615.27 59.728 615.675 60.176C616.08 60.6027 616.582 60.816 617.179 60.816Z" fill="white"/>
<line x1="271.75" y1="53" x2="271.75" y2="118" stroke="#50D6CD" stroke-width="1.5"/>
<line x1="479.75" y1="53" x2="479.75" y2="118" stroke="#50D6CD" stroke-width="1.5"/>
</svg>
