<svg width="248" height="91" viewBox="0 0 248 91" fill="none" xmlns="http://www.w3.org/2000/svg">
<rect width="248" height="91" rx="45.5" fill="#FEA439"/>
<path d="M34.172 50.234C33.6867 50.234 33.3313 50.1647 33.106 50.026C32.898 49.8873 32.7593 49.6967 32.69 49.454C32.638 49.194 32.612 48.9253 32.612 48.648V33.646C32.612 33.3687 32.6467 33.1173 32.716 32.892C32.7853 32.6493 32.924 32.4587 33.132 32.32C33.3573 32.164 33.7127 32.086 34.198 32.086H39.762C40.5593 32.086 41.3133 32.216 42.024 32.476C42.752 32.7187 43.402 33.1 43.974 33.62C44.546 34.1227 44.9967 34.764 45.326 35.544C45.6727 36.3067 45.846 37.1993 45.846 38.222C45.846 38.898 45.742 39.574 45.534 40.25C45.326 40.9087 45.014 41.524 44.598 42.096C44.1993 42.6507 43.688 43.1273 43.064 43.526C42.44 43.9247 41.7033 44.1847 40.854 44.306H35.758V48.674C35.758 48.9513 35.7233 49.2113 35.654 49.454C35.602 49.6967 35.4633 49.8873 35.238 50.026C35.03 50.1647 34.6747 50.234 34.172 50.234ZM45.248 49.844C44.7453 50.1907 44.3293 50.3207 44 50.234C43.688 50.1473 43.376 49.87 43.064 49.402L38.696 42.798L42.206 42.33L45.664 47.582C45.9067 47.9287 46.054 48.2233 46.106 48.466C46.158 48.7087 46.1147 48.934 45.976 49.142C45.8373 49.35 45.5947 49.584 45.248 49.844ZM35.758 41.186H40.152C40.464 41.186 40.7673 41.134 41.062 41.03C41.374 40.9087 41.6513 40.7267 41.894 40.484C42.1367 40.224 42.3273 39.912 42.466 39.548C42.622 39.1667 42.7 38.716 42.7 38.196C42.7 37.572 42.5787 37.0433 42.336 36.61C42.0933 36.1593 41.7467 35.8213 41.296 35.596C40.8627 35.3533 40.334 35.232 39.71 35.232H35.758V41.186ZM54.8845 50.416C53.7578 50.416 52.7698 50.234 51.9205 49.87C51.0885 49.506 50.3865 49.012 49.8145 48.388C49.2598 47.7467 48.8351 47.036 48.5405 46.256C48.2631 45.4587 48.1245 44.6353 48.1245 43.786C48.1245 42.538 48.4105 41.4287 48.9825 40.458C49.5545 39.4873 50.3431 38.7247 51.3485 38.17C52.3711 37.6153 53.5411 37.338 54.8585 37.338C55.7945 37.338 56.6178 37.4853 57.3285 37.78C58.0391 38.0747 58.6285 38.4647 59.0965 38.95C59.5818 39.418 59.9458 39.938 60.1885 40.51C60.4485 41.082 60.5785 41.6367 60.5785 42.174C60.5785 43.0927 60.3531 43.76 59.9025 44.176C59.4691 44.592 58.9231 44.8 58.2645 44.8H51.4005C51.4178 45.3893 51.5998 45.9007 51.9465 46.334C52.3105 46.7673 52.7611 47.1053 53.2985 47.348C53.8531 47.5733 54.4165 47.686 54.9885 47.686C55.4218 47.686 55.8031 47.66 56.1325 47.608C56.4791 47.556 56.7738 47.4953 57.0165 47.426C57.2591 47.3393 57.4671 47.2527 57.6405 47.166C57.8311 47.0793 58.0045 47.0013 58.1605 46.932C58.3165 46.8627 58.4638 46.8193 58.6025 46.802C58.7931 46.7847 58.9838 46.828 59.1745 46.932C59.3651 47.036 59.5211 47.218 59.6425 47.478C59.7465 47.6513 59.8158 47.816 59.8505 47.972C59.9025 48.1107 59.9285 48.2493 59.9285 48.388C59.9285 48.7347 59.7205 49.064 59.3045 49.376C58.8885 49.6707 58.2991 49.9133 57.5365 50.104C56.7911 50.312 55.9071 50.416 54.8845 50.416ZM51.4005 42.954H56.7305C57.0251 42.954 57.2505 42.9107 57.4065 42.824C57.5625 42.72 57.6405 42.512 57.6405 42.2C57.6405 41.8013 57.5191 41.446 57.2765 41.134C57.0338 40.8047 56.7045 40.5533 56.2885 40.38C55.8725 40.1893 55.3871 40.094 54.8325 40.094C54.1911 40.094 53.6105 40.224 53.0905 40.484C52.5705 40.7267 52.1545 41.0647 51.8425 41.498C51.5478 41.9313 51.4005 42.4167 51.4005 42.954ZM64.4541 50.26C63.9861 50.26 63.6134 50.1213 63.3361 49.844C63.0587 49.5493 62.9201 49.1767 62.9201 48.726C62.9201 48.4833 62.9547 48.2667 63.0241 48.076C63.1107 47.8853 63.2321 47.712 63.3881 47.556L70.1741 40.562H65.0521C64.7747 40.562 64.5147 40.536 64.2721 40.484C64.0294 40.4147 63.8301 40.276 63.6741 40.068C63.5354 39.8427 63.4661 39.4873 63.4661 39.002C63.4661 38.5167 63.5354 38.17 63.6741 37.962C63.8301 37.7367 64.0294 37.598 64.2721 37.546C64.5147 37.4767 64.7747 37.442 65.0521 37.442H73.4501C73.9007 37.442 74.2647 37.5807 74.5421 37.858C74.8367 38.1353 74.9841 38.4993 74.9841 38.95C74.9841 39.1753 74.9407 39.392 74.8541 39.6C74.7847 39.7907 74.6894 39.9467 74.5681 40.068L67.8601 47.14H73.7621C74.0567 47.14 74.3167 47.1747 74.5421 47.244C74.7847 47.296 74.9754 47.4347 75.1141 47.66C75.2527 47.8853 75.3221 48.2407 75.3221 48.726C75.3221 49.194 75.2441 49.5407 75.0881 49.766C74.9494 49.9913 74.7587 50.13 74.5161 50.182C74.2907 50.234 74.0307 50.26 73.7361 50.26H64.4541ZM84.3995 50.416C83.2729 50.416 82.2849 50.234 81.4355 49.87C80.6035 49.506 79.9015 49.012 79.3295 48.388C78.7749 47.7467 78.3502 47.036 78.0555 46.256C77.7782 45.4587 77.6395 44.6353 77.6395 43.786C77.6395 42.538 77.9255 41.4287 78.4975 40.458C79.0695 39.4873 79.8582 38.7247 80.8635 38.17C81.8862 37.6153 83.0562 37.338 84.3735 37.338C85.3095 37.338 86.1329 37.4853 86.8435 37.78C87.5542 38.0747 88.1435 38.4647 88.6115 38.95C89.0969 39.418 89.4609 39.938 89.7035 40.51C89.9635 41.082 90.0935 41.6367 90.0935 42.174C90.0935 43.0927 89.8682 43.76 89.4175 44.176C88.9842 44.592 88.4382 44.8 87.7795 44.8H80.9155C80.9329 45.3893 81.1149 45.9007 81.4615 46.334C81.8255 46.7673 82.2762 47.1053 82.8135 47.348C83.3682 47.5733 83.9315 47.686 84.5035 47.686C84.9369 47.686 85.3182 47.66 85.6475 47.608C85.9942 47.556 86.2889 47.4953 86.5315 47.426C86.7742 47.3393 86.9822 47.2527 87.1555 47.166C87.3462 47.0793 87.5195 47.0013 87.6755 46.932C87.8315 46.8627 87.9789 46.8193 88.1175 46.802C88.3082 46.7847 88.4989 46.828 88.6895 46.932C88.8802 47.036 89.0362 47.218 89.1575 47.478C89.2615 47.6513 89.3309 47.816 89.3655 47.972C89.4175 48.1107 89.4435 48.2493 89.4435 48.388C89.4435 48.7347 89.2355 49.064 88.8195 49.376C88.4035 49.6707 87.8142 49.9133 87.0515 50.104C86.3062 50.312 85.4222 50.416 84.3995 50.416ZM80.9155 42.954H86.2455C86.5402 42.954 86.7655 42.9107 86.9215 42.824C87.0775 42.72 87.1555 42.512 87.1555 42.2C87.1555 41.8013 87.0342 41.446 86.7915 41.134C86.5489 40.8047 86.2195 40.5533 85.8035 40.38C85.3875 40.1893 84.9022 40.094 84.3475 40.094C83.7062 40.094 83.1255 40.224 82.6055 40.484C82.0855 40.7267 81.6695 41.0647 81.3575 41.498C81.0629 41.9313 80.9155 42.4167 80.9155 42.954ZM94.5412 50.26C94.0732 50.26 93.7265 50.182 93.5012 50.026C93.2932 49.8873 93.1632 49.6967 93.1112 49.454C93.0592 49.2113 93.0332 48.9427 93.0332 48.648V39.002C93.0332 38.69 93.0592 38.4213 93.1112 38.196C93.1632 37.9533 93.2932 37.7713 93.5012 37.65C93.7265 37.5113 94.0818 37.442 94.5672 37.442C95.0352 37.442 95.3732 37.5027 95.5812 37.624C95.8065 37.7453 95.9452 37.9013 95.9972 38.092C96.0665 38.2653 96.1012 38.4387 96.1012 38.612L95.8932 39.08C95.9798 38.9413 96.1012 38.7767 96.2572 38.586C96.4132 38.378 96.6212 38.1787 96.8812 37.988C97.1412 37.78 97.4532 37.6153 97.8172 37.494C98.1812 37.3553 98.6145 37.286 99.1172 37.286C99.3252 37.286 99.5418 37.312 99.7672 37.364C100.01 37.3987 100.244 37.4593 100.469 37.546C100.712 37.6153 100.928 37.7107 101.119 37.832C101.31 37.9533 101.457 38.1007 101.561 38.274C101.665 38.43 101.717 38.612 101.717 38.82C101.717 39.3747 101.578 39.8427 101.301 40.224C101.024 40.6053 100.694 40.796 100.313 40.796C100.053 40.796 99.8625 40.77 99.7412 40.718C99.6198 40.666 99.5158 40.6053 99.4292 40.536C99.3598 40.4667 99.2472 40.406 99.0912 40.354C98.9525 40.302 98.7272 40.276 98.4152 40.276C98.1552 40.276 97.8865 40.3193 97.6092 40.406C97.3492 40.4927 97.1065 40.6227 96.8812 40.796C96.6558 40.9693 96.4738 41.1947 96.3352 41.472C96.1965 41.732 96.1272 42.0353 96.1272 42.382V48.7C96.1272 48.9947 96.1012 49.2633 96.0492 49.506C95.9972 49.7313 95.8585 49.9133 95.6332 50.052C95.4078 50.1907 95.0438 50.26 94.5412 50.26ZM110.376 50.312C110.012 50.312 109.709 50.2513 109.466 50.13C109.224 50.0087 109.033 49.8093 108.894 49.532L104.162 39.626C103.902 39.106 103.833 38.69 103.954 38.378C104.076 38.066 104.388 37.7887 104.89 37.546C105.41 37.286 105.826 37.1993 106.138 37.286C106.45 37.3727 106.728 37.6933 106.97 38.248L110.376 46.23L113.73 38.404C113.973 37.832 114.25 37.4767 114.562 37.338C114.874 37.182 115.325 37.2513 115.914 37.546C116.504 37.8407 116.816 38.17 116.85 38.534C116.885 38.8807 116.79 39.2793 116.564 39.73L111.858 49.532C111.72 49.792 111.529 49.9827 111.286 50.104C111.044 50.2427 110.74 50.312 110.376 50.312ZM129.297 50.208C128.795 50.208 128.422 50.1127 128.179 49.922C127.937 49.7313 127.815 49.4713 127.815 49.142L127.997 48.284C127.859 48.5093 127.625 48.778 127.295 49.09C126.966 49.3847 126.533 49.6533 125.995 49.896C125.458 50.1213 124.808 50.234 124.045 50.234C123.231 50.234 122.459 50.0693 121.731 49.74C121.021 49.3933 120.388 48.9253 119.833 48.336C119.296 47.7293 118.863 47.0447 118.533 46.282C118.221 45.502 118.065 44.67 118.065 43.786C118.065 42.9367 118.221 42.1393 118.533 41.394C118.863 40.6313 119.305 39.9553 119.859 39.366C120.414 38.7767 121.047 38.3173 121.757 37.988C122.485 37.6413 123.248 37.468 124.045 37.468C124.756 37.468 125.354 37.5633 125.839 37.754C126.342 37.9447 126.767 38.1873 127.113 38.482C127.46 38.7593 127.746 39.054 127.971 39.366L127.815 38.612C127.815 38.2307 127.937 37.9447 128.179 37.754C128.422 37.546 128.803 37.442 129.323 37.442C129.809 37.442 130.155 37.52 130.363 37.676C130.571 37.8147 130.701 38.014 130.753 38.274C130.805 38.5167 130.831 38.794 130.831 39.106V48.622C130.831 48.9167 130.805 49.1853 130.753 49.428C130.701 49.6707 130.563 49.8613 130.337 50C130.129 50.1387 129.783 50.208 129.297 50.208ZM124.513 47.192C125.103 47.192 125.631 47.0447 126.099 46.75C126.567 46.4553 126.94 46.0567 127.217 45.554C127.512 45.034 127.659 44.462 127.659 43.838C127.659 43.162 127.512 42.5727 127.217 42.07C126.923 41.5673 126.533 41.1773 126.047 40.9C125.579 40.6053 125.051 40.458 124.461 40.458C123.82 40.458 123.248 40.614 122.745 40.926C122.243 41.2207 121.844 41.628 121.549 42.148C121.272 42.6507 121.133 43.2227 121.133 43.864C121.133 44.488 121.281 45.0513 121.575 45.554C121.87 46.0567 122.269 46.4553 122.771 46.75C123.291 47.0447 123.872 47.192 124.513 47.192ZM125.359 35.622C124.389 35.622 123.565 35.3533 122.889 34.816C122.231 34.2787 121.806 33.5767 121.615 32.71C121.563 32.4327 121.581 32.242 121.667 32.138C121.771 32.034 121.971 31.982 122.265 31.982H123.045C123.357 31.982 123.539 32.1293 123.591 32.424C123.678 32.84 123.869 33.178 124.163 33.438C124.475 33.6807 124.874 33.802 125.359 33.802C125.845 33.802 126.235 33.6807 126.529 33.438C126.824 33.178 127.015 32.84 127.101 32.424C127.153 32.1293 127.335 31.982 127.647 31.982H128.453C128.748 31.982 128.939 32.0427 129.025 32.164C129.129 32.268 129.155 32.45 129.103 32.71C128.93 33.5767 128.505 34.2787 127.829 34.816C127.171 35.3533 126.347 35.622 125.359 35.622ZM147.533 50.234C146.736 50.234 145.999 50.0953 145.323 49.818C144.665 49.5233 144.084 49.1073 143.581 48.57C143.079 48.0327 142.689 47.3913 142.411 46.646C142.134 45.9007 141.995 45.0773 141.995 44.176V39.002C141.995 38.7073 142.021 38.4473 142.073 38.222C142.125 37.9793 142.264 37.7887 142.489 37.65C142.715 37.5113 143.061 37.442 143.529 37.442C144.032 37.442 144.387 37.5113 144.595 37.65C144.821 37.7887 144.959 37.9793 145.011 38.222C145.063 38.4647 145.089 38.7333 145.089 39.028V44.176C145.089 44.8 145.193 45.3373 145.401 45.788C145.627 46.2387 145.947 46.594 146.363 46.854C146.779 47.0967 147.291 47.218 147.897 47.218C148.521 47.218 149.05 47.0967 149.483 46.854C149.934 46.594 150.281 46.2387 150.523 45.788C150.766 45.32 150.887 44.7827 150.887 44.176V38.976C150.887 38.6813 150.913 38.4213 150.965 38.196C151.017 37.9533 151.156 37.7713 151.381 37.65C151.607 37.5113 151.962 37.442 152.447 37.442C152.933 37.442 153.279 37.5113 153.487 37.65C153.695 37.7887 153.825 37.9793 153.877 38.222C153.947 38.4647 153.981 38.7247 153.981 39.002V48.752C153.981 49.012 153.947 49.2547 153.877 49.48C153.825 49.7053 153.687 49.8873 153.461 50.026C153.253 50.1647 152.907 50.234 152.421 50.234C152.075 50.234 151.797 50.1907 151.589 50.104C151.399 50.0347 151.251 49.9393 151.147 49.818C151.061 49.6793 151 49.5407 150.965 49.402C150.948 49.2633 150.939 49.1247 150.939 48.986L151.147 48.284C151.043 48.44 150.887 48.6307 150.679 48.856C150.471 49.064 150.211 49.2807 149.899 49.506C149.605 49.714 149.258 49.8873 148.859 50.026C148.461 50.1647 148.019 50.234 147.533 50.234ZM158.864 50.234C158.396 50.234 158.049 50.156 157.824 50C157.616 49.8613 157.486 49.6793 157.434 49.454C157.382 49.2113 157.356 48.9427 157.356 48.648V38.924C157.356 38.6467 157.382 38.3953 157.434 38.17C157.486 37.9447 157.624 37.7713 157.85 37.65C158.075 37.5113 158.422 37.442 158.89 37.442C159.306 37.442 159.618 37.494 159.826 37.598C160.034 37.702 160.172 37.832 160.242 37.988C160.311 38.144 160.346 38.3 160.346 38.456C160.363 38.612 160.38 38.7333 160.398 38.82L160.294 39.652C160.398 39.3747 160.571 39.106 160.814 38.846C161.056 38.586 161.351 38.352 161.698 38.144C162.044 37.9187 162.417 37.7453 162.816 37.624C163.232 37.4853 163.656 37.416 164.09 37.416C164.904 37.416 165.632 37.5633 166.274 37.858C166.915 38.1527 167.461 38.5687 167.912 39.106C168.38 39.6433 168.735 40.2847 168.978 41.03C169.22 41.758 169.342 42.5813 169.342 43.5V48.674C169.342 48.9687 169.307 49.2373 169.238 49.48C169.186 49.7053 169.056 49.8873 168.848 50.026C168.64 50.1647 168.284 50.234 167.782 50.234C167.296 50.234 166.941 50.156 166.716 50C166.49 49.8613 166.352 49.6793 166.3 49.454C166.248 49.2113 166.222 48.9427 166.222 48.648V43.474C166.222 42.85 166.109 42.3127 165.884 41.862C165.676 41.4113 165.364 41.0647 164.948 40.822C164.549 40.5793 164.038 40.458 163.414 40.458C162.807 40.458 162.278 40.588 161.828 40.848C161.377 41.0907 161.03 41.4373 160.788 41.888C160.545 42.3387 160.424 42.8673 160.424 43.474V48.674C160.424 48.9687 160.398 49.2373 160.346 49.48C160.294 49.7053 160.155 49.8873 159.93 50.026C159.722 50.1647 159.366 50.234 158.864 50.234ZM184.36 50.26C183.718 50.26 183.146 50.2167 182.644 50.13C182.158 50.0433 181.734 49.896 181.37 49.688C181.023 49.48 180.737 49.2027 180.512 48.856C180.286 48.492 180.113 48.05 179.992 47.53C179.888 47.01 179.836 46.386 179.836 45.658V33.126C179.836 32.8313 179.862 32.5713 179.914 32.346C179.983 32.1033 180.122 31.9127 180.33 31.774C180.555 31.618 180.91 31.54 181.396 31.54C181.881 31.54 182.228 31.6093 182.436 31.748C182.661 31.8867 182.8 32.0773 182.852 32.32C182.921 32.5453 182.956 32.8053 182.956 33.1V45.528C182.956 45.8573 182.973 46.1347 183.008 46.36C183.06 46.568 183.138 46.7413 183.242 46.88C183.363 47.0013 183.51 47.088 183.684 47.14C183.874 47.192 184.1 47.218 184.36 47.218C184.585 47.218 184.784 47.244 184.958 47.296C185.148 47.348 185.296 47.478 185.4 47.686C185.521 47.894 185.582 48.232 185.582 48.7C185.582 49.1853 185.521 49.5407 185.4 49.766C185.296 49.9913 185.148 50.13 184.958 50.182C184.767 50.234 184.568 50.26 184.36 50.26ZM194.214 50.416C193.382 50.416 192.568 50.26 191.77 49.948C190.99 49.6187 190.28 49.1593 189.638 48.57C189.014 47.9807 188.512 47.2873 188.13 46.49C187.766 45.6927 187.584 44.8173 187.584 43.864C187.584 42.9453 187.758 42.0873 188.104 41.29C188.451 40.4927 188.928 39.7907 189.534 39.184C190.141 38.5773 190.834 38.1093 191.614 37.78C192.412 37.4333 193.261 37.26 194.162 37.26C195.376 37.26 196.476 37.5547 197.464 38.144C198.452 38.716 199.241 39.496 199.83 40.484C200.42 41.472 200.714 42.59 200.714 43.838C200.714 44.826 200.532 45.7273 200.168 46.542C199.804 47.3393 199.31 48.0327 198.686 48.622C198.062 49.194 197.36 49.636 196.58 49.948C195.818 50.26 195.029 50.416 194.214 50.416ZM194.162 47.348C194.734 47.348 195.28 47.2093 195.8 46.932C196.338 46.6373 196.771 46.2213 197.1 45.684C197.447 45.1467 197.62 44.514 197.62 43.786C197.62 43.11 197.464 42.512 197.152 41.992C196.858 41.472 196.45 41.0647 195.93 40.77C195.41 40.4753 194.812 40.328 194.136 40.328C193.495 40.328 192.914 40.484 192.394 40.796C191.874 41.0907 191.458 41.5067 191.146 42.044C190.852 42.564 190.704 43.1533 190.704 43.812C190.704 44.54 190.869 45.1727 191.198 45.71C191.528 46.23 191.952 46.6373 192.472 46.932C193.01 47.2093 193.573 47.348 194.162 47.348ZM209.726 50.312C208.894 50.312 208.079 50.1733 207.282 49.896C206.502 49.6013 205.791 49.1767 205.15 48.622C204.526 48.0673 204.023 47.3913 203.642 46.594C203.278 45.7793 203.096 44.8607 203.096 43.838C203.096 42.8153 203.278 41.9053 203.642 41.108C204.023 40.3107 204.526 39.6347 205.15 39.08C205.774 38.5253 206.476 38.1007 207.256 37.806C208.036 37.5113 208.842 37.364 209.674 37.364C210.28 37.364 210.852 37.4507 211.39 37.624C211.944 37.7973 212.421 38.0053 212.82 38.248C213.218 38.4907 213.504 38.7333 213.678 38.976C213.903 39.184 214.094 39.3833 214.25 39.574C214.406 39.7647 214.458 39.9987 214.406 40.276C214.354 40.4493 214.276 40.614 214.172 40.77C214.068 40.9087 213.938 41.056 213.782 41.212C213.366 41.68 212.958 41.8533 212.56 41.732C212.334 41.6107 212.109 41.4807 211.884 41.342C211.658 41.2033 211.424 41.0733 211.182 40.952C210.956 40.8133 210.722 40.7007 210.48 40.614C210.237 40.5273 209.968 40.484 209.674 40.484C209.015 40.484 208.426 40.6313 207.906 40.926C207.403 41.2033 207.004 41.5933 206.71 42.096C206.432 42.5987 206.294 43.1793 206.294 43.838C206.294 44.4967 206.432 45.086 206.71 45.606C207.004 46.1087 207.403 46.5073 207.906 46.802C208.408 47.0793 208.98 47.218 209.622 47.218C209.934 47.218 210.228 47.1833 210.506 47.114C210.8 47.0273 211.06 46.9233 211.286 46.802C211.511 46.6633 211.693 46.5247 211.832 46.386C212.022 46.2647 212.196 46.152 212.352 46.048C212.508 45.944 212.672 45.892 212.846 45.892C213.054 45.892 213.253 45.97 213.444 46.126C213.652 46.2647 213.877 46.49 214.12 46.802C214.345 47.062 214.466 47.3133 214.484 47.556C214.518 47.7987 214.466 48.0327 214.328 48.258C214.206 48.4833 213.998 48.6913 213.704 48.882C213.496 49.09 213.184 49.3067 212.768 49.532C212.369 49.74 211.901 49.922 211.364 50.078C210.844 50.234 210.298 50.312 209.726 50.312Z" fill="white"/>
</svg>
