<svg width="118" height="57" viewBox="0 0 118 57" fill="none" xmlns="http://www.w3.org/2000/svg">
<path d="M22.3808 45.905C21.0008 45.905 19.7858 45.845 18.7358 45.725C17.7158 45.605 16.8458 45.365 16.1258 45.005C15.4058 44.645 14.8208 44.135 14.3708 43.475C13.9208 42.785 13.5908 41.9 13.3808 40.82C13.1708 39.71 13.0658 38.33 13.0658 36.68V16.745C13.0658 16.055 13.1258 15.41 13.2458 14.81C13.3658 14.18 13.7108 13.67 14.2808 13.28C14.8508 12.86 15.8108 12.65 17.1608 12.65C18.5108 12.65 19.4558 12.86 19.9958 13.28C20.5658 13.67 20.9108 14.18 21.0308 14.81C21.1508 15.44 21.2108 16.1 21.2108 16.79V36.185C21.2108 36.635 21.2108 36.995 21.2108 37.265C21.2408 37.505 21.2858 37.685 21.3458 37.805C21.4358 37.925 21.5558 38 21.7058 38.03C21.8858 38.03 22.1258 38.03 22.4258 38.03C22.8158 38.03 23.2208 38.09 23.6408 38.21C24.0908 38.3 24.4658 38.615 24.7658 39.155C25.0958 39.665 25.2608 40.565 25.2608 41.855C25.2608 43.205 25.0958 44.165 24.7658 44.735C24.4658 45.305 24.0908 45.635 23.6408 45.725C23.1908 45.845 22.7708 45.905 22.3808 45.905ZM38.9654 46.31C37.5854 46.31 36.1904 46.04 34.7804 45.5C33.3704 44.93 32.0654 44.135 30.8654 43.115C29.6954 42.065 28.7504 40.82 28.0304 39.38C27.3404 37.91 26.9954 36.275 26.9954 34.475C26.9954 32.825 27.3104 31.28 27.9404 29.84C28.5704 28.4 29.4254 27.14 30.5054 26.06C31.6154 24.95 32.8754 24.08 34.2854 23.45C35.7254 22.82 37.2554 22.505 38.8754 22.505C41.0954 22.505 43.1054 23.045 44.9054 24.125C46.7054 25.175 48.1454 26.6 49.2254 28.4C50.3054 30.2 50.8454 32.21 50.8454 34.43C50.8454 36.32 50.4854 38 49.7654 39.47C49.0454 40.94 48.1004 42.185 46.9304 43.205C45.7604 44.225 44.4704 44.99 43.0604 45.5C41.6804 46.04 40.3154 46.31 38.9654 46.31ZM38.8754 38.075C39.3254 38.075 39.8354 37.97 40.4054 37.76C41.0054 37.52 41.5154 37.13 41.9354 36.59C42.3854 36.05 42.6104 35.315 42.6104 34.385C42.6104 33.635 42.4454 32.99 42.1154 32.45C41.8154 31.91 41.3804 31.49 40.8104 31.19C40.2404 30.89 39.5804 30.74 38.8304 30.74C38.1704 30.74 37.5704 30.905 37.0304 31.235C36.4904 31.535 36.0554 31.97 35.7254 32.54C35.3954 33.08 35.2304 33.71 35.2304 34.43C35.2304 35.33 35.4404 36.05 35.8604 36.59C36.2804 37.13 36.7754 37.52 37.3454 37.76C37.9154 37.97 38.4254 38.075 38.8754 38.075ZM64.2832 55.4C63.2332 55.4 62.1532 55.25 61.0432 54.95C59.9632 54.68 58.9582 54.305 58.0282 53.825C57.0982 53.345 56.3482 52.82 55.7782 52.25C55.2082 51.71 54.9232 51.17 54.9232 50.63C54.9232 50.03 55.0282 49.475 55.2382 48.965C55.4782 48.455 55.8232 47.96 56.2732 47.48C56.7532 46.97 57.1732 46.565 57.5332 46.265C57.8932 45.965 58.3282 45.815 58.8382 45.815C59.2882 45.815 59.6782 45.92 60.0082 46.13C60.3682 46.34 60.7282 46.565 61.0882 46.805C61.4482 47.075 61.8832 47.315 62.3932 47.525C62.9332 47.735 63.6082 47.84 64.4182 47.84C64.8682 47.84 65.2882 47.735 65.6782 47.525C66.0682 47.345 66.3982 47.075 66.6682 46.715C66.9682 46.385 67.2082 45.98 67.3882 45.5C67.5682 45.05 67.6582 44.555 67.6582 44.015V25.475C67.7782 24.575 68.1532 23.93 68.7832 23.54C69.4132 23.15 70.3732 22.955 71.6632 22.955C72.9832 22.955 73.9132 23.15 74.4532 23.54C74.9932 23.93 75.3082 24.44 75.3982 25.07C75.5182 25.67 75.5782 26.3 75.5782 26.96V44.285C75.5782 46.055 75.2332 47.63 74.5432 49.01C73.8832 50.39 72.9982 51.545 71.8882 52.475C70.7782 53.435 69.5632 54.155 68.2432 54.635C66.9232 55.145 65.6032 55.4 64.2832 55.4ZM63.1582 45.23C61.8382 45.23 60.5632 44.93 59.3332 44.33C58.1332 43.73 57.0532 42.905 56.0932 41.855C55.1332 40.805 54.3682 39.62 53.7982 38.3C53.2582 36.95 52.9882 35.54 52.9882 34.07C52.9882 32.66 53.2582 31.295 53.7982 29.975C54.3682 28.655 55.1332 27.485 56.0932 26.465C57.0832 25.415 58.1782 24.59 59.3782 23.99C60.6082 23.36 61.8682 23.045 63.1582 23.045C64.4782 23.045 65.5582 23.315 66.3982 23.855C67.2682 24.395 67.9432 25.16 68.4232 26.15C68.9332 27.14 69.2932 28.325 69.5032 29.705C69.7132 31.055 69.8182 32.555 69.8182 34.205C69.8182 36.485 69.6232 38.45 69.2332 40.1C68.8732 41.75 68.2132 43.025 67.2532 43.925C66.2932 44.795 64.9282 45.23 63.1582 45.23ZM64.2382 37.31C64.8082 37.31 65.3182 37.16 65.7682 36.86C66.2482 36.56 66.6232 36.17 66.8932 35.69C67.1932 35.21 67.3432 34.7 67.3432 34.16C67.3432 33.56 67.1932 33.02 66.8932 32.54C66.6232 32.06 66.2482 31.685 65.7682 31.415C65.2882 31.115 64.7482 30.965 64.1482 30.965C63.5782 30.965 63.0532 31.115 62.5732 31.415C62.0932 31.715 61.7032 32.105 61.4032 32.585C61.1332 33.065 60.9982 33.59 60.9982 34.16C60.9982 34.7 61.1482 35.21 61.4482 35.69C61.7482 36.17 62.1382 36.56 62.6182 36.86C63.1282 37.16 63.6682 37.31 64.2382 37.31ZM90.4236 46.31C89.0436 46.31 87.6486 46.04 86.2386 45.5C84.8286 44.93 83.5236 44.135 82.3236 43.115C81.1536 42.065 80.2086 40.82 79.4886 39.38C78.7986 37.91 78.4536 36.275 78.4536 34.475C78.4536 32.825 78.7686 31.28 79.3986 29.84C80.0286 28.4 80.8836 27.14 81.9636 26.06C83.0736 24.95 84.3336 24.08 85.7436 23.45C87.1836 22.82 88.7136 22.505 90.3336 22.505C92.5536 22.505 94.5636 23.045 96.3636 24.125C98.1636 25.175 99.6036 26.6 100.684 28.4C101.764 30.2 102.304 32.21 102.304 34.43C102.304 36.32 101.944 38 101.224 39.47C100.504 40.94 99.5586 42.185 98.3886 43.205C97.2186 44.225 95.9286 44.99 94.5186 45.5C93.1386 46.04 91.7736 46.31 90.4236 46.31ZM90.3336 38.075C90.7836 38.075 91.2936 37.97 91.8636 37.76C92.4636 37.52 92.9736 37.13 93.3936 36.59C93.8436 36.05 94.0686 35.315 94.0686 34.385C94.0686 33.635 93.9036 32.99 93.5736 32.45C93.2736 31.91 92.8386 31.49 92.2686 31.19C91.6986 30.89 91.0386 30.74 90.2886 30.74C89.6286 30.74 89.0286 30.905 88.4886 31.235C87.9486 31.535 87.5136 31.97 87.1836 32.54C86.8536 33.08 86.6886 33.71 86.6886 34.43C86.6886 35.33 86.8986 36.05 87.3186 36.59C87.7386 37.13 88.2336 37.52 88.8036 37.76C89.3736 37.97 89.8836 38.075 90.3336 38.075Z" fill="#19C1B6"/>
</svg>
