<svg width="466" height="144" viewBox="0 0 466 144" fill="none" xmlns="http://www.w3.org/2000/svg">
<rect width="466" height="144" rx="32" fill="#19C1B6"/>
<line x1="162.18" y1="45.9766" x2="162.18" y2="102.362" stroke="#50D6CD" stroke-width="1.5"/>
<line x1="309.055" y1="45.9766" x2="309.055" y2="102.362" stroke="#50D6CD" stroke-width="1.5"/>
<path d="M47.5572 121.879C47.3306 121.879 47.1439 121.845 46.9972 121.779C46.8639 121.712 46.7506 121.592 46.6572 121.419L42.9572 113.359C42.8106 113.039 42.7772 112.799 42.8572 112.639C42.9372 112.465 43.1239 112.305 43.4172 112.159C43.6839 112.025 43.9106 111.985 44.0972 112.039C44.2839 112.079 44.4439 112.252 44.5772 112.559L47.5572 119.659L50.4772 112.759C50.6239 112.452 50.7839 112.232 50.9572 112.099C51.1306 111.965 51.4039 111.992 51.7772 112.179C52.1372 112.352 52.3172 112.552 52.3172 112.779C52.3172 112.992 52.2572 113.225 52.1372 113.479L48.4572 121.399C48.3906 121.559 48.2839 121.679 48.1372 121.759C47.9906 121.839 47.7972 121.879 47.5572 121.879ZM62.141 121.819C61.8476 121.819 61.6343 121.759 61.501 121.639C61.381 121.519 61.3076 121.332 61.281 121.079L61.361 120.079C61.2276 120.292 61.021 120.539 60.741 120.819C60.461 121.085 60.0943 121.325 59.641 121.539C59.1876 121.739 58.6343 121.839 57.981 121.839C57.341 121.839 56.741 121.712 56.181 121.459C55.6343 121.205 55.1476 120.852 54.721 120.399C54.3076 119.945 53.981 119.425 53.741 118.839C53.5143 118.252 53.401 117.625 53.401 116.959C53.401 116.305 53.5143 115.692 53.741 115.119C53.981 114.532 54.3143 114.019 54.741 113.579C55.1676 113.139 55.6543 112.792 56.201 112.539C56.761 112.285 57.3543 112.159 57.981 112.159C58.5676 112.159 59.0676 112.239 59.481 112.399C59.8943 112.545 60.2476 112.745 60.541 112.999C60.8476 113.239 61.1143 113.512 61.341 113.819L61.301 112.979C61.2876 112.685 61.3476 112.479 61.481 112.359C61.6276 112.225 61.8543 112.159 62.161 112.159C62.4143 112.159 62.5943 112.199 62.701 112.279C62.821 112.359 62.901 112.472 62.941 112.619C62.981 112.765 63.001 112.945 63.001 113.159V120.879C63.001 121.065 62.981 121.232 62.941 121.379C62.901 121.525 62.821 121.632 62.701 121.699C62.581 121.779 62.3943 121.819 62.141 121.819ZM58.281 120.159C58.8143 120.159 59.301 120.019 59.741 119.739C60.1943 119.459 60.5476 119.085 60.801 118.619C61.0676 118.139 61.201 117.592 61.201 116.979C61.201 116.352 61.061 115.805 60.781 115.339C60.5143 114.859 60.1543 114.485 59.701 114.219C59.261 113.939 58.7743 113.799 58.241 113.799C57.6143 113.799 57.0676 113.945 56.601 114.239C56.1476 114.519 55.7876 114.899 55.521 115.379C55.2543 115.859 55.121 116.405 55.121 117.019C55.121 117.619 55.2543 118.159 55.521 118.639C55.7876 119.105 56.1543 119.479 56.621 119.759C57.101 120.025 57.6543 120.159 58.281 120.159ZM58.261 108.179C58.3276 108.179 58.381 108.185 58.421 108.199C58.4743 108.212 58.5276 108.232 58.581 108.259L60.721 109.259C60.9876 109.352 61.1543 109.485 61.221 109.659C61.2876 109.832 61.2543 110.045 61.121 110.299C61.001 110.525 60.8676 110.679 60.721 110.759C60.5876 110.839 60.441 110.839 60.281 110.759L58.261 109.739L56.261 110.739C56.101 110.819 55.9476 110.819 55.801 110.739C55.6676 110.645 55.541 110.485 55.421 110.259C55.2876 110.005 55.2543 109.805 55.321 109.659C55.3876 109.499 55.5543 109.365 55.821 109.259L57.941 108.259C57.9943 108.232 58.041 108.212 58.081 108.199C58.1343 108.185 58.1943 108.179 58.261 108.179ZM66.8653 121.839C66.612 121.839 66.4187 121.799 66.2853 121.719C66.1653 121.652 66.0853 121.552 66.0453 121.419C66.0187 121.272 66.0053 121.105 66.0053 120.919V113.039C66.0053 112.839 66.0253 112.672 66.0653 112.539C66.1053 112.405 66.1853 112.312 66.3053 112.259C66.4253 112.192 66.6187 112.159 66.8853 112.159C67.1253 112.159 67.3053 112.192 67.4253 112.259C67.5587 112.312 67.6453 112.399 67.6853 112.519C67.7387 112.625 67.7653 112.752 67.7653 112.899L67.6853 113.499C67.7787 113.325 67.8853 113.152 68.0053 112.979C68.1387 112.805 68.2987 112.652 68.4853 112.519C68.6853 112.372 68.9187 112.252 69.1853 112.159C69.4653 112.065 69.8053 112.019 70.2053 112.019C70.4053 112.019 70.592 112.039 70.7653 112.079C70.952 112.105 71.1253 112.152 71.2853 112.219C71.4587 112.285 71.6053 112.365 71.7253 112.459C71.8453 112.539 71.9387 112.632 72.0053 112.739C72.0853 112.832 72.1253 112.945 72.1253 113.079C72.1253 113.372 72.032 113.625 71.8453 113.839C71.6587 114.039 71.4653 114.139 71.2653 114.139C71.092 114.139 70.9653 114.119 70.8853 114.079C70.8053 114.025 70.7253 113.972 70.6453 113.919C70.5787 113.865 70.4787 113.819 70.3453 113.779C70.212 113.725 69.9987 113.699 69.7053 113.699C69.5053 113.699 69.292 113.739 69.0653 113.819C68.852 113.899 68.6453 114.019 68.4453 114.179C68.2453 114.325 68.0787 114.519 67.9453 114.759C67.8253 114.999 67.7653 115.279 67.7653 115.599V120.959C67.7653 121.145 67.7453 121.305 67.7053 121.439C67.6653 121.572 67.5787 121.672 67.4453 121.739C67.3253 121.805 67.132 121.839 66.8653 121.839ZM77.3835 121.939C77.0635 121.939 76.7301 121.905 76.3835 121.839C76.0368 121.772 75.6968 121.679 75.3635 121.559C75.0435 121.425 74.7568 121.272 74.5035 121.099C74.2635 120.925 74.0835 120.732 73.9635 120.519C73.8968 120.385 73.8568 120.265 73.8435 120.159C73.8301 120.039 73.8501 119.925 73.9035 119.819C73.9568 119.712 74.0368 119.605 74.1435 119.499C74.2768 119.339 74.4101 119.265 74.5435 119.279C74.6768 119.279 74.8435 119.365 75.0435 119.539C75.1901 119.632 75.3635 119.739 75.5635 119.859C75.7635 119.965 75.9701 120.065 76.1835 120.159C76.3968 120.239 76.6101 120.312 76.8235 120.379C77.0501 120.432 77.2701 120.459 77.4835 120.459C78.0968 120.459 78.5901 120.345 78.9635 120.119C79.3368 119.879 79.5235 119.565 79.5235 119.179C79.5235 118.952 79.4768 118.759 79.3835 118.599C79.2901 118.439 79.1635 118.305 79.0035 118.199C78.8435 118.079 78.6635 117.979 78.4635 117.899C78.2635 117.819 78.0368 117.745 77.7835 117.679C77.5435 117.599 77.3035 117.525 77.0635 117.459C76.7035 117.365 76.3501 117.259 76.0035 117.139C75.6568 117.019 75.3435 116.865 75.0635 116.679C74.7835 116.479 74.5568 116.232 74.3835 115.939C74.2101 115.632 74.1235 115.245 74.1235 114.779C74.1235 114.232 74.2635 113.759 74.5435 113.359C74.8235 112.959 75.2168 112.652 75.7235 112.439C76.2301 112.212 76.8235 112.099 77.5035 112.099C77.7968 112.099 78.0701 112.119 78.3235 112.159C78.5768 112.199 78.8168 112.265 79.0435 112.359C79.2835 112.439 79.5101 112.539 79.7235 112.659C79.9368 112.765 80.1435 112.899 80.3435 113.059C80.5835 113.219 80.7101 113.392 80.7235 113.579C80.7368 113.765 80.6635 113.959 80.5035 114.159C80.3835 114.332 80.2501 114.445 80.1035 114.499C79.9568 114.539 79.8101 114.499 79.6635 114.379C79.4501 114.219 79.2235 114.079 78.9835 113.959C78.7435 113.839 78.4968 113.739 78.2435 113.659C77.9901 113.579 77.7301 113.539 77.4635 113.539C77.1301 113.539 76.8301 113.592 76.5635 113.699C76.3101 113.792 76.1101 113.939 75.9635 114.139C75.8301 114.325 75.7635 114.539 75.7635 114.779C75.7635 114.992 75.8168 115.165 75.9235 115.299C76.0435 115.432 76.1901 115.545 76.3635 115.639C76.5501 115.732 76.7635 115.819 77.0035 115.899C77.2568 115.965 77.5168 116.032 77.7835 116.099C78.1701 116.192 78.5635 116.305 78.9635 116.439C79.3768 116.559 79.7435 116.725 80.0635 116.939C80.3968 117.139 80.6635 117.412 80.8635 117.759C81.0768 118.092 81.1835 118.539 81.1835 119.099C81.1835 119.979 80.8368 120.672 80.1435 121.179C79.4501 121.685 78.5301 121.939 77.3835 121.939ZM88.1907 121.839C87.564 121.839 87.0307 121.779 86.5907 121.659C86.164 121.539 85.8107 121.352 85.5307 121.099C85.2507 120.845 85.0507 120.519 84.9307 120.119C84.8107 119.705 84.7507 119.199 84.7507 118.599V109.759C84.7507 109.572 84.7707 109.412 84.8107 109.279C84.8507 109.145 84.9307 109.045 85.0507 108.979C85.1707 108.899 85.3573 108.859 85.6107 108.859C85.864 108.859 86.0573 108.899 86.1907 108.979C86.324 109.045 86.4107 109.145 86.4507 109.279C86.4907 109.399 86.5107 109.552 86.5107 109.739V118.599C86.5107 118.945 86.5373 119.225 86.5907 119.439C86.6573 119.639 86.7507 119.792 86.8707 119.899C87.004 120.005 87.1773 120.072 87.3907 120.099C87.604 120.125 87.864 120.139 88.1707 120.139C88.384 120.139 88.5573 120.159 88.6907 120.199C88.824 120.239 88.924 120.319 88.9907 120.439C89.0573 120.559 89.0907 120.739 89.0907 120.979C89.0907 121.232 89.0507 121.425 88.9707 121.559C88.904 121.679 88.7973 121.752 88.6507 121.779C88.5173 121.819 88.364 121.839 88.1907 121.839ZM83.7107 112.379L85.6307 112.399L88.4107 112.359C88.5973 112.359 88.7573 112.379 88.8907 112.419C89.024 112.445 89.124 112.525 89.1907 112.659C89.2707 112.779 89.3107 112.965 89.3107 113.219C89.3107 113.472 89.2773 113.665 89.2107 113.799C89.144 113.919 89.044 113.999 88.9107 114.039C88.7773 114.079 88.6173 114.099 88.4307 114.099L85.6907 114.059L83.6707 114.079C83.3907 114.079 83.1973 114.012 83.0907 113.879C82.9973 113.745 82.9507 113.525 82.9507 113.219C82.9507 112.925 83.0107 112.712 83.1307 112.579C83.2507 112.445 83.444 112.379 83.7107 112.379ZM99.9902 121.819C99.6969 121.819 99.4835 121.759 99.3502 121.639C99.2302 121.519 99.1569 121.332 99.1302 121.079L99.2102 120.079C99.0769 120.292 98.8702 120.539 98.5902 120.819C98.3102 121.085 97.9435 121.325 97.4902 121.539C97.0369 121.739 96.4835 121.839 95.8302 121.839C95.1902 121.839 94.5902 121.712 94.0302 121.459C93.4835 121.205 92.9969 120.852 92.5702 120.399C92.1569 119.945 91.8302 119.425 91.5902 118.839C91.3635 118.252 91.2502 117.625 91.2502 116.959C91.2502 116.305 91.3635 115.692 91.5902 115.119C91.8302 114.532 92.1635 114.019 92.5902 113.579C93.0169 113.139 93.5035 112.792 94.0502 112.539C94.6102 112.285 95.2035 112.159 95.8302 112.159C96.4169 112.159 96.9169 112.239 97.3302 112.399C97.7435 112.545 98.0969 112.745 98.3902 112.999C98.6969 113.239 98.9635 113.512 99.1902 113.819L99.1502 112.979C99.1369 112.685 99.1969 112.479 99.3302 112.359C99.4769 112.225 99.7035 112.159 100.01 112.159C100.264 112.159 100.444 112.199 100.55 112.279C100.67 112.359 100.75 112.472 100.79 112.619C100.83 112.765 100.85 112.945 100.85 113.159V120.879C100.85 121.065 100.83 121.232 100.79 121.379C100.75 121.525 100.67 121.632 100.55 121.699C100.43 121.779 100.244 121.819 99.9902 121.819ZM96.1302 120.159C96.6635 120.159 97.1502 120.019 97.5902 119.739C98.0435 119.459 98.3969 119.085 98.6502 118.619C98.9169 118.139 99.0502 117.592 99.0502 116.979C99.0502 116.352 98.9102 115.805 98.6302 115.339C98.3635 114.859 98.0035 114.485 97.5502 114.219C97.1102 113.939 96.6235 113.799 96.0902 113.799C95.4635 113.799 94.9169 113.945 94.4502 114.239C93.9969 114.519 93.6369 114.899 93.3702 115.379C93.1035 115.859 92.9702 116.405 92.9702 117.019C92.9702 117.619 93.1035 118.159 93.3702 118.639C93.6369 119.105 94.0035 119.479 94.4702 119.759C94.9502 120.025 95.5035 120.159 96.1302 120.159Z" fill="white"/>
<path d="M52.552 48.704C51.5493 48.704 50.664 48.5867 49.896 48.352C49.128 48.1387 48.4773 47.8827 47.944 47.584C47.432 47.2853 47.0373 47.0293 46.76 46.816C46.504 46.5813 46.376 46.464 46.376 46.464C46.056 46.1867 45.768 45.8987 45.512 45.6C45.2773 45.28 45.16 44.9173 45.16 44.512C45.16 44.1707 45.256 43.8293 45.448 43.488C45.64 43.1253 45.9387 42.7413 46.344 42.336C46.664 41.9733 46.984 41.7067 47.304 41.536C47.6453 41.344 47.9867 41.248 48.328 41.248C48.648 41.248 48.968 41.3333 49.288 41.504C49.6293 41.6533 50.0347 41.92 50.504 42.304C50.504 42.304 50.5573 42.3467 50.664 42.432C50.792 42.5173 50.984 42.6027 51.24 42.688C51.5173 42.7733 51.8907 42.816 52.36 42.816C52.808 42.816 53.1813 42.7413 53.48 42.592C53.8 42.4427 54.0347 42.24 54.184 41.984C54.3547 41.7067 54.44 41.376 54.44 40.992C54.44 40.6293 54.3547 40.3093 54.184 40.032C54.0133 39.7547 53.7787 39.5413 53.48 39.392C53.1813 39.2213 52.84 39.136 52.456 39.136C52.2 39.136 51.976 39.168 51.784 39.232C51.6133 39.296 51.4747 39.3707 51.368 39.456C51.2827 39.52 51.2293 39.5627 51.208 39.584C50.9947 39.776 50.7493 39.9573 50.472 40.128C50.1947 40.2773 49.8427 40.352 49.416 40.352C49.096 40.352 48.7653 40.2987 48.424 40.192C48.0827 40.0853 47.72 39.9253 47.336 39.712C46.6533 39.3493 46.1733 39.0293 45.896 38.752C45.64 38.4747 45.512 38.1653 45.512 37.824L46.696 28.736C46.7387 28.416 46.824 28.032 46.952 27.584C47.08 27.1147 47.3467 26.7093 47.752 26.368C48.1573 26.0053 48.7867 25.824 49.64 25.824L56.968 25.856C57.4587 25.856 57.9173 25.8987 58.344 25.984C58.792 26.0693 59.1547 26.3253 59.432 26.752C59.7307 27.1573 59.88 27.8613 59.88 28.864C59.88 29.7813 59.7413 30.4427 59.464 30.848C59.208 31.232 58.8667 31.4667 58.44 31.552C58.0133 31.616 57.576 31.648 57.128 31.648H52.2L51.976 33.344C52.04 33.3227 52.104 33.312 52.168 33.312C52.232 33.312 52.2853 33.312 52.328 33.312C52.392 33.2907 52.456 33.28 52.52 33.28H52.68C53.6827 33.28 54.6427 33.4827 55.56 33.888C56.4773 34.272 57.288 34.816 57.992 35.52C58.7173 36.224 59.2827 37.024 59.688 37.92C60.1147 38.816 60.328 39.7653 60.328 40.768C60.328 42.2613 59.9867 43.6053 59.304 44.8C58.6213 45.9947 57.6933 46.944 56.52 47.648C55.3467 48.352 54.024 48.704 52.552 48.704ZM64.3012 42.432C63.9812 42.432 63.6292 42.4 63.2452 42.336C62.8612 42.2507 62.5306 42.0267 62.2532 41.664C61.9972 41.28 61.8692 40.64 61.8692 39.744C61.8692 38.8693 62.0079 38.2613 62.2852 37.92C62.5626 37.5573 62.8932 37.344 63.2772 37.28C63.6612 37.1947 64.0132 37.152 64.3332 37.152H71.4052C71.7466 37.152 72.1092 37.1947 72.4932 37.28C72.8773 37.344 73.1973 37.5573 73.4532 37.92C73.7306 38.2827 73.8693 38.9013 73.8693 39.776C73.8693 40.6507 73.7413 41.28 73.4852 41.664C73.2292 42.0267 72.9092 42.2507 72.5252 42.336C72.1626 42.4 71.7892 42.432 71.4052 42.432H64.3012ZM83.2555 48.352C82.1888 48.352 81.4422 48.1387 81.0155 47.712C80.5888 47.2853 80.3755 46.528 80.3755 45.44V28.768C80.3755 27.7013 80.5888 26.9547 81.0155 26.528C81.4422 26.1013 82.1995 25.888 83.2875 25.888C84.3542 25.888 85.1008 26.112 85.5275 26.56C85.9542 26.9867 86.1675 27.744 86.1675 28.832V45.472C86.1675 46.5387 85.9542 47.2853 85.5275 47.712C85.1008 48.1387 84.3435 48.352 83.2555 48.352ZM80.0555 34.912C79.3302 35.552 78.6688 35.8613 78.0715 35.84C77.4955 35.8187 76.8662 35.4453 76.1835 34.72C75.4795 33.9733 75.1488 33.2693 75.1915 32.608C75.2342 31.9467 75.6822 31.2427 76.5355 30.496L80.5995 26.848C81.3035 26.208 81.9542 25.92 82.5515 25.984C83.1702 26.0267 83.8102 26.4107 84.4715 27.136C85.1542 27.8613 85.4635 28.5547 85.3995 29.216C85.3568 29.856 84.9088 30.56 84.0555 31.328L80.0555 34.912ZM101.492 48.256C100.532 48.256 99.8498 48.1173 99.4445 47.84C99.0392 47.5413 98.7938 47.168 98.7085 46.72C98.6232 46.2507 98.5805 45.7813 98.5805 45.312V41.984H90.8045C89.8445 41.984 89.1618 41.8453 88.7565 41.568C88.3512 41.2693 88.1058 40.896 88.0205 40.448C87.9352 39.9787 87.8925 39.5093 87.8925 39.04C87.8925 38.8053 87.8925 38.6133 87.8925 38.464C87.9138 38.3147 87.9458 38.1653 87.9885 38.016L90.4525 28.064C90.7298 26.8907 91.1352 26.1867 91.6685 25.952C92.2018 25.7173 93.0018 25.728 94.0685 25.984C94.8578 26.1973 95.4658 26.5067 95.8925 26.912C96.3405 27.296 96.5005 27.7653 96.3725 28.32L94.3885 36.48H98.5805V28.64C98.5805 28.1707 98.6232 27.7333 98.7085 27.328C98.7938 26.9013 99.0392 26.5493 99.4445 26.272C99.8712 25.9947 100.575 25.856 101.556 25.856C102.516 25.856 103.199 26.0053 103.604 26.304C104.01 26.5813 104.255 26.944 104.34 27.392C104.426 27.84 104.468 28.3093 104.468 28.8V45.344C104.468 45.8347 104.415 46.304 104.308 46.752C104.223 47.2 103.978 47.5627 103.572 47.84C103.167 48.1173 102.474 48.256 101.492 48.256ZM58.952 88.224C57.992 88.224 57.2773 88.064 56.808 87.744C56.36 87.424 56.1467 87.0613 56.168 86.656H56.616C56.5093 86.8053 56.296 87.008 55.976 87.264C55.6773 87.4987 55.272 87.7227 54.76 87.936C54.248 88.128 53.6187 88.224 52.872 88.224C51.912 88.224 50.984 88.0107 50.088 87.584C49.2133 87.136 48.424 86.528 47.72 85.76C47.0373 84.992 46.4933 84.128 46.088 83.168C45.6827 82.1867 45.48 81.1627 45.48 80.096C45.48 79.0507 45.6827 78.048 46.088 77.088C46.4933 76.128 47.048 75.2747 47.752 74.528C48.456 73.76 49.2453 73.1627 50.12 72.736C50.9947 72.288 51.912 72.064 52.872 72.064C53.5973 72.064 54.2053 72.1707 54.696 72.384C55.208 72.5973 55.6133 72.832 55.912 73.088C56.232 73.344 56.4453 73.5573 56.552 73.728H56.2C56.1787 73.1947 56.392 72.7787 56.84 72.48C57.3093 72.1813 58.024 72.032 58.984 72.032C59.944 72.032 60.616 72.1813 61 72.48C61.4053 72.7573 61.6507 73.12 61.736 73.568C61.8213 74.016 61.864 74.4747 61.864 74.944V85.344C61.864 85.8133 61.8213 86.272 61.736 86.72C61.6507 87.168 61.4053 87.5307 61 87.808C60.616 88.0853 59.9333 88.224 58.952 88.224ZM53.672 82.432C54.0773 82.432 54.44 82.3253 54.76 82.112C55.1013 81.8987 55.368 81.6213 55.56 81.28C55.7733 80.9173 55.88 80.5333 55.88 80.128C55.88 79.7013 55.7733 79.3173 55.56 78.976C55.368 78.6347 55.1013 78.3573 54.76 78.144C54.4187 77.9307 54.0347 77.824 53.608 77.824C53.1813 77.824 52.7867 77.9307 52.424 78.144C52.0827 78.3573 51.8053 78.6453 51.592 79.008C51.3787 79.3493 51.272 79.7333 51.272 80.16C51.272 80.5653 51.3787 80.9387 51.592 81.28C51.8267 81.6213 52.1253 81.8987 52.488 82.112C52.8507 82.3253 53.2453 82.432 53.672 82.432ZM67.2925 88.256C66.3325 88.256 65.6498 88.1173 65.2445 87.84C64.8392 87.5413 64.5938 87.168 64.5085 86.72C64.4445 86.272 64.4125 85.8133 64.4125 85.344V74.816C64.4125 74.3467 64.4552 73.8987 64.5405 73.472C64.6258 73.0453 64.8712 72.704 65.2765 72.448C65.6818 72.1707 66.3645 72.032 67.3245 72.032C68.1992 72.032 68.8285 72.1493 69.2125 72.384C69.6178 72.5973 69.8738 72.864 69.9805 73.184C70.0872 73.504 70.1298 73.8027 70.1085 74.08C70.1085 74.336 70.1298 74.496 70.1725 74.56L69.9165 74.752C69.8952 74.432 70.0125 74.112 70.2685 73.792C70.5458 73.472 70.8978 73.184 71.3245 72.928C71.7725 72.6507 72.2418 72.4373 72.7325 72.288C73.2445 72.1173 73.7245 72.032 74.1725 72.032C75.2392 72.032 76.1778 72.2347 76.9885 72.64C77.7992 73.0453 78.4712 73.6213 79.0045 74.368C79.5592 75.0933 79.9752 75.9467 80.2525 76.928C80.5298 77.9093 80.6685 78.976 80.6685 80.128V85.376C80.6685 85.8453 80.6258 86.304 80.5405 86.752C80.4552 87.2 80.2098 87.5627 79.8045 87.84C79.4205 88.1173 78.7378 88.256 77.7565 88.256C76.7752 88.256 76.0818 88.1173 75.6765 87.84C75.2712 87.5413 75.0258 87.168 74.9405 86.72C74.8552 86.272 74.8125 85.8133 74.8125 85.344V80.128C74.8125 79.6373 74.7165 79.2213 74.5245 78.88C74.3538 78.5387 74.0978 78.2827 73.7565 78.112C73.4365 77.92 73.0312 77.824 72.5405 77.824C72.0712 77.824 71.6552 77.92 71.2925 78.112C70.9512 78.304 70.6845 78.5707 70.4925 78.912C70.3005 79.2533 70.2045 79.6587 70.2045 80.128V85.376C70.2045 85.8453 70.1618 86.304 70.0765 86.752C69.9912 87.2 69.7458 87.5627 69.3405 87.84C68.9565 88.1173 68.2738 88.256 67.2925 88.256ZM86.2175 88.288C85.2575 88.288 84.5748 88.1493 84.1695 87.872C83.7642 87.5733 83.5188 87.2 83.4335 86.752C83.3695 86.304 83.3375 85.8453 83.3375 85.376V74.944C83.3375 74.4747 83.3802 74.0267 83.4655 73.6C83.5508 73.152 83.7962 72.7893 84.2015 72.512C84.6068 72.2133 85.2895 72.064 86.2495 72.064C87.2095 72.064 87.8815 72.2133 88.2655 72.512C88.6708 72.7893 88.9162 73.152 89.0015 73.6C89.0868 74.048 89.1295 74.5173 89.1295 75.008V85.408C89.1295 85.8773 89.0868 86.336 89.0015 86.784C88.9162 87.232 88.6708 87.5947 88.2655 87.872C87.8815 88.1493 87.1988 88.288 86.2175 88.288ZM86.2175 70.496C85.2575 70.496 84.5748 70.3573 84.1695 70.08C83.7642 69.7813 83.5188 69.408 83.4335 68.96C83.3695 68.512 83.3375 68.0533 83.3375 67.584C83.3375 67.0933 83.3802 66.6347 83.4655 66.208C83.5508 65.76 83.7962 65.3973 84.2015 65.12C84.6068 64.8427 85.2895 64.704 86.2495 64.704C87.2095 64.704 87.8815 64.8533 88.2655 65.152C88.6708 65.4293 88.9162 65.792 89.0015 66.24C89.0868 66.688 89.1295 67.1467 89.1295 67.616C89.1295 68.0853 89.0868 68.544 89.0015 68.992C88.9162 69.44 88.6708 69.8027 88.2655 70.08C87.8815 70.3573 87.1988 70.496 86.2175 70.496Z" fill="white"/>
<path d="M199.532 121.24C199.306 121.24 199.119 121.207 198.972 121.14C198.839 121.073 198.726 120.953 198.632 120.78L194.932 112.72C194.786 112.4 194.752 112.16 194.832 112C194.912 111.827 195.099 111.667 195.392 111.52C195.659 111.387 195.886 111.347 196.072 111.4C196.259 111.44 196.419 111.613 196.552 111.92L199.532 119.02L202.452 112.12C202.599 111.813 202.759 111.593 202.932 111.46C203.106 111.327 203.379 111.353 203.752 111.54C204.112 111.713 204.292 111.913 204.292 112.14C204.292 112.353 204.232 112.587 204.112 112.84L200.432 120.76C200.366 120.92 200.259 121.04 200.112 121.12C199.966 121.2 199.772 121.24 199.532 121.24ZM214.116 121.18C213.823 121.18 213.609 121.12 213.476 121C213.356 120.88 213.283 120.693 213.256 120.44L213.336 119.44C213.203 119.653 212.996 119.9 212.716 120.18C212.436 120.447 212.069 120.687 211.616 120.9C211.163 121.1 210.609 121.2 209.956 121.2C209.316 121.2 208.716 121.073 208.156 120.82C207.609 120.567 207.123 120.213 206.696 119.76C206.283 119.307 205.956 118.787 205.716 118.2C205.489 117.613 205.376 116.987 205.376 116.32C205.376 115.667 205.489 115.053 205.716 114.48C205.956 113.893 206.289 113.38 206.716 112.94C207.143 112.5 207.629 112.153 208.176 111.9C208.736 111.647 209.329 111.52 209.956 111.52C210.543 111.52 211.043 111.6 211.456 111.76C211.869 111.907 212.223 112.107 212.516 112.36C212.823 112.6 213.089 112.873 213.316 113.18L213.276 112.34C213.263 112.047 213.323 111.84 213.456 111.72C213.603 111.587 213.829 111.52 214.136 111.52C214.389 111.52 214.569 111.56 214.676 111.64C214.796 111.72 214.876 111.833 214.916 111.98C214.956 112.127 214.976 112.307 214.976 112.52V120.24C214.976 120.427 214.956 120.593 214.916 120.74C214.876 120.887 214.796 120.993 214.676 121.06C214.556 121.14 214.369 121.18 214.116 121.18ZM210.256 119.52C210.789 119.52 211.276 119.38 211.716 119.1C212.169 118.82 212.523 118.447 212.776 117.98C213.043 117.5 213.176 116.953 213.176 116.34C213.176 115.713 213.036 115.167 212.756 114.7C212.489 114.22 212.129 113.847 211.676 113.58C211.236 113.3 210.749 113.16 210.216 113.16C209.589 113.16 209.043 113.307 208.576 113.6C208.123 113.88 207.763 114.26 207.496 114.74C207.229 115.22 207.096 115.767 207.096 116.38C207.096 116.98 207.229 117.52 207.496 118C207.763 118.467 208.129 118.84 208.596 119.12C209.076 119.387 209.629 119.52 210.256 119.52ZM218.84 121.2C218.587 121.2 218.394 121.16 218.26 121.08C218.14 121.013 218.06 120.913 218.02 120.78C217.994 120.633 217.98 120.467 217.98 120.28V112.4C217.98 112.2 218 112.033 218.04 111.9C218.08 111.767 218.16 111.673 218.28 111.62C218.4 111.553 218.594 111.52 218.86 111.52C219.1 111.52 219.28 111.553 219.4 111.62C219.534 111.673 219.62 111.76 219.66 111.88C219.714 111.987 219.74 112.113 219.74 112.26L219.66 112.86C219.754 112.687 219.86 112.513 219.98 112.34C220.114 112.167 220.274 112.013 220.46 111.88C220.66 111.733 220.894 111.613 221.16 111.52C221.44 111.427 221.78 111.38 222.18 111.38C222.38 111.38 222.567 111.4 222.74 111.44C222.927 111.467 223.1 111.513 223.26 111.58C223.434 111.647 223.58 111.727 223.7 111.82C223.82 111.9 223.914 111.993 223.98 112.1C224.06 112.193 224.1 112.307 224.1 112.44C224.1 112.733 224.007 112.987 223.82 113.2C223.634 113.4 223.44 113.5 223.24 113.5C223.067 113.5 222.94 113.48 222.86 113.44C222.78 113.387 222.7 113.333 222.62 113.28C222.554 113.227 222.454 113.18 222.32 113.14C222.187 113.087 221.974 113.06 221.68 113.06C221.48 113.06 221.267 113.1 221.04 113.18C220.827 113.26 220.62 113.38 220.42 113.54C220.22 113.687 220.054 113.88 219.92 114.12C219.8 114.36 219.74 114.64 219.74 114.96V120.32C219.74 120.507 219.72 120.667 219.68 120.8C219.64 120.933 219.554 121.033 219.42 121.1C219.3 121.167 219.107 121.2 218.84 121.2ZM227.665 121.2C227.412 121.2 227.219 121.16 227.085 121.08C226.965 121.013 226.885 120.913 226.845 120.78C226.805 120.647 226.785 120.487 226.785 120.3V112.4C226.785 112.213 226.805 112.053 226.845 111.92C226.885 111.787 226.965 111.687 227.085 111.62C227.219 111.553 227.419 111.52 227.685 111.52C227.939 111.52 228.125 111.56 228.245 111.64C228.365 111.707 228.445 111.807 228.485 111.94C228.525 112.073 228.545 112.24 228.545 112.44V120.32C228.545 120.507 228.525 120.667 228.485 120.8C228.445 120.933 228.359 121.033 228.225 121.1C228.105 121.167 227.919 121.2 227.665 121.2ZM227.665 109.12C227.372 109.12 227.152 109.08 227.005 109C226.859 108.907 226.759 108.78 226.705 108.62C226.665 108.46 226.645 108.273 226.645 108.06C226.645 107.847 226.672 107.667 226.725 107.52C226.779 107.36 226.879 107.247 227.025 107.18C227.172 107.1 227.392 107.06 227.685 107.06C227.965 107.06 228.179 107.1 228.325 107.18C228.472 107.26 228.565 107.38 228.605 107.54C228.659 107.7 228.685 107.887 228.685 108.1C228.685 108.313 228.659 108.5 228.605 108.66C228.565 108.807 228.472 108.92 228.325 109C228.179 109.08 227.959 109.12 227.665 109.12ZM236.318 121.3C235.518 121.3 234.805 121.167 234.178 120.9C233.551 120.633 233.018 120.273 232.578 119.82C232.151 119.353 231.825 118.82 231.598 118.22C231.371 117.62 231.258 116.973 231.258 116.28C231.258 115.36 231.471 114.54 231.898 113.82C232.325 113.1 232.911 112.533 233.658 112.12C234.418 111.693 235.285 111.48 236.258 111.48C236.925 111.48 237.518 111.587 238.038 111.8C238.571 112 239.025 112.273 239.398 112.62C239.771 112.967 240.058 113.353 240.258 113.78C240.458 114.207 240.558 114.633 240.558 115.06C240.558 115.74 240.398 116.22 240.078 116.5C239.758 116.767 239.365 116.9 238.898 116.9H233.118C233.105 117.487 233.258 117.993 233.578 118.42C233.911 118.833 234.325 119.153 234.818 119.38C235.325 119.607 235.831 119.72 236.338 119.72C236.711 119.72 237.031 119.7 237.298 119.66C237.565 119.62 237.798 119.567 237.998 119.5C238.198 119.433 238.371 119.367 238.518 119.3C238.665 119.233 238.791 119.167 238.898 119.1C239.018 119.033 239.131 118.987 239.238 118.96C239.358 118.933 239.471 118.947 239.578 119C239.698 119.04 239.791 119.127 239.858 119.26C239.938 119.367 239.991 119.467 240.018 119.56C240.045 119.653 240.058 119.753 240.058 119.86C240.058 120.047 239.898 120.253 239.578 120.48C239.258 120.707 238.811 120.9 238.238 121.06C237.678 121.22 237.038 121.3 236.318 121.3ZM233.118 115.72H238.138C238.391 115.72 238.578 115.687 238.698 115.62C238.831 115.553 238.898 115.373 238.898 115.08C238.898 114.707 238.785 114.373 238.558 114.08C238.331 113.773 238.018 113.527 237.618 113.34C237.231 113.153 236.785 113.06 236.278 113.06C235.691 113.06 235.151 113.18 234.658 113.42C234.178 113.647 233.798 113.96 233.518 114.36C233.238 114.76 233.105 115.213 233.118 115.72ZM247.524 121.2C246.897 121.2 246.364 121.14 245.924 121.02C245.497 120.9 245.144 120.713 244.864 120.46C244.584 120.207 244.384 119.88 244.264 119.48C244.144 119.067 244.084 118.56 244.084 117.96V109.12C244.084 108.933 244.104 108.773 244.144 108.64C244.184 108.507 244.264 108.407 244.384 108.34C244.504 108.26 244.69 108.22 244.944 108.22C245.197 108.22 245.39 108.26 245.524 108.34C245.657 108.407 245.744 108.507 245.784 108.64C245.824 108.76 245.844 108.913 245.844 109.1V117.96C245.844 118.307 245.87 118.587 245.924 118.8C245.99 119 246.084 119.153 246.204 119.26C246.337 119.367 246.51 119.433 246.724 119.46C246.937 119.487 247.197 119.5 247.504 119.5C247.717 119.5 247.89 119.52 248.024 119.56C248.157 119.6 248.257 119.68 248.324 119.8C248.39 119.92 248.424 120.1 248.424 120.34C248.424 120.593 248.384 120.787 248.304 120.92C248.237 121.04 248.13 121.113 247.984 121.14C247.85 121.18 247.697 121.2 247.524 121.2ZM243.044 111.74L244.964 111.76L247.744 111.72C247.93 111.72 248.09 111.74 248.224 111.78C248.357 111.807 248.457 111.887 248.524 112.02C248.604 112.14 248.644 112.327 248.644 112.58C248.644 112.833 248.61 113.027 248.544 113.16C248.477 113.28 248.377 113.36 248.244 113.4C248.11 113.44 247.95 113.46 247.764 113.46L245.024 113.42L243.004 113.44C242.724 113.44 242.53 113.373 242.424 113.24C242.33 113.107 242.284 112.887 242.284 112.58C242.284 112.287 242.344 112.073 242.464 111.94C242.584 111.807 242.777 111.74 243.044 111.74ZM259.323 121.18C259.03 121.18 258.816 121.12 258.683 121C258.563 120.88 258.49 120.693 258.463 120.44L258.543 119.44C258.41 119.653 258.203 119.9 257.923 120.18C257.643 120.447 257.276 120.687 256.823 120.9C256.37 121.1 255.816 121.2 255.163 121.2C254.523 121.2 253.923 121.073 253.363 120.82C252.816 120.567 252.33 120.213 251.903 119.76C251.49 119.307 251.163 118.787 250.923 118.2C250.696 117.613 250.583 116.987 250.583 116.32C250.583 115.667 250.696 115.053 250.923 114.48C251.163 113.893 251.496 113.38 251.923 112.94C252.35 112.5 252.836 112.153 253.383 111.9C253.943 111.647 254.536 111.52 255.163 111.52C255.75 111.52 256.25 111.6 256.663 111.76C257.076 111.907 257.43 112.107 257.723 112.36C258.03 112.6 258.296 112.873 258.523 113.18L258.483 112.34C258.47 112.047 258.53 111.84 258.663 111.72C258.81 111.587 259.036 111.52 259.343 111.52C259.596 111.52 259.776 111.56 259.883 111.64C260.003 111.72 260.083 111.833 260.123 111.98C260.163 112.127 260.183 112.307 260.183 112.52V120.24C260.183 120.427 260.163 120.593 260.123 120.74C260.083 120.887 260.003 120.993 259.883 121.06C259.763 121.14 259.576 121.18 259.323 121.18ZM255.463 119.52C255.996 119.52 256.483 119.38 256.923 119.1C257.376 118.82 257.73 118.447 257.983 117.98C258.25 117.5 258.383 116.953 258.383 116.34C258.383 115.713 258.243 115.167 257.963 114.7C257.696 114.22 257.336 113.847 256.883 113.58C256.443 113.3 255.956 113.16 255.423 113.16C254.796 113.16 254.25 113.307 253.783 113.6C253.33 113.88 252.97 114.26 252.703 114.74C252.436 115.22 252.303 115.767 252.303 116.38C252.303 116.98 252.436 117.52 252.703 118C252.97 118.467 253.336 118.84 253.803 119.12C254.283 119.387 254.836 119.52 255.463 119.52ZM267.727 121.2C267.101 121.2 266.567 121.14 266.127 121.02C265.701 120.9 265.347 120.713 265.067 120.46C264.787 120.207 264.587 119.88 264.467 119.48C264.347 119.067 264.287 118.56 264.287 117.96V109.12C264.287 108.933 264.307 108.773 264.347 108.64C264.387 108.507 264.467 108.407 264.587 108.34C264.707 108.26 264.894 108.22 265.147 108.22C265.401 108.22 265.594 108.26 265.727 108.34C265.861 108.407 265.947 108.507 265.987 108.64C266.027 108.76 266.047 108.913 266.047 109.1V117.96C266.047 118.307 266.074 118.587 266.127 118.8C266.194 119 266.287 119.153 266.407 119.26C266.541 119.367 266.714 119.433 266.927 119.46C267.141 119.487 267.401 119.5 267.707 119.5C267.921 119.5 268.094 119.52 268.227 119.56C268.361 119.6 268.461 119.68 268.527 119.8C268.594 119.92 268.627 120.1 268.627 120.34C268.627 120.593 268.587 120.787 268.507 120.92C268.441 121.04 268.334 121.113 268.187 121.14C268.054 121.18 267.901 121.2 267.727 121.2ZM263.247 111.74L265.167 111.76L267.947 111.72C268.134 111.72 268.294 111.74 268.427 111.78C268.561 111.807 268.661 111.887 268.727 112.02C268.807 112.14 268.847 112.327 268.847 112.58C268.847 112.833 268.814 113.027 268.747 113.16C268.681 113.28 268.581 113.36 268.447 113.4C268.314 113.44 268.154 113.46 267.967 113.46L265.227 113.42L263.207 113.44C262.927 113.44 262.734 113.373 262.627 113.24C262.534 113.107 262.487 112.887 262.487 112.58C262.487 112.287 262.547 112.073 262.667 111.94C262.787 111.807 262.981 111.74 263.247 111.74ZM275.847 121.3C275.047 121.3 274.334 121.167 273.707 120.9C273.08 120.633 272.547 120.273 272.107 119.82C271.68 119.353 271.354 118.82 271.127 118.22C270.9 117.62 270.787 116.973 270.787 116.28C270.787 115.36 271 114.54 271.427 113.82C271.854 113.1 272.44 112.533 273.187 112.12C273.947 111.693 274.814 111.48 275.787 111.48C276.454 111.48 277.047 111.587 277.567 111.8C278.1 112 278.554 112.273 278.927 112.62C279.3 112.967 279.587 113.353 279.787 113.78C279.987 114.207 280.087 114.633 280.087 115.06C280.087 115.74 279.927 116.22 279.607 116.5C279.287 116.767 278.894 116.9 278.427 116.9H272.647C272.634 117.487 272.787 117.993 273.107 118.42C273.44 118.833 273.854 119.153 274.347 119.38C274.854 119.607 275.36 119.72 275.867 119.72C276.24 119.72 276.56 119.7 276.827 119.66C277.094 119.62 277.327 119.567 277.527 119.5C277.727 119.433 277.9 119.367 278.047 119.3C278.194 119.233 278.32 119.167 278.427 119.1C278.547 119.033 278.66 118.987 278.767 118.96C278.887 118.933 279 118.947 279.107 119C279.227 119.04 279.32 119.127 279.387 119.26C279.467 119.367 279.52 119.467 279.547 119.56C279.574 119.653 279.587 119.753 279.587 119.86C279.587 120.047 279.427 120.253 279.107 120.48C278.787 120.707 278.34 120.9 277.767 121.06C277.207 121.22 276.567 121.3 275.847 121.3ZM272.647 115.72H277.667C277.92 115.72 278.107 115.687 278.227 115.62C278.36 115.553 278.427 115.373 278.427 115.08C278.427 114.707 278.314 114.373 278.087 114.08C277.86 113.773 277.547 113.527 277.147 113.34C276.76 113.153 276.314 113.06 275.807 113.06C275.22 113.06 274.68 113.18 274.187 113.42C273.707 113.647 273.327 113.96 273.047 114.36C272.767 114.76 272.634 115.213 272.647 115.72Z" fill="white"/>
<path d="M236.76 47.704C235.202 47.704 233.794 47.3733 232.536 46.712C231.298 46.0293 230.306 45.112 229.56 43.96C228.834 42.7867 228.472 41.464 228.472 39.992C228.472 39.288 228.589 38.648 228.824 38.072C229.058 37.4747 229.336 36.9627 229.656 36.536C229.976 36.1093 230.264 35.7787 230.52 35.544C230.797 35.288 230.968 35.1387 231.032 35.096C231.096 35.032 230.989 35.096 230.712 35.288C231.032 35.5013 231.128 35.576 231 35.512C230.893 35.4267 230.68 35.2133 230.36 34.872C230.061 34.5307 229.773 34.072 229.496 33.496C229.24 32.92 229.112 32.248 229.112 31.48C229.112 30.1573 229.453 28.9733 230.136 27.928C230.818 26.8613 231.736 26.0187 232.888 25.4C234.061 24.76 235.352 24.44 236.76 24.44C238.146 24.44 239.405 24.76 240.536 25.4C241.666 26.0187 242.562 26.872 243.224 27.96C243.906 29.048 244.248 30.264 244.248 31.608C244.248 32.12 244.162 32.6107 243.992 33.08C243.821 33.528 243.618 33.9333 243.384 34.296C243.149 34.6373 242.936 34.9147 242.744 35.128C242.552 35.3413 242.434 35.4693 242.392 35.512C242.37 35.5547 242.466 35.48 242.68 35.288C242.424 35.096 242.328 35.032 242.392 35.096C242.456 35.1387 242.616 35.288 242.872 35.544C243.149 35.8 243.437 36.1413 243.736 36.568C244.056 36.9947 244.322 37.5067 244.536 38.104C244.77 38.68 244.888 39.3093 244.888 39.992C244.888 41.208 244.642 42.296 244.152 43.256C243.661 44.216 243.01 45.0267 242.2 45.688C241.41 46.3493 240.536 46.8507 239.576 47.192C238.637 47.5333 237.698 47.704 236.76 47.704ZM236.728 42.104C237.218 42.104 237.634 42.0293 237.976 41.88C238.317 41.7093 238.573 41.4747 238.744 41.176C238.936 40.8773 239.032 40.5253 239.032 40.12C239.032 39.7147 238.936 39.3733 238.744 39.096C238.573 38.7973 238.306 38.5733 237.944 38.424C237.602 38.2747 237.176 38.2 236.664 38.2C236.173 38.2 235.746 38.2747 235.384 38.424C235.042 38.5733 234.776 38.7973 234.584 39.096C234.413 39.3733 234.328 39.7147 234.328 40.12C234.328 40.5253 234.424 40.8773 234.616 41.176C234.808 41.4747 235.074 41.7093 235.416 41.88C235.778 42.0293 236.216 42.104 236.728 42.104ZM236.728 32.792C237.09 32.792 237.389 32.7387 237.624 32.632C237.88 32.5253 238.072 32.376 238.2 32.184C238.328 31.9707 238.392 31.7253 238.392 31.448C238.392 31.1707 238.317 30.936 238.168 30.744C238.04 30.5307 237.848 30.3707 237.592 30.264C237.357 30.1573 237.058 30.104 236.696 30.104C236.354 30.104 236.056 30.1573 235.8 30.264C235.544 30.3707 235.352 30.5307 235.224 30.744C235.096 30.936 235.032 31.1707 235.032 31.448C235.032 31.7253 235.096 31.9707 235.224 32.184C235.373 32.376 235.576 32.5253 235.832 32.632C236.088 32.7387 236.386 32.792 236.728 32.792ZM193.342 87.448C192.467 87.448 191.539 87.2773 190.558 86.936C189.598 86.5733 188.691 86.0507 187.838 85.368C186.985 84.664 186.291 83.7893 185.758 82.744C185.225 81.6987 184.958 80.4827 184.958 79.096C184.958 77.7307 185.225 76.536 185.758 75.512C186.291 74.4667 186.974 73.6027 187.806 72.92C188.659 72.2373 189.566 71.7253 190.526 71.384C191.507 71.0213 192.425 70.84 193.278 70.84C194.089 70.84 194.793 70.9253 195.39 71.096C195.987 71.2667 196.478 71.4587 196.862 71.672C197.246 71.864 197.523 72.0133 197.694 72.12C198.121 72.376 198.515 72.6747 198.878 73.016C199.262 73.336 199.454 73.7733 199.454 74.328C199.454 74.6053 199.401 74.8933 199.294 75.192C199.187 75.4693 199.017 75.7893 198.782 76.152C198.014 77.3253 197.246 77.912 196.478 77.912C196.137 77.912 195.838 77.8587 195.582 77.752C195.326 77.624 195.091 77.4853 194.878 77.336C194.665 77.1867 194.43 77.0587 194.174 76.952C193.939 76.824 193.641 76.76 193.278 76.76C192.851 76.76 192.457 76.8667 192.094 77.08C191.731 77.2933 191.443 77.5813 191.23 77.944C191.017 78.2853 190.91 78.68 190.91 79.128C190.91 79.576 191.017 79.9813 191.23 80.344C191.443 80.7067 191.721 80.9947 192.062 81.208C192.425 81.4213 192.809 81.528 193.214 81.528C193.513 81.528 193.758 81.496 193.95 81.432C194.163 81.368 194.323 81.304 194.43 81.24C194.537 81.1547 194.601 81.112 194.622 81.112C194.921 80.9413 195.198 80.7813 195.454 80.632C195.731 80.4827 196.009 80.408 196.286 80.408C196.649 80.408 197.022 80.5467 197.406 80.824C197.79 81.08 198.217 81.5067 198.686 82.104C199.134 82.6587 199.379 83.1813 199.422 83.672C199.486 84.1413 199.369 84.5893 199.07 85.016C198.771 85.4213 198.313 85.816 197.694 86.2C197.63 86.2427 197.406 86.3707 197.022 86.584C196.659 86.776 196.169 86.968 195.55 87.16C194.931 87.352 194.195 87.448 193.342 87.448ZM210.108 87.64C208.508 87.64 207.153 87.384 206.044 86.872C204.935 86.3387 204.039 85.656 203.356 84.824C202.673 83.9707 202.172 83.0533 201.852 82.072C201.532 81.0907 201.372 80.1413 201.372 79.224C201.372 77.5387 201.745 76.056 202.492 74.776C203.239 73.496 204.273 72.4933 205.596 71.768C206.919 71.0427 208.433 70.68 210.14 70.68C211.463 70.68 212.593 70.8933 213.532 71.32C214.471 71.7467 215.228 72.2907 215.804 72.952C216.401 73.6133 216.839 74.3173 217.116 75.064C217.393 75.8107 217.532 76.504 217.532 77.144C217.532 78.36 217.233 79.288 216.636 79.928C216.039 80.568 215.271 80.888 214.332 80.888H207.516C207.601 81.2293 207.772 81.528 208.028 81.784C208.305 82.0187 208.647 82.2107 209.052 82.36C209.457 82.488 209.895 82.552 210.364 82.552C210.833 82.552 211.249 82.5307 211.612 82.488C211.975 82.424 212.284 82.3493 212.54 82.264C212.817 82.1787 213.063 82.0933 213.276 82.008C213.511 81.9227 213.713 81.8587 213.884 81.816C214.076 81.752 214.257 81.72 214.428 81.72C214.812 81.72 215.164 81.848 215.484 82.104C215.804 82.36 216.092 82.744 216.348 83.256C216.497 83.5333 216.604 83.8 216.668 84.056C216.732 84.2907 216.764 84.5147 216.764 84.728C216.764 85.368 216.497 85.9013 215.964 86.328C215.452 86.7547 214.705 87.0747 213.724 87.288C212.743 87.5227 211.537 87.64 210.108 87.64ZM207.516 77.88H211.1C211.399 77.88 211.612 77.816 211.74 77.688C211.889 77.56 211.964 77.368 211.964 77.112C211.964 76.8347 211.879 76.6 211.708 76.408C211.559 76.216 211.345 76.0773 211.068 75.992C210.791 75.8853 210.46 75.832 210.076 75.832C209.564 75.832 209.116 75.9387 208.732 76.152C208.348 76.344 208.049 76.6 207.836 76.92C207.644 77.2187 207.537 77.5387 207.516 77.88ZM222.497 87.288C221.537 87.288 220.854 87.1493 220.449 86.872C220.044 86.5733 219.798 86.2 219.713 85.752C219.649 85.2827 219.617 84.8133 219.617 84.344V73.912C219.617 73.4213 219.66 72.9627 219.745 72.536C219.83 72.088 220.076 71.7253 220.481 71.448C220.886 71.1707 221.569 71.032 222.529 71.032C223.468 71.032 224.129 71.16 224.513 71.416C224.918 71.672 225.164 71.96 225.249 72.28C225.334 72.5787 225.377 72.8133 225.377 72.984L224.865 72.792C224.865 72.792 224.95 72.696 225.121 72.504C225.292 72.312 225.537 72.088 225.857 71.832C226.198 71.576 226.593 71.352 227.041 71.16C227.51 70.968 228.033 70.872 228.609 70.872C228.801 70.872 229.036 70.8933 229.313 70.936C229.612 70.9573 229.921 71.0107 230.241 71.096C230.582 71.1813 230.892 71.3093 231.169 71.48C231.468 71.6507 231.702 71.8747 231.873 72.152C232.065 72.4293 232.161 72.7707 232.161 73.176C232.161 74.2427 231.926 75.1493 231.457 75.896C231.009 76.6427 230.412 77.016 229.665 77.016C229.26 77.016 228.972 76.9947 228.801 76.952C228.63 76.888 228.502 76.8347 228.417 76.792C228.353 76.728 228.268 76.6747 228.161 76.632C228.076 76.568 227.905 76.536 227.649 76.536C227.329 76.536 227.03 76.5787 226.753 76.664C226.497 76.728 226.262 76.8347 226.049 76.984C225.857 77.1333 225.708 77.3147 225.601 77.528C225.494 77.72 225.441 77.9333 225.441 78.168V84.408C225.441 84.8773 225.398 85.336 225.313 85.784C225.228 86.232 224.982 86.5947 224.577 86.872C224.172 87.1493 223.478 87.288 222.497 87.288ZM240.981 87.448C240.106 87.448 239.178 87.2773 238.197 86.936C237.237 86.5733 236.33 86.0507 235.477 85.368C234.624 84.664 233.93 83.7893 233.397 82.744C232.864 81.6987 232.597 80.4827 232.597 79.096C232.597 77.7307 232.864 76.536 233.397 75.512C233.93 74.4667 234.613 73.6027 235.445 72.92C236.298 72.2373 237.205 71.7253 238.165 71.384C239.146 71.0213 240.064 70.84 240.917 70.84C241.728 70.84 242.432 70.9253 243.029 71.096C243.626 71.2667 244.117 71.4587 244.501 71.672C244.885 71.864 245.162 72.0133 245.333 72.12C245.76 72.376 246.154 72.6747 246.517 73.016C246.901 73.336 247.093 73.7733 247.093 74.328C247.093 74.6053 247.04 74.8933 246.933 75.192C246.826 75.4693 246.656 75.7893 246.421 76.152C245.653 77.3253 244.885 77.912 244.117 77.912C243.776 77.912 243.477 77.8587 243.221 77.752C242.965 77.624 242.73 77.4853 242.517 77.336C242.304 77.1867 242.069 77.0587 241.813 76.952C241.578 76.824 241.28 76.76 240.917 76.76C240.49 76.76 240.096 76.8667 239.733 77.08C239.37 77.2933 239.082 77.5813 238.869 77.944C238.656 78.2853 238.549 78.68 238.549 79.128C238.549 79.576 238.656 79.9813 238.869 80.344C239.082 80.7067 239.36 80.9947 239.701 81.208C240.064 81.4213 240.448 81.528 240.853 81.528C241.152 81.528 241.397 81.496 241.589 81.432C241.802 81.368 241.962 81.304 242.069 81.24C242.176 81.1547 242.24 81.112 242.261 81.112C242.56 80.9413 242.837 80.7813 243.093 80.632C243.37 80.4827 243.648 80.408 243.925 80.408C244.288 80.408 244.661 80.5467 245.045 80.824C245.429 81.08 245.856 81.5067 246.325 82.104C246.773 82.6587 247.018 83.1813 247.061 83.672C247.125 84.1413 247.008 84.5893 246.709 85.016C246.41 85.4213 245.952 85.816 245.333 86.2C245.269 86.2427 245.045 86.3707 244.661 86.584C244.298 86.776 243.808 86.968 243.189 87.16C242.57 87.352 241.834 87.448 240.981 87.448ZM256.755 87.224C255.731 87.224 254.771 87.0213 253.875 86.616C253 86.2107 252.232 85.6453 251.571 84.92C250.909 84.1733 250.397 83.3093 250.035 82.328C249.672 81.3467 249.491 80.28 249.491 79.128V73.912C249.491 73.4213 249.533 72.9627 249.619 72.536C249.704 72.088 249.949 71.7253 250.355 71.448C250.76 71.1493 251.443 71 252.403 71C253.384 71 254.067 71.1493 254.451 71.448C254.856 71.7253 255.101 72.088 255.187 72.536C255.272 72.984 255.315 73.4533 255.315 73.944V79.128C255.315 79.6187 255.4 80.0347 255.571 80.376C255.763 80.7173 256.029 80.984 256.371 81.176C256.733 81.3467 257.149 81.432 257.619 81.432C258.088 81.432 258.493 81.336 258.835 81.144C259.176 80.952 259.443 80.6853 259.635 80.344C259.827 80.0027 259.923 79.5973 259.923 79.128V73.88C259.923 73.3893 259.965 72.9307 260.051 72.504C260.136 72.056 260.381 71.6933 260.787 71.416C261.192 71.1387 261.875 71 262.835 71C263.816 71 264.499 71.1493 264.883 71.448C265.288 71.7253 265.533 72.088 265.619 72.536C265.704 72.984 265.747 73.4427 265.747 73.912V84.44C265.747 84.9093 265.704 85.3573 265.619 85.784C265.533 86.2107 265.288 86.5627 264.883 86.84C264.477 87.1173 263.795 87.256 262.835 87.256C262.131 87.256 261.576 87.1707 261.171 87C260.787 86.8507 260.509 86.6587 260.339 86.424C260.168 86.168 260.061 85.9227 260.019 85.688C259.997 85.432 259.987 85.2187 259.987 85.048L260.531 85.208C260.531 85.208 260.445 85.3147 260.275 85.528C260.104 85.72 259.848 85.9547 259.507 86.232C259.187 86.488 258.792 86.7227 258.323 86.936C257.875 87.128 257.352 87.224 256.755 87.224ZM271.198 87.288C270.238 87.288 269.555 87.1493 269.15 86.872C268.745 86.5733 268.499 86.2 268.414 85.752C268.35 85.2827 268.318 84.8133 268.318 84.344V73.912C268.318 73.4213 268.361 72.9627 268.446 72.536C268.531 72.088 268.777 71.7253 269.182 71.448C269.587 71.1707 270.27 71.032 271.23 71.032C272.169 71.032 272.83 71.16 273.214 71.416C273.619 71.672 273.865 71.96 273.95 72.28C274.035 72.5787 274.078 72.8133 274.078 72.984L273.566 72.792C273.566 72.792 273.651 72.696 273.822 72.504C273.993 72.312 274.238 72.088 274.558 71.832C274.899 71.576 275.294 71.352 275.742 71.16C276.211 70.968 276.734 70.872 277.31 70.872C277.502 70.872 277.737 70.8933 278.014 70.936C278.313 70.9573 278.622 71.0107 278.942 71.096C279.283 71.1813 279.593 71.3093 279.87 71.48C280.169 71.6507 280.403 71.8747 280.574 72.152C280.766 72.4293 280.862 72.7707 280.862 73.176C280.862 74.2427 280.627 75.1493 280.158 75.896C279.71 76.6427 279.113 77.016 278.366 77.016C277.961 77.016 277.673 76.9947 277.502 76.952C277.331 76.888 277.203 76.8347 277.118 76.792C277.054 76.728 276.969 76.6747 276.862 76.632C276.777 76.568 276.606 76.536 276.35 76.536C276.03 76.536 275.731 76.5787 275.454 76.664C275.198 76.728 274.963 76.8347 274.75 76.984C274.558 77.1333 274.409 77.3147 274.302 77.528C274.195 77.72 274.142 77.9333 274.142 78.168V84.408C274.142 84.8773 274.099 85.336 274.014 85.784C273.929 86.232 273.683 86.5947 273.278 86.872C272.873 87.1493 272.179 87.288 271.198 87.288ZM285.811 87.288C284.851 87.288 284.168 87.1493 283.763 86.872C283.357 86.5733 283.112 86.2 283.027 85.752C282.963 85.304 282.931 84.8453 282.931 84.376V73.944C282.931 73.4747 282.973 73.0267 283.059 72.6C283.144 72.152 283.389 71.7893 283.795 71.512C284.2 71.2133 284.883 71.064 285.843 71.064C286.803 71.064 287.475 71.2133 287.859 71.512C288.264 71.7893 288.509 72.152 288.595 72.6C288.68 73.048 288.723 73.5173 288.723 74.008V84.408C288.723 84.8773 288.68 85.336 288.595 85.784C288.509 86.232 288.264 86.5947 287.859 86.872C287.475 87.1493 286.792 87.288 285.811 87.288ZM285.811 69.496C284.851 69.496 284.168 69.3573 283.763 69.08C283.357 68.7813 283.112 68.408 283.027 67.96C282.963 67.512 282.931 67.0533 282.931 66.584C282.931 66.0933 282.973 65.6347 283.059 65.208C283.144 64.76 283.389 64.3973 283.795 64.12C284.2 63.8427 284.883 63.704 285.843 63.704C286.803 63.704 287.475 63.8533 287.859 64.152C288.264 64.4293 288.509 64.792 288.595 65.24C288.68 65.688 288.723 66.1467 288.723 66.616C288.723 67.0853 288.68 67.544 288.595 67.992C288.509 68.44 288.264 68.8027 287.859 69.08C287.475 69.3573 286.792 69.496 285.811 69.496Z" fill="white"/>
<path d="M359.061 120.839C358.821 120.839 358.635 120.799 358.501 120.719C358.368 120.652 358.281 120.552 358.241 120.419C358.215 120.285 358.201 120.125 358.201 119.939V112.039C358.201 111.852 358.221 111.692 358.261 111.559C358.301 111.425 358.381 111.325 358.501 111.259C358.635 111.192 358.828 111.159 359.081 111.159C359.348 111.159 359.541 111.199 359.661 111.279C359.781 111.345 359.861 111.445 359.901 111.579C359.941 111.712 359.961 111.879 359.961 112.079V119.959C359.961 120.145 359.941 120.305 359.901 120.439C359.861 120.572 359.775 120.672 359.641 120.739C359.521 120.805 359.328 120.839 359.061 120.839ZM359.061 107.179C359.128 107.179 359.181 107.185 359.221 107.199C359.275 107.212 359.328 107.232 359.381 107.259L361.521 108.259C361.788 108.352 361.955 108.485 362.021 108.659C362.088 108.832 362.055 109.045 361.921 109.299C361.801 109.525 361.668 109.679 361.521 109.759C361.388 109.839 361.241 109.839 361.081 109.759L359.061 108.739L357.061 109.739C356.901 109.819 356.755 109.819 356.621 109.739C356.475 109.645 356.341 109.485 356.221 109.259C356.088 109.005 356.055 108.805 356.121 108.659C356.188 108.499 356.355 108.365 356.621 108.259L358.741 107.259C358.795 107.232 358.841 107.212 358.881 107.199C358.935 107.185 358.995 107.179 359.061 107.179ZM363.825 120.819C363.572 120.819 363.379 120.779 363.245 120.699C363.125 120.632 363.045 120.532 363.005 120.399C362.979 120.265 362.965 120.105 362.965 119.919V111.979C362.965 111.805 362.985 111.659 363.025 111.539C363.065 111.419 363.145 111.325 363.265 111.259C363.399 111.192 363.592 111.159 363.845 111.159C364.045 111.159 364.199 111.185 364.305 111.239C364.425 111.279 364.505 111.339 364.545 111.419C364.599 111.499 364.632 111.585 364.645 111.679C364.659 111.772 364.665 111.859 364.665 111.939L364.625 112.859C364.759 112.632 364.925 112.419 365.125 112.219C365.325 112.005 365.559 111.819 365.825 111.659C366.092 111.485 366.379 111.352 366.685 111.259C367.005 111.165 367.345 111.119 367.705 111.119C368.292 111.119 368.832 111.225 369.325 111.439C369.819 111.639 370.239 111.939 370.585 112.339C370.945 112.725 371.219 113.192 371.405 113.739C371.605 114.285 371.705 114.905 371.705 115.599V119.939C371.705 120.125 371.685 120.285 371.645 120.419C371.619 120.552 371.539 120.652 371.405 120.719C371.285 120.785 371.099 120.819 370.845 120.819C370.579 120.819 370.379 120.779 370.245 120.699C370.125 120.632 370.045 120.532 370.005 120.399C369.965 120.265 369.945 120.105 369.945 119.919V115.579C369.945 115.019 369.852 114.532 369.665 114.119C369.479 113.705 369.199 113.385 368.825 113.159C368.452 112.919 367.979 112.799 367.405 112.799C366.859 112.799 366.379 112.919 365.965 113.159C365.565 113.385 365.252 113.705 365.025 114.119C364.812 114.532 364.705 115.019 364.705 115.579V119.939C364.705 120.125 364.685 120.285 364.645 120.419C364.605 120.552 364.519 120.652 364.385 120.719C364.265 120.785 364.079 120.819 363.825 120.819ZM377.898 120.939C377.578 120.939 377.245 120.905 376.898 120.839C376.551 120.772 376.211 120.679 375.878 120.559C375.558 120.425 375.271 120.272 375.018 120.099C374.778 119.925 374.598 119.732 374.478 119.519C374.411 119.385 374.371 119.265 374.358 119.159C374.345 119.039 374.365 118.925 374.418 118.819C374.471 118.712 374.551 118.605 374.658 118.499C374.791 118.339 374.925 118.265 375.058 118.279C375.191 118.279 375.358 118.365 375.558 118.539C375.705 118.632 375.878 118.739 376.078 118.859C376.278 118.965 376.485 119.065 376.698 119.159C376.911 119.239 377.125 119.312 377.338 119.379C377.565 119.432 377.785 119.459 377.998 119.459C378.611 119.459 379.105 119.345 379.478 119.119C379.851 118.879 380.038 118.565 380.038 118.179C380.038 117.952 379.991 117.759 379.898 117.599C379.805 117.439 379.678 117.305 379.518 117.199C379.358 117.079 379.178 116.979 378.978 116.899C378.778 116.819 378.551 116.745 378.298 116.679C378.058 116.599 377.818 116.525 377.578 116.459C377.218 116.365 376.865 116.259 376.518 116.139C376.171 116.019 375.858 115.865 375.578 115.679C375.298 115.479 375.071 115.232 374.898 114.939C374.725 114.632 374.638 114.245 374.638 113.779C374.638 113.232 374.778 112.759 375.058 112.359C375.338 111.959 375.731 111.652 376.238 111.439C376.745 111.212 377.338 111.099 378.018 111.099C378.311 111.099 378.585 111.119 378.838 111.159C379.091 111.199 379.331 111.265 379.558 111.359C379.798 111.439 380.025 111.539 380.238 111.659C380.451 111.765 380.658 111.899 380.858 112.059C381.098 112.219 381.225 112.392 381.238 112.579C381.251 112.765 381.178 112.959 381.018 113.159C380.898 113.332 380.765 113.445 380.618 113.499C380.471 113.539 380.325 113.499 380.178 113.379C379.965 113.219 379.738 113.079 379.498 112.959C379.258 112.839 379.011 112.739 378.758 112.659C378.505 112.579 378.245 112.539 377.978 112.539C377.645 112.539 377.345 112.592 377.078 112.699C376.825 112.792 376.625 112.939 376.478 113.139C376.345 113.325 376.278 113.539 376.278 113.779C376.278 113.992 376.331 114.165 376.438 114.299C376.558 114.432 376.705 114.545 376.878 114.639C377.065 114.732 377.278 114.819 377.518 114.899C377.771 114.965 378.031 115.032 378.298 115.099C378.685 115.192 379.078 115.305 379.478 115.439C379.891 115.559 380.258 115.725 380.578 115.939C380.911 116.139 381.178 116.412 381.378 116.759C381.591 117.092 381.698 117.539 381.698 118.099C381.698 118.979 381.351 119.672 380.658 120.179C379.965 120.685 379.045 120.939 377.898 120.939ZM389.018 120.879C388.324 120.879 387.671 120.765 387.058 120.539C386.458 120.312 385.924 119.985 385.458 119.559C385.004 119.132 384.644 118.625 384.378 118.039C384.124 117.439 383.998 116.759 383.998 115.999C383.998 115.239 384.124 114.565 384.378 113.979C384.644 113.379 385.004 112.865 385.458 112.439C385.911 112.012 386.438 111.685 387.038 111.459C387.651 111.232 388.298 111.119 388.978 111.119C389.431 111.119 389.878 111.192 390.318 111.339C390.758 111.472 391.144 111.652 391.478 111.879C391.824 112.092 392.071 112.319 392.218 112.559C392.351 112.732 392.444 112.879 392.498 112.999C392.564 113.105 392.571 113.232 392.518 113.379C392.464 113.485 392.391 113.585 392.298 113.679C392.204 113.759 392.111 113.825 392.018 113.879C391.778 114.065 391.538 114.092 391.298 113.959C391.151 113.812 390.984 113.679 390.798 113.559C390.624 113.425 390.438 113.305 390.238 113.199C390.038 113.092 389.831 113.012 389.618 112.959C389.418 112.892 389.204 112.859 388.978 112.859C388.351 112.859 387.798 112.992 387.318 113.259C386.838 113.512 386.464 113.879 386.198 114.359C385.944 114.825 385.818 115.372 385.818 115.999C385.818 116.625 385.944 117.172 386.198 117.639C386.464 118.105 386.831 118.472 387.298 118.739C387.778 119.005 388.324 119.139 388.938 119.139C389.218 119.139 389.484 119.105 389.738 119.039C390.004 118.959 390.251 118.859 390.478 118.739C390.704 118.605 390.891 118.465 391.038 118.319C391.171 118.225 391.284 118.145 391.378 118.079C391.471 118.012 391.584 117.979 391.718 117.979C391.824 117.979 391.938 118.025 392.058 118.119C392.178 118.199 392.304 118.325 392.438 118.499C392.544 118.619 392.604 118.745 392.618 118.879C392.644 119.012 392.624 119.139 392.558 119.259C392.491 119.379 392.384 119.499 392.238 119.619C392.024 119.832 391.738 120.039 391.378 120.239C391.031 120.425 390.651 120.579 390.238 120.699C389.824 120.819 389.418 120.879 389.018 120.879ZM396.094 120.839C395.841 120.839 395.647 120.799 395.514 120.719C395.394 120.652 395.314 120.552 395.274 120.419C395.247 120.272 395.234 120.105 395.234 119.919V112.039C395.234 111.839 395.254 111.672 395.294 111.539C395.334 111.405 395.414 111.312 395.534 111.259C395.654 111.192 395.847 111.159 396.114 111.159C396.354 111.159 396.534 111.192 396.654 111.259C396.787 111.312 396.874 111.399 396.914 111.519C396.967 111.625 396.994 111.752 396.994 111.899L396.914 112.499C397.007 112.325 397.114 112.152 397.234 111.979C397.367 111.805 397.527 111.652 397.714 111.519C397.914 111.372 398.147 111.252 398.414 111.159C398.694 111.065 399.034 111.019 399.434 111.019C399.634 111.019 399.821 111.039 399.994 111.079C400.181 111.105 400.354 111.152 400.514 111.219C400.687 111.285 400.834 111.365 400.954 111.459C401.074 111.539 401.167 111.632 401.234 111.739C401.314 111.832 401.354 111.945 401.354 112.079C401.354 112.372 401.261 112.625 401.074 112.839C400.887 113.039 400.694 113.139 400.494 113.139C400.321 113.139 400.194 113.119 400.114 113.079C400.034 113.025 399.954 112.972 399.874 112.919C399.807 112.865 399.707 112.819 399.574 112.779C399.441 112.725 399.227 112.699 398.934 112.699C398.734 112.699 398.521 112.739 398.294 112.819C398.081 112.899 397.874 113.019 397.674 113.179C397.474 113.325 397.307 113.519 397.174 113.759C397.054 113.999 396.994 114.279 396.994 114.599V119.959C396.994 120.145 396.974 120.305 396.934 120.439C396.894 120.572 396.807 120.672 396.674 120.739C396.554 120.805 396.361 120.839 396.094 120.839ZM404.919 120.839C404.666 120.839 404.472 120.799 404.339 120.719C404.219 120.652 404.139 120.552 404.099 120.419C404.059 120.285 404.039 120.125 404.039 119.939V112.039C404.039 111.852 404.059 111.692 404.099 111.559C404.139 111.425 404.219 111.325 404.339 111.259C404.472 111.192 404.672 111.159 404.939 111.159C405.192 111.159 405.379 111.199 405.499 111.279C405.619 111.345 405.699 111.445 405.739 111.579C405.779 111.712 405.799 111.879 405.799 112.079V119.959C405.799 120.145 405.779 120.305 405.739 120.439C405.699 120.572 405.612 120.672 405.479 120.739C405.359 120.805 405.172 120.839 404.919 120.839ZM404.919 108.759C404.626 108.759 404.406 108.719 404.259 108.639C404.112 108.545 404.012 108.419 403.959 108.259C403.919 108.099 403.899 107.912 403.899 107.699C403.899 107.485 403.926 107.305 403.979 107.159C404.032 106.999 404.132 106.885 404.279 106.819C404.426 106.739 404.646 106.699 404.939 106.699C405.219 106.699 405.432 106.739 405.579 106.819C405.726 106.899 405.819 107.019 405.859 107.179C405.912 107.339 405.939 107.525 405.939 107.739C405.939 107.952 405.912 108.139 405.859 108.299C405.819 108.445 405.726 108.559 405.579 108.639C405.432 108.719 405.212 108.759 404.919 108.759ZM416.432 117.679C416.432 118.372 416.258 118.952 415.912 119.419C415.565 119.885 415.072 120.239 414.432 120.479C413.792 120.719 413.032 120.839 412.152 120.839C411.405 120.839 410.758 120.779 410.212 120.659C409.678 120.539 409.205 120.372 408.792 120.159V118.559C409.218 118.772 409.732 118.972 410.332 119.159C410.945 119.332 411.565 119.419 412.192 119.419C413.085 119.419 413.732 119.279 414.132 118.999C414.532 118.705 414.732 118.319 414.732 117.839C414.732 117.572 414.658 117.332 414.512 117.119C414.365 116.905 414.098 116.692 413.712 116.479C413.338 116.265 412.798 116.025 412.092 115.759C411.398 115.492 410.805 115.225 410.312 114.959C409.818 114.692 409.438 114.372 409.172 113.999C408.905 113.625 408.772 113.145 408.772 112.559C408.772 111.652 409.138 110.952 409.872 110.459C410.618 109.965 411.592 109.719 412.792 109.719C413.445 109.719 414.052 109.785 414.612 109.919C415.185 110.039 415.718 110.212 416.212 110.439L415.612 111.839C415.318 111.705 415.005 111.592 414.672 111.499C414.352 111.392 414.025 111.312 413.692 111.259C413.358 111.192 413.018 111.159 412.672 111.159C411.952 111.159 411.398 111.279 411.012 111.519C410.638 111.745 410.452 112.059 410.452 112.459C410.452 112.752 410.538 113.005 410.712 113.219C410.885 113.419 411.172 113.619 411.572 113.819C411.985 114.005 412.532 114.232 413.212 114.499C413.892 114.752 414.472 115.012 414.952 115.279C415.432 115.545 415.798 115.872 416.052 116.259C416.305 116.632 416.432 117.105 416.432 117.679ZM413.832 122.039C413.778 122.279 413.665 122.579 413.492 122.939C413.332 123.312 413.138 123.685 412.912 124.059C412.698 124.432 412.472 124.765 412.232 125.059H411.272V124.819C411.378 124.592 411.485 124.299 411.592 123.939C411.712 123.592 411.818 123.225 411.912 122.839C412.005 122.465 412.065 122.139 412.092 121.859H413.832V122.039ZM420.182 120.839C419.928 120.839 419.735 120.799 419.602 120.719C419.482 120.652 419.402 120.552 419.362 120.419C419.322 120.285 419.302 120.125 419.302 119.939V112.039C419.302 111.852 419.322 111.692 419.362 111.559C419.402 111.425 419.482 111.325 419.602 111.259C419.735 111.192 419.935 111.159 420.202 111.159C420.455 111.159 420.642 111.199 420.762 111.279C420.882 111.345 420.962 111.445 421.002 111.579C421.042 111.712 421.062 111.879 421.062 112.079V119.959C421.062 120.145 421.042 120.305 421.002 120.439C420.962 120.572 420.875 120.672 420.742 120.739C420.622 120.805 420.435 120.839 420.182 120.839ZM420.182 108.759C419.888 108.759 419.668 108.719 419.522 108.639C419.375 108.545 419.275 108.419 419.222 108.259C419.182 108.099 419.162 107.912 419.162 107.699C419.162 107.485 419.188 107.305 419.242 107.159C419.295 106.999 419.395 106.885 419.542 106.819C419.688 106.739 419.908 106.699 420.202 106.699C420.482 106.699 420.695 106.739 420.842 106.819C420.988 106.899 421.082 107.019 421.122 107.179C421.175 107.339 421.202 107.525 421.202 107.739C421.202 107.952 421.175 108.139 421.122 108.299C421.082 108.445 420.988 108.559 420.842 108.639C420.695 108.719 420.475 108.759 420.182 108.759Z" fill="white"/>
<path d="M363.967 51.672C362.281 51.672 360.831 51.3093 359.615 50.584C358.42 49.8373 357.492 48.7813 356.831 47.416C356.191 46.0293 355.871 44.3867 355.871 42.488C355.871 40.8667 356.063 39.3627 356.447 37.976C356.831 36.5893 357.375 35.3413 358.079 34.232C358.804 33.1013 359.668 32.1413 360.671 31.352C361.695 30.5627 362.836 29.9547 364.095 29.528C365.375 29.1013 366.751 28.888 368.223 28.888C368.692 28.888 369.14 28.9307 369.567 29.016C369.993 29.1013 370.345 29.3467 370.623 29.752C370.9 30.1573 371.039 30.8507 371.039 31.832C371.039 32.792 370.889 33.4747 370.591 33.88C370.313 34.2853 369.951 34.5307 369.503 34.616C369.055 34.7013 368.585 34.744 368.095 34.744C367.135 34.744 366.313 34.872 365.631 35.128C364.969 35.384 364.415 35.704 363.967 36.088C363.54 36.472 363.199 36.856 362.943 37.24C362.687 37.624 362.505 37.944 362.399 38.2C362.313 38.456 362.271 38.584 362.271 38.584L361.887 38.232C361.887 38.232 361.993 38.1893 362.207 38.104C362.441 37.9973 362.729 37.9013 363.071 37.816C363.433 37.7307 363.807 37.688 364.191 37.688C365.535 37.688 366.772 37.9973 367.903 38.616C369.033 39.2347 369.94 40.0453 370.623 41.048C371.305 42.0507 371.647 43.1493 371.647 44.344C371.647 45.7093 371.305 46.9467 370.623 48.056C369.94 49.1653 369.012 50.0507 367.839 50.712C366.687 51.352 365.396 51.672 363.967 51.672ZM363.839 46.2C364.308 46.2 364.692 46.1467 364.991 46.04C365.289 45.912 365.503 45.72 365.631 45.464C365.78 45.208 365.855 44.888 365.855 44.504C365.855 44.184 365.78 43.9067 365.631 43.672C365.481 43.4373 365.268 43.256 364.991 43.128C364.713 43 364.393 42.936 364.031 42.936C363.604 42.936 363.22 43 362.879 43.128C362.559 43.256 362.313 43.4373 362.143 43.672C361.972 43.8853 361.887 44.1413 361.887 44.44C361.887 44.8453 361.951 45.1867 362.079 45.464C362.207 45.72 362.409 45.912 362.687 46.04C362.985 46.1467 363.369 46.2 363.839 46.2ZM381.902 51.704C380.409 51.704 379.139 51.448 378.094 50.936C377.07 50.4027 376.238 49.7093 375.598 48.856C374.958 48.0027 374.457 47.064 374.094 46.04C373.753 45.016 373.518 43.992 373.39 42.968C373.262 41.9227 373.198 40.9733 373.198 40.12C373.198 39.352 373.262 38.4667 373.39 37.464C373.518 36.4613 373.742 35.448 374.062 34.424C374.403 33.3787 374.894 32.4187 375.534 31.544C376.174 30.648 377.006 29.9333 378.03 29.4C379.075 28.8453 380.345 28.568 381.838 28.568C383.289 28.568 384.515 28.8347 385.518 29.368C386.542 29.9013 387.363 30.6053 387.982 31.48C388.622 32.3333 389.113 33.2827 389.454 34.328C389.817 35.352 390.062 36.376 390.19 37.4C390.318 38.424 390.382 39.3413 390.382 40.152C390.382 41.0053 390.307 41.9547 390.158 43C390.03 44.024 389.785 45.048 389.422 46.072C389.081 47.096 388.59 48.0347 387.95 48.888C387.331 49.7413 386.521 50.424 385.518 50.936C384.537 51.448 383.331 51.704 381.902 51.704ZM381.774 45.816C382.329 45.816 382.777 45.688 383.118 45.432C383.459 45.1547 383.726 44.8027 383.918 44.376C384.11 43.9493 384.249 43.4907 384.334 43C384.419 42.488 384.473 41.9973 384.494 41.528C384.515 41.0373 384.526 40.6213 384.526 40.28V40.12C384.526 38.8827 384.419 37.848 384.206 37.016C384.014 36.1627 383.715 35.5227 383.31 35.096C382.926 34.648 382.425 34.424 381.806 34.424C381.166 34.424 380.643 34.6373 380.238 35.064C379.833 35.4907 379.534 36.1307 379.342 36.984C379.15 37.8373 379.054 38.8933 379.054 40.152C379.054 41.368 379.15 42.4027 379.342 43.256C379.555 44.088 379.865 44.728 380.27 45.176C380.675 45.6027 381.177 45.816 381.774 45.816ZM400.636 51.704C399.142 51.704 397.873 51.448 396.828 50.936C395.804 50.4027 394.972 49.7093 394.332 48.856C393.692 48.0027 393.19 47.064 392.828 46.04C392.486 45.016 392.252 43.992 392.124 42.968C391.996 41.9227 391.932 40.9733 391.932 40.12C391.932 39.352 391.996 38.4667 392.124 37.464C392.252 36.4613 392.476 35.448 392.796 34.424C393.137 33.3787 393.628 32.4187 394.268 31.544C394.908 30.648 395.74 29.9333 396.764 29.4C397.809 28.8453 399.078 28.568 400.572 28.568C402.022 28.568 403.249 28.8347 404.252 29.368C405.276 29.9013 406.097 30.6053 406.716 31.48C407.356 32.3333 407.846 33.2827 408.188 34.328C408.55 35.352 408.796 36.376 408.924 37.4C409.052 38.424 409.116 39.3413 409.116 40.152C409.116 41.0053 409.041 41.9547 408.892 43C408.764 44.024 408.518 45.048 408.156 46.072C407.814 47.096 407.324 48.0347 406.684 48.888C406.065 49.7413 405.254 50.424 404.252 50.936C403.27 51.448 402.065 51.704 400.636 51.704ZM400.508 45.816C401.062 45.816 401.51 45.688 401.852 45.432C402.193 45.1547 402.46 44.8027 402.652 44.376C402.844 43.9493 402.982 43.4907 403.068 43C403.153 42.488 403.206 41.9973 403.228 41.528C403.249 41.0373 403.26 40.6213 403.26 40.28V40.12C403.26 38.8827 403.153 37.848 402.94 37.016C402.748 36.1627 402.449 35.5227 402.044 35.096C401.66 34.648 401.158 34.424 400.54 34.424C399.9 34.424 399.377 34.6373 398.972 35.064C398.566 35.4907 398.268 36.1307 398.076 36.984C397.884 37.8373 397.788 38.8933 397.788 40.152C397.788 41.368 397.884 42.4027 398.076 43.256C398.289 44.088 398.598 44.728 399.004 45.176C399.409 45.6027 399.91 45.816 400.508 45.816ZM356.748 91.448C355.873 91.448 354.945 91.2773 353.964 90.936C353.004 90.5733 352.097 90.0507 351.244 89.368C350.39 88.664 349.697 87.7893 349.164 86.744C348.63 85.6987 348.364 84.4827 348.364 83.096C348.364 81.7307 348.63 80.536 349.164 79.512C349.697 78.4667 350.38 77.6027 351.212 76.92C352.065 76.2373 352.972 75.7253 353.932 75.384C354.913 75.0213 355.83 74.84 356.684 74.84C357.494 74.84 358.198 74.9253 358.796 75.096C359.393 75.2667 359.884 75.4587 360.268 75.672C360.652 75.864 360.929 76.0133 361.1 76.12C361.526 76.376 361.921 76.6747 362.284 77.016C362.668 77.336 362.86 77.7733 362.86 78.328C362.86 78.6053 362.806 78.8933 362.7 79.192C362.593 79.4693 362.422 79.7893 362.188 80.152C361.42 81.3253 360.652 81.912 359.884 81.912C359.542 81.912 359.244 81.8587 358.988 81.752C358.732 81.624 358.497 81.4853 358.284 81.336C358.07 81.1867 357.836 81.0587 357.58 80.952C357.345 80.824 357.046 80.76 356.684 80.76C356.257 80.76 355.862 80.8667 355.5 81.08C355.137 81.2933 354.849 81.5813 354.636 81.944C354.422 82.2853 354.316 82.68 354.316 83.128C354.316 83.576 354.422 83.9813 354.636 84.344C354.849 84.7067 355.126 84.9947 355.468 85.208C355.83 85.4213 356.214 85.528 356.62 85.528C356.918 85.528 357.164 85.496 357.356 85.432C357.569 85.368 357.729 85.304 357.836 85.24C357.942 85.1547 358.006 85.112 358.028 85.112C358.326 84.9413 358.604 84.7813 358.86 84.632C359.137 84.4827 359.414 84.408 359.692 84.408C360.054 84.408 360.428 84.5467 360.812 84.824C361.196 85.08 361.622 85.5067 362.092 86.104C362.54 86.6587 362.785 87.1813 362.828 87.672C362.892 88.1413 362.774 88.5893 362.476 89.016C362.177 89.4213 361.718 89.816 361.1 90.2C361.036 90.2427 360.812 90.3707 360.428 90.584C360.065 90.776 359.574 90.968 358.956 91.16C358.337 91.352 357.601 91.448 356.748 91.448ZM373.258 91.576C372.276 91.576 371.284 91.384 370.282 91C369.279 90.5947 368.351 90.0293 367.498 89.304C366.666 88.5573 365.994 87.672 365.482 86.648C364.991 85.6027 364.746 84.44 364.746 83.16C364.746 81.9867 364.97 80.888 365.418 79.864C365.866 78.84 366.474 77.944 367.242 77.176C368.031 76.3867 368.927 75.768 369.93 75.32C370.954 74.872 372.042 74.648 373.194 74.648C374.772 74.648 376.202 75.032 377.482 75.8C378.762 76.5467 379.786 77.56 380.554 78.84C381.322 80.12 381.706 81.5493 381.706 83.128C381.706 84.472 381.45 85.6667 380.938 86.712C380.426 87.7573 379.754 88.6427 378.922 89.368C378.09 90.0933 377.172 90.6373 376.17 91C375.188 91.384 374.218 91.576 373.258 91.576ZM373.194 85.72C373.514 85.72 373.876 85.6453 374.282 85.496C374.708 85.3253 375.071 85.048 375.37 84.664C375.69 84.28 375.85 83.7573 375.85 83.096C375.85 82.5627 375.732 82.104 375.498 81.72C375.284 81.336 374.975 81.0373 374.57 80.824C374.164 80.6107 373.695 80.504 373.162 80.504C372.692 80.504 372.266 80.6213 371.882 80.856C371.498 81.0693 371.188 81.3787 370.954 81.784C370.719 82.168 370.602 82.616 370.602 83.128C370.602 83.768 370.751 84.28 371.05 84.664C371.348 85.048 371.7 85.3253 372.106 85.496C372.511 85.6453 372.874 85.72 373.194 85.72ZM392.381 90.904C391.336 90.904 390.429 90.6907 389.661 90.264C388.893 89.8373 388.264 89.2613 387.773 88.536C387.283 87.7893 386.92 86.9467 386.685 86.008C386.451 85.0693 386.344 84.0773 386.365 83.032C386.387 82.008 386.515 81.016 386.749 80.056C387.005 79.096 387.379 78.2427 387.869 77.496C388.36 76.7493 388.979 76.1627 389.725 75.736C390.472 75.288 391.357 75.064 392.381 75.064C393.32 75.064 394.227 75.288 395.101 75.736C395.997 76.184 396.797 76.792 397.501 77.56C398.205 78.3067 398.76 79.16 399.165 80.12C399.571 81.08 399.773 82.072 399.773 83.096C399.773 84.1627 399.571 85.176 399.165 86.136C398.76 87.0747 398.205 87.9067 397.501 88.632C396.819 89.336 396.029 89.8907 395.133 90.296C394.259 90.7013 393.341 90.904 392.381 90.904ZM386.461 98.072C385.523 98.072 384.851 97.9333 384.445 97.656C384.04 97.3787 383.795 97.0267 383.709 96.6C383.645 96.1733 383.613 95.7253 383.613 95.256V77.88C383.613 77.4107 383.645 76.9627 383.709 76.536C383.795 76.1093 384.029 75.7573 384.413 75.48C384.819 75.1813 385.491 75.032 386.429 75.032C387.176 75.032 387.795 75.1387 388.285 75.352C388.776 75.544 389.128 75.8533 389.341 76.28V95.224C389.384 95.6933 389.352 96.1413 389.245 96.568C389.16 97.016 388.915 97.3787 388.509 97.656C388.104 97.9333 387.421 98.072 386.461 98.072ZM391.613 85.464C392.04 85.464 392.424 85.3573 392.765 85.144C393.128 84.9307 393.416 84.6533 393.629 84.312C393.843 83.9493 393.949 83.5653 393.949 83.16C393.949 82.7333 393.843 82.3493 393.629 82.008C393.437 81.6453 393.16 81.368 392.797 81.176C392.456 80.9627 392.072 80.856 391.645 80.856C391.219 80.856 390.824 80.9627 390.461 81.176C390.12 81.3893 389.843 81.6667 389.629 82.008C389.437 82.3493 389.341 82.7333 389.341 83.16C389.341 83.5653 389.448 83.9493 389.661 84.312C389.875 84.6533 390.152 84.9307 390.493 85.144C390.835 85.3573 391.208 85.464 391.613 85.464ZM404.734 91.288C403.774 91.288 403.091 91.1493 402.686 90.872C402.28 90.5733 402.035 90.2 401.95 89.752C401.886 89.304 401.854 88.8453 401.854 88.376V77.944C401.854 77.4747 401.896 77.0267 401.982 76.6C402.067 76.152 402.312 75.7893 402.718 75.512C403.123 75.2133 403.806 75.064 404.766 75.064C405.726 75.064 406.398 75.2133 406.782 75.512C407.187 75.7893 407.432 76.152 407.518 76.6C407.603 77.048 407.646 77.5173 407.646 78.008V88.408C407.646 88.8773 407.603 89.336 407.518 89.784C407.432 90.232 407.187 90.5947 406.782 90.872C406.398 91.1493 405.715 91.288 404.734 91.288ZM404.734 73.496C403.774 73.496 403.091 73.3573 402.686 73.08C402.28 72.7813 402.035 72.408 401.95 71.96C401.886 71.512 401.854 71.0533 401.854 70.584C401.854 70.0933 401.896 69.6347 401.982 69.208C402.067 68.76 402.312 68.3973 402.718 68.12C403.123 67.8427 403.806 67.704 404.766 67.704C405.726 67.704 406.398 67.8533 406.782 68.152C407.187 68.4293 407.432 68.792 407.518 69.24C407.603 69.688 407.646 70.1467 407.646 70.616C407.646 71.0853 407.603 71.544 407.518 71.992C407.432 72.44 407.187 72.8027 406.782 73.08C406.398 73.3573 405.715 73.496 404.734 73.496ZM413.405 91.288C412.445 91.288 411.762 91.1493 411.357 90.872C410.952 90.5733 410.706 90.2 410.621 89.752C410.557 89.304 410.525 88.8453 410.525 88.376V77.944C410.525 77.4747 410.568 77.0267 410.653 76.6C410.738 76.152 410.984 75.7893 411.389 75.512C411.794 75.2133 412.477 75.064 413.437 75.064C414.397 75.064 415.069 75.2133 415.453 75.512C415.858 75.7893 416.104 76.152 416.189 76.6C416.274 77.048 416.317 77.5173 416.317 78.008V88.408C416.317 88.8773 416.274 89.336 416.189 89.784C416.104 90.232 415.858 90.5947 415.453 90.872C415.069 91.1493 414.386 91.288 413.405 91.288ZM413.405 73.496C412.445 73.496 411.762 73.3573 411.357 73.08C410.952 72.7813 410.706 72.408 410.621 71.96C410.557 71.512 410.525 71.0533 410.525 70.584C410.525 70.0933 410.568 69.6347 410.653 69.208C410.738 68.76 410.984 68.3973 411.389 68.12C411.794 67.8427 412.477 67.704 413.437 67.704C414.397 67.704 415.069 67.8533 415.453 68.152C415.858 68.4293 416.104 68.792 416.189 69.24C416.274 69.688 416.317 70.1467 416.317 70.616C416.317 71.0853 416.274 71.544 416.189 71.992C416.104 72.44 415.858 72.8027 415.453 73.08C415.069 73.3573 414.386 73.496 413.405 73.496Z" fill="white"/>
</svg>
