<svg width="468" height="144" viewBox="0 0 468 144" fill="none" xmlns="http://www.w3.org/2000/svg">
<path d="M0 32C0 14.3269 14.3269 0 32 0H436C453.673 0 468 14.3269 468 32V112C468 129.673 453.673 144 436 144H32C14.3269 144 0 129.673 0 112V32Z" fill="#FEA439"/>
<path d="M53.5572 117.879C53.3306 117.879 53.1439 117.845 52.9972 117.779C52.8639 117.712 52.7506 117.592 52.6572 117.419L48.9572 109.359C48.8106 109.039 48.7772 108.799 48.8572 108.639C48.9372 108.465 49.1239 108.305 49.4172 108.159C49.6839 108.025 49.9106 107.985 50.0972 108.039C50.2839 108.079 50.4439 108.252 50.5772 108.559L53.5572 115.659L56.4772 108.759C56.6239 108.452 56.7839 108.232 56.9572 108.099C57.1306 107.965 57.4039 107.992 57.7772 108.179C58.1372 108.352 58.3172 108.552 58.3172 108.779C58.3172 108.992 58.2572 109.225 58.1372 109.479L54.4572 117.399C54.3906 117.559 54.2839 117.679 54.1372 117.759C53.9906 117.839 53.7972 117.879 53.5572 117.879ZM68.141 117.819C67.8476 117.819 67.6343 117.759 67.501 117.639C67.381 117.519 67.3076 117.332 67.281 117.079L67.361 116.079C67.2276 116.292 67.021 116.539 66.741 116.819C66.461 117.085 66.0943 117.325 65.641 117.539C65.1876 117.739 64.6343 117.839 63.981 117.839C63.341 117.839 62.741 117.712 62.181 117.459C61.6343 117.205 61.1476 116.852 60.721 116.399C60.3076 115.945 59.981 115.425 59.741 114.839C59.5143 114.252 59.401 113.625 59.401 112.959C59.401 112.305 59.5143 111.692 59.741 111.119C59.981 110.532 60.3143 110.019 60.741 109.579C61.1676 109.139 61.6543 108.792 62.201 108.539C62.761 108.285 63.3543 108.159 63.981 108.159C64.5676 108.159 65.0676 108.239 65.481 108.399C65.8943 108.545 66.2476 108.745 66.541 108.999C66.8476 109.239 67.1143 109.512 67.341 109.819L67.301 108.979C67.2876 108.685 67.3476 108.479 67.481 108.359C67.6276 108.225 67.8543 108.159 68.161 108.159C68.4143 108.159 68.5943 108.199 68.701 108.279C68.821 108.359 68.901 108.472 68.941 108.619C68.981 108.765 69.001 108.945 69.001 109.159V116.879C69.001 117.065 68.981 117.232 68.941 117.379C68.901 117.525 68.821 117.632 68.701 117.699C68.581 117.779 68.3943 117.819 68.141 117.819ZM64.281 116.159C64.8143 116.159 65.301 116.019 65.741 115.739C66.1943 115.459 66.5476 115.085 66.801 114.619C67.0676 114.139 67.201 113.592 67.201 112.979C67.201 112.352 67.061 111.805 66.781 111.339C66.5143 110.859 66.1543 110.485 65.701 110.219C65.261 109.939 64.7743 109.799 64.241 109.799C63.6143 109.799 63.0676 109.945 62.601 110.239C62.1476 110.519 61.7876 110.899 61.521 111.379C61.2543 111.859 61.121 112.405 61.121 113.019C61.121 113.619 61.2543 114.159 61.521 114.639C61.7876 115.105 62.1543 115.479 62.621 115.759C63.101 116.025 63.6543 116.159 64.281 116.159ZM64.261 104.179C64.3276 104.179 64.381 104.185 64.421 104.199C64.4743 104.212 64.5276 104.232 64.581 104.259L66.721 105.259C66.9876 105.352 67.1543 105.485 67.221 105.659C67.2876 105.832 67.2543 106.045 67.121 106.299C67.001 106.525 66.8676 106.679 66.721 106.759C66.5876 106.839 66.441 106.839 66.281 106.759L64.261 105.739L62.261 106.739C62.101 106.819 61.9476 106.819 61.801 106.739C61.6676 106.645 61.541 106.485 61.421 106.259C61.2876 106.005 61.2543 105.805 61.321 105.659C61.3876 105.499 61.5543 105.365 61.821 105.259L63.941 104.259C63.9943 104.232 64.041 104.212 64.081 104.199C64.1343 104.185 64.1943 104.179 64.261 104.179ZM72.8653 117.839C72.612 117.839 72.4187 117.799 72.2853 117.719C72.1653 117.652 72.0853 117.552 72.0453 117.419C72.0187 117.272 72.0053 117.105 72.0053 116.919V109.039C72.0053 108.839 72.0253 108.672 72.0653 108.539C72.1053 108.405 72.1853 108.312 72.3053 108.259C72.4253 108.192 72.6187 108.159 72.8853 108.159C73.1253 108.159 73.3053 108.192 73.4253 108.259C73.5587 108.312 73.6453 108.399 73.6853 108.519C73.7387 108.625 73.7653 108.752 73.7653 108.899L73.6853 109.499C73.7787 109.325 73.8853 109.152 74.0053 108.979C74.1387 108.805 74.2987 108.652 74.4853 108.519C74.6853 108.372 74.9187 108.252 75.1853 108.159C75.4653 108.065 75.8053 108.019 76.2053 108.019C76.4053 108.019 76.592 108.039 76.7653 108.079C76.952 108.105 77.1253 108.152 77.2853 108.219C77.4587 108.285 77.6053 108.365 77.7253 108.459C77.8453 108.539 77.9387 108.632 78.0053 108.739C78.0853 108.832 78.1253 108.945 78.1253 109.079C78.1253 109.372 78.032 109.625 77.8453 109.839C77.6587 110.039 77.4653 110.139 77.2653 110.139C77.092 110.139 76.9653 110.119 76.8853 110.079C76.8053 110.025 76.7253 109.972 76.6453 109.919C76.5787 109.865 76.4787 109.819 76.3453 109.779C76.212 109.725 75.9987 109.699 75.7053 109.699C75.5053 109.699 75.292 109.739 75.0653 109.819C74.852 109.899 74.6453 110.019 74.4453 110.179C74.2453 110.325 74.0787 110.519 73.9453 110.759C73.8253 110.999 73.7653 111.279 73.7653 111.599V116.959C73.7653 117.145 73.7453 117.305 73.7053 117.439C73.6653 117.572 73.5787 117.672 73.4453 117.739C73.3253 117.805 73.132 117.839 72.8653 117.839ZM83.3835 117.939C83.0635 117.939 82.7301 117.905 82.3835 117.839C82.0368 117.772 81.6968 117.679 81.3635 117.559C81.0435 117.425 80.7568 117.272 80.5035 117.099C80.2635 116.925 80.0835 116.732 79.9635 116.519C79.8968 116.385 79.8568 116.265 79.8435 116.159C79.8301 116.039 79.8501 115.925 79.9035 115.819C79.9568 115.712 80.0368 115.605 80.1435 115.499C80.2768 115.339 80.4101 115.265 80.5435 115.279C80.6768 115.279 80.8435 115.365 81.0435 115.539C81.1901 115.632 81.3635 115.739 81.5635 115.859C81.7635 115.965 81.9701 116.065 82.1835 116.159C82.3968 116.239 82.6101 116.312 82.8235 116.379C83.0501 116.432 83.2701 116.459 83.4835 116.459C84.0968 116.459 84.5901 116.345 84.9635 116.119C85.3368 115.879 85.5235 115.565 85.5235 115.179C85.5235 114.952 85.4768 114.759 85.3835 114.599C85.2901 114.439 85.1635 114.305 85.0035 114.199C84.8435 114.079 84.6635 113.979 84.4635 113.899C84.2635 113.819 84.0368 113.745 83.7835 113.679C83.5435 113.599 83.3035 113.525 83.0635 113.459C82.7035 113.365 82.3501 113.259 82.0035 113.139C81.6568 113.019 81.3435 112.865 81.0635 112.679C80.7835 112.479 80.5568 112.232 80.3835 111.939C80.2101 111.632 80.1235 111.245 80.1235 110.779C80.1235 110.232 80.2635 109.759 80.5435 109.359C80.8235 108.959 81.2168 108.652 81.7235 108.439C82.2301 108.212 82.8235 108.099 83.5035 108.099C83.7968 108.099 84.0701 108.119 84.3235 108.159C84.5768 108.199 84.8168 108.265 85.0435 108.359C85.2835 108.439 85.5101 108.539 85.7235 108.659C85.9368 108.765 86.1435 108.899 86.3435 109.059C86.5835 109.219 86.7101 109.392 86.7235 109.579C86.7368 109.765 86.6635 109.959 86.5035 110.159C86.3835 110.332 86.2501 110.445 86.1035 110.499C85.9568 110.539 85.8101 110.499 85.6635 110.379C85.4501 110.219 85.2235 110.079 84.9835 109.959C84.7435 109.839 84.4968 109.739 84.2435 109.659C83.9901 109.579 83.7301 109.539 83.4635 109.539C83.1301 109.539 82.8301 109.592 82.5635 109.699C82.3101 109.792 82.1101 109.939 81.9635 110.139C81.8301 110.325 81.7635 110.539 81.7635 110.779C81.7635 110.992 81.8168 111.165 81.9235 111.299C82.0435 111.432 82.1901 111.545 82.3635 111.639C82.5501 111.732 82.7635 111.819 83.0035 111.899C83.2568 111.965 83.5168 112.032 83.7835 112.099C84.1701 112.192 84.5635 112.305 84.9635 112.439C85.3768 112.559 85.7435 112.725 86.0635 112.939C86.3968 113.139 86.6635 113.412 86.8635 113.759C87.0768 114.092 87.1835 114.539 87.1835 115.099C87.1835 115.979 86.8368 116.672 86.1435 117.179C85.4501 117.685 84.5301 117.939 83.3835 117.939ZM94.1907 117.839C93.564 117.839 93.0307 117.779 92.5907 117.659C92.164 117.539 91.8107 117.352 91.5307 117.099C91.2507 116.845 91.0507 116.519 90.9307 116.119C90.8107 115.705 90.7507 115.199 90.7507 114.599V105.759C90.7507 105.572 90.7707 105.412 90.8107 105.279C90.8507 105.145 90.9307 105.045 91.0507 104.979C91.1707 104.899 91.3573 104.859 91.6107 104.859C91.864 104.859 92.0573 104.899 92.1907 104.979C92.324 105.045 92.4107 105.145 92.4507 105.279C92.4907 105.399 92.5107 105.552 92.5107 105.739V114.599C92.5107 114.945 92.5373 115.225 92.5907 115.439C92.6573 115.639 92.7507 115.792 92.8707 115.899C93.004 116.005 93.1773 116.072 93.3907 116.099C93.604 116.125 93.864 116.139 94.1707 116.139C94.384 116.139 94.5573 116.159 94.6907 116.199C94.824 116.239 94.924 116.319 94.9907 116.439C95.0573 116.559 95.0907 116.739 95.0907 116.979C95.0907 117.232 95.0507 117.425 94.9707 117.559C94.904 117.679 94.7973 117.752 94.6507 117.779C94.5173 117.819 94.364 117.839 94.1907 117.839ZM89.7107 108.379L91.6307 108.399L94.4107 108.359C94.5973 108.359 94.7573 108.379 94.8907 108.419C95.024 108.445 95.124 108.525 95.1907 108.659C95.2707 108.779 95.3107 108.965 95.3107 109.219C95.3107 109.472 95.2773 109.665 95.2107 109.799C95.144 109.919 95.044 109.999 94.9107 110.039C94.7773 110.079 94.6173 110.099 94.4307 110.099L91.6907 110.059L89.6707 110.079C89.3907 110.079 89.1973 110.012 89.0907 109.879C88.9973 109.745 88.9507 109.525 88.9507 109.219C88.9507 108.925 89.0107 108.712 89.1307 108.579C89.2507 108.445 89.444 108.379 89.7107 108.379ZM105.99 117.819C105.697 117.819 105.484 117.759 105.35 117.639C105.23 117.519 105.157 117.332 105.13 117.079L105.21 116.079C105.077 116.292 104.87 116.539 104.59 116.819C104.31 117.085 103.944 117.325 103.49 117.539C103.037 117.739 102.484 117.839 101.83 117.839C101.19 117.839 100.59 117.712 100.03 117.459C99.4835 117.205 98.9969 116.852 98.5702 116.399C98.1569 115.945 97.8302 115.425 97.5902 114.839C97.3635 114.252 97.2502 113.625 97.2502 112.959C97.2502 112.305 97.3635 111.692 97.5902 111.119C97.8302 110.532 98.1635 110.019 98.5902 109.579C99.0169 109.139 99.5035 108.792 100.05 108.539C100.61 108.285 101.204 108.159 101.83 108.159C102.417 108.159 102.917 108.239 103.33 108.399C103.744 108.545 104.097 108.745 104.39 108.999C104.697 109.239 104.964 109.512 105.19 109.819L105.15 108.979C105.137 108.685 105.197 108.479 105.33 108.359C105.477 108.225 105.704 108.159 106.01 108.159C106.264 108.159 106.444 108.199 106.55 108.279C106.67 108.359 106.75 108.472 106.79 108.619C106.83 108.765 106.85 108.945 106.85 109.159V116.879C106.85 117.065 106.83 117.232 106.79 117.379C106.75 117.525 106.67 117.632 106.55 117.699C106.43 117.779 106.244 117.819 105.99 117.819ZM102.13 116.159C102.664 116.159 103.15 116.019 103.59 115.739C104.044 115.459 104.397 115.085 104.65 114.619C104.917 114.139 105.05 113.592 105.05 112.979C105.05 112.352 104.91 111.805 104.63 111.339C104.364 110.859 104.004 110.485 103.55 110.219C103.11 109.939 102.624 109.799 102.09 109.799C101.464 109.799 100.917 109.945 100.45 110.239C99.9969 110.519 99.6369 110.899 99.3702 111.379C99.1035 111.859 98.9702 112.405 98.9702 113.019C98.9702 113.619 99.1035 114.159 99.3702 114.639C99.6369 115.105 100.004 115.479 100.47 115.759C100.95 116.025 101.504 116.159 102.13 116.159Z" fill="white"/>
<path d="M58.552 44.704C57.5493 44.704 56.664 44.5867 55.896 44.352C55.128 44.1387 54.4773 43.8827 53.944 43.584C53.432 43.2853 53.0373 43.0293 52.76 42.816C52.504 42.5813 52.376 42.464 52.376 42.464C52.056 42.1867 51.768 41.8987 51.512 41.6C51.2773 41.28 51.16 40.9173 51.16 40.512C51.16 40.1707 51.256 39.8293 51.448 39.488C51.64 39.1253 51.9387 38.7413 52.344 38.336C52.664 37.9733 52.984 37.7067 53.304 37.536C53.6453 37.344 53.9867 37.248 54.328 37.248C54.648 37.248 54.968 37.3333 55.288 37.504C55.6293 37.6533 56.0347 37.92 56.504 38.304C56.504 38.304 56.5573 38.3467 56.664 38.432C56.792 38.5173 56.984 38.6027 57.24 38.688C57.5173 38.7733 57.8907 38.816 58.36 38.816C58.808 38.816 59.1813 38.7413 59.48 38.592C59.8 38.4427 60.0347 38.24 60.184 37.984C60.3547 37.7067 60.44 37.376 60.44 36.992C60.44 36.6293 60.3547 36.3093 60.184 36.032C60.0133 35.7547 59.7787 35.5413 59.48 35.392C59.1813 35.2213 58.84 35.136 58.456 35.136C58.2 35.136 57.976 35.168 57.784 35.232C57.6133 35.296 57.4747 35.3707 57.368 35.456C57.2827 35.52 57.2293 35.5627 57.208 35.584C56.9947 35.776 56.7493 35.9573 56.472 36.128C56.1947 36.2773 55.8427 36.352 55.416 36.352C55.096 36.352 54.7653 36.2987 54.424 36.192C54.0827 36.0853 53.72 35.9253 53.336 35.712C52.6533 35.3493 52.1733 35.0293 51.896 34.752C51.64 34.4747 51.512 34.1653 51.512 33.824L52.696 24.736C52.7387 24.416 52.824 24.032 52.952 23.584C53.08 23.1147 53.3467 22.7093 53.752 22.368C54.1573 22.0053 54.7867 21.824 55.64 21.824L62.968 21.856C63.4587 21.856 63.9173 21.8987 64.344 21.984C64.792 22.0693 65.1547 22.3253 65.432 22.752C65.7307 23.1573 65.88 23.8613 65.88 24.864C65.88 25.7813 65.7413 26.4427 65.464 26.848C65.208 27.232 64.8667 27.4667 64.44 27.552C64.0133 27.616 63.576 27.648 63.128 27.648H58.2L57.976 29.344C58.04 29.3227 58.104 29.312 58.168 29.312C58.232 29.312 58.2853 29.312 58.328 29.312C58.392 29.2907 58.456 29.28 58.52 29.28H58.68C59.6827 29.28 60.6427 29.4827 61.56 29.888C62.4773 30.272 63.288 30.816 63.992 31.52C64.7173 32.224 65.2827 33.024 65.688 33.92C66.1147 34.816 66.328 35.7653 66.328 36.768C66.328 38.2613 65.9867 39.6053 65.304 40.8C64.6213 41.9947 63.6933 42.944 62.52 43.648C61.3467 44.352 60.024 44.704 58.552 44.704ZM70.3012 38.432C69.9812 38.432 69.6292 38.4 69.2452 38.336C68.8612 38.2507 68.5306 38.0267 68.2532 37.664C67.9972 37.28 67.8692 36.64 67.8692 35.744C67.8692 34.8693 68.0079 34.2613 68.2852 33.92C68.5626 33.5573 68.8932 33.344 69.2772 33.28C69.6612 33.1947 70.0132 33.152 70.3332 33.152H77.4052C77.7466 33.152 78.1092 33.1947 78.4932 33.28C78.8773 33.344 79.1973 33.5573 79.4532 33.92C79.7306 34.2827 79.8693 34.9013 79.8693 35.776C79.8693 36.6507 79.7413 37.28 79.4852 37.664C79.2292 38.0267 78.9092 38.2507 78.5252 38.336C78.1626 38.4 77.7892 38.432 77.4052 38.432H70.3012ZM89.2555 44.352C88.1888 44.352 87.4422 44.1387 87.0155 43.712C86.5888 43.2853 86.3755 42.528 86.3755 41.44V24.768C86.3755 23.7013 86.5888 22.9547 87.0155 22.528C87.4422 22.1013 88.1995 21.888 89.2875 21.888C90.3542 21.888 91.1008 22.112 91.5275 22.56C91.9542 22.9867 92.1675 23.744 92.1675 24.832V41.472C92.1675 42.5387 91.9542 43.2853 91.5275 43.712C91.1008 44.1387 90.3435 44.352 89.2555 44.352ZM86.0555 30.912C85.3302 31.552 84.6688 31.8613 84.0715 31.84C83.4955 31.8187 82.8662 31.4453 82.1835 30.72C81.4795 29.9733 81.1488 29.2693 81.1915 28.608C81.2342 27.9467 81.6822 27.2427 82.5355 26.496L86.5995 22.848C87.3035 22.208 87.9542 21.92 88.5515 21.984C89.1702 22.0267 89.8102 22.4107 90.4715 23.136C91.1542 23.8613 91.4635 24.5547 91.3995 25.216C91.3568 25.856 90.9088 26.56 90.0555 27.328L86.0555 30.912ZM107.492 44.256C106.532 44.256 105.85 44.1173 105.444 43.84C105.039 43.5413 104.794 43.168 104.708 42.72C104.623 42.2507 104.58 41.7813 104.58 41.312V37.984H96.8045C95.8445 37.984 95.1618 37.8453 94.7565 37.568C94.3512 37.2693 94.1058 36.896 94.0205 36.448C93.9352 35.9787 93.8925 35.5093 93.8925 35.04C93.8925 34.8053 93.8925 34.6133 93.8925 34.464C93.9138 34.3147 93.9458 34.1653 93.9885 34.016L96.4525 24.064C96.7298 22.8907 97.1352 22.1867 97.6685 21.952C98.2018 21.7173 99.0018 21.728 100.068 21.984C100.858 22.1973 101.466 22.5067 101.892 22.912C102.34 23.296 102.5 23.7653 102.372 24.32L100.388 32.48H104.58V24.64C104.58 24.1707 104.623 23.7333 104.708 23.328C104.794 22.9013 105.039 22.5493 105.444 22.272C105.871 21.9947 106.575 21.856 107.556 21.856C108.516 21.856 109.199 22.0053 109.604 22.304C110.01 22.5813 110.255 22.944 110.34 23.392C110.426 23.84 110.468 24.3093 110.468 24.8V41.344C110.468 41.8347 110.415 42.304 110.308 42.752C110.223 43.2 109.978 43.5627 109.572 43.84C109.167 44.1173 108.474 44.256 107.492 44.256ZM64.952 84.224C63.992 84.224 63.2773 84.064 62.808 83.744C62.36 83.424 62.1467 83.0613 62.168 82.656H62.616C62.5093 82.8053 62.296 83.008 61.976 83.264C61.6773 83.4987 61.272 83.7227 60.76 83.936C60.248 84.128 59.6187 84.224 58.872 84.224C57.912 84.224 56.984 84.0107 56.088 83.584C55.2133 83.136 54.424 82.528 53.72 81.76C53.0373 80.992 52.4933 80.128 52.088 79.168C51.6827 78.1867 51.48 77.1627 51.48 76.096C51.48 75.0507 51.6827 74.048 52.088 73.088C52.4933 72.128 53.048 71.2747 53.752 70.528C54.456 69.76 55.2453 69.1627 56.12 68.736C56.9947 68.288 57.912 68.064 58.872 68.064C59.5973 68.064 60.2053 68.1707 60.696 68.384C61.208 68.5973 61.6133 68.832 61.912 69.088C62.232 69.344 62.4453 69.5573 62.552 69.728H62.2C62.1787 69.1947 62.392 68.7787 62.84 68.48C63.3093 68.1813 64.024 68.032 64.984 68.032C65.944 68.032 66.616 68.1813 67 68.48C67.4053 68.7573 67.6507 69.12 67.736 69.568C67.8213 70.016 67.864 70.4747 67.864 70.944V81.344C67.864 81.8133 67.8213 82.272 67.736 82.72C67.6507 83.168 67.4053 83.5307 67 83.808C66.616 84.0853 65.9333 84.224 64.952 84.224ZM59.672 78.432C60.0773 78.432 60.44 78.3253 60.76 78.112C61.1013 77.8987 61.368 77.6213 61.56 77.28C61.7733 76.9173 61.88 76.5333 61.88 76.128C61.88 75.7013 61.7733 75.3173 61.56 74.976C61.368 74.6347 61.1013 74.3573 60.76 74.144C60.4187 73.9307 60.0347 73.824 59.608 73.824C59.1813 73.824 58.7867 73.9307 58.424 74.144C58.0827 74.3573 57.8053 74.6453 57.592 75.008C57.3787 75.3493 57.272 75.7333 57.272 76.16C57.272 76.5653 57.3787 76.9387 57.592 77.28C57.8267 77.6213 58.1253 77.8987 58.488 78.112C58.8507 78.3253 59.2453 78.432 59.672 78.432ZM73.2925 84.256C72.3325 84.256 71.6498 84.1173 71.2445 83.84C70.8392 83.5413 70.5938 83.168 70.5085 82.72C70.4445 82.272 70.4125 81.8133 70.4125 81.344V70.816C70.4125 70.3467 70.4552 69.8987 70.5405 69.472C70.6258 69.0453 70.8712 68.704 71.2765 68.448C71.6818 68.1707 72.3645 68.032 73.3245 68.032C74.1992 68.032 74.8285 68.1493 75.2125 68.384C75.6178 68.5973 75.8738 68.864 75.9805 69.184C76.0872 69.504 76.1298 69.8027 76.1085 70.08C76.1085 70.336 76.1298 70.496 76.1725 70.56L75.9165 70.752C75.8952 70.432 76.0125 70.112 76.2685 69.792C76.5458 69.472 76.8978 69.184 77.3245 68.928C77.7725 68.6507 78.2418 68.4373 78.7325 68.288C79.2445 68.1173 79.7245 68.032 80.1725 68.032C81.2392 68.032 82.1778 68.2347 82.9885 68.64C83.7992 69.0453 84.4712 69.6213 85.0045 70.368C85.5592 71.0933 85.9752 71.9467 86.2525 72.928C86.5298 73.9093 86.6685 74.976 86.6685 76.128V81.376C86.6685 81.8453 86.6258 82.304 86.5405 82.752C86.4552 83.2 86.2098 83.5627 85.8045 83.84C85.4205 84.1173 84.7378 84.256 83.7565 84.256C82.7752 84.256 82.0818 84.1173 81.6765 83.84C81.2712 83.5413 81.0258 83.168 80.9405 82.72C80.8552 82.272 80.8125 81.8133 80.8125 81.344V76.128C80.8125 75.6373 80.7165 75.2213 80.5245 74.88C80.3538 74.5387 80.0978 74.2827 79.7565 74.112C79.4365 73.92 79.0312 73.824 78.5405 73.824C78.0712 73.824 77.6552 73.92 77.2925 74.112C76.9512 74.304 76.6845 74.5707 76.4925 74.912C76.3005 75.2533 76.2045 75.6587 76.2045 76.128V81.376C76.2045 81.8453 76.1618 82.304 76.0765 82.752C75.9912 83.2 75.7458 83.5627 75.3405 83.84C74.9565 84.1173 74.2738 84.256 73.2925 84.256ZM92.2175 84.288C91.2575 84.288 90.5748 84.1493 90.1695 83.872C89.7642 83.5733 89.5188 83.2 89.4335 82.752C89.3695 82.304 89.3375 81.8453 89.3375 81.376V70.944C89.3375 70.4747 89.3802 70.0267 89.4655 69.6C89.5508 69.152 89.7962 68.7893 90.2015 68.512C90.6068 68.2133 91.2895 68.064 92.2495 68.064C93.2095 68.064 93.8815 68.2133 94.2655 68.512C94.6708 68.7893 94.9162 69.152 95.0015 69.6C95.0868 70.048 95.1295 70.5173 95.1295 71.008V81.408C95.1295 81.8773 95.0868 82.336 95.0015 82.784C94.9162 83.232 94.6708 83.5947 94.2655 83.872C93.8815 84.1493 93.1988 84.288 92.2175 84.288ZM92.2175 66.496C91.2575 66.496 90.5748 66.3573 90.1695 66.08C89.7642 65.7813 89.5188 65.408 89.4335 64.96C89.3695 64.512 89.3375 64.0533 89.3375 63.584C89.3375 63.0933 89.3802 62.6347 89.4655 62.208C89.5508 61.76 89.7962 61.3973 90.2015 61.12C90.6068 60.8427 91.2895 60.704 92.2495 60.704C93.2095 60.704 93.8815 60.8533 94.2655 61.152C94.6708 61.4293 94.9162 61.792 95.0015 62.24C95.0868 62.688 95.1295 63.1467 95.1295 63.616C95.1295 64.0853 95.0868 64.544 95.0015 64.992C94.9162 65.44 94.6708 65.8027 94.2655 66.08C93.8815 66.3573 93.1988 66.496 92.2175 66.496Z" fill="white"/>
<path d="M205.532 117.24C205.306 117.24 205.119 117.207 204.972 117.14C204.839 117.073 204.726 116.953 204.632 116.78L200.932 108.72C200.786 108.4 200.752 108.16 200.832 108C200.912 107.827 201.099 107.667 201.392 107.52C201.659 107.387 201.886 107.347 202.072 107.4C202.259 107.44 202.419 107.613 202.552 107.92L205.532 115.02L208.452 108.12C208.599 107.813 208.759 107.593 208.932 107.46C209.106 107.327 209.379 107.353 209.752 107.54C210.112 107.713 210.292 107.913 210.292 108.14C210.292 108.353 210.232 108.587 210.112 108.84L206.432 116.76C206.366 116.92 206.259 117.04 206.112 117.12C205.966 117.2 205.772 117.24 205.532 117.24ZM220.116 117.18C219.823 117.18 219.609 117.12 219.476 117C219.356 116.88 219.283 116.693 219.256 116.44L219.336 115.44C219.203 115.653 218.996 115.9 218.716 116.18C218.436 116.447 218.069 116.687 217.616 116.9C217.163 117.1 216.609 117.2 215.956 117.2C215.316 117.2 214.716 117.073 214.156 116.82C213.609 116.567 213.123 116.213 212.696 115.76C212.283 115.307 211.956 114.787 211.716 114.2C211.489 113.613 211.376 112.987 211.376 112.32C211.376 111.667 211.489 111.053 211.716 110.48C211.956 109.893 212.289 109.38 212.716 108.94C213.143 108.5 213.629 108.153 214.176 107.9C214.736 107.647 215.329 107.52 215.956 107.52C216.543 107.52 217.043 107.6 217.456 107.76C217.869 107.907 218.223 108.107 218.516 108.36C218.823 108.6 219.089 108.873 219.316 109.18L219.276 108.34C219.263 108.047 219.323 107.84 219.456 107.72C219.603 107.587 219.829 107.52 220.136 107.52C220.389 107.52 220.569 107.56 220.676 107.64C220.796 107.72 220.876 107.833 220.916 107.98C220.956 108.127 220.976 108.307 220.976 108.52V116.24C220.976 116.427 220.956 116.593 220.916 116.74C220.876 116.887 220.796 116.993 220.676 117.06C220.556 117.14 220.369 117.18 220.116 117.18ZM216.256 115.52C216.789 115.52 217.276 115.38 217.716 115.1C218.169 114.82 218.523 114.447 218.776 113.98C219.043 113.5 219.176 112.953 219.176 112.34C219.176 111.713 219.036 111.167 218.756 110.7C218.489 110.22 218.129 109.847 217.676 109.58C217.236 109.3 216.749 109.16 216.216 109.16C215.589 109.16 215.043 109.307 214.576 109.6C214.123 109.88 213.763 110.26 213.496 110.74C213.229 111.22 213.096 111.767 213.096 112.38C213.096 112.98 213.229 113.52 213.496 114C213.763 114.467 214.129 114.84 214.596 115.12C215.076 115.387 215.629 115.52 216.256 115.52ZM224.84 117.2C224.587 117.2 224.394 117.16 224.26 117.08C224.14 117.013 224.06 116.913 224.02 116.78C223.994 116.633 223.98 116.467 223.98 116.28V108.4C223.98 108.2 224 108.033 224.04 107.9C224.08 107.767 224.16 107.673 224.28 107.62C224.4 107.553 224.594 107.52 224.86 107.52C225.1 107.52 225.28 107.553 225.4 107.62C225.534 107.673 225.62 107.76 225.66 107.88C225.714 107.987 225.74 108.113 225.74 108.26L225.66 108.86C225.754 108.687 225.86 108.513 225.98 108.34C226.114 108.167 226.274 108.013 226.46 107.88C226.66 107.733 226.894 107.613 227.16 107.52C227.44 107.427 227.78 107.38 228.18 107.38C228.38 107.38 228.567 107.4 228.74 107.44C228.927 107.467 229.1 107.513 229.26 107.58C229.434 107.647 229.58 107.727 229.7 107.82C229.82 107.9 229.914 107.993 229.98 108.1C230.06 108.193 230.1 108.307 230.1 108.44C230.1 108.733 230.007 108.987 229.82 109.2C229.634 109.4 229.44 109.5 229.24 109.5C229.067 109.5 228.94 109.48 228.86 109.44C228.78 109.387 228.7 109.333 228.62 109.28C228.554 109.227 228.454 109.18 228.32 109.14C228.187 109.087 227.974 109.06 227.68 109.06C227.48 109.06 227.267 109.1 227.04 109.18C226.827 109.26 226.62 109.38 226.42 109.54C226.22 109.687 226.054 109.88 225.92 110.12C225.8 110.36 225.74 110.64 225.74 110.96V116.32C225.74 116.507 225.72 116.667 225.68 116.8C225.64 116.933 225.554 117.033 225.42 117.1C225.3 117.167 225.107 117.2 224.84 117.2ZM233.665 117.2C233.412 117.2 233.219 117.16 233.085 117.08C232.965 117.013 232.885 116.913 232.845 116.78C232.805 116.647 232.785 116.487 232.785 116.3V108.4C232.785 108.213 232.805 108.053 232.845 107.92C232.885 107.787 232.965 107.687 233.085 107.62C233.219 107.553 233.419 107.52 233.685 107.52C233.939 107.52 234.125 107.56 234.245 107.64C234.365 107.707 234.445 107.807 234.485 107.94C234.525 108.073 234.545 108.24 234.545 108.44V116.32C234.545 116.507 234.525 116.667 234.485 116.8C234.445 116.933 234.359 117.033 234.225 117.1C234.105 117.167 233.919 117.2 233.665 117.2ZM233.665 105.12C233.372 105.12 233.152 105.08 233.005 105C232.859 104.907 232.759 104.78 232.705 104.62C232.665 104.46 232.645 104.273 232.645 104.06C232.645 103.847 232.672 103.667 232.725 103.52C232.779 103.36 232.879 103.247 233.025 103.18C233.172 103.1 233.392 103.06 233.685 103.06C233.965 103.06 234.179 103.1 234.325 103.18C234.472 103.26 234.565 103.38 234.605 103.54C234.659 103.7 234.685 103.887 234.685 104.1C234.685 104.313 234.659 104.5 234.605 104.66C234.565 104.807 234.472 104.92 234.325 105C234.179 105.08 233.959 105.12 233.665 105.12ZM242.318 117.3C241.518 117.3 240.805 117.167 240.178 116.9C239.551 116.633 239.018 116.273 238.578 115.82C238.151 115.353 237.825 114.82 237.598 114.22C237.371 113.62 237.258 112.973 237.258 112.28C237.258 111.36 237.471 110.54 237.898 109.82C238.325 109.1 238.911 108.533 239.658 108.12C240.418 107.693 241.285 107.48 242.258 107.48C242.925 107.48 243.518 107.587 244.038 107.8C244.571 108 245.025 108.273 245.398 108.62C245.771 108.967 246.058 109.353 246.258 109.78C246.458 110.207 246.558 110.633 246.558 111.06C246.558 111.74 246.398 112.22 246.078 112.5C245.758 112.767 245.365 112.9 244.898 112.9H239.118C239.105 113.487 239.258 113.993 239.578 114.42C239.911 114.833 240.325 115.153 240.818 115.38C241.325 115.607 241.831 115.72 242.338 115.72C242.711 115.72 243.031 115.7 243.298 115.66C243.565 115.62 243.798 115.567 243.998 115.5C244.198 115.433 244.371 115.367 244.518 115.3C244.665 115.233 244.791 115.167 244.898 115.1C245.018 115.033 245.131 114.987 245.238 114.96C245.358 114.933 245.471 114.947 245.578 115C245.698 115.04 245.791 115.127 245.858 115.26C245.938 115.367 245.991 115.467 246.018 115.56C246.045 115.653 246.058 115.753 246.058 115.86C246.058 116.047 245.898 116.253 245.578 116.48C245.258 116.707 244.811 116.9 244.238 117.06C243.678 117.22 243.038 117.3 242.318 117.3ZM239.118 111.72H244.138C244.391 111.72 244.578 111.687 244.698 111.62C244.831 111.553 244.898 111.373 244.898 111.08C244.898 110.707 244.785 110.373 244.558 110.08C244.331 109.773 244.018 109.527 243.618 109.34C243.231 109.153 242.785 109.06 242.278 109.06C241.691 109.06 241.151 109.18 240.658 109.42C240.178 109.647 239.798 109.96 239.518 110.36C239.238 110.76 239.105 111.213 239.118 111.72ZM253.524 117.2C252.897 117.2 252.364 117.14 251.924 117.02C251.497 116.9 251.144 116.713 250.864 116.46C250.584 116.207 250.384 115.88 250.264 115.48C250.144 115.067 250.084 114.56 250.084 113.96V105.12C250.084 104.933 250.104 104.773 250.144 104.64C250.184 104.507 250.264 104.407 250.384 104.34C250.504 104.26 250.69 104.22 250.944 104.22C251.197 104.22 251.39 104.26 251.524 104.34C251.657 104.407 251.744 104.507 251.784 104.64C251.824 104.76 251.844 104.913 251.844 105.1V113.96C251.844 114.307 251.87 114.587 251.924 114.8C251.99 115 252.084 115.153 252.204 115.26C252.337 115.367 252.51 115.433 252.724 115.46C252.937 115.487 253.197 115.5 253.504 115.5C253.717 115.5 253.89 115.52 254.024 115.56C254.157 115.6 254.257 115.68 254.324 115.8C254.39 115.92 254.424 116.1 254.424 116.34C254.424 116.593 254.384 116.787 254.304 116.92C254.237 117.04 254.13 117.113 253.984 117.14C253.85 117.18 253.697 117.2 253.524 117.2ZM249.044 107.74L250.964 107.76L253.744 107.72C253.93 107.72 254.09 107.74 254.224 107.78C254.357 107.807 254.457 107.887 254.524 108.02C254.604 108.14 254.644 108.327 254.644 108.58C254.644 108.833 254.61 109.027 254.544 109.16C254.477 109.28 254.377 109.36 254.244 109.4C254.11 109.44 253.95 109.46 253.764 109.46L251.024 109.42L249.004 109.44C248.724 109.44 248.53 109.373 248.424 109.24C248.33 109.107 248.284 108.887 248.284 108.58C248.284 108.287 248.344 108.073 248.464 107.94C248.584 107.807 248.777 107.74 249.044 107.74ZM265.323 117.18C265.03 117.18 264.816 117.12 264.683 117C264.563 116.88 264.49 116.693 264.463 116.44L264.543 115.44C264.41 115.653 264.203 115.9 263.923 116.18C263.643 116.447 263.276 116.687 262.823 116.9C262.37 117.1 261.816 117.2 261.163 117.2C260.523 117.2 259.923 117.073 259.363 116.82C258.816 116.567 258.33 116.213 257.903 115.76C257.49 115.307 257.163 114.787 256.923 114.2C256.696 113.613 256.583 112.987 256.583 112.32C256.583 111.667 256.696 111.053 256.923 110.48C257.163 109.893 257.496 109.38 257.923 108.94C258.35 108.5 258.836 108.153 259.383 107.9C259.943 107.647 260.536 107.52 261.163 107.52C261.75 107.52 262.25 107.6 262.663 107.76C263.076 107.907 263.43 108.107 263.723 108.36C264.03 108.6 264.296 108.873 264.523 109.18L264.483 108.34C264.47 108.047 264.53 107.84 264.663 107.72C264.81 107.587 265.036 107.52 265.343 107.52C265.596 107.52 265.776 107.56 265.883 107.64C266.003 107.72 266.083 107.833 266.123 107.98C266.163 108.127 266.183 108.307 266.183 108.52V116.24C266.183 116.427 266.163 116.593 266.123 116.74C266.083 116.887 266.003 116.993 265.883 117.06C265.763 117.14 265.576 117.18 265.323 117.18ZM261.463 115.52C261.996 115.52 262.483 115.38 262.923 115.1C263.376 114.82 263.73 114.447 263.983 113.98C264.25 113.5 264.383 112.953 264.383 112.34C264.383 111.713 264.243 111.167 263.963 110.7C263.696 110.22 263.336 109.847 262.883 109.58C262.443 109.3 261.956 109.16 261.423 109.16C260.796 109.16 260.25 109.307 259.783 109.6C259.33 109.88 258.97 110.26 258.703 110.74C258.436 111.22 258.303 111.767 258.303 112.38C258.303 112.98 258.436 113.52 258.703 114C258.97 114.467 259.336 114.84 259.803 115.12C260.283 115.387 260.836 115.52 261.463 115.52ZM273.727 117.2C273.101 117.2 272.567 117.14 272.127 117.02C271.701 116.9 271.347 116.713 271.067 116.46C270.787 116.207 270.587 115.88 270.467 115.48C270.347 115.067 270.287 114.56 270.287 113.96V105.12C270.287 104.933 270.307 104.773 270.347 104.64C270.387 104.507 270.467 104.407 270.587 104.34C270.707 104.26 270.894 104.22 271.147 104.22C271.401 104.22 271.594 104.26 271.727 104.34C271.861 104.407 271.947 104.507 271.987 104.64C272.027 104.76 272.047 104.913 272.047 105.1V113.96C272.047 114.307 272.074 114.587 272.127 114.8C272.194 115 272.287 115.153 272.407 115.26C272.541 115.367 272.714 115.433 272.927 115.46C273.141 115.487 273.401 115.5 273.707 115.5C273.921 115.5 274.094 115.52 274.227 115.56C274.361 115.6 274.461 115.68 274.527 115.8C274.594 115.92 274.627 116.1 274.627 116.34C274.627 116.593 274.587 116.787 274.507 116.92C274.441 117.04 274.334 117.113 274.187 117.14C274.054 117.18 273.901 117.2 273.727 117.2ZM269.247 107.74L271.167 107.76L273.947 107.72C274.134 107.72 274.294 107.74 274.427 107.78C274.561 107.807 274.661 107.887 274.727 108.02C274.807 108.14 274.847 108.327 274.847 108.58C274.847 108.833 274.814 109.027 274.747 109.16C274.681 109.28 274.581 109.36 274.447 109.4C274.314 109.44 274.154 109.46 273.967 109.46L271.227 109.42L269.207 109.44C268.927 109.44 268.734 109.373 268.627 109.24C268.534 109.107 268.487 108.887 268.487 108.58C268.487 108.287 268.547 108.073 268.667 107.94C268.787 107.807 268.981 107.74 269.247 107.74ZM281.847 117.3C281.047 117.3 280.334 117.167 279.707 116.9C279.08 116.633 278.547 116.273 278.107 115.82C277.68 115.353 277.354 114.82 277.127 114.22C276.9 113.62 276.787 112.973 276.787 112.28C276.787 111.36 277 110.54 277.427 109.82C277.854 109.1 278.44 108.533 279.187 108.12C279.947 107.693 280.814 107.48 281.787 107.48C282.454 107.48 283.047 107.587 283.567 107.8C284.1 108 284.554 108.273 284.927 108.62C285.3 108.967 285.587 109.353 285.787 109.78C285.987 110.207 286.087 110.633 286.087 111.06C286.087 111.74 285.927 112.22 285.607 112.5C285.287 112.767 284.894 112.9 284.427 112.9H278.647C278.634 113.487 278.787 113.993 279.107 114.42C279.44 114.833 279.854 115.153 280.347 115.38C280.854 115.607 281.36 115.72 281.867 115.72C282.24 115.72 282.56 115.7 282.827 115.66C283.094 115.62 283.327 115.567 283.527 115.5C283.727 115.433 283.9 115.367 284.047 115.3C284.194 115.233 284.32 115.167 284.427 115.1C284.547 115.033 284.66 114.987 284.767 114.96C284.887 114.933 285 114.947 285.107 115C285.227 115.04 285.32 115.127 285.387 115.26C285.467 115.367 285.52 115.467 285.547 115.56C285.574 115.653 285.587 115.753 285.587 115.86C285.587 116.047 285.427 116.253 285.107 116.48C284.787 116.707 284.34 116.9 283.767 117.06C283.207 117.22 282.567 117.3 281.847 117.3ZM278.647 111.72H283.667C283.92 111.72 284.107 111.687 284.227 111.62C284.36 111.553 284.427 111.373 284.427 111.08C284.427 110.707 284.314 110.373 284.087 110.08C283.86 109.773 283.547 109.527 283.147 109.34C282.76 109.153 282.314 109.06 281.807 109.06C281.22 109.06 280.68 109.18 280.187 109.42C279.707 109.647 279.327 109.96 279.047 110.36C278.767 110.76 278.634 111.213 278.647 111.72Z" fill="white"/>
<path d="M242.76 43.704C241.202 43.704 239.794 43.3733 238.536 42.712C237.298 42.0293 236.306 41.112 235.56 39.96C234.834 38.7867 234.472 37.464 234.472 35.992C234.472 35.288 234.589 34.648 234.824 34.072C235.058 33.4747 235.336 32.9627 235.656 32.536C235.976 32.1093 236.264 31.7787 236.52 31.544C236.797 31.288 236.968 31.1387 237.032 31.096C237.096 31.032 236.989 31.096 236.712 31.288C237.032 31.5013 237.128 31.576 237 31.512C236.893 31.4267 236.68 31.2133 236.36 30.872C236.061 30.5307 235.773 30.072 235.496 29.496C235.24 28.92 235.112 28.248 235.112 27.48C235.112 26.1573 235.453 24.9733 236.136 23.928C236.818 22.8613 237.736 22.0187 238.888 21.4C240.061 20.76 241.352 20.44 242.76 20.44C244.146 20.44 245.405 20.76 246.536 21.4C247.666 22.0187 248.562 22.872 249.224 23.96C249.906 25.048 250.248 26.264 250.248 27.608C250.248 28.12 250.162 28.6107 249.992 29.08C249.821 29.528 249.618 29.9333 249.384 30.296C249.149 30.6373 248.936 30.9147 248.744 31.128C248.552 31.3413 248.434 31.4693 248.392 31.512C248.37 31.5547 248.466 31.48 248.68 31.288C248.424 31.096 248.328 31.032 248.392 31.096C248.456 31.1387 248.616 31.288 248.872 31.544C249.149 31.8 249.437 32.1413 249.736 32.568C250.056 32.9947 250.322 33.5067 250.536 34.104C250.77 34.68 250.888 35.3093 250.888 35.992C250.888 37.208 250.642 38.296 250.152 39.256C249.661 40.216 249.01 41.0267 248.2 41.688C247.41 42.3493 246.536 42.8507 245.576 43.192C244.637 43.5333 243.698 43.704 242.76 43.704ZM242.728 38.104C243.218 38.104 243.634 38.0293 243.976 37.88C244.317 37.7093 244.573 37.4747 244.744 37.176C244.936 36.8773 245.032 36.5253 245.032 36.12C245.032 35.7147 244.936 35.3733 244.744 35.096C244.573 34.7973 244.306 34.5733 243.944 34.424C243.602 34.2747 243.176 34.2 242.664 34.2C242.173 34.2 241.746 34.2747 241.384 34.424C241.042 34.5733 240.776 34.7973 240.584 35.096C240.413 35.3733 240.328 35.7147 240.328 36.12C240.328 36.5253 240.424 36.8773 240.616 37.176C240.808 37.4747 241.074 37.7093 241.416 37.88C241.778 38.0293 242.216 38.104 242.728 38.104ZM242.728 28.792C243.09 28.792 243.389 28.7387 243.624 28.632C243.88 28.5253 244.072 28.376 244.2 28.184C244.328 27.9707 244.392 27.7253 244.392 27.448C244.392 27.1707 244.317 26.936 244.168 26.744C244.04 26.5307 243.848 26.3707 243.592 26.264C243.357 26.1573 243.058 26.104 242.696 26.104C242.354 26.104 242.056 26.1573 241.8 26.264C241.544 26.3707 241.352 26.5307 241.224 26.744C241.096 26.936 241.032 27.1707 241.032 27.448C241.032 27.7253 241.096 27.9707 241.224 28.184C241.373 28.376 241.576 28.5253 241.832 28.632C242.088 28.7387 242.386 28.792 242.728 28.792ZM199.342 83.448C198.467 83.448 197.539 83.2773 196.558 82.936C195.598 82.5733 194.691 82.0507 193.838 81.368C192.985 80.664 192.291 79.7893 191.758 78.744C191.225 77.6987 190.958 76.4827 190.958 75.096C190.958 73.7307 191.225 72.536 191.758 71.512C192.291 70.4667 192.974 69.6027 193.806 68.92C194.659 68.2373 195.566 67.7253 196.526 67.384C197.507 67.0213 198.425 66.84 199.278 66.84C200.089 66.84 200.793 66.9253 201.39 67.096C201.987 67.2667 202.478 67.4587 202.862 67.672C203.246 67.864 203.523 68.0133 203.694 68.12C204.121 68.376 204.515 68.6747 204.878 69.016C205.262 69.336 205.454 69.7733 205.454 70.328C205.454 70.6053 205.401 70.8933 205.294 71.192C205.187 71.4693 205.017 71.7893 204.782 72.152C204.014 73.3253 203.246 73.912 202.478 73.912C202.137 73.912 201.838 73.8587 201.582 73.752C201.326 73.624 201.091 73.4853 200.878 73.336C200.665 73.1867 200.43 73.0587 200.174 72.952C199.939 72.824 199.641 72.76 199.278 72.76C198.851 72.76 198.457 72.8667 198.094 73.08C197.731 73.2933 197.443 73.5813 197.23 73.944C197.017 74.2853 196.91 74.68 196.91 75.128C196.91 75.576 197.017 75.9813 197.23 76.344C197.443 76.7067 197.721 76.9947 198.062 77.208C198.425 77.4213 198.809 77.528 199.214 77.528C199.513 77.528 199.758 77.496 199.95 77.432C200.163 77.368 200.323 77.304 200.43 77.24C200.537 77.1547 200.601 77.112 200.622 77.112C200.921 76.9413 201.198 76.7813 201.454 76.632C201.731 76.4827 202.009 76.408 202.286 76.408C202.649 76.408 203.022 76.5467 203.406 76.824C203.79 77.08 204.217 77.5067 204.686 78.104C205.134 78.6587 205.379 79.1813 205.422 79.672C205.486 80.1413 205.369 80.5893 205.07 81.016C204.771 81.4213 204.313 81.816 203.694 82.2C203.63 82.2427 203.406 82.3707 203.022 82.584C202.659 82.776 202.169 82.968 201.55 83.16C200.931 83.352 200.195 83.448 199.342 83.448ZM216.108 83.64C214.508 83.64 213.153 83.384 212.044 82.872C210.935 82.3387 210.039 81.656 209.356 80.824C208.673 79.9707 208.172 79.0533 207.852 78.072C207.532 77.0907 207.372 76.1413 207.372 75.224C207.372 73.5387 207.745 72.056 208.492 70.776C209.239 69.496 210.273 68.4933 211.596 67.768C212.919 67.0427 214.433 66.68 216.14 66.68C217.463 66.68 218.593 66.8933 219.532 67.32C220.471 67.7467 221.228 68.2907 221.804 68.952C222.401 69.6133 222.839 70.3173 223.116 71.064C223.393 71.8107 223.532 72.504 223.532 73.144C223.532 74.36 223.233 75.288 222.636 75.928C222.039 76.568 221.271 76.888 220.332 76.888H213.516C213.601 77.2293 213.772 77.528 214.028 77.784C214.305 78.0187 214.647 78.2107 215.052 78.36C215.457 78.488 215.895 78.552 216.364 78.552C216.833 78.552 217.249 78.5307 217.612 78.488C217.975 78.424 218.284 78.3493 218.54 78.264C218.817 78.1787 219.063 78.0933 219.276 78.008C219.511 77.9227 219.713 77.8587 219.884 77.816C220.076 77.752 220.257 77.72 220.428 77.72C220.812 77.72 221.164 77.848 221.484 78.104C221.804 78.36 222.092 78.744 222.348 79.256C222.497 79.5333 222.604 79.8 222.668 80.056C222.732 80.2907 222.764 80.5147 222.764 80.728C222.764 81.368 222.497 81.9013 221.964 82.328C221.452 82.7547 220.705 83.0747 219.724 83.288C218.743 83.5227 217.537 83.64 216.108 83.64ZM213.516 73.88H217.1C217.399 73.88 217.612 73.816 217.74 73.688C217.889 73.56 217.964 73.368 217.964 73.112C217.964 72.8347 217.879 72.6 217.708 72.408C217.559 72.216 217.345 72.0773 217.068 71.992C216.791 71.8853 216.46 71.832 216.076 71.832C215.564 71.832 215.116 71.9387 214.732 72.152C214.348 72.344 214.049 72.6 213.836 72.92C213.644 73.2187 213.537 73.5387 213.516 73.88ZM228.497 83.288C227.537 83.288 226.854 83.1493 226.449 82.872C226.044 82.5733 225.798 82.2 225.713 81.752C225.649 81.2827 225.617 80.8133 225.617 80.344V69.912C225.617 69.4213 225.66 68.9627 225.745 68.536C225.83 68.088 226.076 67.7253 226.481 67.448C226.886 67.1707 227.569 67.032 228.529 67.032C229.468 67.032 230.129 67.16 230.513 67.416C230.918 67.672 231.164 67.96 231.249 68.28C231.334 68.5787 231.377 68.8133 231.377 68.984L230.865 68.792C230.865 68.792 230.95 68.696 231.121 68.504C231.292 68.312 231.537 68.088 231.857 67.832C232.198 67.576 232.593 67.352 233.041 67.16C233.51 66.968 234.033 66.872 234.609 66.872C234.801 66.872 235.036 66.8933 235.313 66.936C235.612 66.9573 235.921 67.0107 236.241 67.096C236.582 67.1813 236.892 67.3093 237.169 67.48C237.468 67.6507 237.702 67.8747 237.873 68.152C238.065 68.4293 238.161 68.7707 238.161 69.176C238.161 70.2427 237.926 71.1493 237.457 71.896C237.009 72.6427 236.412 73.016 235.665 73.016C235.26 73.016 234.972 72.9947 234.801 72.952C234.63 72.888 234.502 72.8347 234.417 72.792C234.353 72.728 234.268 72.6747 234.161 72.632C234.076 72.568 233.905 72.536 233.649 72.536C233.329 72.536 233.03 72.5787 232.753 72.664C232.497 72.728 232.262 72.8347 232.049 72.984C231.857 73.1333 231.708 73.3147 231.601 73.528C231.494 73.72 231.441 73.9333 231.441 74.168V80.408C231.441 80.8773 231.398 81.336 231.313 81.784C231.228 82.232 230.982 82.5947 230.577 82.872C230.172 83.1493 229.478 83.288 228.497 83.288ZM246.981 83.448C246.106 83.448 245.178 83.2773 244.197 82.936C243.237 82.5733 242.33 82.0507 241.477 81.368C240.624 80.664 239.93 79.7893 239.397 78.744C238.864 77.6987 238.597 76.4827 238.597 75.096C238.597 73.7307 238.864 72.536 239.397 71.512C239.93 70.4667 240.613 69.6027 241.445 68.92C242.298 68.2373 243.205 67.7253 244.165 67.384C245.146 67.0213 246.064 66.84 246.917 66.84C247.728 66.84 248.432 66.9253 249.029 67.096C249.626 67.2667 250.117 67.4587 250.501 67.672C250.885 67.864 251.162 68.0133 251.333 68.12C251.76 68.376 252.154 68.6747 252.517 69.016C252.901 69.336 253.093 69.7733 253.093 70.328C253.093 70.6053 253.04 70.8933 252.933 71.192C252.826 71.4693 252.656 71.7893 252.421 72.152C251.653 73.3253 250.885 73.912 250.117 73.912C249.776 73.912 249.477 73.8587 249.221 73.752C248.965 73.624 248.73 73.4853 248.517 73.336C248.304 73.1867 248.069 73.0587 247.813 72.952C247.578 72.824 247.28 72.76 246.917 72.76C246.49 72.76 246.096 72.8667 245.733 73.08C245.37 73.2933 245.082 73.5813 244.869 73.944C244.656 74.2853 244.549 74.68 244.549 75.128C244.549 75.576 244.656 75.9813 244.869 76.344C245.082 76.7067 245.36 76.9947 245.701 77.208C246.064 77.4213 246.448 77.528 246.853 77.528C247.152 77.528 247.397 77.496 247.589 77.432C247.802 77.368 247.962 77.304 248.069 77.24C248.176 77.1547 248.24 77.112 248.261 77.112C248.56 76.9413 248.837 76.7813 249.093 76.632C249.37 76.4827 249.648 76.408 249.925 76.408C250.288 76.408 250.661 76.5467 251.045 76.824C251.429 77.08 251.856 77.5067 252.325 78.104C252.773 78.6587 253.018 79.1813 253.061 79.672C253.125 80.1413 253.008 80.5893 252.709 81.016C252.41 81.4213 251.952 81.816 251.333 82.2C251.269 82.2427 251.045 82.3707 250.661 82.584C250.298 82.776 249.808 82.968 249.189 83.16C248.57 83.352 247.834 83.448 246.981 83.448ZM262.755 83.224C261.731 83.224 260.771 83.0213 259.875 82.616C259 82.2107 258.232 81.6453 257.571 80.92C256.909 80.1733 256.397 79.3093 256.035 78.328C255.672 77.3467 255.491 76.28 255.491 75.128V69.912C255.491 69.4213 255.533 68.9627 255.619 68.536C255.704 68.088 255.949 67.7253 256.355 67.448C256.76 67.1493 257.443 67 258.403 67C259.384 67 260.067 67.1493 260.451 67.448C260.856 67.7253 261.101 68.088 261.187 68.536C261.272 68.984 261.315 69.4533 261.315 69.944V75.128C261.315 75.6187 261.4 76.0347 261.571 76.376C261.763 76.7173 262.029 76.984 262.371 77.176C262.733 77.3467 263.149 77.432 263.619 77.432C264.088 77.432 264.493 77.336 264.835 77.144C265.176 76.952 265.443 76.6853 265.635 76.344C265.827 76.0027 265.923 75.5973 265.923 75.128V69.88C265.923 69.3893 265.965 68.9307 266.051 68.504C266.136 68.056 266.381 67.6933 266.787 67.416C267.192 67.1387 267.875 67 268.835 67C269.816 67 270.499 67.1493 270.883 67.448C271.288 67.7253 271.533 68.088 271.619 68.536C271.704 68.984 271.747 69.4427 271.747 69.912V80.44C271.747 80.9093 271.704 81.3573 271.619 81.784C271.533 82.2107 271.288 82.5627 270.883 82.84C270.477 83.1173 269.795 83.256 268.835 83.256C268.131 83.256 267.576 83.1707 267.171 83C266.787 82.8507 266.509 82.6587 266.339 82.424C266.168 82.168 266.061 81.9227 266.019 81.688C265.997 81.432 265.987 81.2187 265.987 81.048L266.531 81.208C266.531 81.208 266.445 81.3147 266.275 81.528C266.104 81.72 265.848 81.9547 265.507 82.232C265.187 82.488 264.792 82.7227 264.323 82.936C263.875 83.128 263.352 83.224 262.755 83.224ZM277.198 83.288C276.238 83.288 275.555 83.1493 275.15 82.872C274.745 82.5733 274.499 82.2 274.414 81.752C274.35 81.2827 274.318 80.8133 274.318 80.344V69.912C274.318 69.4213 274.361 68.9627 274.446 68.536C274.531 68.088 274.777 67.7253 275.182 67.448C275.587 67.1707 276.27 67.032 277.23 67.032C278.169 67.032 278.83 67.16 279.214 67.416C279.619 67.672 279.865 67.96 279.95 68.28C280.035 68.5787 280.078 68.8133 280.078 68.984L279.566 68.792C279.566 68.792 279.651 68.696 279.822 68.504C279.993 68.312 280.238 68.088 280.558 67.832C280.899 67.576 281.294 67.352 281.742 67.16C282.211 66.968 282.734 66.872 283.31 66.872C283.502 66.872 283.737 66.8933 284.014 66.936C284.313 66.9573 284.622 67.0107 284.942 67.096C285.283 67.1813 285.593 67.3093 285.87 67.48C286.169 67.6507 286.403 67.8747 286.574 68.152C286.766 68.4293 286.862 68.7707 286.862 69.176C286.862 70.2427 286.627 71.1493 286.158 71.896C285.71 72.6427 285.113 73.016 284.366 73.016C283.961 73.016 283.673 72.9947 283.502 72.952C283.331 72.888 283.203 72.8347 283.118 72.792C283.054 72.728 282.969 72.6747 282.862 72.632C282.777 72.568 282.606 72.536 282.35 72.536C282.03 72.536 281.731 72.5787 281.454 72.664C281.198 72.728 280.963 72.8347 280.75 72.984C280.558 73.1333 280.409 73.3147 280.302 73.528C280.195 73.72 280.142 73.9333 280.142 74.168V80.408C280.142 80.8773 280.099 81.336 280.014 81.784C279.929 82.232 279.683 82.5947 279.278 82.872C278.873 83.1493 278.179 83.288 277.198 83.288ZM291.811 83.288C290.851 83.288 290.168 83.1493 289.763 82.872C289.357 82.5733 289.112 82.2 289.027 81.752C288.963 81.304 288.931 80.8453 288.931 80.376V69.944C288.931 69.4747 288.973 69.0267 289.059 68.6C289.144 68.152 289.389 67.7893 289.795 67.512C290.2 67.2133 290.883 67.064 291.843 67.064C292.803 67.064 293.475 67.2133 293.859 67.512C294.264 67.7893 294.509 68.152 294.595 68.6C294.68 69.048 294.723 69.5173 294.723 70.008V80.408C294.723 80.8773 294.68 81.336 294.595 81.784C294.509 82.232 294.264 82.5947 293.859 82.872C293.475 83.1493 292.792 83.288 291.811 83.288ZM291.811 65.496C290.851 65.496 290.168 65.3573 289.763 65.08C289.357 64.7813 289.112 64.408 289.027 63.96C288.963 63.512 288.931 63.0533 288.931 62.584C288.931 62.0933 288.973 61.6347 289.059 61.208C289.144 60.76 289.389 60.3973 289.795 60.12C290.2 59.8427 290.883 59.704 291.843 59.704C292.803 59.704 293.475 59.8533 293.859 60.152C294.264 60.4293 294.509 60.792 294.595 61.24C294.68 61.688 294.723 62.1467 294.723 62.616C294.723 63.0853 294.68 63.544 294.595 63.992C294.509 64.44 294.264 64.8027 293.859 65.08C293.475 65.3573 292.792 65.496 291.811 65.496Z" fill="white"/>
<path d="M365.061 116.839C364.821 116.839 364.635 116.799 364.501 116.719C364.368 116.652 364.281 116.552 364.241 116.419C364.215 116.285 364.201 116.125 364.201 115.939V108.039C364.201 107.852 364.221 107.692 364.261 107.559C364.301 107.425 364.381 107.325 364.501 107.259C364.635 107.192 364.828 107.159 365.081 107.159C365.348 107.159 365.541 107.199 365.661 107.279C365.781 107.345 365.861 107.445 365.901 107.579C365.941 107.712 365.961 107.879 365.961 108.079V115.959C365.961 116.145 365.941 116.305 365.901 116.439C365.861 116.572 365.775 116.672 365.641 116.739C365.521 116.805 365.328 116.839 365.061 116.839ZM365.061 103.179C365.128 103.179 365.181 103.185 365.221 103.199C365.275 103.212 365.328 103.232 365.381 103.259L367.521 104.259C367.788 104.352 367.955 104.485 368.021 104.659C368.088 104.832 368.055 105.045 367.921 105.299C367.801 105.525 367.668 105.679 367.521 105.759C367.388 105.839 367.241 105.839 367.081 105.759L365.061 104.739L363.061 105.739C362.901 105.819 362.755 105.819 362.621 105.739C362.475 105.645 362.341 105.485 362.221 105.259C362.088 105.005 362.055 104.805 362.121 104.659C362.188 104.499 362.355 104.365 362.621 104.259L364.741 103.259C364.795 103.232 364.841 103.212 364.881 103.199C364.935 103.185 364.995 103.179 365.061 103.179ZM369.825 116.819C369.572 116.819 369.379 116.779 369.245 116.699C369.125 116.632 369.045 116.532 369.005 116.399C368.979 116.265 368.965 116.105 368.965 115.919V107.979C368.965 107.805 368.985 107.659 369.025 107.539C369.065 107.419 369.145 107.325 369.265 107.259C369.399 107.192 369.592 107.159 369.845 107.159C370.045 107.159 370.199 107.185 370.305 107.239C370.425 107.279 370.505 107.339 370.545 107.419C370.599 107.499 370.632 107.585 370.645 107.679C370.659 107.772 370.665 107.859 370.665 107.939L370.625 108.859C370.759 108.632 370.925 108.419 371.125 108.219C371.325 108.005 371.559 107.819 371.825 107.659C372.092 107.485 372.379 107.352 372.685 107.259C373.005 107.165 373.345 107.119 373.705 107.119C374.292 107.119 374.832 107.225 375.325 107.439C375.819 107.639 376.239 107.939 376.585 108.339C376.945 108.725 377.219 109.192 377.405 109.739C377.605 110.285 377.705 110.905 377.705 111.599V115.939C377.705 116.125 377.685 116.285 377.645 116.419C377.619 116.552 377.539 116.652 377.405 116.719C377.285 116.785 377.099 116.819 376.845 116.819C376.579 116.819 376.379 116.779 376.245 116.699C376.125 116.632 376.045 116.532 376.005 116.399C375.965 116.265 375.945 116.105 375.945 115.919V111.579C375.945 111.019 375.852 110.532 375.665 110.119C375.479 109.705 375.199 109.385 374.825 109.159C374.452 108.919 373.979 108.799 373.405 108.799C372.859 108.799 372.379 108.919 371.965 109.159C371.565 109.385 371.252 109.705 371.025 110.119C370.812 110.532 370.705 111.019 370.705 111.579V115.939C370.705 116.125 370.685 116.285 370.645 116.419C370.605 116.552 370.519 116.652 370.385 116.719C370.265 116.785 370.079 116.819 369.825 116.819ZM383.898 116.939C383.578 116.939 383.245 116.905 382.898 116.839C382.551 116.772 382.211 116.679 381.878 116.559C381.558 116.425 381.271 116.272 381.018 116.099C380.778 115.925 380.598 115.732 380.478 115.519C380.411 115.385 380.371 115.265 380.358 115.159C380.345 115.039 380.365 114.925 380.418 114.819C380.471 114.712 380.551 114.605 380.658 114.499C380.791 114.339 380.925 114.265 381.058 114.279C381.191 114.279 381.358 114.365 381.558 114.539C381.705 114.632 381.878 114.739 382.078 114.859C382.278 114.965 382.485 115.065 382.698 115.159C382.911 115.239 383.125 115.312 383.338 115.379C383.565 115.432 383.785 115.459 383.998 115.459C384.611 115.459 385.105 115.345 385.478 115.119C385.851 114.879 386.038 114.565 386.038 114.179C386.038 113.952 385.991 113.759 385.898 113.599C385.805 113.439 385.678 113.305 385.518 113.199C385.358 113.079 385.178 112.979 384.978 112.899C384.778 112.819 384.551 112.745 384.298 112.679C384.058 112.599 383.818 112.525 383.578 112.459C383.218 112.365 382.865 112.259 382.518 112.139C382.171 112.019 381.858 111.865 381.578 111.679C381.298 111.479 381.071 111.232 380.898 110.939C380.725 110.632 380.638 110.245 380.638 109.779C380.638 109.232 380.778 108.759 381.058 108.359C381.338 107.959 381.731 107.652 382.238 107.439C382.745 107.212 383.338 107.099 384.018 107.099C384.311 107.099 384.585 107.119 384.838 107.159C385.091 107.199 385.331 107.265 385.558 107.359C385.798 107.439 386.025 107.539 386.238 107.659C386.451 107.765 386.658 107.899 386.858 108.059C387.098 108.219 387.225 108.392 387.238 108.579C387.251 108.765 387.178 108.959 387.018 109.159C386.898 109.332 386.765 109.445 386.618 109.499C386.471 109.539 386.325 109.499 386.178 109.379C385.965 109.219 385.738 109.079 385.498 108.959C385.258 108.839 385.011 108.739 384.758 108.659C384.505 108.579 384.245 108.539 383.978 108.539C383.645 108.539 383.345 108.592 383.078 108.699C382.825 108.792 382.625 108.939 382.478 109.139C382.345 109.325 382.278 109.539 382.278 109.779C382.278 109.992 382.331 110.165 382.438 110.299C382.558 110.432 382.705 110.545 382.878 110.639C383.065 110.732 383.278 110.819 383.518 110.899C383.771 110.965 384.031 111.032 384.298 111.099C384.685 111.192 385.078 111.305 385.478 111.439C385.891 111.559 386.258 111.725 386.578 111.939C386.911 112.139 387.178 112.412 387.378 112.759C387.591 113.092 387.698 113.539 387.698 114.099C387.698 114.979 387.351 115.672 386.658 116.179C385.965 116.685 385.045 116.939 383.898 116.939ZM395.018 116.879C394.324 116.879 393.671 116.765 393.058 116.539C392.458 116.312 391.924 115.985 391.458 115.559C391.004 115.132 390.644 114.625 390.378 114.039C390.124 113.439 389.998 112.759 389.998 111.999C389.998 111.239 390.124 110.565 390.378 109.979C390.644 109.379 391.004 108.865 391.458 108.439C391.911 108.012 392.438 107.685 393.038 107.459C393.651 107.232 394.298 107.119 394.978 107.119C395.431 107.119 395.878 107.192 396.318 107.339C396.758 107.472 397.144 107.652 397.478 107.879C397.824 108.092 398.071 108.319 398.218 108.559C398.351 108.732 398.444 108.879 398.498 108.999C398.564 109.105 398.571 109.232 398.518 109.379C398.464 109.485 398.391 109.585 398.298 109.679C398.204 109.759 398.111 109.825 398.018 109.879C397.778 110.065 397.538 110.092 397.298 109.959C397.151 109.812 396.984 109.679 396.798 109.559C396.624 109.425 396.438 109.305 396.238 109.199C396.038 109.092 395.831 109.012 395.618 108.959C395.418 108.892 395.204 108.859 394.978 108.859C394.351 108.859 393.798 108.992 393.318 109.259C392.838 109.512 392.464 109.879 392.198 110.359C391.944 110.825 391.818 111.372 391.818 111.999C391.818 112.625 391.944 113.172 392.198 113.639C392.464 114.105 392.831 114.472 393.298 114.739C393.778 115.005 394.324 115.139 394.938 115.139C395.218 115.139 395.484 115.105 395.738 115.039C396.004 114.959 396.251 114.859 396.478 114.739C396.704 114.605 396.891 114.465 397.038 114.319C397.171 114.225 397.284 114.145 397.378 114.079C397.471 114.012 397.584 113.979 397.718 113.979C397.824 113.979 397.938 114.025 398.058 114.119C398.178 114.199 398.304 114.325 398.438 114.499C398.544 114.619 398.604 114.745 398.618 114.879C398.644 115.012 398.624 115.139 398.558 115.259C398.491 115.379 398.384 115.499 398.238 115.619C398.024 115.832 397.738 116.039 397.378 116.239C397.031 116.425 396.651 116.579 396.238 116.699C395.824 116.819 395.418 116.879 395.018 116.879ZM402.094 116.839C401.841 116.839 401.647 116.799 401.514 116.719C401.394 116.652 401.314 116.552 401.274 116.419C401.247 116.272 401.234 116.105 401.234 115.919V108.039C401.234 107.839 401.254 107.672 401.294 107.539C401.334 107.405 401.414 107.312 401.534 107.259C401.654 107.192 401.847 107.159 402.114 107.159C402.354 107.159 402.534 107.192 402.654 107.259C402.787 107.312 402.874 107.399 402.914 107.519C402.967 107.625 402.994 107.752 402.994 107.899L402.914 108.499C403.007 108.325 403.114 108.152 403.234 107.979C403.367 107.805 403.527 107.652 403.714 107.519C403.914 107.372 404.147 107.252 404.414 107.159C404.694 107.065 405.034 107.019 405.434 107.019C405.634 107.019 405.821 107.039 405.994 107.079C406.181 107.105 406.354 107.152 406.514 107.219C406.687 107.285 406.834 107.365 406.954 107.459C407.074 107.539 407.167 107.632 407.234 107.739C407.314 107.832 407.354 107.945 407.354 108.079C407.354 108.372 407.261 108.625 407.074 108.839C406.887 109.039 406.694 109.139 406.494 109.139C406.321 109.139 406.194 109.119 406.114 109.079C406.034 109.025 405.954 108.972 405.874 108.919C405.807 108.865 405.707 108.819 405.574 108.779C405.441 108.725 405.227 108.699 404.934 108.699C404.734 108.699 404.521 108.739 404.294 108.819C404.081 108.899 403.874 109.019 403.674 109.179C403.474 109.325 403.307 109.519 403.174 109.759C403.054 109.999 402.994 110.279 402.994 110.599V115.959C402.994 116.145 402.974 116.305 402.934 116.439C402.894 116.572 402.807 116.672 402.674 116.739C402.554 116.805 402.361 116.839 402.094 116.839ZM410.919 116.839C410.666 116.839 410.472 116.799 410.339 116.719C410.219 116.652 410.139 116.552 410.099 116.419C410.059 116.285 410.039 116.125 410.039 115.939V108.039C410.039 107.852 410.059 107.692 410.099 107.559C410.139 107.425 410.219 107.325 410.339 107.259C410.472 107.192 410.672 107.159 410.939 107.159C411.192 107.159 411.379 107.199 411.499 107.279C411.619 107.345 411.699 107.445 411.739 107.579C411.779 107.712 411.799 107.879 411.799 108.079V115.959C411.799 116.145 411.779 116.305 411.739 116.439C411.699 116.572 411.612 116.672 411.479 116.739C411.359 116.805 411.172 116.839 410.919 116.839ZM410.919 104.759C410.626 104.759 410.406 104.719 410.259 104.639C410.112 104.545 410.012 104.419 409.959 104.259C409.919 104.099 409.899 103.912 409.899 103.699C409.899 103.485 409.926 103.305 409.979 103.159C410.032 102.999 410.132 102.885 410.279 102.819C410.426 102.739 410.646 102.699 410.939 102.699C411.219 102.699 411.432 102.739 411.579 102.819C411.726 102.899 411.819 103.019 411.859 103.179C411.912 103.339 411.939 103.525 411.939 103.739C411.939 103.952 411.912 104.139 411.859 104.299C411.819 104.445 411.726 104.559 411.579 104.639C411.432 104.719 411.212 104.759 410.919 104.759ZM422.432 113.679C422.432 114.372 422.258 114.952 421.912 115.419C421.565 115.885 421.072 116.239 420.432 116.479C419.792 116.719 419.032 116.839 418.152 116.839C417.405 116.839 416.758 116.779 416.212 116.659C415.678 116.539 415.205 116.372 414.792 116.159V114.559C415.218 114.772 415.732 114.972 416.332 115.159C416.945 115.332 417.565 115.419 418.192 115.419C419.085 115.419 419.732 115.279 420.132 114.999C420.532 114.705 420.732 114.319 420.732 113.839C420.732 113.572 420.658 113.332 420.512 113.119C420.365 112.905 420.098 112.692 419.712 112.479C419.338 112.265 418.798 112.025 418.092 111.759C417.398 111.492 416.805 111.225 416.312 110.959C415.818 110.692 415.438 110.372 415.172 109.999C414.905 109.625 414.772 109.145 414.772 108.559C414.772 107.652 415.138 106.952 415.872 106.459C416.618 105.965 417.592 105.719 418.792 105.719C419.445 105.719 420.052 105.785 420.612 105.919C421.185 106.039 421.718 106.212 422.212 106.439L421.612 107.839C421.318 107.705 421.005 107.592 420.672 107.499C420.352 107.392 420.025 107.312 419.692 107.259C419.358 107.192 419.018 107.159 418.672 107.159C417.952 107.159 417.398 107.279 417.012 107.519C416.638 107.745 416.452 108.059 416.452 108.459C416.452 108.752 416.538 109.005 416.712 109.219C416.885 109.419 417.172 109.619 417.572 109.819C417.985 110.005 418.532 110.232 419.212 110.499C419.892 110.752 420.472 111.012 420.952 111.279C421.432 111.545 421.798 111.872 422.052 112.259C422.305 112.632 422.432 113.105 422.432 113.679ZM419.832 118.039C419.778 118.279 419.665 118.579 419.492 118.939C419.332 119.312 419.138 119.685 418.912 120.059C418.698 120.432 418.472 120.765 418.232 121.059H417.272V120.819C417.378 120.592 417.485 120.299 417.592 119.939C417.712 119.592 417.818 119.225 417.912 118.839C418.005 118.465 418.065 118.139 418.092 117.859H419.832V118.039ZM426.182 116.839C425.928 116.839 425.735 116.799 425.602 116.719C425.482 116.652 425.402 116.552 425.362 116.419C425.322 116.285 425.302 116.125 425.302 115.939V108.039C425.302 107.852 425.322 107.692 425.362 107.559C425.402 107.425 425.482 107.325 425.602 107.259C425.735 107.192 425.935 107.159 426.202 107.159C426.455 107.159 426.642 107.199 426.762 107.279C426.882 107.345 426.962 107.445 427.002 107.579C427.042 107.712 427.062 107.879 427.062 108.079V115.959C427.062 116.145 427.042 116.305 427.002 116.439C426.962 116.572 426.875 116.672 426.742 116.739C426.622 116.805 426.435 116.839 426.182 116.839ZM426.182 104.759C425.888 104.759 425.668 104.719 425.522 104.639C425.375 104.545 425.275 104.419 425.222 104.259C425.182 104.099 425.162 103.912 425.162 103.699C425.162 103.485 425.188 103.305 425.242 103.159C425.295 102.999 425.395 102.885 425.542 102.819C425.688 102.739 425.908 102.699 426.202 102.699C426.482 102.699 426.695 102.739 426.842 102.819C426.988 102.899 427.082 103.019 427.122 103.179C427.175 103.339 427.202 103.525 427.202 103.739C427.202 103.952 427.175 104.139 427.122 104.299C427.082 104.445 426.988 104.559 426.842 104.639C426.695 104.719 426.475 104.759 426.182 104.759Z" fill="white"/>
<path d="M369.967 47.672C368.281 47.672 366.831 47.3093 365.615 46.584C364.42 45.8373 363.492 44.7813 362.831 43.416C362.191 42.0293 361.871 40.3867 361.871 38.488C361.871 36.8667 362.063 35.3627 362.447 33.976C362.831 32.5893 363.375 31.3413 364.079 30.232C364.804 29.1013 365.668 28.1413 366.671 27.352C367.695 26.5627 368.836 25.9547 370.095 25.528C371.375 25.1013 372.751 24.888 374.223 24.888C374.692 24.888 375.14 24.9307 375.567 25.016C375.993 25.1013 376.345 25.3467 376.623 25.752C376.9 26.1573 377.039 26.8507 377.039 27.832C377.039 28.792 376.889 29.4747 376.591 29.88C376.313 30.2853 375.951 30.5307 375.503 30.616C375.055 30.7013 374.585 30.744 374.095 30.744C373.135 30.744 372.313 30.872 371.631 31.128C370.969 31.384 370.415 31.704 369.967 32.088C369.54 32.472 369.199 32.856 368.943 33.24C368.687 33.624 368.505 33.944 368.399 34.2C368.313 34.456 368.271 34.584 368.271 34.584L367.887 34.232C367.887 34.232 367.993 34.1893 368.207 34.104C368.441 33.9973 368.729 33.9013 369.071 33.816C369.433 33.7307 369.807 33.688 370.191 33.688C371.535 33.688 372.772 33.9973 373.903 34.616C375.033 35.2347 375.94 36.0453 376.623 37.048C377.305 38.0507 377.647 39.1493 377.647 40.344C377.647 41.7093 377.305 42.9467 376.623 44.056C375.94 45.1653 375.012 46.0507 373.839 46.712C372.687 47.352 371.396 47.672 369.967 47.672ZM369.839 42.2C370.308 42.2 370.692 42.1467 370.991 42.04C371.289 41.912 371.503 41.72 371.631 41.464C371.78 41.208 371.855 40.888 371.855 40.504C371.855 40.184 371.78 39.9067 371.631 39.672C371.481 39.4373 371.268 39.256 370.991 39.128C370.713 39 370.393 38.936 370.031 38.936C369.604 38.936 369.22 39 368.879 39.128C368.559 39.256 368.313 39.4373 368.143 39.672C367.972 39.8853 367.887 40.1413 367.887 40.44C367.887 40.8453 367.951 41.1867 368.079 41.464C368.207 41.72 368.409 41.912 368.687 42.04C368.985 42.1467 369.369 42.2 369.839 42.2ZM387.902 47.704C386.409 47.704 385.139 47.448 384.094 46.936C383.07 46.4027 382.238 45.7093 381.598 44.856C380.958 44.0027 380.457 43.064 380.094 42.04C379.753 41.016 379.518 39.992 379.39 38.968C379.262 37.9227 379.198 36.9733 379.198 36.12C379.198 35.352 379.262 34.4667 379.39 33.464C379.518 32.4613 379.742 31.448 380.062 30.424C380.403 29.3787 380.894 28.4187 381.534 27.544C382.174 26.648 383.006 25.9333 384.03 25.4C385.075 24.8453 386.345 24.568 387.838 24.568C389.289 24.568 390.515 24.8347 391.518 25.368C392.542 25.9013 393.363 26.6053 393.982 27.48C394.622 28.3333 395.113 29.2827 395.454 30.328C395.817 31.352 396.062 32.376 396.19 33.4C396.318 34.424 396.382 35.3413 396.382 36.152C396.382 37.0053 396.307 37.9547 396.158 39C396.03 40.024 395.785 41.048 395.422 42.072C395.081 43.096 394.59 44.0347 393.95 44.888C393.331 45.7413 392.521 46.424 391.518 46.936C390.537 47.448 389.331 47.704 387.902 47.704ZM387.774 41.816C388.329 41.816 388.777 41.688 389.118 41.432C389.459 41.1547 389.726 40.8027 389.918 40.376C390.11 39.9493 390.249 39.4907 390.334 39C390.419 38.488 390.473 37.9973 390.494 37.528C390.515 37.0373 390.526 36.6213 390.526 36.28V36.12C390.526 34.8827 390.419 33.848 390.206 33.016C390.014 32.1627 389.715 31.5227 389.31 31.096C388.926 30.648 388.425 30.424 387.806 30.424C387.166 30.424 386.643 30.6373 386.238 31.064C385.833 31.4907 385.534 32.1307 385.342 32.984C385.15 33.8373 385.054 34.8933 385.054 36.152C385.054 37.368 385.15 38.4027 385.342 39.256C385.555 40.088 385.865 40.728 386.27 41.176C386.675 41.6027 387.177 41.816 387.774 41.816ZM406.636 47.704C405.142 47.704 403.873 47.448 402.828 46.936C401.804 46.4027 400.972 45.7093 400.332 44.856C399.692 44.0027 399.19 43.064 398.828 42.04C398.486 41.016 398.252 39.992 398.124 38.968C397.996 37.9227 397.932 36.9733 397.932 36.12C397.932 35.352 397.996 34.4667 398.124 33.464C398.252 32.4613 398.476 31.448 398.796 30.424C399.137 29.3787 399.628 28.4187 400.268 27.544C400.908 26.648 401.74 25.9333 402.764 25.4C403.809 24.8453 405.078 24.568 406.572 24.568C408.022 24.568 409.249 24.8347 410.252 25.368C411.276 25.9013 412.097 26.6053 412.716 27.48C413.356 28.3333 413.846 29.2827 414.188 30.328C414.55 31.352 414.796 32.376 414.924 33.4C415.052 34.424 415.116 35.3413 415.116 36.152C415.116 37.0053 415.041 37.9547 414.892 39C414.764 40.024 414.518 41.048 414.156 42.072C413.814 43.096 413.324 44.0347 412.684 44.888C412.065 45.7413 411.254 46.424 410.252 46.936C409.27 47.448 408.065 47.704 406.636 47.704ZM406.508 41.816C407.062 41.816 407.51 41.688 407.852 41.432C408.193 41.1547 408.46 40.8027 408.652 40.376C408.844 39.9493 408.982 39.4907 409.068 39C409.153 38.488 409.206 37.9973 409.228 37.528C409.249 37.0373 409.26 36.6213 409.26 36.28V36.12C409.26 34.8827 409.153 33.848 408.94 33.016C408.748 32.1627 408.449 31.5227 408.044 31.096C407.66 30.648 407.158 30.424 406.54 30.424C405.9 30.424 405.377 30.6373 404.972 31.064C404.566 31.4907 404.268 32.1307 404.076 32.984C403.884 33.8373 403.788 34.8933 403.788 36.152C403.788 37.368 403.884 38.4027 404.076 39.256C404.289 40.088 404.598 40.728 405.004 41.176C405.409 41.6027 405.91 41.816 406.508 41.816ZM362.748 87.448C361.873 87.448 360.945 87.2773 359.964 86.936C359.004 86.5733 358.097 86.0507 357.244 85.368C356.39 84.664 355.697 83.7893 355.164 82.744C354.63 81.6987 354.364 80.4827 354.364 79.096C354.364 77.7307 354.63 76.536 355.164 75.512C355.697 74.4667 356.38 73.6027 357.212 72.92C358.065 72.2373 358.972 71.7253 359.932 71.384C360.913 71.0213 361.83 70.84 362.684 70.84C363.494 70.84 364.198 70.9253 364.796 71.096C365.393 71.2667 365.884 71.4587 366.268 71.672C366.652 71.864 366.929 72.0133 367.1 72.12C367.526 72.376 367.921 72.6747 368.284 73.016C368.668 73.336 368.86 73.7733 368.86 74.328C368.86 74.6053 368.806 74.8933 368.7 75.192C368.593 75.4693 368.422 75.7893 368.188 76.152C367.42 77.3253 366.652 77.912 365.884 77.912C365.542 77.912 365.244 77.8587 364.988 77.752C364.732 77.624 364.497 77.4853 364.284 77.336C364.07 77.1867 363.836 77.0587 363.58 76.952C363.345 76.824 363.046 76.76 362.684 76.76C362.257 76.76 361.862 76.8667 361.5 77.08C361.137 77.2933 360.849 77.5813 360.636 77.944C360.422 78.2853 360.316 78.68 360.316 79.128C360.316 79.576 360.422 79.9813 360.636 80.344C360.849 80.7067 361.126 80.9947 361.468 81.208C361.83 81.4213 362.214 81.528 362.62 81.528C362.918 81.528 363.164 81.496 363.356 81.432C363.569 81.368 363.729 81.304 363.836 81.24C363.942 81.1547 364.006 81.112 364.028 81.112C364.326 80.9413 364.604 80.7813 364.86 80.632C365.137 80.4827 365.414 80.408 365.692 80.408C366.054 80.408 366.428 80.5467 366.812 80.824C367.196 81.08 367.622 81.5067 368.092 82.104C368.54 82.6587 368.785 83.1813 368.828 83.672C368.892 84.1413 368.774 84.5893 368.476 85.016C368.177 85.4213 367.718 85.816 367.1 86.2C367.036 86.2427 366.812 86.3707 366.428 86.584C366.065 86.776 365.574 86.968 364.956 87.16C364.337 87.352 363.601 87.448 362.748 87.448ZM379.258 87.576C378.276 87.576 377.284 87.384 376.282 87C375.279 86.5947 374.351 86.0293 373.498 85.304C372.666 84.5573 371.994 83.672 371.482 82.648C370.991 81.6027 370.746 80.44 370.746 79.16C370.746 77.9867 370.97 76.888 371.418 75.864C371.866 74.84 372.474 73.944 373.242 73.176C374.031 72.3867 374.927 71.768 375.93 71.32C376.954 70.872 378.042 70.648 379.194 70.648C380.772 70.648 382.202 71.032 383.482 71.8C384.762 72.5467 385.786 73.56 386.554 74.84C387.322 76.12 387.706 77.5493 387.706 79.128C387.706 80.472 387.45 81.6667 386.938 82.712C386.426 83.7573 385.754 84.6427 384.922 85.368C384.09 86.0933 383.172 86.6373 382.17 87C381.188 87.384 380.218 87.576 379.258 87.576ZM379.194 81.72C379.514 81.72 379.876 81.6453 380.282 81.496C380.708 81.3253 381.071 81.048 381.37 80.664C381.69 80.28 381.85 79.7573 381.85 79.096C381.85 78.5627 381.732 78.104 381.498 77.72C381.284 77.336 380.975 77.0373 380.57 76.824C380.164 76.6107 379.695 76.504 379.162 76.504C378.692 76.504 378.266 76.6213 377.882 76.856C377.498 77.0693 377.188 77.3787 376.954 77.784C376.719 78.168 376.602 78.616 376.602 79.128C376.602 79.768 376.751 80.28 377.05 80.664C377.348 81.048 377.7 81.3253 378.106 81.496C378.511 81.6453 378.874 81.72 379.194 81.72ZM398.381 86.904C397.336 86.904 396.429 86.6907 395.661 86.264C394.893 85.8373 394.264 85.2613 393.773 84.536C393.283 83.7893 392.92 82.9467 392.685 82.008C392.451 81.0693 392.344 80.0773 392.365 79.032C392.387 78.008 392.515 77.016 392.749 76.056C393.005 75.096 393.379 74.2427 393.869 73.496C394.36 72.7493 394.979 72.1627 395.725 71.736C396.472 71.288 397.357 71.064 398.381 71.064C399.32 71.064 400.227 71.288 401.101 71.736C401.997 72.184 402.797 72.792 403.501 73.56C404.205 74.3067 404.76 75.16 405.165 76.12C405.571 77.08 405.773 78.072 405.773 79.096C405.773 80.1627 405.571 81.176 405.165 82.136C404.76 83.0747 404.205 83.9067 403.501 84.632C402.819 85.336 402.029 85.8907 401.133 86.296C400.259 86.7013 399.341 86.904 398.381 86.904ZM392.461 94.072C391.523 94.072 390.851 93.9333 390.445 93.656C390.04 93.3787 389.795 93.0267 389.709 92.6C389.645 92.1733 389.613 91.7253 389.613 91.256V73.88C389.613 73.4107 389.645 72.9627 389.709 72.536C389.795 72.1093 390.029 71.7573 390.413 71.48C390.819 71.1813 391.491 71.032 392.429 71.032C393.176 71.032 393.795 71.1387 394.285 71.352C394.776 71.544 395.128 71.8533 395.341 72.28V91.224C395.384 91.6933 395.352 92.1413 395.245 92.568C395.16 93.016 394.915 93.3787 394.509 93.656C394.104 93.9333 393.421 94.072 392.461 94.072ZM397.613 81.464C398.04 81.464 398.424 81.3573 398.765 81.144C399.128 80.9307 399.416 80.6533 399.629 80.312C399.843 79.9493 399.949 79.5653 399.949 79.16C399.949 78.7333 399.843 78.3493 399.629 78.008C399.437 77.6453 399.16 77.368 398.797 77.176C398.456 76.9627 398.072 76.856 397.645 76.856C397.219 76.856 396.824 76.9627 396.461 77.176C396.12 77.3893 395.843 77.6667 395.629 78.008C395.437 78.3493 395.341 78.7333 395.341 79.16C395.341 79.5653 395.448 79.9493 395.661 80.312C395.875 80.6533 396.152 80.9307 396.493 81.144C396.835 81.3573 397.208 81.464 397.613 81.464ZM410.734 87.288C409.774 87.288 409.091 87.1493 408.686 86.872C408.28 86.5733 408.035 86.2 407.95 85.752C407.886 85.304 407.854 84.8453 407.854 84.376V73.944C407.854 73.4747 407.896 73.0267 407.982 72.6C408.067 72.152 408.312 71.7893 408.718 71.512C409.123 71.2133 409.806 71.064 410.766 71.064C411.726 71.064 412.398 71.2133 412.782 71.512C413.187 71.7893 413.432 72.152 413.518 72.6C413.603 73.048 413.646 73.5173 413.646 74.008V84.408C413.646 84.8773 413.603 85.336 413.518 85.784C413.432 86.232 413.187 86.5947 412.782 86.872C412.398 87.1493 411.715 87.288 410.734 87.288ZM410.734 69.496C409.774 69.496 409.091 69.3573 408.686 69.08C408.28 68.7813 408.035 68.408 407.95 67.96C407.886 67.512 407.854 67.0533 407.854 66.584C407.854 66.0933 407.896 65.6347 407.982 65.208C408.067 64.76 408.312 64.3973 408.718 64.12C409.123 63.8427 409.806 63.704 410.766 63.704C411.726 63.704 412.398 63.8533 412.782 64.152C413.187 64.4293 413.432 64.792 413.518 65.24C413.603 65.688 413.646 66.1467 413.646 66.616C413.646 67.0853 413.603 67.544 413.518 67.992C413.432 68.44 413.187 68.8027 412.782 69.08C412.398 69.3573 411.715 69.496 410.734 69.496ZM419.405 87.288C418.445 87.288 417.762 87.1493 417.357 86.872C416.952 86.5733 416.706 86.2 416.621 85.752C416.557 85.304 416.525 84.8453 416.525 84.376V73.944C416.525 73.4747 416.568 73.0267 416.653 72.6C416.738 72.152 416.984 71.7893 417.389 71.512C417.794 71.2133 418.477 71.064 419.437 71.064C420.397 71.064 421.069 71.2133 421.453 71.512C421.858 71.7893 422.104 72.152 422.189 72.6C422.274 73.048 422.317 73.5173 422.317 74.008V84.408C422.317 84.8773 422.274 85.336 422.189 85.784C422.104 86.232 421.858 86.5947 421.453 86.872C421.069 87.1493 420.386 87.288 419.405 87.288ZM419.405 69.496C418.445 69.496 417.762 69.3573 417.357 69.08C416.952 68.7813 416.706 68.408 416.621 67.96C416.557 67.512 416.525 67.0533 416.525 66.584C416.525 66.0933 416.568 65.6347 416.653 65.208C416.738 64.76 416.984 64.3973 417.389 64.12C417.794 63.8427 418.477 63.704 419.437 63.704C420.397 63.704 421.069 63.8533 421.453 64.152C421.858 64.4293 422.104 64.792 422.189 65.24C422.274 65.688 422.317 66.1467 422.317 66.616C422.317 67.0853 422.274 67.544 422.189 67.992C422.104 68.44 421.858 68.8027 421.453 69.08C421.069 69.3573 420.386 69.496 419.405 69.496Z" fill="white"/>
<line x1="178.75" y1="47" x2="178.75" y2="103.386" stroke="#FFE9AD" stroke-width="1.5"/>
<line x1="306.75" y1="46" x2="306.75" y2="102.386" stroke="#FFE9AD" stroke-width="1.5"/>
</svg>
