<svg width="466" height="144" viewBox="0 0 466 144" fill="none" xmlns="http://www.w3.org/2000/svg">
<rect width="466" height="144" rx="32" fill="#FE6788"/>
<line x1="178.75" y1="46" x2="178.75" y2="102.386" stroke="#FDA2B6" stroke-width="1.5"/>
<line x1="312.629" y1="46" x2="312.629" y2="102.386" stroke="#FDA2B6" stroke-width="1.5"/>
<path d="M56.5572 122.879C56.3306 122.879 56.1439 122.845 55.9972 122.779C55.8639 122.712 55.7506 122.592 55.6572 122.419L51.9572 114.359C51.8106 114.039 51.7772 113.799 51.8572 113.639C51.9372 113.465 52.1239 113.305 52.4172 113.159C52.6839 113.025 52.9106 112.985 53.0972 113.039C53.2839 113.079 53.4439 113.252 53.5772 113.559L56.5572 120.659L59.4772 113.759C59.6239 113.452 59.7839 113.232 59.9572 113.099C60.1306 112.965 60.4039 112.992 60.7772 113.179C61.1372 113.352 61.3172 113.552 61.3172 113.779C61.3172 113.992 61.2572 114.225 61.1372 114.479L57.4572 122.399C57.3906 122.559 57.2839 122.679 57.1372 122.759C56.9906 122.839 56.7972 122.879 56.5572 122.879ZM71.141 122.819C70.8476 122.819 70.6343 122.759 70.501 122.639C70.381 122.519 70.3076 122.332 70.281 122.079L70.361 121.079C70.2276 121.292 70.021 121.539 69.741 121.819C69.461 122.085 69.0943 122.325 68.641 122.539C68.1876 122.739 67.6343 122.839 66.981 122.839C66.341 122.839 65.741 122.712 65.181 122.459C64.6343 122.205 64.1476 121.852 63.721 121.399C63.3076 120.945 62.981 120.425 62.741 119.839C62.5143 119.252 62.401 118.625 62.401 117.959C62.401 117.305 62.5143 116.692 62.741 116.119C62.981 115.532 63.3143 115.019 63.741 114.579C64.1676 114.139 64.6543 113.792 65.201 113.539C65.761 113.285 66.3543 113.159 66.981 113.159C67.5676 113.159 68.0676 113.239 68.481 113.399C68.8943 113.545 69.2476 113.745 69.541 113.999C69.8476 114.239 70.1143 114.512 70.341 114.819L70.301 113.979C70.2876 113.685 70.3476 113.479 70.481 113.359C70.6276 113.225 70.8543 113.159 71.161 113.159C71.4143 113.159 71.5943 113.199 71.701 113.279C71.821 113.359 71.901 113.472 71.941 113.619C71.981 113.765 72.001 113.945 72.001 114.159V121.879C72.001 122.065 71.981 122.232 71.941 122.379C71.901 122.525 71.821 122.632 71.701 122.699C71.581 122.779 71.3943 122.819 71.141 122.819ZM67.281 121.159C67.8143 121.159 68.301 121.019 68.741 120.739C69.1943 120.459 69.5476 120.085 69.801 119.619C70.0676 119.139 70.201 118.592 70.201 117.979C70.201 117.352 70.061 116.805 69.781 116.339C69.5143 115.859 69.1543 115.485 68.701 115.219C68.261 114.939 67.7743 114.799 67.241 114.799C66.6143 114.799 66.0676 114.945 65.601 115.239C65.1476 115.519 64.7876 115.899 64.521 116.379C64.2543 116.859 64.121 117.405 64.121 118.019C64.121 118.619 64.2543 119.159 64.521 119.639C64.7876 120.105 65.1543 120.479 65.621 120.759C66.101 121.025 66.6543 121.159 67.281 121.159ZM67.261 109.179C67.3276 109.179 67.381 109.185 67.421 109.199C67.4743 109.212 67.5276 109.232 67.581 109.259L69.721 110.259C69.9876 110.352 70.1543 110.485 70.221 110.659C70.2876 110.832 70.2543 111.045 70.121 111.299C70.001 111.525 69.8676 111.679 69.721 111.759C69.5876 111.839 69.441 111.839 69.281 111.759L67.261 110.739L65.261 111.739C65.101 111.819 64.9476 111.819 64.801 111.739C64.6676 111.645 64.541 111.485 64.421 111.259C64.2876 111.005 64.2543 110.805 64.321 110.659C64.3876 110.499 64.5543 110.365 64.821 110.259L66.941 109.259C66.9943 109.232 67.041 109.212 67.081 109.199C67.1343 109.185 67.1943 109.179 67.261 109.179ZM75.8653 122.839C75.612 122.839 75.4187 122.799 75.2853 122.719C75.1653 122.652 75.0853 122.552 75.0453 122.419C75.0187 122.272 75.0053 122.105 75.0053 121.919V114.039C75.0053 113.839 75.0253 113.672 75.0653 113.539C75.1053 113.405 75.1853 113.312 75.3053 113.259C75.4253 113.192 75.6187 113.159 75.8853 113.159C76.1253 113.159 76.3053 113.192 76.4253 113.259C76.5587 113.312 76.6453 113.399 76.6853 113.519C76.7387 113.625 76.7653 113.752 76.7653 113.899L76.6853 114.499C76.7787 114.325 76.8853 114.152 77.0053 113.979C77.1387 113.805 77.2987 113.652 77.4853 113.519C77.6853 113.372 77.9187 113.252 78.1853 113.159C78.4653 113.065 78.8053 113.019 79.2053 113.019C79.4053 113.019 79.592 113.039 79.7653 113.079C79.952 113.105 80.1253 113.152 80.2853 113.219C80.4587 113.285 80.6053 113.365 80.7253 113.459C80.8453 113.539 80.9387 113.632 81.0053 113.739C81.0853 113.832 81.1253 113.945 81.1253 114.079C81.1253 114.372 81.032 114.625 80.8453 114.839C80.6587 115.039 80.4653 115.139 80.2653 115.139C80.092 115.139 79.9653 115.119 79.8853 115.079C79.8053 115.025 79.7253 114.972 79.6453 114.919C79.5787 114.865 79.4787 114.819 79.3453 114.779C79.212 114.725 78.9987 114.699 78.7053 114.699C78.5053 114.699 78.292 114.739 78.0653 114.819C77.852 114.899 77.6453 115.019 77.4453 115.179C77.2453 115.325 77.0787 115.519 76.9453 115.759C76.8253 115.999 76.7653 116.279 76.7653 116.599V121.959C76.7653 122.145 76.7453 122.305 76.7053 122.439C76.6653 122.572 76.5787 122.672 76.4453 122.739C76.3253 122.805 76.132 122.839 75.8653 122.839ZM86.3835 122.939C86.0635 122.939 85.7301 122.905 85.3835 122.839C85.0368 122.772 84.6968 122.679 84.3635 122.559C84.0435 122.425 83.7568 122.272 83.5035 122.099C83.2635 121.925 83.0835 121.732 82.9635 121.519C82.8968 121.385 82.8568 121.265 82.8435 121.159C82.8301 121.039 82.8501 120.925 82.9035 120.819C82.9568 120.712 83.0368 120.605 83.1435 120.499C83.2768 120.339 83.4101 120.265 83.5435 120.279C83.6768 120.279 83.8435 120.365 84.0435 120.539C84.1901 120.632 84.3635 120.739 84.5635 120.859C84.7635 120.965 84.9701 121.065 85.1835 121.159C85.3968 121.239 85.6101 121.312 85.8235 121.379C86.0501 121.432 86.2701 121.459 86.4835 121.459C87.0968 121.459 87.5901 121.345 87.9635 121.119C88.3368 120.879 88.5235 120.565 88.5235 120.179C88.5235 119.952 88.4768 119.759 88.3835 119.599C88.2901 119.439 88.1635 119.305 88.0035 119.199C87.8435 119.079 87.6635 118.979 87.4635 118.899C87.2635 118.819 87.0368 118.745 86.7835 118.679C86.5435 118.599 86.3035 118.525 86.0635 118.459C85.7035 118.365 85.3501 118.259 85.0035 118.139C84.6568 118.019 84.3435 117.865 84.0635 117.679C83.7835 117.479 83.5568 117.232 83.3835 116.939C83.2101 116.632 83.1235 116.245 83.1235 115.779C83.1235 115.232 83.2635 114.759 83.5435 114.359C83.8235 113.959 84.2168 113.652 84.7235 113.439C85.2301 113.212 85.8235 113.099 86.5035 113.099C86.7968 113.099 87.0701 113.119 87.3235 113.159C87.5768 113.199 87.8168 113.265 88.0435 113.359C88.2835 113.439 88.5101 113.539 88.7235 113.659C88.9368 113.765 89.1435 113.899 89.3435 114.059C89.5835 114.219 89.7101 114.392 89.7235 114.579C89.7368 114.765 89.6635 114.959 89.5035 115.159C89.3835 115.332 89.2501 115.445 89.1035 115.499C88.9568 115.539 88.8101 115.499 88.6635 115.379C88.4501 115.219 88.2235 115.079 87.9835 114.959C87.7435 114.839 87.4968 114.739 87.2435 114.659C86.9901 114.579 86.7301 114.539 86.4635 114.539C86.1301 114.539 85.8301 114.592 85.5635 114.699C85.3101 114.792 85.1101 114.939 84.9635 115.139C84.8301 115.325 84.7635 115.539 84.7635 115.779C84.7635 115.992 84.8168 116.165 84.9235 116.299C85.0435 116.432 85.1901 116.545 85.3635 116.639C85.5501 116.732 85.7635 116.819 86.0035 116.899C86.2568 116.965 86.5168 117.032 86.7835 117.099C87.1701 117.192 87.5635 117.305 87.9635 117.439C88.3768 117.559 88.7435 117.725 89.0635 117.939C89.3968 118.139 89.6635 118.412 89.8635 118.759C90.0768 119.092 90.1835 119.539 90.1835 120.099C90.1835 120.979 89.8368 121.672 89.1435 122.179C88.4501 122.685 87.5301 122.939 86.3835 122.939ZM97.1907 122.839C96.564 122.839 96.0307 122.779 95.5907 122.659C95.164 122.539 94.8107 122.352 94.5307 122.099C94.2507 121.845 94.0507 121.519 93.9307 121.119C93.8107 120.705 93.7507 120.199 93.7507 119.599V110.759C93.7507 110.572 93.7707 110.412 93.8107 110.279C93.8507 110.145 93.9307 110.045 94.0507 109.979C94.1707 109.899 94.3573 109.859 94.6107 109.859C94.864 109.859 95.0573 109.899 95.1907 109.979C95.324 110.045 95.4107 110.145 95.4507 110.279C95.4907 110.399 95.5107 110.552 95.5107 110.739V119.599C95.5107 119.945 95.5373 120.225 95.5907 120.439C95.6573 120.639 95.7507 120.792 95.8707 120.899C96.004 121.005 96.1773 121.072 96.3907 121.099C96.604 121.125 96.864 121.139 97.1707 121.139C97.384 121.139 97.5573 121.159 97.6907 121.199C97.824 121.239 97.924 121.319 97.9907 121.439C98.0573 121.559 98.0907 121.739 98.0907 121.979C98.0907 122.232 98.0507 122.425 97.9707 122.559C97.904 122.679 97.7973 122.752 97.6507 122.779C97.5173 122.819 97.364 122.839 97.1907 122.839ZM92.7107 113.379L94.6307 113.399L97.4107 113.359C97.5973 113.359 97.7573 113.379 97.8907 113.419C98.024 113.445 98.124 113.525 98.1907 113.659C98.2707 113.779 98.3107 113.965 98.3107 114.219C98.3107 114.472 98.2773 114.665 98.2107 114.799C98.144 114.919 98.044 114.999 97.9107 115.039C97.7773 115.079 97.6173 115.099 97.4307 115.099L94.6907 115.059L92.6707 115.079C92.3907 115.079 92.1973 115.012 92.0907 114.879C91.9973 114.745 91.9507 114.525 91.9507 114.219C91.9507 113.925 92.0107 113.712 92.1307 113.579C92.2507 113.445 92.444 113.379 92.7107 113.379ZM108.99 122.819C108.697 122.819 108.484 122.759 108.35 122.639C108.23 122.519 108.157 122.332 108.13 122.079L108.21 121.079C108.077 121.292 107.87 121.539 107.59 121.819C107.31 122.085 106.944 122.325 106.49 122.539C106.037 122.739 105.484 122.839 104.83 122.839C104.19 122.839 103.59 122.712 103.03 122.459C102.484 122.205 101.997 121.852 101.57 121.399C101.157 120.945 100.83 120.425 100.59 119.839C100.364 119.252 100.25 118.625 100.25 117.959C100.25 117.305 100.364 116.692 100.59 116.119C100.83 115.532 101.164 115.019 101.59 114.579C102.017 114.139 102.504 113.792 103.05 113.539C103.61 113.285 104.204 113.159 104.83 113.159C105.417 113.159 105.917 113.239 106.33 113.399C106.744 113.545 107.097 113.745 107.39 113.999C107.697 114.239 107.964 114.512 108.19 114.819L108.15 113.979C108.137 113.685 108.197 113.479 108.33 113.359C108.477 113.225 108.704 113.159 109.01 113.159C109.264 113.159 109.444 113.199 109.55 113.279C109.67 113.359 109.75 113.472 109.79 113.619C109.83 113.765 109.85 113.945 109.85 114.159V121.879C109.85 122.065 109.83 122.232 109.79 122.379C109.75 122.525 109.67 122.632 109.55 122.699C109.43 122.779 109.244 122.819 108.99 122.819ZM105.13 121.159C105.664 121.159 106.15 121.019 106.59 120.739C107.044 120.459 107.397 120.085 107.65 119.619C107.917 119.139 108.05 118.592 108.05 117.979C108.05 117.352 107.91 116.805 107.63 116.339C107.364 115.859 107.004 115.485 106.55 115.219C106.11 114.939 105.624 114.799 105.09 114.799C104.464 114.799 103.917 114.945 103.45 115.239C102.997 115.519 102.637 115.899 102.37 116.379C102.104 116.859 101.97 117.405 101.97 118.019C101.97 118.619 102.104 119.159 102.37 119.639C102.637 120.105 103.004 120.479 103.47 120.759C103.95 121.025 104.504 121.159 105.13 121.159Z" fill="white"/>
<path d="M61.552 49.704C60.5493 49.704 59.664 49.5867 58.896 49.352C58.128 49.1387 57.4773 48.8827 56.944 48.584C56.432 48.2853 56.0373 48.0293 55.76 47.816C55.504 47.5813 55.376 47.464 55.376 47.464C55.056 47.1867 54.768 46.8987 54.512 46.6C54.2773 46.28 54.16 45.9173 54.16 45.512C54.16 45.1707 54.256 44.8293 54.448 44.488C54.64 44.1253 54.9387 43.7413 55.344 43.336C55.664 42.9733 55.984 42.7067 56.304 42.536C56.6453 42.344 56.9867 42.248 57.328 42.248C57.648 42.248 57.968 42.3333 58.288 42.504C58.6293 42.6533 59.0347 42.92 59.504 43.304C59.504 43.304 59.5573 43.3467 59.664 43.432C59.792 43.5173 59.984 43.6027 60.24 43.688C60.5173 43.7733 60.8907 43.816 61.36 43.816C61.808 43.816 62.1813 43.7413 62.48 43.592C62.8 43.4427 63.0347 43.24 63.184 42.984C63.3547 42.7067 63.44 42.376 63.44 41.992C63.44 41.6293 63.3547 41.3093 63.184 41.032C63.0133 40.7547 62.7787 40.5413 62.48 40.392C62.1813 40.2213 61.84 40.136 61.456 40.136C61.2 40.136 60.976 40.168 60.784 40.232C60.6133 40.296 60.4747 40.3707 60.368 40.456C60.2827 40.52 60.2293 40.5627 60.208 40.584C59.9947 40.776 59.7493 40.9573 59.472 41.128C59.1947 41.2773 58.8427 41.352 58.416 41.352C58.096 41.352 57.7653 41.2987 57.424 41.192C57.0827 41.0853 56.72 40.9253 56.336 40.712C55.6533 40.3493 55.1733 40.0293 54.896 39.752C54.64 39.4747 54.512 39.1653 54.512 38.824L55.696 29.736C55.7387 29.416 55.824 29.032 55.952 28.584C56.08 28.1147 56.3467 27.7093 56.752 27.368C57.1573 27.0053 57.7867 26.824 58.64 26.824L65.968 26.856C66.4587 26.856 66.9173 26.8987 67.344 26.984C67.792 27.0693 68.1547 27.3253 68.432 27.752C68.7307 28.1573 68.88 28.8613 68.88 29.864C68.88 30.7813 68.7413 31.4427 68.464 31.848C68.208 32.232 67.8667 32.4667 67.44 32.552C67.0133 32.616 66.576 32.648 66.128 32.648H61.2L60.976 34.344C61.04 34.3227 61.104 34.312 61.168 34.312C61.232 34.312 61.2853 34.312 61.328 34.312C61.392 34.2907 61.456 34.28 61.52 34.28H61.68C62.6827 34.28 63.6427 34.4827 64.56 34.888C65.4773 35.272 66.288 35.816 66.992 36.52C67.7173 37.224 68.2827 38.024 68.688 38.92C69.1147 39.816 69.328 40.7653 69.328 41.768C69.328 43.2613 68.9867 44.6053 68.304 45.8C67.6213 46.9947 66.6933 47.944 65.52 48.648C64.3467 49.352 63.024 49.704 61.552 49.704ZM73.3012 43.432C72.9812 43.432 72.6292 43.4 72.2452 43.336C71.8612 43.2507 71.5306 43.0267 71.2532 42.664C70.9972 42.28 70.8692 41.64 70.8692 40.744C70.8692 39.8693 71.0079 39.2613 71.2852 38.92C71.5626 38.5573 71.8932 38.344 72.2772 38.28C72.6612 38.1947 73.0132 38.152 73.3332 38.152H80.4052C80.7466 38.152 81.1092 38.1947 81.4932 38.28C81.8773 38.344 82.1973 38.5573 82.4532 38.92C82.7306 39.2827 82.8693 39.9013 82.8693 40.776C82.8693 41.6507 82.7413 42.28 82.4852 42.664C82.2292 43.0267 81.9092 43.2507 81.5252 43.336C81.1626 43.4 80.7892 43.432 80.4052 43.432H73.3012ZM92.2555 49.352C91.1888 49.352 90.4422 49.1387 90.0155 48.712C89.5888 48.2853 89.3755 47.528 89.3755 46.44V29.768C89.3755 28.7013 89.5888 27.9547 90.0155 27.528C90.4422 27.1013 91.1995 26.888 92.2875 26.888C93.3542 26.888 94.1008 27.112 94.5275 27.56C94.9542 27.9867 95.1675 28.744 95.1675 29.832V46.472C95.1675 47.5387 94.9542 48.2853 94.5275 48.712C94.1008 49.1387 93.3435 49.352 92.2555 49.352ZM89.0555 35.912C88.3302 36.552 87.6688 36.8613 87.0715 36.84C86.4955 36.8187 85.8662 36.4453 85.1835 35.72C84.4795 34.9733 84.1488 34.2693 84.1915 33.608C84.2342 32.9467 84.6822 32.2427 85.5355 31.496L89.5995 27.848C90.3035 27.208 90.9542 26.92 91.5515 26.984C92.1702 27.0267 92.8102 27.4107 93.4715 28.136C94.1542 28.8613 94.4635 29.5547 94.3995 30.216C94.3568 30.856 93.9088 31.56 93.0555 32.328L89.0555 35.912ZM110.492 49.256C109.532 49.256 108.85 49.1173 108.444 48.84C108.039 48.5413 107.794 48.168 107.708 47.72C107.623 47.2507 107.58 46.7813 107.58 46.312V42.984H99.8045C98.8445 42.984 98.1618 42.8453 97.7565 42.568C97.3512 42.2693 97.1058 41.896 97.0205 41.448C96.9352 40.9787 96.8925 40.5093 96.8925 40.04C96.8925 39.8053 96.8925 39.6133 96.8925 39.464C96.9138 39.3147 96.9458 39.1653 96.9885 39.016L99.4525 29.064C99.7298 27.8907 100.135 27.1867 100.668 26.952C101.202 26.7173 102.002 26.728 103.068 26.984C103.858 27.1973 104.466 27.5067 104.892 27.912C105.34 28.296 105.5 28.7653 105.372 29.32L103.388 37.48H107.58V29.64C107.58 29.1707 107.623 28.7333 107.708 28.328C107.794 27.9013 108.039 27.5493 108.444 27.272C108.871 26.9947 109.575 26.856 110.556 26.856C111.516 26.856 112.199 27.0053 112.604 27.304C113.01 27.5813 113.255 27.944 113.34 28.392C113.426 28.84 113.468 29.3093 113.468 29.8V46.344C113.468 46.8347 113.415 47.304 113.308 47.752C113.223 48.2 112.978 48.5627 112.572 48.84C112.167 49.1173 111.474 49.256 110.492 49.256ZM67.952 89.224C66.992 89.224 66.2773 89.064 65.808 88.744C65.36 88.424 65.1467 88.0613 65.168 87.656H65.616C65.5093 87.8053 65.296 88.008 64.976 88.264C64.6773 88.4987 64.272 88.7227 63.76 88.936C63.248 89.128 62.6187 89.224 61.872 89.224C60.912 89.224 59.984 89.0107 59.088 88.584C58.2133 88.136 57.424 87.528 56.72 86.76C56.0373 85.992 55.4933 85.128 55.088 84.168C54.6827 83.1867 54.48 82.1627 54.48 81.096C54.48 80.0507 54.6827 79.048 55.088 78.088C55.4933 77.128 56.048 76.2747 56.752 75.528C57.456 74.76 58.2453 74.1627 59.12 73.736C59.9947 73.288 60.912 73.064 61.872 73.064C62.5973 73.064 63.2053 73.1707 63.696 73.384C64.208 73.5973 64.6133 73.832 64.912 74.088C65.232 74.344 65.4453 74.5573 65.552 74.728H65.2C65.1787 74.1947 65.392 73.7787 65.84 73.48C66.3093 73.1813 67.024 73.032 67.984 73.032C68.944 73.032 69.616 73.1813 70 73.48C70.4053 73.7573 70.6507 74.12 70.736 74.568C70.8213 75.016 70.864 75.4747 70.864 75.944V86.344C70.864 86.8133 70.8213 87.272 70.736 87.72C70.6507 88.168 70.4053 88.5307 70 88.808C69.616 89.0853 68.9333 89.224 67.952 89.224ZM62.672 83.432C63.0773 83.432 63.44 83.3253 63.76 83.112C64.1013 82.8987 64.368 82.6213 64.56 82.28C64.7733 81.9173 64.88 81.5333 64.88 81.128C64.88 80.7013 64.7733 80.3173 64.56 79.976C64.368 79.6347 64.1013 79.3573 63.76 79.144C63.4187 78.9307 63.0347 78.824 62.608 78.824C62.1813 78.824 61.7867 78.9307 61.424 79.144C61.0827 79.3573 60.8053 79.6453 60.592 80.008C60.3787 80.3493 60.272 80.7333 60.272 81.16C60.272 81.5653 60.3787 81.9387 60.592 82.28C60.8267 82.6213 61.1253 82.8987 61.488 83.112C61.8507 83.3253 62.2453 83.432 62.672 83.432ZM76.2925 89.256C75.3325 89.256 74.6498 89.1173 74.2445 88.84C73.8392 88.5413 73.5938 88.168 73.5085 87.72C73.4445 87.272 73.4125 86.8133 73.4125 86.344V75.816C73.4125 75.3467 73.4552 74.8987 73.5405 74.472C73.6258 74.0453 73.8712 73.704 74.2765 73.448C74.6818 73.1707 75.3645 73.032 76.3245 73.032C77.1992 73.032 77.8285 73.1493 78.2125 73.384C78.6178 73.5973 78.8738 73.864 78.9805 74.184C79.0872 74.504 79.1298 74.8027 79.1085 75.08C79.1085 75.336 79.1298 75.496 79.1725 75.56L78.9165 75.752C78.8952 75.432 79.0125 75.112 79.2685 74.792C79.5458 74.472 79.8978 74.184 80.3245 73.928C80.7725 73.6507 81.2418 73.4373 81.7325 73.288C82.2445 73.1173 82.7245 73.032 83.1725 73.032C84.2392 73.032 85.1778 73.2347 85.9885 73.64C86.7992 74.0453 87.4712 74.6213 88.0045 75.368C88.5592 76.0933 88.9752 76.9467 89.2525 77.928C89.5298 78.9093 89.6685 79.976 89.6685 81.128V86.376C89.6685 86.8453 89.6258 87.304 89.5405 87.752C89.4552 88.2 89.2098 88.5627 88.8045 88.84C88.4205 89.1173 87.7378 89.256 86.7565 89.256C85.7752 89.256 85.0818 89.1173 84.6765 88.84C84.2712 88.5413 84.0258 88.168 83.9405 87.72C83.8552 87.272 83.8125 86.8133 83.8125 86.344V81.128C83.8125 80.6373 83.7165 80.2213 83.5245 79.88C83.3538 79.5387 83.0978 79.2827 82.7565 79.112C82.4365 78.92 82.0312 78.824 81.5405 78.824C81.0712 78.824 80.6552 78.92 80.2925 79.112C79.9512 79.304 79.6845 79.5707 79.4925 79.912C79.3005 80.2533 79.2045 80.6587 79.2045 81.128V86.376C79.2045 86.8453 79.1618 87.304 79.0765 87.752C78.9912 88.2 78.7458 88.5627 78.3405 88.84C77.9565 89.1173 77.2738 89.256 76.2925 89.256ZM95.2175 89.288C94.2575 89.288 93.5748 89.1493 93.1695 88.872C92.7642 88.5733 92.5188 88.2 92.4335 87.752C92.3695 87.304 92.3375 86.8453 92.3375 86.376V75.944C92.3375 75.4747 92.3802 75.0267 92.4655 74.6C92.5508 74.152 92.7962 73.7893 93.2015 73.512C93.6068 73.2133 94.2895 73.064 95.2495 73.064C96.2095 73.064 96.8815 73.2133 97.2655 73.512C97.6708 73.7893 97.9162 74.152 98.0015 74.6C98.0868 75.048 98.1295 75.5173 98.1295 76.008V86.408C98.1295 86.8773 98.0868 87.336 98.0015 87.784C97.9162 88.232 97.6708 88.5947 97.2655 88.872C96.8815 89.1493 96.1988 89.288 95.2175 89.288ZM95.2175 71.496C94.2575 71.496 93.5748 71.3573 93.1695 71.08C92.7642 70.7813 92.5188 70.408 92.4335 69.96C92.3695 69.512 92.3375 69.0533 92.3375 68.584C92.3375 68.0933 92.3802 67.6347 92.4655 67.208C92.5508 66.76 92.7962 66.3973 93.2015 66.12C93.6068 65.8427 94.2895 65.704 95.2495 65.704C96.2095 65.704 96.8815 65.8533 97.2655 66.152C97.6708 66.4293 97.9162 66.792 98.0015 67.24C98.0868 67.688 98.1295 68.1467 98.1295 68.616C98.1295 69.0853 98.0868 69.544 98.0015 69.992C97.9162 70.44 97.6708 70.8027 97.2655 71.08C96.8815 71.3573 96.1988 71.496 95.2175 71.496Z" fill="white"/>
<path d="M208.532 122.24C208.306 122.24 208.119 122.207 207.972 122.14C207.839 122.073 207.726 121.953 207.632 121.78L203.932 113.72C203.786 113.4 203.752 113.16 203.832 113C203.912 112.827 204.099 112.667 204.392 112.52C204.659 112.387 204.886 112.347 205.072 112.4C205.259 112.44 205.419 112.613 205.552 112.92L208.532 120.02L211.452 113.12C211.599 112.813 211.759 112.593 211.932 112.46C212.106 112.327 212.379 112.353 212.752 112.54C213.112 112.713 213.292 112.913 213.292 113.14C213.292 113.353 213.232 113.587 213.112 113.84L209.432 121.76C209.366 121.92 209.259 122.04 209.112 122.12C208.966 122.2 208.772 122.24 208.532 122.24ZM223.116 122.18C222.823 122.18 222.609 122.12 222.476 122C222.356 121.88 222.283 121.693 222.256 121.44L222.336 120.44C222.203 120.653 221.996 120.9 221.716 121.18C221.436 121.447 221.069 121.687 220.616 121.9C220.163 122.1 219.609 122.2 218.956 122.2C218.316 122.2 217.716 122.073 217.156 121.82C216.609 121.567 216.123 121.213 215.696 120.76C215.283 120.307 214.956 119.787 214.716 119.2C214.489 118.613 214.376 117.987 214.376 117.32C214.376 116.667 214.489 116.053 214.716 115.48C214.956 114.893 215.289 114.38 215.716 113.94C216.143 113.5 216.629 113.153 217.176 112.9C217.736 112.647 218.329 112.52 218.956 112.52C219.543 112.52 220.043 112.6 220.456 112.76C220.869 112.907 221.223 113.107 221.516 113.36C221.823 113.6 222.089 113.873 222.316 114.18L222.276 113.34C222.263 113.047 222.323 112.84 222.456 112.72C222.603 112.587 222.829 112.52 223.136 112.52C223.389 112.52 223.569 112.56 223.676 112.64C223.796 112.72 223.876 112.833 223.916 112.98C223.956 113.127 223.976 113.307 223.976 113.52V121.24C223.976 121.427 223.956 121.593 223.916 121.74C223.876 121.887 223.796 121.993 223.676 122.06C223.556 122.14 223.369 122.18 223.116 122.18ZM219.256 120.52C219.789 120.52 220.276 120.38 220.716 120.1C221.169 119.82 221.523 119.447 221.776 118.98C222.043 118.5 222.176 117.953 222.176 117.34C222.176 116.713 222.036 116.167 221.756 115.7C221.489 115.22 221.129 114.847 220.676 114.58C220.236 114.3 219.749 114.16 219.216 114.16C218.589 114.16 218.043 114.307 217.576 114.6C217.123 114.88 216.763 115.26 216.496 115.74C216.229 116.22 216.096 116.767 216.096 117.38C216.096 117.98 216.229 118.52 216.496 119C216.763 119.467 217.129 119.84 217.596 120.12C218.076 120.387 218.629 120.52 219.256 120.52ZM227.84 122.2C227.587 122.2 227.394 122.16 227.26 122.08C227.14 122.013 227.06 121.913 227.02 121.78C226.994 121.633 226.98 121.467 226.98 121.28V113.4C226.98 113.2 227 113.033 227.04 112.9C227.08 112.767 227.16 112.673 227.28 112.62C227.4 112.553 227.594 112.52 227.86 112.52C228.1 112.52 228.28 112.553 228.4 112.62C228.534 112.673 228.62 112.76 228.66 112.88C228.714 112.987 228.74 113.113 228.74 113.26L228.66 113.86C228.754 113.687 228.86 113.513 228.98 113.34C229.114 113.167 229.274 113.013 229.46 112.88C229.66 112.733 229.894 112.613 230.16 112.52C230.44 112.427 230.78 112.38 231.18 112.38C231.38 112.38 231.567 112.4 231.74 112.44C231.927 112.467 232.1 112.513 232.26 112.58C232.434 112.647 232.58 112.727 232.7 112.82C232.82 112.9 232.914 112.993 232.98 113.1C233.06 113.193 233.1 113.307 233.1 113.44C233.1 113.733 233.007 113.987 232.82 114.2C232.634 114.4 232.44 114.5 232.24 114.5C232.067 114.5 231.94 114.48 231.86 114.44C231.78 114.387 231.7 114.333 231.62 114.28C231.554 114.227 231.454 114.18 231.32 114.14C231.187 114.087 230.974 114.06 230.68 114.06C230.48 114.06 230.267 114.1 230.04 114.18C229.827 114.26 229.62 114.38 229.42 114.54C229.22 114.687 229.054 114.88 228.92 115.12C228.8 115.36 228.74 115.64 228.74 115.96V121.32C228.74 121.507 228.72 121.667 228.68 121.8C228.64 121.933 228.554 122.033 228.42 122.1C228.3 122.167 228.107 122.2 227.84 122.2ZM236.665 122.2C236.412 122.2 236.219 122.16 236.085 122.08C235.965 122.013 235.885 121.913 235.845 121.78C235.805 121.647 235.785 121.487 235.785 121.3V113.4C235.785 113.213 235.805 113.053 235.845 112.92C235.885 112.787 235.965 112.687 236.085 112.62C236.219 112.553 236.419 112.52 236.685 112.52C236.939 112.52 237.125 112.56 237.245 112.64C237.365 112.707 237.445 112.807 237.485 112.94C237.525 113.073 237.545 113.24 237.545 113.44V121.32C237.545 121.507 237.525 121.667 237.485 121.8C237.445 121.933 237.359 122.033 237.225 122.1C237.105 122.167 236.919 122.2 236.665 122.2ZM236.665 110.12C236.372 110.12 236.152 110.08 236.005 110C235.859 109.907 235.759 109.78 235.705 109.62C235.665 109.46 235.645 109.273 235.645 109.06C235.645 108.847 235.672 108.667 235.725 108.52C235.779 108.36 235.879 108.247 236.025 108.18C236.172 108.1 236.392 108.06 236.685 108.06C236.965 108.06 237.179 108.1 237.325 108.18C237.472 108.26 237.565 108.38 237.605 108.54C237.659 108.7 237.685 108.887 237.685 109.1C237.685 109.313 237.659 109.5 237.605 109.66C237.565 109.807 237.472 109.92 237.325 110C237.179 110.08 236.959 110.12 236.665 110.12ZM245.318 122.3C244.518 122.3 243.805 122.167 243.178 121.9C242.551 121.633 242.018 121.273 241.578 120.82C241.151 120.353 240.825 119.82 240.598 119.22C240.371 118.62 240.258 117.973 240.258 117.28C240.258 116.36 240.471 115.54 240.898 114.82C241.325 114.1 241.911 113.533 242.658 113.12C243.418 112.693 244.285 112.48 245.258 112.48C245.925 112.48 246.518 112.587 247.038 112.8C247.571 113 248.025 113.273 248.398 113.62C248.771 113.967 249.058 114.353 249.258 114.78C249.458 115.207 249.558 115.633 249.558 116.06C249.558 116.74 249.398 117.22 249.078 117.5C248.758 117.767 248.365 117.9 247.898 117.9H242.118C242.105 118.487 242.258 118.993 242.578 119.42C242.911 119.833 243.325 120.153 243.818 120.38C244.325 120.607 244.831 120.72 245.338 120.72C245.711 120.72 246.031 120.7 246.298 120.66C246.565 120.62 246.798 120.567 246.998 120.5C247.198 120.433 247.371 120.367 247.518 120.3C247.665 120.233 247.791 120.167 247.898 120.1C248.018 120.033 248.131 119.987 248.238 119.96C248.358 119.933 248.471 119.947 248.578 120C248.698 120.04 248.791 120.127 248.858 120.26C248.938 120.367 248.991 120.467 249.018 120.56C249.045 120.653 249.058 120.753 249.058 120.86C249.058 121.047 248.898 121.253 248.578 121.48C248.258 121.707 247.811 121.9 247.238 122.06C246.678 122.22 246.038 122.3 245.318 122.3ZM242.118 116.72H247.138C247.391 116.72 247.578 116.687 247.698 116.62C247.831 116.553 247.898 116.373 247.898 116.08C247.898 115.707 247.785 115.373 247.558 115.08C247.331 114.773 247.018 114.527 246.618 114.34C246.231 114.153 245.785 114.06 245.278 114.06C244.691 114.06 244.151 114.18 243.658 114.42C243.178 114.647 242.798 114.96 242.518 115.36C242.238 115.76 242.105 116.213 242.118 116.72ZM256.524 122.2C255.897 122.2 255.364 122.14 254.924 122.02C254.497 121.9 254.144 121.713 253.864 121.46C253.584 121.207 253.384 120.88 253.264 120.48C253.144 120.067 253.084 119.56 253.084 118.96V110.12C253.084 109.933 253.104 109.773 253.144 109.64C253.184 109.507 253.264 109.407 253.384 109.34C253.504 109.26 253.69 109.22 253.944 109.22C254.197 109.22 254.39 109.26 254.524 109.34C254.657 109.407 254.744 109.507 254.784 109.64C254.824 109.76 254.844 109.913 254.844 110.1V118.96C254.844 119.307 254.87 119.587 254.924 119.8C254.99 120 255.084 120.153 255.204 120.26C255.337 120.367 255.51 120.433 255.724 120.46C255.937 120.487 256.197 120.5 256.504 120.5C256.717 120.5 256.89 120.52 257.024 120.56C257.157 120.6 257.257 120.68 257.324 120.8C257.39 120.92 257.424 121.1 257.424 121.34C257.424 121.593 257.384 121.787 257.304 121.92C257.237 122.04 257.13 122.113 256.984 122.14C256.85 122.18 256.697 122.2 256.524 122.2ZM252.044 112.74L253.964 112.76L256.744 112.72C256.93 112.72 257.09 112.74 257.224 112.78C257.357 112.807 257.457 112.887 257.524 113.02C257.604 113.14 257.644 113.327 257.644 113.58C257.644 113.833 257.61 114.027 257.544 114.16C257.477 114.28 257.377 114.36 257.244 114.4C257.11 114.44 256.95 114.46 256.764 114.46L254.024 114.42L252.004 114.44C251.724 114.44 251.53 114.373 251.424 114.24C251.33 114.107 251.284 113.887 251.284 113.58C251.284 113.287 251.344 113.073 251.464 112.94C251.584 112.807 251.777 112.74 252.044 112.74ZM268.323 122.18C268.03 122.18 267.816 122.12 267.683 122C267.563 121.88 267.49 121.693 267.463 121.44L267.543 120.44C267.41 120.653 267.203 120.9 266.923 121.18C266.643 121.447 266.276 121.687 265.823 121.9C265.37 122.1 264.816 122.2 264.163 122.2C263.523 122.2 262.923 122.073 262.363 121.82C261.816 121.567 261.33 121.213 260.903 120.76C260.49 120.307 260.163 119.787 259.923 119.2C259.696 118.613 259.583 117.987 259.583 117.32C259.583 116.667 259.696 116.053 259.923 115.48C260.163 114.893 260.496 114.38 260.923 113.94C261.35 113.5 261.836 113.153 262.383 112.9C262.943 112.647 263.536 112.52 264.163 112.52C264.75 112.52 265.25 112.6 265.663 112.76C266.076 112.907 266.43 113.107 266.723 113.36C267.03 113.6 267.296 113.873 267.523 114.18L267.483 113.34C267.47 113.047 267.53 112.84 267.663 112.72C267.81 112.587 268.036 112.52 268.343 112.52C268.596 112.52 268.776 112.56 268.883 112.64C269.003 112.72 269.083 112.833 269.123 112.98C269.163 113.127 269.183 113.307 269.183 113.52V121.24C269.183 121.427 269.163 121.593 269.123 121.74C269.083 121.887 269.003 121.993 268.883 122.06C268.763 122.14 268.576 122.18 268.323 122.18ZM264.463 120.52C264.996 120.52 265.483 120.38 265.923 120.1C266.376 119.82 266.73 119.447 266.983 118.98C267.25 118.5 267.383 117.953 267.383 117.34C267.383 116.713 267.243 116.167 266.963 115.7C266.696 115.22 266.336 114.847 265.883 114.58C265.443 114.3 264.956 114.16 264.423 114.16C263.796 114.16 263.25 114.307 262.783 114.6C262.33 114.88 261.97 115.26 261.703 115.74C261.436 116.22 261.303 116.767 261.303 117.38C261.303 117.98 261.436 118.52 261.703 119C261.97 119.467 262.336 119.84 262.803 120.12C263.283 120.387 263.836 120.52 264.463 120.52ZM276.727 122.2C276.101 122.2 275.567 122.14 275.127 122.02C274.701 121.9 274.347 121.713 274.067 121.46C273.787 121.207 273.587 120.88 273.467 120.48C273.347 120.067 273.287 119.56 273.287 118.96V110.12C273.287 109.933 273.307 109.773 273.347 109.64C273.387 109.507 273.467 109.407 273.587 109.34C273.707 109.26 273.894 109.22 274.147 109.22C274.401 109.22 274.594 109.26 274.727 109.34C274.861 109.407 274.947 109.507 274.987 109.64C275.027 109.76 275.047 109.913 275.047 110.1V118.96C275.047 119.307 275.074 119.587 275.127 119.8C275.194 120 275.287 120.153 275.407 120.26C275.541 120.367 275.714 120.433 275.927 120.46C276.141 120.487 276.401 120.5 276.707 120.5C276.921 120.5 277.094 120.52 277.227 120.56C277.361 120.6 277.461 120.68 277.527 120.8C277.594 120.92 277.627 121.1 277.627 121.34C277.627 121.593 277.587 121.787 277.507 121.92C277.441 122.04 277.334 122.113 277.187 122.14C277.054 122.18 276.901 122.2 276.727 122.2ZM272.247 112.74L274.167 112.76L276.947 112.72C277.134 112.72 277.294 112.74 277.427 112.78C277.561 112.807 277.661 112.887 277.727 113.02C277.807 113.14 277.847 113.327 277.847 113.58C277.847 113.833 277.814 114.027 277.747 114.16C277.681 114.28 277.581 114.36 277.447 114.4C277.314 114.44 277.154 114.46 276.967 114.46L274.227 114.42L272.207 114.44C271.927 114.44 271.734 114.373 271.627 114.24C271.534 114.107 271.487 113.887 271.487 113.58C271.487 113.287 271.547 113.073 271.667 112.94C271.787 112.807 271.981 112.74 272.247 112.74ZM284.847 122.3C284.047 122.3 283.334 122.167 282.707 121.9C282.08 121.633 281.547 121.273 281.107 120.82C280.68 120.353 280.354 119.82 280.127 119.22C279.9 118.62 279.787 117.973 279.787 117.28C279.787 116.36 280 115.54 280.427 114.82C280.854 114.1 281.44 113.533 282.187 113.12C282.947 112.693 283.814 112.48 284.787 112.48C285.454 112.48 286.047 112.587 286.567 112.8C287.1 113 287.554 113.273 287.927 113.62C288.3 113.967 288.587 114.353 288.787 114.78C288.987 115.207 289.087 115.633 289.087 116.06C289.087 116.74 288.927 117.22 288.607 117.5C288.287 117.767 287.894 117.9 287.427 117.9H281.647C281.634 118.487 281.787 118.993 282.107 119.42C282.44 119.833 282.854 120.153 283.347 120.38C283.854 120.607 284.36 120.72 284.867 120.72C285.24 120.72 285.56 120.7 285.827 120.66C286.094 120.62 286.327 120.567 286.527 120.5C286.727 120.433 286.9 120.367 287.047 120.3C287.194 120.233 287.32 120.167 287.427 120.1C287.547 120.033 287.66 119.987 287.767 119.96C287.887 119.933 288 119.947 288.107 120C288.227 120.04 288.32 120.127 288.387 120.26C288.467 120.367 288.52 120.467 288.547 120.56C288.574 120.653 288.587 120.753 288.587 120.86C288.587 121.047 288.427 121.253 288.107 121.48C287.787 121.707 287.34 121.9 286.767 122.06C286.207 122.22 285.567 122.3 284.847 122.3ZM281.647 116.72H286.667C286.92 116.72 287.107 116.687 287.227 116.62C287.36 116.553 287.427 116.373 287.427 116.08C287.427 115.707 287.314 115.373 287.087 115.08C286.86 114.773 286.547 114.527 286.147 114.34C285.76 114.153 285.314 114.06 284.807 114.06C284.22 114.06 283.68 114.18 283.187 114.42C282.707 114.647 282.327 114.96 282.047 115.36C281.767 115.76 281.634 116.213 281.647 116.72Z" fill="white"/>
<path d="M245.76 48.704C244.202 48.704 242.794 48.3733 241.536 47.712C240.298 47.0293 239.306 46.112 238.56 44.96C237.834 43.7867 237.472 42.464 237.472 40.992C237.472 40.288 237.589 39.648 237.824 39.072C238.058 38.4747 238.336 37.9627 238.656 37.536C238.976 37.1093 239.264 36.7787 239.52 36.544C239.797 36.288 239.968 36.1387 240.032 36.096C240.096 36.032 239.989 36.096 239.712 36.288C240.032 36.5013 240.128 36.576 240 36.512C239.893 36.4267 239.68 36.2133 239.36 35.872C239.061 35.5307 238.773 35.072 238.496 34.496C238.24 33.92 238.112 33.248 238.112 32.48C238.112 31.1573 238.453 29.9733 239.136 28.928C239.818 27.8613 240.736 27.0187 241.888 26.4C243.061 25.76 244.352 25.44 245.76 25.44C247.146 25.44 248.405 25.76 249.536 26.4C250.666 27.0187 251.562 27.872 252.224 28.96C252.906 30.048 253.248 31.264 253.248 32.608C253.248 33.12 253.162 33.6107 252.992 34.08C252.821 34.528 252.618 34.9333 252.384 35.296C252.149 35.6373 251.936 35.9147 251.744 36.128C251.552 36.3413 251.434 36.4693 251.392 36.512C251.37 36.5547 251.466 36.48 251.68 36.288C251.424 36.096 251.328 36.032 251.392 36.096C251.456 36.1387 251.616 36.288 251.872 36.544C252.149 36.8 252.437 37.1413 252.736 37.568C253.056 37.9947 253.322 38.5067 253.536 39.104C253.77 39.68 253.888 40.3093 253.888 40.992C253.888 42.208 253.642 43.296 253.152 44.256C252.661 45.216 252.01 46.0267 251.2 46.688C250.41 47.3493 249.536 47.8507 248.576 48.192C247.637 48.5333 246.698 48.704 245.76 48.704ZM245.728 43.104C246.218 43.104 246.634 43.0293 246.976 42.88C247.317 42.7093 247.573 42.4747 247.744 42.176C247.936 41.8773 248.032 41.5253 248.032 41.12C248.032 40.7147 247.936 40.3733 247.744 40.096C247.573 39.7973 247.306 39.5733 246.944 39.424C246.602 39.2747 246.176 39.2 245.664 39.2C245.173 39.2 244.746 39.2747 244.384 39.424C244.042 39.5733 243.776 39.7973 243.584 40.096C243.413 40.3733 243.328 40.7147 243.328 41.12C243.328 41.5253 243.424 41.8773 243.616 42.176C243.808 42.4747 244.074 42.7093 244.416 42.88C244.778 43.0293 245.216 43.104 245.728 43.104ZM245.728 33.792C246.09 33.792 246.389 33.7387 246.624 33.632C246.88 33.5253 247.072 33.376 247.2 33.184C247.328 32.9707 247.392 32.7253 247.392 32.448C247.392 32.1707 247.317 31.936 247.168 31.744C247.04 31.5307 246.848 31.3707 246.592 31.264C246.357 31.1573 246.058 31.104 245.696 31.104C245.354 31.104 245.056 31.1573 244.8 31.264C244.544 31.3707 244.352 31.5307 244.224 31.744C244.096 31.936 244.032 32.1707 244.032 32.448C244.032 32.7253 244.096 32.9707 244.224 33.184C244.373 33.376 244.576 33.5253 244.832 33.632C245.088 33.7387 245.386 33.792 245.728 33.792ZM202.342 88.448C201.467 88.448 200.539 88.2773 199.558 87.936C198.598 87.5733 197.691 87.0507 196.838 86.368C195.985 85.664 195.291 84.7893 194.758 83.744C194.225 82.6987 193.958 81.4827 193.958 80.096C193.958 78.7307 194.225 77.536 194.758 76.512C195.291 75.4667 195.974 74.6027 196.806 73.92C197.659 73.2373 198.566 72.7253 199.526 72.384C200.507 72.0213 201.425 71.84 202.278 71.84C203.089 71.84 203.793 71.9253 204.39 72.096C204.987 72.2667 205.478 72.4587 205.862 72.672C206.246 72.864 206.523 73.0133 206.694 73.12C207.121 73.376 207.515 73.6747 207.878 74.016C208.262 74.336 208.454 74.7733 208.454 75.328C208.454 75.6053 208.401 75.8933 208.294 76.192C208.187 76.4693 208.017 76.7893 207.782 77.152C207.014 78.3253 206.246 78.912 205.478 78.912C205.137 78.912 204.838 78.8587 204.582 78.752C204.326 78.624 204.091 78.4853 203.878 78.336C203.665 78.1867 203.43 78.0587 203.174 77.952C202.939 77.824 202.641 77.76 202.278 77.76C201.851 77.76 201.457 77.8667 201.094 78.08C200.731 78.2933 200.443 78.5813 200.23 78.944C200.017 79.2853 199.91 79.68 199.91 80.128C199.91 80.576 200.017 80.9813 200.23 81.344C200.443 81.7067 200.721 81.9947 201.062 82.208C201.425 82.4213 201.809 82.528 202.214 82.528C202.513 82.528 202.758 82.496 202.95 82.432C203.163 82.368 203.323 82.304 203.43 82.24C203.537 82.1547 203.601 82.112 203.622 82.112C203.921 81.9413 204.198 81.7813 204.454 81.632C204.731 81.4827 205.009 81.408 205.286 81.408C205.649 81.408 206.022 81.5467 206.406 81.824C206.79 82.08 207.217 82.5067 207.686 83.104C208.134 83.6587 208.379 84.1813 208.422 84.672C208.486 85.1413 208.369 85.5893 208.07 86.016C207.771 86.4213 207.313 86.816 206.694 87.2C206.63 87.2427 206.406 87.3707 206.022 87.584C205.659 87.776 205.169 87.968 204.55 88.16C203.931 88.352 203.195 88.448 202.342 88.448ZM219.108 88.64C217.508 88.64 216.153 88.384 215.044 87.872C213.935 87.3387 213.039 86.656 212.356 85.824C211.673 84.9707 211.172 84.0533 210.852 83.072C210.532 82.0907 210.372 81.1413 210.372 80.224C210.372 78.5387 210.745 77.056 211.492 75.776C212.239 74.496 213.273 73.4933 214.596 72.768C215.919 72.0427 217.433 71.68 219.14 71.68C220.463 71.68 221.593 71.8933 222.532 72.32C223.471 72.7467 224.228 73.2907 224.804 73.952C225.401 74.6133 225.839 75.3173 226.116 76.064C226.393 76.8107 226.532 77.504 226.532 78.144C226.532 79.36 226.233 80.288 225.636 80.928C225.039 81.568 224.271 81.888 223.332 81.888H216.516C216.601 82.2293 216.772 82.528 217.028 82.784C217.305 83.0187 217.647 83.2107 218.052 83.36C218.457 83.488 218.895 83.552 219.364 83.552C219.833 83.552 220.249 83.5307 220.612 83.488C220.975 83.424 221.284 83.3493 221.54 83.264C221.817 83.1787 222.063 83.0933 222.276 83.008C222.511 82.9227 222.713 82.8587 222.884 82.816C223.076 82.752 223.257 82.72 223.428 82.72C223.812 82.72 224.164 82.848 224.484 83.104C224.804 83.36 225.092 83.744 225.348 84.256C225.497 84.5333 225.604 84.8 225.668 85.056C225.732 85.2907 225.764 85.5147 225.764 85.728C225.764 86.368 225.497 86.9013 224.964 87.328C224.452 87.7547 223.705 88.0747 222.724 88.288C221.743 88.5227 220.537 88.64 219.108 88.64ZM216.516 78.88H220.1C220.399 78.88 220.612 78.816 220.74 78.688C220.889 78.56 220.964 78.368 220.964 78.112C220.964 77.8347 220.879 77.6 220.708 77.408C220.559 77.216 220.345 77.0773 220.068 76.992C219.791 76.8853 219.46 76.832 219.076 76.832C218.564 76.832 218.116 76.9387 217.732 77.152C217.348 77.344 217.049 77.6 216.836 77.92C216.644 78.2187 216.537 78.5387 216.516 78.88ZM231.497 88.288C230.537 88.288 229.854 88.1493 229.449 87.872C229.044 87.5733 228.798 87.2 228.713 86.752C228.649 86.2827 228.617 85.8133 228.617 85.344V74.912C228.617 74.4213 228.66 73.9627 228.745 73.536C228.83 73.088 229.076 72.7253 229.481 72.448C229.886 72.1707 230.569 72.032 231.529 72.032C232.468 72.032 233.129 72.16 233.513 72.416C233.918 72.672 234.164 72.96 234.249 73.28C234.334 73.5787 234.377 73.8133 234.377 73.984L233.865 73.792C233.865 73.792 233.95 73.696 234.121 73.504C234.292 73.312 234.537 73.088 234.857 72.832C235.198 72.576 235.593 72.352 236.041 72.16C236.51 71.968 237.033 71.872 237.609 71.872C237.801 71.872 238.036 71.8933 238.313 71.936C238.612 71.9573 238.921 72.0107 239.241 72.096C239.582 72.1813 239.892 72.3093 240.169 72.48C240.468 72.6507 240.702 72.8747 240.873 73.152C241.065 73.4293 241.161 73.7707 241.161 74.176C241.161 75.2427 240.926 76.1493 240.457 76.896C240.009 77.6427 239.412 78.016 238.665 78.016C238.26 78.016 237.972 77.9947 237.801 77.952C237.63 77.888 237.502 77.8347 237.417 77.792C237.353 77.728 237.268 77.6747 237.161 77.632C237.076 77.568 236.905 77.536 236.649 77.536C236.329 77.536 236.03 77.5787 235.753 77.664C235.497 77.728 235.262 77.8347 235.049 77.984C234.857 78.1333 234.708 78.3147 234.601 78.528C234.494 78.72 234.441 78.9333 234.441 79.168V85.408C234.441 85.8773 234.398 86.336 234.313 86.784C234.228 87.232 233.982 87.5947 233.577 87.872C233.172 88.1493 232.478 88.288 231.497 88.288ZM249.981 88.448C249.106 88.448 248.178 88.2773 247.197 87.936C246.237 87.5733 245.33 87.0507 244.477 86.368C243.624 85.664 242.93 84.7893 242.397 83.744C241.864 82.6987 241.597 81.4827 241.597 80.096C241.597 78.7307 241.864 77.536 242.397 76.512C242.93 75.4667 243.613 74.6027 244.445 73.92C245.298 73.2373 246.205 72.7253 247.165 72.384C248.146 72.0213 249.064 71.84 249.917 71.84C250.728 71.84 251.432 71.9253 252.029 72.096C252.626 72.2667 253.117 72.4587 253.501 72.672C253.885 72.864 254.162 73.0133 254.333 73.12C254.76 73.376 255.154 73.6747 255.517 74.016C255.901 74.336 256.093 74.7733 256.093 75.328C256.093 75.6053 256.04 75.8933 255.933 76.192C255.826 76.4693 255.656 76.7893 255.421 77.152C254.653 78.3253 253.885 78.912 253.117 78.912C252.776 78.912 252.477 78.8587 252.221 78.752C251.965 78.624 251.73 78.4853 251.517 78.336C251.304 78.1867 251.069 78.0587 250.813 77.952C250.578 77.824 250.28 77.76 249.917 77.76C249.49 77.76 249.096 77.8667 248.733 78.08C248.37 78.2933 248.082 78.5813 247.869 78.944C247.656 79.2853 247.549 79.68 247.549 80.128C247.549 80.576 247.656 80.9813 247.869 81.344C248.082 81.7067 248.36 81.9947 248.701 82.208C249.064 82.4213 249.448 82.528 249.853 82.528C250.152 82.528 250.397 82.496 250.589 82.432C250.802 82.368 250.962 82.304 251.069 82.24C251.176 82.1547 251.24 82.112 251.261 82.112C251.56 81.9413 251.837 81.7813 252.093 81.632C252.37 81.4827 252.648 81.408 252.925 81.408C253.288 81.408 253.661 81.5467 254.045 81.824C254.429 82.08 254.856 82.5067 255.325 83.104C255.773 83.6587 256.018 84.1813 256.061 84.672C256.125 85.1413 256.008 85.5893 255.709 86.016C255.41 86.4213 254.952 86.816 254.333 87.2C254.269 87.2427 254.045 87.3707 253.661 87.584C253.298 87.776 252.808 87.968 252.189 88.16C251.57 88.352 250.834 88.448 249.981 88.448ZM265.755 88.224C264.731 88.224 263.771 88.0213 262.875 87.616C262 87.2107 261.232 86.6453 260.571 85.92C259.909 85.1733 259.397 84.3093 259.035 83.328C258.672 82.3467 258.491 81.28 258.491 80.128V74.912C258.491 74.4213 258.533 73.9627 258.619 73.536C258.704 73.088 258.949 72.7253 259.355 72.448C259.76 72.1493 260.443 72 261.403 72C262.384 72 263.067 72.1493 263.451 72.448C263.856 72.7253 264.101 73.088 264.187 73.536C264.272 73.984 264.315 74.4533 264.315 74.944V80.128C264.315 80.6187 264.4 81.0347 264.571 81.376C264.763 81.7173 265.029 81.984 265.371 82.176C265.733 82.3467 266.149 82.432 266.619 82.432C267.088 82.432 267.493 82.336 267.835 82.144C268.176 81.952 268.443 81.6853 268.635 81.344C268.827 81.0027 268.923 80.5973 268.923 80.128V74.88C268.923 74.3893 268.965 73.9307 269.051 73.504C269.136 73.056 269.381 72.6933 269.787 72.416C270.192 72.1387 270.875 72 271.835 72C272.816 72 273.499 72.1493 273.883 72.448C274.288 72.7253 274.533 73.088 274.619 73.536C274.704 73.984 274.747 74.4427 274.747 74.912V85.44C274.747 85.9093 274.704 86.3573 274.619 86.784C274.533 87.2107 274.288 87.5627 273.883 87.84C273.477 88.1173 272.795 88.256 271.835 88.256C271.131 88.256 270.576 88.1707 270.171 88C269.787 87.8507 269.509 87.6587 269.339 87.424C269.168 87.168 269.061 86.9227 269.019 86.688C268.997 86.432 268.987 86.2187 268.987 86.048L269.531 86.208C269.531 86.208 269.445 86.3147 269.275 86.528C269.104 86.72 268.848 86.9547 268.507 87.232C268.187 87.488 267.792 87.7227 267.323 87.936C266.875 88.128 266.352 88.224 265.755 88.224ZM280.198 88.288C279.238 88.288 278.555 88.1493 278.15 87.872C277.745 87.5733 277.499 87.2 277.414 86.752C277.35 86.2827 277.318 85.8133 277.318 85.344V74.912C277.318 74.4213 277.361 73.9627 277.446 73.536C277.531 73.088 277.777 72.7253 278.182 72.448C278.587 72.1707 279.27 72.032 280.23 72.032C281.169 72.032 281.83 72.16 282.214 72.416C282.619 72.672 282.865 72.96 282.95 73.28C283.035 73.5787 283.078 73.8133 283.078 73.984L282.566 73.792C282.566 73.792 282.651 73.696 282.822 73.504C282.993 73.312 283.238 73.088 283.558 72.832C283.899 72.576 284.294 72.352 284.742 72.16C285.211 71.968 285.734 71.872 286.31 71.872C286.502 71.872 286.737 71.8933 287.014 71.936C287.313 71.9573 287.622 72.0107 287.942 72.096C288.283 72.1813 288.593 72.3093 288.87 72.48C289.169 72.6507 289.403 72.8747 289.574 73.152C289.766 73.4293 289.862 73.7707 289.862 74.176C289.862 75.2427 289.627 76.1493 289.158 76.896C288.71 77.6427 288.113 78.016 287.366 78.016C286.961 78.016 286.673 77.9947 286.502 77.952C286.331 77.888 286.203 77.8347 286.118 77.792C286.054 77.728 285.969 77.6747 285.862 77.632C285.777 77.568 285.606 77.536 285.35 77.536C285.03 77.536 284.731 77.5787 284.454 77.664C284.198 77.728 283.963 77.8347 283.75 77.984C283.558 78.1333 283.409 78.3147 283.302 78.528C283.195 78.72 283.142 78.9333 283.142 79.168V85.408C283.142 85.8773 283.099 86.336 283.014 86.784C282.929 87.232 282.683 87.5947 282.278 87.872C281.873 88.1493 281.179 88.288 280.198 88.288ZM294.811 88.288C293.851 88.288 293.168 88.1493 292.763 87.872C292.357 87.5733 292.112 87.2 292.027 86.752C291.963 86.304 291.931 85.8453 291.931 85.376V74.944C291.931 74.4747 291.973 74.0267 292.059 73.6C292.144 73.152 292.389 72.7893 292.795 72.512C293.2 72.2133 293.883 72.064 294.843 72.064C295.803 72.064 296.475 72.2133 296.859 72.512C297.264 72.7893 297.509 73.152 297.595 73.6C297.68 74.048 297.723 74.5173 297.723 75.008V85.408C297.723 85.8773 297.68 86.336 297.595 86.784C297.509 87.232 297.264 87.5947 296.859 87.872C296.475 88.1493 295.792 88.288 294.811 88.288ZM294.811 70.496C293.851 70.496 293.168 70.3573 292.763 70.08C292.357 69.7813 292.112 69.408 292.027 68.96C291.963 68.512 291.931 68.0533 291.931 67.584C291.931 67.0933 291.973 66.6347 292.059 66.208C292.144 65.76 292.389 65.3973 292.795 65.12C293.2 64.8427 293.883 64.704 294.843 64.704C295.803 64.704 296.475 64.8533 296.859 65.152C297.264 65.4293 297.509 65.792 297.595 66.24C297.68 66.688 297.723 67.1467 297.723 67.616C297.723 68.0853 297.68 68.544 297.595 68.992C297.509 69.44 297.264 69.8027 296.859 70.08C296.475 70.3573 295.792 70.496 294.811 70.496Z" fill="white"/>
<path d="M368.061 121.839C367.821 121.839 367.635 121.799 367.501 121.719C367.368 121.652 367.281 121.552 367.241 121.419C367.215 121.285 367.201 121.125 367.201 120.939V113.039C367.201 112.852 367.221 112.692 367.261 112.559C367.301 112.425 367.381 112.325 367.501 112.259C367.635 112.192 367.828 112.159 368.081 112.159C368.348 112.159 368.541 112.199 368.661 112.279C368.781 112.345 368.861 112.445 368.901 112.579C368.941 112.712 368.961 112.879 368.961 113.079V120.959C368.961 121.145 368.941 121.305 368.901 121.439C368.861 121.572 368.775 121.672 368.641 121.739C368.521 121.805 368.328 121.839 368.061 121.839ZM368.061 108.179C368.128 108.179 368.181 108.185 368.221 108.199C368.275 108.212 368.328 108.232 368.381 108.259L370.521 109.259C370.788 109.352 370.955 109.485 371.021 109.659C371.088 109.832 371.055 110.045 370.921 110.299C370.801 110.525 370.668 110.679 370.521 110.759C370.388 110.839 370.241 110.839 370.081 110.759L368.061 109.739L366.061 110.739C365.901 110.819 365.755 110.819 365.621 110.739C365.475 110.645 365.341 110.485 365.221 110.259C365.088 110.005 365.055 109.805 365.121 109.659C365.188 109.499 365.355 109.365 365.621 109.259L367.741 108.259C367.795 108.232 367.841 108.212 367.881 108.199C367.935 108.185 367.995 108.179 368.061 108.179ZM372.825 121.819C372.572 121.819 372.379 121.779 372.245 121.699C372.125 121.632 372.045 121.532 372.005 121.399C371.979 121.265 371.965 121.105 371.965 120.919V112.979C371.965 112.805 371.985 112.659 372.025 112.539C372.065 112.419 372.145 112.325 372.265 112.259C372.399 112.192 372.592 112.159 372.845 112.159C373.045 112.159 373.199 112.185 373.305 112.239C373.425 112.279 373.505 112.339 373.545 112.419C373.599 112.499 373.632 112.585 373.645 112.679C373.659 112.772 373.665 112.859 373.665 112.939L373.625 113.859C373.759 113.632 373.925 113.419 374.125 113.219C374.325 113.005 374.559 112.819 374.825 112.659C375.092 112.485 375.379 112.352 375.685 112.259C376.005 112.165 376.345 112.119 376.705 112.119C377.292 112.119 377.832 112.225 378.325 112.439C378.819 112.639 379.239 112.939 379.585 113.339C379.945 113.725 380.219 114.192 380.405 114.739C380.605 115.285 380.705 115.905 380.705 116.599V120.939C380.705 121.125 380.685 121.285 380.645 121.419C380.619 121.552 380.539 121.652 380.405 121.719C380.285 121.785 380.099 121.819 379.845 121.819C379.579 121.819 379.379 121.779 379.245 121.699C379.125 121.632 379.045 121.532 379.005 121.399C378.965 121.265 378.945 121.105 378.945 120.919V116.579C378.945 116.019 378.852 115.532 378.665 115.119C378.479 114.705 378.199 114.385 377.825 114.159C377.452 113.919 376.979 113.799 376.405 113.799C375.859 113.799 375.379 113.919 374.965 114.159C374.565 114.385 374.252 114.705 374.025 115.119C373.812 115.532 373.705 116.019 373.705 116.579V120.939C373.705 121.125 373.685 121.285 373.645 121.419C373.605 121.552 373.519 121.652 373.385 121.719C373.265 121.785 373.079 121.819 372.825 121.819ZM386.898 121.939C386.578 121.939 386.245 121.905 385.898 121.839C385.551 121.772 385.211 121.679 384.878 121.559C384.558 121.425 384.271 121.272 384.018 121.099C383.778 120.925 383.598 120.732 383.478 120.519C383.411 120.385 383.371 120.265 383.358 120.159C383.345 120.039 383.365 119.925 383.418 119.819C383.471 119.712 383.551 119.605 383.658 119.499C383.791 119.339 383.925 119.265 384.058 119.279C384.191 119.279 384.358 119.365 384.558 119.539C384.705 119.632 384.878 119.739 385.078 119.859C385.278 119.965 385.485 120.065 385.698 120.159C385.911 120.239 386.125 120.312 386.338 120.379C386.565 120.432 386.785 120.459 386.998 120.459C387.611 120.459 388.105 120.345 388.478 120.119C388.851 119.879 389.038 119.565 389.038 119.179C389.038 118.952 388.991 118.759 388.898 118.599C388.805 118.439 388.678 118.305 388.518 118.199C388.358 118.079 388.178 117.979 387.978 117.899C387.778 117.819 387.551 117.745 387.298 117.679C387.058 117.599 386.818 117.525 386.578 117.459C386.218 117.365 385.865 117.259 385.518 117.139C385.171 117.019 384.858 116.865 384.578 116.679C384.298 116.479 384.071 116.232 383.898 115.939C383.725 115.632 383.638 115.245 383.638 114.779C383.638 114.232 383.778 113.759 384.058 113.359C384.338 112.959 384.731 112.652 385.238 112.439C385.745 112.212 386.338 112.099 387.018 112.099C387.311 112.099 387.585 112.119 387.838 112.159C388.091 112.199 388.331 112.265 388.558 112.359C388.798 112.439 389.025 112.539 389.238 112.659C389.451 112.765 389.658 112.899 389.858 113.059C390.098 113.219 390.225 113.392 390.238 113.579C390.251 113.765 390.178 113.959 390.018 114.159C389.898 114.332 389.765 114.445 389.618 114.499C389.471 114.539 389.325 114.499 389.178 114.379C388.965 114.219 388.738 114.079 388.498 113.959C388.258 113.839 388.011 113.739 387.758 113.659C387.505 113.579 387.245 113.539 386.978 113.539C386.645 113.539 386.345 113.592 386.078 113.699C385.825 113.792 385.625 113.939 385.478 114.139C385.345 114.325 385.278 114.539 385.278 114.779C385.278 114.992 385.331 115.165 385.438 115.299C385.558 115.432 385.705 115.545 385.878 115.639C386.065 115.732 386.278 115.819 386.518 115.899C386.771 115.965 387.031 116.032 387.298 116.099C387.685 116.192 388.078 116.305 388.478 116.439C388.891 116.559 389.258 116.725 389.578 116.939C389.911 117.139 390.178 117.412 390.378 117.759C390.591 118.092 390.698 118.539 390.698 119.099C390.698 119.979 390.351 120.672 389.658 121.179C388.965 121.685 388.045 121.939 386.898 121.939ZM398.018 121.879C397.324 121.879 396.671 121.765 396.058 121.539C395.458 121.312 394.924 120.985 394.458 120.559C394.004 120.132 393.644 119.625 393.378 119.039C393.124 118.439 392.998 117.759 392.998 116.999C392.998 116.239 393.124 115.565 393.378 114.979C393.644 114.379 394.004 113.865 394.458 113.439C394.911 113.012 395.438 112.685 396.038 112.459C396.651 112.232 397.298 112.119 397.978 112.119C398.431 112.119 398.878 112.192 399.318 112.339C399.758 112.472 400.144 112.652 400.478 112.879C400.824 113.092 401.071 113.319 401.218 113.559C401.351 113.732 401.444 113.879 401.498 113.999C401.564 114.105 401.571 114.232 401.518 114.379C401.464 114.485 401.391 114.585 401.298 114.679C401.204 114.759 401.111 114.825 401.018 114.879C400.778 115.065 400.538 115.092 400.298 114.959C400.151 114.812 399.984 114.679 399.798 114.559C399.624 114.425 399.438 114.305 399.238 114.199C399.038 114.092 398.831 114.012 398.618 113.959C398.418 113.892 398.204 113.859 397.978 113.859C397.351 113.859 396.798 113.992 396.318 114.259C395.838 114.512 395.464 114.879 395.198 115.359C394.944 115.825 394.818 116.372 394.818 116.999C394.818 117.625 394.944 118.172 395.198 118.639C395.464 119.105 395.831 119.472 396.298 119.739C396.778 120.005 397.324 120.139 397.938 120.139C398.218 120.139 398.484 120.105 398.738 120.039C399.004 119.959 399.251 119.859 399.478 119.739C399.704 119.605 399.891 119.465 400.038 119.319C400.171 119.225 400.284 119.145 400.378 119.079C400.471 119.012 400.584 118.979 400.718 118.979C400.824 118.979 400.938 119.025 401.058 119.119C401.178 119.199 401.304 119.325 401.438 119.499C401.544 119.619 401.604 119.745 401.618 119.879C401.644 120.012 401.624 120.139 401.558 120.259C401.491 120.379 401.384 120.499 401.238 120.619C401.024 120.832 400.738 121.039 400.378 121.239C400.031 121.425 399.651 121.579 399.238 121.699C398.824 121.819 398.418 121.879 398.018 121.879ZM405.094 121.839C404.841 121.839 404.647 121.799 404.514 121.719C404.394 121.652 404.314 121.552 404.274 121.419C404.247 121.272 404.234 121.105 404.234 120.919V113.039C404.234 112.839 404.254 112.672 404.294 112.539C404.334 112.405 404.414 112.312 404.534 112.259C404.654 112.192 404.847 112.159 405.114 112.159C405.354 112.159 405.534 112.192 405.654 112.259C405.787 112.312 405.874 112.399 405.914 112.519C405.967 112.625 405.994 112.752 405.994 112.899L405.914 113.499C406.007 113.325 406.114 113.152 406.234 112.979C406.367 112.805 406.527 112.652 406.714 112.519C406.914 112.372 407.147 112.252 407.414 112.159C407.694 112.065 408.034 112.019 408.434 112.019C408.634 112.019 408.821 112.039 408.994 112.079C409.181 112.105 409.354 112.152 409.514 112.219C409.687 112.285 409.834 112.365 409.954 112.459C410.074 112.539 410.167 112.632 410.234 112.739C410.314 112.832 410.354 112.945 410.354 113.079C410.354 113.372 410.261 113.625 410.074 113.839C409.887 114.039 409.694 114.139 409.494 114.139C409.321 114.139 409.194 114.119 409.114 114.079C409.034 114.025 408.954 113.972 408.874 113.919C408.807 113.865 408.707 113.819 408.574 113.779C408.441 113.725 408.227 113.699 407.934 113.699C407.734 113.699 407.521 113.739 407.294 113.819C407.081 113.899 406.874 114.019 406.674 114.179C406.474 114.325 406.307 114.519 406.174 114.759C406.054 114.999 405.994 115.279 405.994 115.599V120.959C405.994 121.145 405.974 121.305 405.934 121.439C405.894 121.572 405.807 121.672 405.674 121.739C405.554 121.805 405.361 121.839 405.094 121.839ZM413.919 121.839C413.666 121.839 413.472 121.799 413.339 121.719C413.219 121.652 413.139 121.552 413.099 121.419C413.059 121.285 413.039 121.125 413.039 120.939V113.039C413.039 112.852 413.059 112.692 413.099 112.559C413.139 112.425 413.219 112.325 413.339 112.259C413.472 112.192 413.672 112.159 413.939 112.159C414.192 112.159 414.379 112.199 414.499 112.279C414.619 112.345 414.699 112.445 414.739 112.579C414.779 112.712 414.799 112.879 414.799 113.079V120.959C414.799 121.145 414.779 121.305 414.739 121.439C414.699 121.572 414.612 121.672 414.479 121.739C414.359 121.805 414.172 121.839 413.919 121.839ZM413.919 109.759C413.626 109.759 413.406 109.719 413.259 109.639C413.112 109.545 413.012 109.419 412.959 109.259C412.919 109.099 412.899 108.912 412.899 108.699C412.899 108.485 412.926 108.305 412.979 108.159C413.032 107.999 413.132 107.885 413.279 107.819C413.426 107.739 413.646 107.699 413.939 107.699C414.219 107.699 414.432 107.739 414.579 107.819C414.726 107.899 414.819 108.019 414.859 108.179C414.912 108.339 414.939 108.525 414.939 108.739C414.939 108.952 414.912 109.139 414.859 109.299C414.819 109.445 414.726 109.559 414.579 109.639C414.432 109.719 414.212 109.759 413.919 109.759ZM425.432 118.679C425.432 119.372 425.258 119.952 424.912 120.419C424.565 120.885 424.072 121.239 423.432 121.479C422.792 121.719 422.032 121.839 421.152 121.839C420.405 121.839 419.758 121.779 419.212 121.659C418.678 121.539 418.205 121.372 417.792 121.159V119.559C418.218 119.772 418.732 119.972 419.332 120.159C419.945 120.332 420.565 120.419 421.192 120.419C422.085 120.419 422.732 120.279 423.132 119.999C423.532 119.705 423.732 119.319 423.732 118.839C423.732 118.572 423.658 118.332 423.512 118.119C423.365 117.905 423.098 117.692 422.712 117.479C422.338 117.265 421.798 117.025 421.092 116.759C420.398 116.492 419.805 116.225 419.312 115.959C418.818 115.692 418.438 115.372 418.172 114.999C417.905 114.625 417.772 114.145 417.772 113.559C417.772 112.652 418.138 111.952 418.872 111.459C419.618 110.965 420.592 110.719 421.792 110.719C422.445 110.719 423.052 110.785 423.612 110.919C424.185 111.039 424.718 111.212 425.212 111.439L424.612 112.839C424.318 112.705 424.005 112.592 423.672 112.499C423.352 112.392 423.025 112.312 422.692 112.259C422.358 112.192 422.018 112.159 421.672 112.159C420.952 112.159 420.398 112.279 420.012 112.519C419.638 112.745 419.452 113.059 419.452 113.459C419.452 113.752 419.538 114.005 419.712 114.219C419.885 114.419 420.172 114.619 420.572 114.819C420.985 115.005 421.532 115.232 422.212 115.499C422.892 115.752 423.472 116.012 423.952 116.279C424.432 116.545 424.798 116.872 425.052 117.259C425.305 117.632 425.432 118.105 425.432 118.679ZM422.832 123.039C422.778 123.279 422.665 123.579 422.492 123.939C422.332 124.312 422.138 124.685 421.912 125.059C421.698 125.432 421.472 125.765 421.232 126.059H420.272V125.819C420.378 125.592 420.485 125.299 420.592 124.939C420.712 124.592 420.818 124.225 420.912 123.839C421.005 123.465 421.065 123.139 421.092 122.859H422.832V123.039ZM429.182 121.839C428.928 121.839 428.735 121.799 428.602 121.719C428.482 121.652 428.402 121.552 428.362 121.419C428.322 121.285 428.302 121.125 428.302 120.939V113.039C428.302 112.852 428.322 112.692 428.362 112.559C428.402 112.425 428.482 112.325 428.602 112.259C428.735 112.192 428.935 112.159 429.202 112.159C429.455 112.159 429.642 112.199 429.762 112.279C429.882 112.345 429.962 112.445 430.002 112.579C430.042 112.712 430.062 112.879 430.062 113.079V120.959C430.062 121.145 430.042 121.305 430.002 121.439C429.962 121.572 429.875 121.672 429.742 121.739C429.622 121.805 429.435 121.839 429.182 121.839ZM429.182 109.759C428.888 109.759 428.668 109.719 428.522 109.639C428.375 109.545 428.275 109.419 428.222 109.259C428.182 109.099 428.162 108.912 428.162 108.699C428.162 108.485 428.188 108.305 428.242 108.159C428.295 107.999 428.395 107.885 428.542 107.819C428.688 107.739 428.908 107.699 429.202 107.699C429.482 107.699 429.695 107.739 429.842 107.819C429.988 107.899 430.082 108.019 430.122 108.179C430.175 108.339 430.202 108.525 430.202 108.739C430.202 108.952 430.175 109.139 430.122 109.299C430.082 109.445 429.988 109.559 429.842 109.639C429.695 109.719 429.475 109.759 429.182 109.759Z" fill="white"/>
<path d="M372.967 52.672C371.281 52.672 369.831 52.3093 368.615 51.584C367.42 50.8373 366.492 49.7813 365.831 48.416C365.191 47.0293 364.871 45.3867 364.871 43.488C364.871 41.8667 365.063 40.3627 365.447 38.976C365.831 37.5893 366.375 36.3413 367.079 35.232C367.804 34.1013 368.668 33.1413 369.671 32.352C370.695 31.5627 371.836 30.9547 373.095 30.528C374.375 30.1013 375.751 29.888 377.223 29.888C377.692 29.888 378.14 29.9307 378.567 30.016C378.993 30.1013 379.345 30.3467 379.623 30.752C379.9 31.1573 380.039 31.8507 380.039 32.832C380.039 33.792 379.889 34.4747 379.591 34.88C379.313 35.2853 378.951 35.5307 378.503 35.616C378.055 35.7013 377.585 35.744 377.095 35.744C376.135 35.744 375.313 35.872 374.631 36.128C373.969 36.384 373.415 36.704 372.967 37.088C372.54 37.472 372.199 37.856 371.943 38.24C371.687 38.624 371.505 38.944 371.399 39.2C371.313 39.456 371.271 39.584 371.271 39.584L370.887 39.232C370.887 39.232 370.993 39.1893 371.207 39.104C371.441 38.9973 371.729 38.9013 372.071 38.816C372.433 38.7307 372.807 38.688 373.191 38.688C374.535 38.688 375.772 38.9973 376.903 39.616C378.033 40.2347 378.94 41.0453 379.623 42.048C380.305 43.0507 380.647 44.1493 380.647 45.344C380.647 46.7093 380.305 47.9467 379.623 49.056C378.94 50.1653 378.012 51.0507 376.839 51.712C375.687 52.352 374.396 52.672 372.967 52.672ZM372.839 47.2C373.308 47.2 373.692 47.1467 373.991 47.04C374.289 46.912 374.503 46.72 374.631 46.464C374.78 46.208 374.855 45.888 374.855 45.504C374.855 45.184 374.78 44.9067 374.631 44.672C374.481 44.4373 374.268 44.256 373.991 44.128C373.713 44 373.393 43.936 373.031 43.936C372.604 43.936 372.22 44 371.879 44.128C371.559 44.256 371.313 44.4373 371.143 44.672C370.972 44.8853 370.887 45.1413 370.887 45.44C370.887 45.8453 370.951 46.1867 371.079 46.464C371.207 46.72 371.409 46.912 371.687 47.04C371.985 47.1467 372.369 47.2 372.839 47.2ZM390.902 52.704C389.409 52.704 388.139 52.448 387.094 51.936C386.07 51.4027 385.238 50.7093 384.598 49.856C383.958 49.0027 383.457 48.064 383.094 47.04C382.753 46.016 382.518 44.992 382.39 43.968C382.262 42.9227 382.198 41.9733 382.198 41.12C382.198 40.352 382.262 39.4667 382.39 38.464C382.518 37.4613 382.742 36.448 383.062 35.424C383.403 34.3787 383.894 33.4187 384.534 32.544C385.174 31.648 386.006 30.9333 387.03 30.4C388.075 29.8453 389.345 29.568 390.838 29.568C392.289 29.568 393.515 29.8347 394.518 30.368C395.542 30.9013 396.363 31.6053 396.982 32.48C397.622 33.3333 398.113 34.2827 398.454 35.328C398.817 36.352 399.062 37.376 399.19 38.4C399.318 39.424 399.382 40.3413 399.382 41.152C399.382 42.0053 399.307 42.9547 399.158 44C399.03 45.024 398.785 46.048 398.422 47.072C398.081 48.096 397.59 49.0347 396.95 49.888C396.331 50.7413 395.521 51.424 394.518 51.936C393.537 52.448 392.331 52.704 390.902 52.704ZM390.774 46.816C391.329 46.816 391.777 46.688 392.118 46.432C392.459 46.1547 392.726 45.8027 392.918 45.376C393.11 44.9493 393.249 44.4907 393.334 44C393.419 43.488 393.473 42.9973 393.494 42.528C393.515 42.0373 393.526 41.6213 393.526 41.28V41.12C393.526 39.8827 393.419 38.848 393.206 38.016C393.014 37.1627 392.715 36.5227 392.31 36.096C391.926 35.648 391.425 35.424 390.806 35.424C390.166 35.424 389.643 35.6373 389.238 36.064C388.833 36.4907 388.534 37.1307 388.342 37.984C388.15 38.8373 388.054 39.8933 388.054 41.152C388.054 42.368 388.15 43.4027 388.342 44.256C388.555 45.088 388.865 45.728 389.27 46.176C389.675 46.6027 390.177 46.816 390.774 46.816ZM409.636 52.704C408.142 52.704 406.873 52.448 405.828 51.936C404.804 51.4027 403.972 50.7093 403.332 49.856C402.692 49.0027 402.19 48.064 401.828 47.04C401.486 46.016 401.252 44.992 401.124 43.968C400.996 42.9227 400.932 41.9733 400.932 41.12C400.932 40.352 400.996 39.4667 401.124 38.464C401.252 37.4613 401.476 36.448 401.796 35.424C402.137 34.3787 402.628 33.4187 403.268 32.544C403.908 31.648 404.74 30.9333 405.764 30.4C406.809 29.8453 408.078 29.568 409.572 29.568C411.022 29.568 412.249 29.8347 413.252 30.368C414.276 30.9013 415.097 31.6053 415.716 32.48C416.356 33.3333 416.846 34.2827 417.188 35.328C417.55 36.352 417.796 37.376 417.924 38.4C418.052 39.424 418.116 40.3413 418.116 41.152C418.116 42.0053 418.041 42.9547 417.892 44C417.764 45.024 417.518 46.048 417.156 47.072C416.814 48.096 416.324 49.0347 415.684 49.888C415.065 50.7413 414.254 51.424 413.252 51.936C412.27 52.448 411.065 52.704 409.636 52.704ZM409.508 46.816C410.062 46.816 410.51 46.688 410.852 46.432C411.193 46.1547 411.46 45.8027 411.652 45.376C411.844 44.9493 411.982 44.4907 412.068 44C412.153 43.488 412.206 42.9973 412.228 42.528C412.249 42.0373 412.26 41.6213 412.26 41.28V41.12C412.26 39.8827 412.153 38.848 411.94 38.016C411.748 37.1627 411.449 36.5227 411.044 36.096C410.66 35.648 410.158 35.424 409.54 35.424C408.9 35.424 408.377 35.6373 407.972 36.064C407.566 36.4907 407.268 37.1307 407.076 37.984C406.884 38.8373 406.788 39.8933 406.788 41.152C406.788 42.368 406.884 43.4027 407.076 44.256C407.289 45.088 407.598 45.728 408.004 46.176C408.409 46.6027 408.91 46.816 409.508 46.816ZM365.748 92.448C364.873 92.448 363.945 92.2773 362.964 91.936C362.004 91.5733 361.097 91.0507 360.244 90.368C359.39 89.664 358.697 88.7893 358.164 87.744C357.63 86.6987 357.364 85.4827 357.364 84.096C357.364 82.7307 357.63 81.536 358.164 80.512C358.697 79.4667 359.38 78.6027 360.212 77.92C361.065 77.2373 361.972 76.7253 362.932 76.384C363.913 76.0213 364.83 75.84 365.684 75.84C366.494 75.84 367.198 75.9253 367.796 76.096C368.393 76.2667 368.884 76.4587 369.268 76.672C369.652 76.864 369.929 77.0133 370.1 77.12C370.526 77.376 370.921 77.6747 371.284 78.016C371.668 78.336 371.86 78.7733 371.86 79.328C371.86 79.6053 371.806 79.8933 371.7 80.192C371.593 80.4693 371.422 80.7893 371.188 81.152C370.42 82.3253 369.652 82.912 368.884 82.912C368.542 82.912 368.244 82.8587 367.988 82.752C367.732 82.624 367.497 82.4853 367.284 82.336C367.07 82.1867 366.836 82.0587 366.58 81.952C366.345 81.824 366.046 81.76 365.684 81.76C365.257 81.76 364.862 81.8667 364.5 82.08C364.137 82.2933 363.849 82.5813 363.636 82.944C363.422 83.2853 363.316 83.68 363.316 84.128C363.316 84.576 363.422 84.9813 363.636 85.344C363.849 85.7067 364.126 85.9947 364.468 86.208C364.83 86.4213 365.214 86.528 365.62 86.528C365.918 86.528 366.164 86.496 366.356 86.432C366.569 86.368 366.729 86.304 366.836 86.24C366.942 86.1547 367.006 86.112 367.028 86.112C367.326 85.9413 367.604 85.7813 367.86 85.632C368.137 85.4827 368.414 85.408 368.692 85.408C369.054 85.408 369.428 85.5467 369.812 85.824C370.196 86.08 370.622 86.5067 371.092 87.104C371.54 87.6587 371.785 88.1813 371.828 88.672C371.892 89.1413 371.774 89.5893 371.476 90.016C371.177 90.4213 370.718 90.816 370.1 91.2C370.036 91.2427 369.812 91.3707 369.428 91.584C369.065 91.776 368.574 91.968 367.956 92.16C367.337 92.352 366.601 92.448 365.748 92.448ZM382.258 92.576C381.276 92.576 380.284 92.384 379.282 92C378.279 91.5947 377.351 91.0293 376.498 90.304C375.666 89.5573 374.994 88.672 374.482 87.648C373.991 86.6027 373.746 85.44 373.746 84.16C373.746 82.9867 373.97 81.888 374.418 80.864C374.866 79.84 375.474 78.944 376.242 78.176C377.031 77.3867 377.927 76.768 378.93 76.32C379.954 75.872 381.042 75.648 382.194 75.648C383.772 75.648 385.202 76.032 386.482 76.8C387.762 77.5467 388.786 78.56 389.554 79.84C390.322 81.12 390.706 82.5493 390.706 84.128C390.706 85.472 390.45 86.6667 389.938 87.712C389.426 88.7573 388.754 89.6427 387.922 90.368C387.09 91.0933 386.172 91.6373 385.17 92C384.188 92.384 383.218 92.576 382.258 92.576ZM382.194 86.72C382.514 86.72 382.876 86.6453 383.282 86.496C383.708 86.3253 384.071 86.048 384.37 85.664C384.69 85.28 384.85 84.7573 384.85 84.096C384.85 83.5627 384.732 83.104 384.498 82.72C384.284 82.336 383.975 82.0373 383.57 81.824C383.164 81.6107 382.695 81.504 382.162 81.504C381.692 81.504 381.266 81.6213 380.882 81.856C380.498 82.0693 380.188 82.3787 379.954 82.784C379.719 83.168 379.602 83.616 379.602 84.128C379.602 84.768 379.751 85.28 380.05 85.664C380.348 86.048 380.7 86.3253 381.106 86.496C381.511 86.6453 381.874 86.72 382.194 86.72ZM401.381 91.904C400.336 91.904 399.429 91.6907 398.661 91.264C397.893 90.8373 397.264 90.2613 396.773 89.536C396.283 88.7893 395.92 87.9467 395.685 87.008C395.451 86.0693 395.344 85.0773 395.365 84.032C395.387 83.008 395.515 82.016 395.749 81.056C396.005 80.096 396.379 79.2427 396.869 78.496C397.36 77.7493 397.979 77.1627 398.725 76.736C399.472 76.288 400.357 76.064 401.381 76.064C402.32 76.064 403.227 76.288 404.101 76.736C404.997 77.184 405.797 77.792 406.501 78.56C407.205 79.3067 407.76 80.16 408.165 81.12C408.571 82.08 408.773 83.072 408.773 84.096C408.773 85.1627 408.571 86.176 408.165 87.136C407.76 88.0747 407.205 88.9067 406.501 89.632C405.819 90.336 405.029 90.8907 404.133 91.296C403.259 91.7013 402.341 91.904 401.381 91.904ZM395.461 99.072C394.523 99.072 393.851 98.9333 393.445 98.656C393.04 98.3787 392.795 98.0267 392.709 97.6C392.645 97.1733 392.613 96.7253 392.613 96.256V78.88C392.613 78.4107 392.645 77.9627 392.709 77.536C392.795 77.1093 393.029 76.7573 393.413 76.48C393.819 76.1813 394.491 76.032 395.429 76.032C396.176 76.032 396.795 76.1387 397.285 76.352C397.776 76.544 398.128 76.8533 398.341 77.28V96.224C398.384 96.6933 398.352 97.1413 398.245 97.568C398.16 98.016 397.915 98.3787 397.509 98.656C397.104 98.9333 396.421 99.072 395.461 99.072ZM400.613 86.464C401.04 86.464 401.424 86.3573 401.765 86.144C402.128 85.9307 402.416 85.6533 402.629 85.312C402.843 84.9493 402.949 84.5653 402.949 84.16C402.949 83.7333 402.843 83.3493 402.629 83.008C402.437 82.6453 402.16 82.368 401.797 82.176C401.456 81.9627 401.072 81.856 400.645 81.856C400.219 81.856 399.824 81.9627 399.461 82.176C399.12 82.3893 398.843 82.6667 398.629 83.008C398.437 83.3493 398.341 83.7333 398.341 84.16C398.341 84.5653 398.448 84.9493 398.661 85.312C398.875 85.6533 399.152 85.9307 399.493 86.144C399.835 86.3573 400.208 86.464 400.613 86.464ZM413.734 92.288C412.774 92.288 412.091 92.1493 411.686 91.872C411.28 91.5733 411.035 91.2 410.95 90.752C410.886 90.304 410.854 89.8453 410.854 89.376V78.944C410.854 78.4747 410.896 78.0267 410.982 77.6C411.067 77.152 411.312 76.7893 411.718 76.512C412.123 76.2133 412.806 76.064 413.766 76.064C414.726 76.064 415.398 76.2133 415.782 76.512C416.187 76.7893 416.432 77.152 416.518 77.6C416.603 78.048 416.646 78.5173 416.646 79.008V89.408C416.646 89.8773 416.603 90.336 416.518 90.784C416.432 91.232 416.187 91.5947 415.782 91.872C415.398 92.1493 414.715 92.288 413.734 92.288ZM413.734 74.496C412.774 74.496 412.091 74.3573 411.686 74.08C411.28 73.7813 411.035 73.408 410.95 72.96C410.886 72.512 410.854 72.0533 410.854 71.584C410.854 71.0933 410.896 70.6347 410.982 70.208C411.067 69.76 411.312 69.3973 411.718 69.12C412.123 68.8427 412.806 68.704 413.766 68.704C414.726 68.704 415.398 68.8533 415.782 69.152C416.187 69.4293 416.432 69.792 416.518 70.24C416.603 70.688 416.646 71.1467 416.646 71.616C416.646 72.0853 416.603 72.544 416.518 72.992C416.432 73.44 416.187 73.8027 415.782 74.08C415.398 74.3573 414.715 74.496 413.734 74.496ZM422.405 92.288C421.445 92.288 420.762 92.1493 420.357 91.872C419.952 91.5733 419.706 91.2 419.621 90.752C419.557 90.304 419.525 89.8453 419.525 89.376V78.944C419.525 78.4747 419.568 78.0267 419.653 77.6C419.738 77.152 419.984 76.7893 420.389 76.512C420.794 76.2133 421.477 76.064 422.437 76.064C423.397 76.064 424.069 76.2133 424.453 76.512C424.858 76.7893 425.104 77.152 425.189 77.6C425.274 78.048 425.317 78.5173 425.317 79.008V89.408C425.317 89.8773 425.274 90.336 425.189 90.784C425.104 91.232 424.858 91.5947 424.453 91.872C424.069 92.1493 423.386 92.288 422.405 92.288ZM422.405 74.496C421.445 74.496 420.762 74.3573 420.357 74.08C419.952 73.7813 419.706 73.408 419.621 72.96C419.557 72.512 419.525 72.0533 419.525 71.584C419.525 71.0933 419.568 70.6347 419.653 70.208C419.738 69.76 419.984 69.3973 420.389 69.12C420.794 68.8427 421.477 68.704 422.437 68.704C423.397 68.704 424.069 68.8533 424.453 69.152C424.858 69.4293 425.104 69.792 425.189 70.24C425.274 70.688 425.317 71.1467 425.317 71.616C425.317 72.0853 425.274 72.544 425.189 72.992C425.104 73.44 424.858 73.8027 424.453 74.08C424.069 74.3573 423.386 74.496 422.405 74.496Z" fill="white"/>
</svg>
